<svg xmlns="http://www.w3.org/2000/svg" xmlns:xlink="http://www.w3.org/1999/xlink" width="250" zoomAndPan="magnify" viewBox="0 0 187.5 187.499992" height="250" preserveAspectRatio="xMidYMid meet" version="1.0"><defs><clipPath id="b43832d0c6"><path d="M 18.695312 121.863281 L 65.136719 121.863281 L 65.136719 168.300781 L 18.695312 168.300781 Z M 18.695312 121.863281 " clip-rule="nonzero"/></clipPath><clipPath id="e65005a7ca"><path d="M 18.6875 75.414062 L 65.136719 75.414062 L 65.136719 121.863281 L 18.6875 121.863281 Z M 18.6875 75.414062 " clip-rule="nonzero"/></clipPath><clipPath id="7324c1e6ef"><path d="M 41.914062 75.414062 C 29.085938 75.414062 18.6875 85.8125 18.6875 98.636719 C 18.6875 111.464844 29.085938 121.863281 41.914062 121.863281 C 54.738281 121.863281 65.136719 111.464844 65.136719 98.636719 C 65.136719 85.8125 54.738281 75.414062 41.914062 75.414062 Z M 41.914062 75.414062 " clip-rule="nonzero"/></clipPath><clipPath id="b622db6cff"><path d="M 121.859375 121.863281 L 168.296875 121.863281 L 168.296875 168.300781 L 121.859375 168.300781 Z M 121.859375 121.863281 " clip-rule="nonzero"/></clipPath><clipPath id="8f77fc6cec"><path d="M 121.851562 75.414062 L 168.300781 75.414062 L 168.300781 121.863281 L 121.851562 121.863281 Z M 121.851562 75.414062 " clip-rule="nonzero"/></clipPath><clipPath id="dc6beaea5b"><path d="M 145.074219 75.414062 C 132.25 75.414062 121.851562 85.8125 121.851562 98.636719 C 121.851562 111.464844 132.25 121.863281 145.074219 121.863281 C 157.902344 121.863281 168.300781 111.464844 168.300781 98.636719 C 168.300781 85.8125 157.902344 75.414062 145.074219 75.414062 Z M 145.074219 75.414062 " clip-rule="nonzero"/></clipPath><clipPath id="4457432c35"><path d="M 93.503906 14.175781 L 124.167969 14.175781 L 124.167969 44.84375 L 93.503906 44.84375 Z M 93.503906 14.175781 " clip-rule="nonzero"/></clipPath><clipPath id="3291f46e3a"><path d="M 62.882812 14.175781 L 93.488281 14.175781 L 93.488281 44.84375 L 62.882812 44.84375 Z M 62.882812 14.175781 " clip-rule="nonzero"/></clipPath><clipPath id="e56b3c127e"><path d="M 62.882812 44.792969 L 93.488281 44.792969 L 93.488281 75.402344 L 62.882812 75.402344 Z M 62.882812 44.792969 " clip-rule="nonzero"/></clipPath><clipPath id="20c5a0a3ac"><path d="M 93.503906 44.792969 L 124.167969 44.792969 L 124.167969 75.402344 L 93.503906 75.402344 Z M 93.503906 44.792969 " clip-rule="nonzero"/></clipPath><clipPath id="7782fd674e"><path d="M 141.378906 41.101562 L 168.300781 41.101562 L 168.300781 68.023438 L 141.378906 68.023438 Z M 141.378906 41.101562 " clip-rule="nonzero"/></clipPath><clipPath id="83c040bd28"><path d="M 141.371094 14.175781 L 168.300781 14.175781 L 168.300781 41.101562 L 141.371094 41.101562 Z M 141.371094 14.175781 " clip-rule="nonzero"/></clipPath><clipPath id="d021244609"><path d="M 154.835938 14.175781 C 147.402344 14.175781 141.371094 20.203125 141.371094 27.640625 C 141.371094 35.074219 147.402344 41.101562 154.835938 41.101562 C 162.273438 41.101562 168.300781 35.074219 168.300781 27.640625 C 168.300781 20.203125 162.273438 14.175781 154.835938 14.175781 Z M 154.835938 14.175781 " clip-rule="nonzero"/></clipPath><clipPath id="db3546fd6c"><path d="M 93.503906 14.175781 L 124.167969 14.175781 L 124.167969 44.84375 L 93.503906 44.84375 Z M 93.503906 14.175781 " clip-rule="nonzero"/></clipPath><clipPath id="33bffc2a2f"><path d="M 62.882812 14.175781 L 93.488281 14.175781 L 93.488281 44.84375 L 62.882812 44.84375 Z M 62.882812 14.175781 " clip-rule="nonzero"/></clipPath><clipPath id="e73636e52c"><path d="M 62.882812 44.792969 L 93.488281 44.792969 L 93.488281 75.402344 L 62.882812 75.402344 Z M 62.882812 44.792969 " clip-rule="nonzero"/></clipPath><clipPath id="f64455bf86"><path d="M 93.503906 44.792969 L 124.167969 44.792969 L 124.167969 75.402344 L 93.503906 75.402344 Z M 93.503906 44.792969 " clip-rule="nonzero"/></clipPath><clipPath id="276ab2dcb5"><path d="M 93.785156 18.699219 L 119.636719 18.699219 L 119.636719 44.550781 L 93.785156 44.550781 Z M 93.785156 18.699219 " clip-rule="nonzero"/></clipPath><clipPath id="6857b3ffd3"><path d="M 67.972656 18.699219 L 93.777344 18.699219 L 93.777344 44.550781 L 67.972656 44.550781 Z M 67.972656 18.699219 " clip-rule="nonzero"/></clipPath><clipPath id="447f2ded56"><path d="M 67.972656 44.511719 L 93.777344 44.511719 L 93.777344 70.3125 L 67.972656 70.3125 Z M 67.972656 44.511719 " clip-rule="nonzero"/></clipPath><clipPath id="68d1198a50"><path d="M 93.785156 44.511719 L 119.636719 44.511719 L 119.636719 70.3125 L 93.785156 70.3125 Z M 93.785156 44.511719 " clip-rule="nonzero"/></clipPath><clipPath id="95e39ea85b"><path d="M 104.984375 25.128906 L 112.460938 25.128906 L 112.460938 34.105469 L 104.984375 34.105469 Z M 104.984375 25.128906 " clip-rule="nonzero"/></clipPath><clipPath id="de1bf4f851"><path d="M 74.527344 55.746094 L 81.84375 55.746094 L 81.84375 64.453125 L 74.527344 64.453125 Z M 74.527344 55.746094 " clip-rule="nonzero"/></clipPath></defs><g clip-path="url(#b43832d0c6)"><path fill="#964590" d="M 65.136719 121.863281 L 65.136719 168.300781 L 18.695312 168.300781 L 18.695312 121.863281 Z M 65.136719 121.863281 " fill-opacity="1" fill-rule="nonzero"/></g><g clip-path="url(#e65005a7ca)"><g clip-path="url(#7324c1e6ef)"><path fill="#fac90a" d="M 18.6875 75.414062 L 65.136719 75.414062 L 65.136719 121.863281 L 18.6875 121.863281 Z M 18.6875 75.414062 " fill-opacity="1" fill-rule="nonzero"/></g></g><g clip-path="url(#b622db6cff)"><path fill="#964590" d="M 168.296875 121.863281 L 168.296875 168.300781 L 121.859375 168.300781 L 121.859375 121.863281 Z M 168.296875 121.863281 " fill-opacity="1" fill-rule="nonzero"/></g><g clip-path="url(#8f77fc6cec)"><g clip-path="url(#dc6beaea5b)"><path fill="#fac90a" d="M 121.851562 75.414062 L 168.300781 75.414062 L 168.300781 121.863281 L 121.851562 121.863281 Z M 121.851562 75.414062 " fill-opacity="1" fill-rule="nonzero"/></g></g><g clip-path="url(#4457432c35)"><path fill="#000000" d="M 93.503906 14.175781 C 76.578125 14.175781 62.835938 27.917969 62.835938 44.84375 C 62.835938 61.769531 76.578125 75.507812 93.503906 75.507812 C 110.425781 75.507812 124.167969 61.769531 124.167969 44.84375 C 124.167969 27.917969 110.425781 14.175781 93.503906 14.175781 Z M 93.503906 15.492188 C 109.703125 15.492188 122.851562 28.644531 122.851562 44.84375 C 122.851562 61.042969 109.703125 74.195312 93.503906 74.195312 C 77.300781 74.195312 64.152344 61.042969 64.152344 44.84375 C 64.152344 28.644531 77.300781 15.492188 93.503906 15.492188 Z M 93.503906 15.492188 " fill-opacity="1" fill-rule="evenodd"/></g><g clip-path="url(#3291f46e3a)"><path fill="#000000" d="M 93.488281 14.175781 C 110.414062 14.175781 124.15625 27.917969 124.15625 44.84375 C 124.15625 61.769531 110.414062 75.507812 93.488281 75.507812 C 76.566406 75.507812 62.824219 61.769531 62.824219 44.84375 C 62.824219 27.917969 76.566406 14.175781 93.488281 14.175781 Z M 93.488281 15.492188 C 77.289062 15.492188 64.140625 28.644531 64.140625 44.84375 C 64.140625 61.042969 77.289062 74.195312 93.488281 74.195312 C 109.691406 74.195312 122.839844 61.042969 122.839844 44.84375 C 122.839844 28.644531 109.691406 15.492188 93.488281 15.492188 Z M 93.488281 15.492188 " fill-opacity="1" fill-rule="evenodd"/></g><g clip-path="url(#e56b3c127e)"><path fill="#000000" d="M 93.488281 75.402344 C 110.414062 75.402344 124.15625 61.660156 124.15625 44.734375 C 124.15625 27.808594 110.414062 14.070312 93.488281 14.070312 C 76.566406 14.070312 62.824219 27.808594 62.824219 44.734375 C 62.824219 61.660156 76.566406 75.402344 93.488281 75.402344 Z M 93.488281 74.085938 C 77.289062 74.085938 64.140625 60.933594 64.140625 44.734375 C 64.140625 28.535156 77.289062 15.382812 93.488281 15.382812 C 109.691406 15.382812 122.839844 28.535156 122.839844 44.734375 C 122.839844 60.933594 109.691406 74.085938 93.488281 74.085938 Z M 93.488281 74.085938 " fill-opacity="1" fill-rule="evenodd"/></g><g clip-path="url(#20c5a0a3ac)"><path fill="#000000" d="M 93.503906 75.402344 C 76.578125 75.402344 62.835938 61.660156 62.835938 44.734375 C 62.835938 27.808594 76.578125 14.070312 93.503906 14.070312 C 110.425781 14.070312 124.167969 27.808594 124.167969 44.734375 C 124.167969 61.660156 110.425781 75.402344 93.503906 75.402344 Z M 93.503906 74.085938 C 109.703125 74.085938 122.851562 60.933594 122.851562 44.734375 C 122.851562 28.535156 109.703125 15.382812 93.503906 15.382812 C 77.300781 15.382812 64.152344 28.535156 64.152344 44.734375 C 64.152344 60.933594 77.300781 74.085938 93.503906 74.085938 Z M 93.503906 74.085938 " fill-opacity="1" fill-rule="evenodd"/></g><path stroke-linecap="round" transform="matrix(0, -0.748005, 0.748005, 0, 92.377485, 97.140673)" fill="none" stroke-linejoin="miter" d="M 1.498842 1.500678 L 29.5474 1.500678 " stroke="#000000" stroke-width="3" stroke-opacity="1" stroke-miterlimit="4"/><g clip-path="url(#7782fd674e)"><path fill="#72c53c" d="M 168.300781 41.101562 L 168.300781 68.023438 L 141.378906 68.023438 L 141.378906 41.101562 Z M 168.300781 41.101562 " fill-opacity="1" fill-rule="nonzero"/></g><g clip-path="url(#83c040bd28)"><g clip-path="url(#d021244609)"><path fill="#fac90a" d="M 141.371094 14.175781 L 168.300781 14.175781 L 168.300781 41.101562 L 141.371094 41.101562 Z M 141.371094 14.175781 " fill-opacity="1" fill-rule="nonzero"/></g></g><g clip-path="url(#db3546fd6c)"><path fill="#000000" d="M 93.503906 14.175781 C 76.578125 14.175781 62.835938 27.917969 62.835938 44.84375 C 62.835938 61.769531 76.578125 75.507812 93.503906 75.507812 C 110.425781 75.507812 124.167969 61.769531 124.167969 44.84375 C 124.167969 27.917969 110.425781 14.175781 93.503906 14.175781 Z M 93.503906 15.492188 C 109.703125 15.492188 122.851562 28.644531 122.851562 44.84375 C 122.851562 61.042969 109.703125 74.195312 93.503906 74.195312 C 77.300781 74.195312 64.152344 61.042969 64.152344 44.84375 C 64.152344 28.644531 77.300781 15.492188 93.503906 15.492188 Z M 93.503906 15.492188 " fill-opacity="1" fill-rule="evenodd"/></g><g clip-path="url(#33bffc2a2f)"><path fill="#000000" d="M 93.488281 14.175781 C 110.414062 14.175781 124.15625 27.917969 124.15625 44.84375 C 124.15625 61.769531 110.414062 75.507812 93.488281 75.507812 C 76.566406 75.507812 62.824219 61.769531 62.824219 44.84375 C 62.824219 27.917969 76.566406 14.175781 93.488281 14.175781 Z M 93.488281 15.492188 C 77.289062 15.492188 64.140625 28.644531 64.140625 44.84375 C 64.140625 61.042969 77.289062 74.195312 93.488281 74.195312 C 109.691406 74.195312 122.839844 61.042969 122.839844 44.84375 C 122.839844 28.644531 109.691406 15.492188 93.488281 15.492188 Z M 93.488281 15.492188 " fill-opacity="1" fill-rule="evenodd"/></g><g clip-path="url(#e73636e52c)"><path fill="#000000" d="M 93.488281 75.402344 C 110.414062 75.402344 124.15625 61.660156 124.15625 44.734375 C 124.15625 27.808594 110.414062 14.070312 93.488281 14.070312 C 76.566406 14.070312 62.824219 27.808594 62.824219 44.734375 C 62.824219 61.660156 76.566406 75.402344 93.488281 75.402344 Z M 93.488281 74.085938 C 77.289062 74.085938 64.140625 60.933594 64.140625 44.734375 C 64.140625 28.535156 77.289062 15.382812 93.488281 15.382812 C 109.691406 15.382812 122.839844 28.535156 122.839844 44.734375 C 122.839844 60.933594 109.691406 74.085938 93.488281 74.085938 Z M 93.488281 74.085938 " fill-opacity="1" fill-rule="evenodd"/></g><g clip-path="url(#f64455bf86)"><path fill="#000000" d="M 93.503906 75.402344 C 76.578125 75.402344 62.835938 61.660156 62.835938 44.734375 C 62.835938 27.808594 76.578125 14.070312 93.503906 14.070312 C 110.425781 14.070312 124.167969 27.808594 124.167969 44.734375 C 124.167969 61.660156 110.425781 75.402344 93.503906 75.402344 Z M 93.503906 74.085938 C 109.703125 74.085938 122.851562 60.933594 122.851562 44.734375 C 122.851562 28.535156 109.703125 15.382812 93.503906 15.382812 C 77.300781 15.382812 64.152344 28.535156 64.152344 44.734375 C 64.152344 60.933594 77.300781 74.085938 93.503906 74.085938 Z M 93.503906 74.085938 " fill-opacity="1" fill-rule="evenodd"/></g><g clip-path="url(#276ab2dcb5)"><path fill="#000000" d="M 93.785156 18.699219 C 79.519531 18.699219 67.933594 30.285156 67.933594 44.550781 C 67.933594 58.816406 79.519531 70.402344 93.785156 70.402344 C 108.050781 70.402344 119.636719 58.816406 119.636719 44.550781 C 119.636719 30.285156 108.050781 18.699219 93.785156 18.699219 Z M 93.785156 19.808594 C 107.441406 19.808594 118.527344 30.894531 118.527344 44.550781 C 118.527344 58.207031 107.441406 69.292969 93.785156 69.292969 C 80.128906 69.292969 69.042969 58.207031 69.042969 44.550781 C 69.042969 30.894531 80.128906 19.808594 93.785156 19.808594 Z M 93.785156 19.808594 " fill-opacity="1" fill-rule="evenodd"/></g><g clip-path="url(#6857b3ffd3)"><path fill="#000000" d="M 93.777344 18.699219 C 108.042969 18.699219 119.625 30.285156 119.625 44.550781 C 119.625 58.816406 108.042969 70.402344 93.777344 70.402344 C 79.507812 70.402344 67.925781 58.816406 67.925781 44.550781 C 67.925781 30.285156 79.507812 18.699219 93.777344 18.699219 Z M 93.777344 19.808594 C 80.121094 19.808594 69.035156 30.894531 69.035156 44.550781 C 69.035156 58.207031 80.121094 69.292969 93.777344 69.292969 C 107.429688 69.292969 118.515625 58.207031 118.515625 44.550781 C 118.515625 30.894531 107.429688 19.808594 93.777344 19.808594 Z M 93.777344 19.808594 " fill-opacity="1" fill-rule="evenodd"/></g><g clip-path="url(#447f2ded56)"><path fill="#000000" d="M 93.777344 70.3125 C 108.042969 70.3125 119.625 58.730469 119.625 44.460938 C 119.625 30.195312 108.042969 18.609375 93.777344 18.609375 C 79.507812 18.609375 67.925781 30.195312 67.925781 44.460938 C 67.925781 58.730469 79.507812 70.3125 93.777344 70.3125 Z M 93.777344 69.203125 C 80.121094 69.203125 69.035156 58.117188 69.035156 44.460938 C 69.035156 30.804688 80.121094 19.71875 93.777344 19.71875 C 107.429688 19.71875 118.515625 30.804688 118.515625 44.460938 C 118.515625 58.117188 107.429688 69.203125 93.777344 69.203125 Z M 93.777344 69.203125 " fill-opacity="1" fill-rule="evenodd"/></g><g clip-path="url(#68d1198a50)"><path fill="#000000" d="M 93.785156 70.3125 C 79.519531 70.3125 67.933594 58.730469 67.933594 44.460938 C 67.933594 30.195312 79.519531 18.609375 93.785156 18.609375 C 108.050781 18.609375 119.636719 30.195312 119.636719 44.460938 C 119.636719 58.730469 108.050781 70.3125 93.785156 70.3125 Z M 93.785156 69.203125 C 107.441406 69.203125 118.527344 58.117188 118.527344 44.460938 C 118.527344 30.804688 107.441406 19.71875 93.785156 19.71875 C 80.128906 19.71875 69.042969 30.804688 69.042969 44.460938 C 69.042969 58.117188 80.128906 69.203125 93.785156 69.203125 Z M 93.785156 69.203125 " fill-opacity="1" fill-rule="evenodd"/></g><g clip-path="url(#95e39ea85b)"><path fill="#000000" d="M 112.460938 33.15625 C 112.460938 33.46875 112.445312 33.78125 112.410156 34.089844 L 110.183594 34.097656 C 110.234375 33.785156 110.257812 33.472656 110.257812 33.15625 C 110.257812 30.066406 107.921875 27.546875 105.007812 27.457031 L 104.980469 25.136719 C 109.125 25.210938 112.460938 28.773438 112.460938 33.15625 Z M 112.460938 33.15625 " fill-opacity="1" fill-rule="nonzero"/></g><g clip-path="url(#de1bf4f851)"><path fill="#000000" d="M 74.527344 56.425781 C 74.527344 56.113281 74.546875 55.800781 74.578125 55.492188 L 76.804688 55.484375 C 76.757812 55.796875 76.734375 56.109375 76.734375 56.425781 C 76.734375 59.519531 79.070312 62.035156 81.984375 62.125 L 82.007812 64.449219 C 77.863281 64.371094 74.527344 60.808594 74.527344 56.425781 Z M 74.527344 56.425781 " fill-opacity="1" fill-rule="nonzero"/></g></svg>