<svg xmlns="http://www.w3.org/2000/svg" xmlns:xlink="http://www.w3.org/1999/xlink" width="250" zoomAndPan="magnify" viewBox="0 0 187.5 187.499992" height="250" preserveAspectRatio="xMidYMid meet" version="1.0"><defs><clipPath id="4c37f10eff"><path d="M 3.101562 9.351562 L 49.539062 9.351562 L 49.539062 55.789062 L 3.101562 55.789062 Z M 3.101562 9.351562 " clip-rule="nonzero"/></clipPath><clipPath id="fb26d077cb"><path d="M 3.101562 70.28125 L 49.539062 70.28125 L 49.539062 116.71875 L 3.101562 116.71875 Z M 3.101562 70.28125 " clip-rule="nonzero"/></clipPath><clipPath id="28597b1ac7"><path d="M 3.101562 131.214844 L 49.539062 131.214844 L 49.539062 177.652344 L 3.101562 177.652344 Z M 3.101562 131.214844 " clip-rule="nonzero"/></clipPath><clipPath id="eccc737858"><path d="M 70.277344 47.0625 L 116.714844 47.0625 L 116.714844 93.5 L 70.277344 93.5 Z M 70.277344 47.0625 " clip-rule="nonzero"/></clipPath><clipPath id="e520a57f00"><path d="M 137.664062 9.351562 L 184.113281 9.351562 L 184.113281 55.800781 L 137.664062 55.800781 Z M 137.664062 9.351562 " clip-rule="nonzero"/></clipPath><clipPath id="d538450440"><path d="M 160.890625 9.351562 C 148.0625 9.351562 137.664062 19.75 137.664062 32.574219 C 137.664062 45.402344 148.0625 55.800781 160.890625 55.800781 C 173.714844 55.800781 184.113281 45.402344 184.113281 32.574219 C 184.113281 19.75 173.714844 9.351562 160.890625 9.351562 Z M 160.890625 9.351562 " clip-rule="nonzero"/></clipPath><clipPath id="f68b513eb8"><path d="M 137.664062 93.5 L 184.113281 93.5 L 184.113281 139.953125 L 137.664062 139.953125 Z M 137.664062 93.5 " clip-rule="nonzero"/></clipPath><clipPath id="4b69147e1e"><path d="M 160.890625 93.5 C 148.0625 93.5 137.664062 103.898438 137.664062 116.726562 C 137.664062 129.554688 148.0625 139.953125 160.890625 139.953125 C 173.714844 139.953125 184.113281 129.554688 184.113281 116.726562 C 184.113281 103.898438 173.714844 93.5 160.890625 93.5 Z M 160.890625 93.5 " clip-rule="nonzero"/></clipPath><clipPath id="a478890f4b"><path d="M 70.378906 131.199219 L 116.828125 131.199219 L 116.828125 177.652344 L 70.378906 177.652344 Z M 70.378906 131.199219 " clip-rule="nonzero"/></clipPath><clipPath id="1d9de7c15f"><path d="M 93.601562 131.199219 C 80.777344 131.199219 70.378906 141.597656 70.378906 154.425781 C 70.378906 167.253906 80.777344 177.652344 93.601562 177.652344 C 106.429688 177.652344 116.828125 167.253906 116.828125 154.425781 C 116.828125 141.597656 106.429688 131.199219 93.601562 131.199219 Z M 93.601562 131.199219 " clip-rule="nonzero"/></clipPath></defs><g clip-path="url(#4c37f10eff)"><path fill="#964590" d="M 49.539062 9.351562 L 49.539062 55.789062 L 3.101562 55.789062 L 3.101562 9.351562 Z M 49.539062 9.351562 " fill-opacity="1" fill-rule="nonzero"/></g><g clip-path="url(#fb26d077cb)"><path fill="#964590" d="M 49.539062 70.28125 L 49.539062 116.71875 L 3.101562 116.71875 L 3.101562 70.28125 Z M 49.539062 70.28125 " fill-opacity="1" fill-rule="nonzero"/></g><g clip-path="url(#28597b1ac7)"><path fill="#964590" d="M 49.539062 131.214844 L 49.539062 177.652344 L 3.101562 177.652344 L 3.101562 131.214844 Z M 49.539062 131.214844 " fill-opacity="1" fill-rule="nonzero"/></g><g clip-path="url(#eccc737858)"><path fill="#72c53c" d="M 116.714844 47.0625 L 116.714844 93.5 L 70.277344 93.5 L 70.277344 47.0625 Z M 116.714844 47.0625 " fill-opacity="1" fill-rule="nonzero"/></g><g clip-path="url(#e520a57f00)"><g clip-path="url(#d538450440)"><path fill="#fac90a" d="M 137.664062 9.351562 L 184.113281 9.351562 L 184.113281 55.800781 L 137.664062 55.800781 Z M 137.664062 9.351562 " fill-opacity="1" fill-rule="nonzero"/></g></g><g clip-path="url(#f68b513eb8)"><g clip-path="url(#4b69147e1e)"><path fill="#d73745" d="M 137.664062 93.5 L 184.113281 93.5 L 184.113281 139.953125 L 137.664062 139.953125 Z M 137.664062 93.5 " fill-opacity="1" fill-rule="nonzero"/></g></g><g clip-path="url(#a478890f4b)"><g clip-path="url(#1d9de7c15f)"><path fill="#d73745" d="M 70.378906 131.199219 L 116.828125 131.199219 L 116.828125 177.652344 L 70.378906 177.652344 Z M 70.378906 131.199219 " fill-opacity="1" fill-rule="nonzero"/></g></g><path fill="#000000" d="M 49.46875 152.847656 C 49.570312 152.738281 49.6875 152.648438 49.824219 152.585938 C 49.957031 152.523438 50.097656 152.488281 50.246094 152.484375 C 50.394531 152.476562 50.539062 152.496094 50.679688 152.546875 C 50.820312 152.597656 50.945312 152.675781 51.054688 152.773438 C 51.164062 152.875 51.25 152.992188 51.316406 153.128906 C 51.378906 153.261719 51.414062 153.402344 51.417969 153.554688 C 51.425781 153.703125 51.402344 153.847656 51.351562 153.984375 C 51.300781 154.125 51.226562 154.25 51.125 154.359375 C 51.027344 154.46875 50.910156 154.554688 50.773438 154.621094 C 50.640625 154.683594 50.496094 154.71875 50.347656 154.722656 C 50.199219 154.730469 50.054688 154.710938 49.914062 154.660156 C 49.777344 154.609375 49.652344 154.53125 49.542969 154.433594 C 49.429688 154.332031 49.34375 154.214844 49.28125 154.078125 C 49.21875 153.945312 49.183594 153.800781 49.175781 153.652344 C 49.171875 153.503906 49.191406 153.359375 49.242188 153.222656 C 49.292969 153.082031 49.371094 152.957031 49.46875 152.847656 Z M 52.496094 149.535156 L 52.496094 149.53125 C 52.597656 149.421875 52.714844 149.335938 52.851562 149.273438 C 52.984375 149.210938 53.125 149.175781 53.273438 149.167969 C 53.425781 149.164062 53.566406 149.183594 53.707031 149.234375 C 53.847656 149.285156 53.972656 149.363281 54.082031 149.460938 C 54.191406 149.5625 54.277344 149.679688 54.34375 149.8125 C 54.40625 149.949219 54.441406 150.089844 54.445312 150.238281 C 54.453125 150.386719 54.429688 150.53125 54.378906 150.671875 C 54.328125 150.8125 54.253906 150.9375 54.152344 151.046875 C 54.054688 151.15625 53.9375 151.242188 53.800781 151.304688 C 53.667969 151.371094 53.523438 151.40625 53.375 151.410156 C 53.226562 151.417969 53.082031 151.394531 52.945312 151.34375 C 52.804688 151.292969 52.679688 151.21875 52.570312 151.117188 C 52.460938 151.019531 52.371094 150.902344 52.308594 150.765625 C 52.246094 150.632812 52.210938 150.488281 52.203125 150.339844 C 52.199219 150.191406 52.21875 150.046875 52.269531 149.90625 C 52.320312 149.769531 52.398438 149.644531 52.496094 149.535156 Z M 55.523438 146.21875 C 55.625 146.109375 55.742188 146.023438 55.878906 145.960938 C 56.011719 145.898438 56.152344 145.863281 56.304688 145.855469 C 56.453125 145.847656 56.597656 145.871094 56.734375 145.921875 C 56.875 145.972656 57 146.046875 57.109375 146.148438 C 57.21875 146.25 57.304688 146.367188 57.371094 146.5 C 57.433594 146.636719 57.46875 146.777344 57.472656 146.925781 C 57.480469 147.074219 57.460938 147.21875 57.410156 147.359375 C 57.359375 147.5 57.28125 147.625 57.183594 147.734375 L 57.179688 147.734375 C 57.082031 147.84375 56.964844 147.929688 56.828125 147.992188 C 56.695312 148.054688 56.550781 148.089844 56.402344 148.097656 C 56.253906 148.105469 56.109375 148.082031 55.972656 148.03125 C 55.832031 147.980469 55.707031 147.90625 55.597656 147.804688 C 55.488281 147.703125 55.398438 147.585938 55.335938 147.453125 C 55.273438 147.316406 55.238281 147.175781 55.230469 147.027344 C 55.226562 146.878906 55.246094 146.734375 55.296875 146.59375 C 55.347656 146.453125 55.425781 146.328125 55.523438 146.21875 Z M 58.550781 142.90625 L 58.554688 142.90625 C 58.652344 142.796875 58.769531 142.710938 58.90625 142.648438 C 59.039062 142.585938 59.183594 142.550781 59.332031 142.542969 C 59.480469 142.535156 59.625 142.558594 59.761719 142.609375 C 59.902344 142.660156 60.027344 142.734375 60.136719 142.835938 C 60.246094 142.933594 60.335938 143.054688 60.398438 143.1875 C 60.460938 143.324219 60.496094 143.464844 60.5 143.613281 C 60.507812 143.761719 60.488281 143.90625 60.4375 144.046875 C 60.386719 144.183594 60.308594 144.308594 60.210938 144.421875 C 60.109375 144.53125 59.992188 144.617188 59.855469 144.679688 C 59.722656 144.742188 59.578125 144.777344 59.429688 144.785156 C 59.28125 144.792969 59.136719 144.769531 59 144.71875 C 58.859375 144.667969 58.734375 144.59375 58.625 144.492188 C 58.515625 144.390625 58.425781 144.273438 58.363281 144.140625 C 58.300781 144.003906 58.265625 143.863281 58.261719 143.714844 C 58.253906 143.566406 58.273438 143.421875 58.324219 143.28125 C 58.375 143.140625 58.453125 143.015625 58.550781 142.90625 Z M 61.582031 139.59375 C 61.679688 139.484375 61.796875 139.398438 61.933594 139.332031 C 62.066406 139.269531 62.210938 139.234375 62.359375 139.230469 C 62.507812 139.222656 62.652344 139.246094 62.789062 139.296875 C 62.929688 139.347656 63.054688 139.421875 63.164062 139.523438 C 63.273438 139.621094 63.363281 139.738281 63.425781 139.875 C 63.488281 140.007812 63.523438 140.152344 63.53125 140.300781 C 63.535156 140.449219 63.515625 140.59375 63.464844 140.730469 C 63.414062 140.871094 63.335938 140.996094 63.238281 141.105469 C 63.136719 141.21875 63.019531 141.304688 62.882812 141.367188 C 62.75 141.429688 62.609375 141.464844 62.457031 141.472656 C 62.308594 141.476562 62.167969 141.457031 62.027344 141.40625 C 61.886719 141.355469 61.761719 141.277344 61.652344 141.179688 C 61.542969 141.078125 61.457031 140.960938 61.390625 140.824219 C 61.328125 140.691406 61.292969 140.550781 61.289062 140.402344 C 61.28125 140.253906 61.304688 140.109375 61.355469 139.96875 C 61.402344 139.828125 61.480469 139.703125 61.582031 139.59375 Z M 64.609375 136.28125 C 64.707031 136.171875 64.824219 136.082031 64.960938 136.019531 C 65.09375 135.957031 65.238281 135.921875 65.386719 135.914062 C 65.535156 135.910156 65.679688 135.929688 65.820312 135.980469 C 65.957031 136.03125 66.082031 136.109375 66.191406 136.207031 C 66.304688 136.308594 66.390625 136.425781 66.453125 136.5625 C 66.515625 136.695312 66.550781 136.835938 66.558594 136.984375 C 66.5625 137.136719 66.542969 137.277344 66.492188 137.417969 C 66.441406 137.558594 66.363281 137.683594 66.265625 137.792969 C 66.164062 137.902344 66.046875 137.988281 65.910156 138.054688 C 65.777344 138.117188 65.636719 138.152344 65.488281 138.15625 C 65.339844 138.164062 65.195312 138.140625 65.054688 138.089844 C 64.914062 138.042969 64.789062 137.964844 64.679688 137.863281 C 64.570312 137.765625 64.484375 137.648438 64.417969 137.511719 C 64.355469 137.378906 64.320312 137.234375 64.316406 137.085938 C 64.308594 136.9375 64.332031 136.792969 64.382812 136.65625 C 64.433594 136.515625 64.507812 136.390625 64.609375 136.28125 Z M 67.636719 132.964844 C 67.734375 132.855469 67.851562 132.769531 67.988281 132.707031 C 68.121094 132.644531 68.265625 132.609375 68.414062 132.601562 C 68.5625 132.597656 68.707031 132.617188 68.847656 132.667969 C 68.984375 132.71875 69.109375 132.792969 69.21875 132.894531 C 69.332031 132.996094 69.417969 133.113281 69.480469 133.246094 C 69.542969 133.382812 69.578125 133.523438 69.585938 133.671875 C 69.589844 133.820312 69.570312 133.964844 69.519531 134.105469 C 69.46875 134.246094 69.390625 134.371094 69.292969 134.480469 C 69.191406 134.589844 69.074219 134.675781 68.9375 134.738281 C 68.804688 134.804688 68.664062 134.835938 68.515625 134.84375 C 68.367188 134.851562 68.222656 134.828125 68.082031 134.777344 C 67.941406 134.726562 67.816406 134.652344 67.707031 134.550781 C 67.597656 134.453125 67.511719 134.332031 67.449219 134.199219 C 67.382812 134.0625 67.347656 133.921875 67.34375 133.773438 C 67.335938 133.625 67.359375 133.480469 67.410156 133.339844 C 67.460938 133.203125 67.535156 133.078125 67.636719 132.964844 Z M 70.664062 129.652344 C 70.761719 129.542969 70.882812 129.457031 71.015625 129.394531 C 71.152344 129.332031 71.292969 129.296875 71.441406 129.289062 C 71.589844 129.28125 71.734375 129.304688 71.875 129.355469 C 72.011719 129.40625 72.136719 129.480469 72.25 129.582031 C 72.359375 129.683594 72.445312 129.800781 72.507812 129.933594 C 72.570312 130.070312 72.605469 130.210938 72.613281 130.359375 C 72.617188 130.507812 72.597656 130.652344 72.546875 130.792969 C 72.496094 130.933594 72.421875 131.058594 72.320312 131.167969 C 72.21875 131.277344 72.101562 131.363281 71.96875 131.425781 C 71.832031 131.488281 71.691406 131.523438 71.542969 131.53125 C 71.394531 131.539062 71.25 131.515625 71.109375 131.464844 C 70.96875 131.414062 70.84375 131.339844 70.734375 131.238281 C 70.625 131.136719 70.539062 131.019531 70.476562 130.886719 C 70.410156 130.75 70.378906 130.609375 70.371094 130.460938 C 70.363281 130.3125 70.386719 130.167969 70.4375 130.027344 C 70.488281 129.886719 70.5625 129.761719 70.664062 129.652344 Z M 73.691406 126.339844 C 73.792969 126.230469 73.910156 126.144531 74.042969 126.082031 C 74.179688 126.015625 74.320312 125.984375 74.46875 125.976562 C 74.617188 125.96875 74.761719 125.992188 74.902344 126.042969 C 75.042969 126.09375 75.164062 126.167969 75.277344 126.269531 C 75.386719 126.367188 75.472656 126.484375 75.535156 126.621094 C 75.597656 126.753906 75.632812 126.898438 75.640625 127.046875 C 75.648438 127.195312 75.625 127.339844 75.574219 127.480469 C 75.523438 127.617188 75.449219 127.742188 75.347656 127.855469 C 75.246094 127.964844 75.128906 128.050781 74.996094 128.113281 C 74.859375 128.175781 74.71875 128.210938 74.570312 128.21875 C 74.421875 128.222656 74.277344 128.203125 74.136719 128.152344 C 73.996094 128.101562 73.871094 128.027344 73.761719 127.925781 C 73.652344 127.824219 73.566406 127.707031 73.503906 127.574219 C 73.441406 127.4375 73.40625 127.296875 73.398438 127.148438 C 73.390625 127 73.414062 126.855469 73.464844 126.714844 C 73.515625 126.574219 73.589844 126.449219 73.691406 126.339844 Z M 76.71875 123.027344 C 76.820312 122.917969 76.9375 122.832031 77.070312 122.765625 C 77.207031 122.703125 77.347656 122.667969 77.496094 122.664062 C 77.644531 122.65625 77.789062 122.679688 77.929688 122.726562 C 78.070312 122.777344 78.195312 122.855469 78.304688 122.953125 C 78.414062 123.054688 78.5 123.171875 78.5625 123.308594 C 78.625 123.441406 78.660156 123.585938 78.667969 123.734375 C 78.675781 123.882812 78.652344 124.027344 78.601562 124.164062 C 78.550781 124.304688 78.476562 124.429688 78.375 124.539062 C 78.273438 124.648438 78.15625 124.738281 78.023438 124.800781 C 77.886719 124.863281 77.746094 124.898438 77.597656 124.90625 C 77.449219 124.910156 77.304688 124.890625 77.164062 124.839844 C 77.023438 124.789062 76.898438 124.710938 76.789062 124.613281 C 76.679688 124.511719 76.59375 124.394531 76.53125 124.257812 C 76.46875 124.125 76.433594 123.984375 76.425781 123.835938 C 76.417969 123.683594 76.441406 123.542969 76.492188 123.402344 C 76.542969 123.261719 76.617188 123.136719 76.71875 123.027344 Z M 79.746094 119.714844 C 79.847656 119.601562 79.964844 119.515625 80.097656 119.453125 C 80.234375 119.390625 80.375 119.355469 80.523438 119.347656 C 80.671875 119.34375 80.816406 119.363281 80.957031 119.414062 C 81.097656 119.464844 81.222656 119.542969 81.332031 119.640625 C 81.441406 119.742188 81.527344 119.859375 81.589844 119.996094 C 81.652344 120.128906 81.6875 120.269531 81.695312 120.417969 C 81.703125 120.566406 81.679688 120.710938 81.628906 120.851562 C 81.578125 120.992188 81.503906 121.117188 81.402344 121.226562 C 81.300781 121.335938 81.183594 121.421875 81.050781 121.488281 C 80.914062 121.550781 80.773438 121.585938 80.625 121.589844 C 80.476562 121.597656 80.332031 121.574219 80.191406 121.523438 C 80.050781 121.472656 79.925781 121.398438 79.816406 121.296875 C 79.707031 121.199219 79.621094 121.082031 79.558594 120.945312 C 79.496094 120.8125 79.460938 120.667969 79.453125 120.519531 C 79.445312 120.371094 79.46875 120.226562 79.519531 120.089844 C 79.570312 119.949219 79.644531 119.824219 79.746094 119.714844 Z M 82.773438 116.398438 C 82.875 116.289062 82.992188 116.203125 83.125 116.140625 C 83.261719 116.078125 83.402344 116.042969 83.550781 116.035156 C 83.699219 116.027344 83.84375 116.050781 83.984375 116.101562 C 84.125 116.152344 84.25 116.226562 84.359375 116.328125 C 84.46875 116.429688 84.554688 116.546875 84.617188 116.679688 C 84.679688 116.816406 84.714844 116.957031 84.722656 117.105469 C 84.730469 117.253906 84.707031 117.398438 84.65625 117.539062 C 84.605469 117.679688 84.53125 117.804688 84.429688 117.914062 C 84.328125 118.023438 84.210938 118.109375 84.078125 118.171875 C 83.941406 118.234375 83.800781 118.269531 83.652344 118.277344 C 83.503906 118.285156 83.359375 118.261719 83.21875 118.210938 C 83.078125 118.160156 82.953125 118.085938 82.84375 117.984375 C 82.734375 117.886719 82.648438 117.765625 82.585938 117.632812 C 82.523438 117.496094 82.488281 117.355469 82.480469 117.207031 C 82.472656 117.058594 82.496094 116.914062 82.546875 116.773438 C 82.597656 116.632812 82.671875 116.511719 82.773438 116.398438 Z M 85.800781 113.085938 C 85.902344 112.976562 86.019531 112.890625 86.152344 112.828125 C 86.289062 112.765625 86.429688 112.730469 86.578125 112.722656 C 86.726562 112.714844 86.871094 112.738281 87.011719 112.789062 C 87.152344 112.839844 87.277344 112.914062 87.386719 113.015625 C 87.496094 113.117188 87.582031 113.234375 87.644531 113.367188 C 87.707031 113.503906 87.742188 113.644531 87.75 113.792969 C 87.757812 113.941406 87.734375 114.085938 87.683594 114.226562 C 87.632812 114.367188 87.558594 114.492188 87.457031 114.601562 C 87.355469 114.710938 87.238281 114.796875 87.105469 114.859375 C 86.96875 114.921875 86.828125 114.957031 86.679688 114.964844 C 86.53125 114.972656 86.386719 114.949219 86.246094 114.898438 C 86.105469 114.847656 85.980469 114.773438 85.871094 114.671875 C 85.761719 114.570312 85.675781 114.453125 85.613281 114.320312 C 85.550781 114.183594 85.515625 114.042969 85.507812 113.894531 C 85.5 113.746094 85.523438 113.601562 85.574219 113.460938 C 85.625 113.320312 85.699219 113.195312 85.800781 113.085938 Z M 88.828125 109.773438 C 88.929688 109.664062 89.046875 109.578125 89.179688 109.515625 C 89.316406 109.449219 89.457031 109.414062 89.605469 109.410156 C 89.753906 109.402344 89.898438 109.425781 90.039062 109.476562 C 90.179688 109.527344 90.304688 109.601562 90.414062 109.703125 C 90.523438 109.800781 90.609375 109.917969 90.671875 110.054688 C 90.734375 110.1875 90.769531 110.332031 90.777344 110.480469 C 90.785156 110.628906 90.761719 110.773438 90.710938 110.914062 C 90.660156 111.050781 90.585938 111.175781 90.484375 111.285156 C 90.382812 111.398438 90.265625 111.484375 90.132812 111.546875 C 89.996094 111.609375 89.855469 111.644531 89.707031 111.652344 C 89.558594 111.65625 89.414062 111.636719 89.273438 111.585938 C 89.132812 111.535156 89.007812 111.457031 88.898438 111.359375 C 88.789062 111.257812 88.703125 111.140625 88.640625 111.003906 C 88.578125 110.871094 88.542969 110.730469 88.535156 110.582031 C 88.527344 110.433594 88.550781 110.289062 88.601562 110.148438 C 88.652344 110.007812 88.726562 109.882812 88.828125 109.773438 Z M 91.855469 106.460938 C 91.957031 106.351562 92.074219 106.261719 92.207031 106.199219 C 92.34375 106.136719 92.484375 106.101562 92.632812 106.097656 C 92.78125 106.089844 92.925781 106.109375 93.066406 106.160156 C 93.207031 106.210938 93.332031 106.289062 93.441406 106.386719 C 93.550781 106.488281 93.636719 106.605469 93.699219 106.742188 C 93.765625 106.875 93.796875 107.015625 93.804688 107.167969 C 93.8125 107.316406 93.789062 107.460938 93.738281 107.597656 C 93.6875 107.738281 93.613281 107.863281 93.511719 107.972656 C 93.414062 108.082031 93.292969 108.171875 93.160156 108.234375 C 93.023438 108.296875 92.882812 108.332031 92.734375 108.335938 C 92.585938 108.34375 92.441406 108.324219 92.300781 108.273438 C 92.164062 108.222656 92.039062 108.144531 91.925781 108.046875 C 91.816406 107.945312 91.730469 107.828125 91.667969 107.691406 C 91.605469 107.558594 91.570312 107.414062 91.5625 107.265625 C 91.558594 107.117188 91.578125 106.972656 91.628906 106.835938 C 91.679688 106.695312 91.753906 106.570312 91.855469 106.460938 Z M 94.882812 103.148438 C 94.984375 103.035156 95.101562 102.949219 95.238281 102.886719 C 95.371094 102.824219 95.511719 102.789062 95.660156 102.78125 C 95.808594 102.777344 95.953125 102.796875 96.09375 102.847656 C 96.234375 102.898438 96.359375 102.976562 96.46875 103.074219 C 96.578125 103.175781 96.664062 103.292969 96.726562 103.429688 C 96.792969 103.5625 96.828125 103.703125 96.832031 103.851562 C 96.839844 104 96.816406 104.144531 96.765625 104.285156 C 96.714844 104.425781 96.640625 104.550781 96.539062 104.660156 C 96.441406 104.769531 96.324219 104.855469 96.1875 104.917969 C 96.054688 104.984375 95.910156 105.019531 95.761719 105.023438 C 95.613281 105.03125 95.46875 105.007812 95.328125 104.957031 C 95.191406 104.90625 95.066406 104.832031 94.953125 104.730469 C 94.84375 104.632812 94.757812 104.515625 94.695312 104.378906 C 94.632812 104.246094 94.597656 104.101562 94.589844 103.953125 C 94.585938 103.804688 94.605469 103.660156 94.65625 103.519531 C 94.707031 103.382812 94.785156 103.257812 94.882812 103.148438 Z M 97.910156 99.832031 C 98.011719 99.722656 98.128906 99.636719 98.265625 99.574219 C 98.398438 99.511719 98.539062 99.476562 98.6875 99.46875 C 98.835938 99.460938 98.980469 99.484375 99.121094 99.535156 C 99.261719 99.585938 99.386719 99.660156 99.496094 99.761719 C 99.605469 99.863281 99.691406 99.980469 99.757812 100.113281 C 99.820312 100.25 99.855469 100.390625 99.859375 100.539062 C 99.867188 100.6875 99.84375 100.832031 99.792969 100.972656 C 99.742188 101.113281 99.667969 101.238281 99.566406 101.347656 C 99.46875 101.457031 99.351562 101.542969 99.214844 101.605469 C 99.082031 101.667969 98.9375 101.703125 98.789062 101.710938 C 98.640625 101.71875 98.496094 101.695312 98.355469 101.644531 C 98.21875 101.59375 98.09375 101.519531 97.984375 101.417969 C 97.871094 101.316406 97.785156 101.199219 97.722656 101.066406 C 97.660156 100.929688 97.625 100.789062 97.617188 100.640625 C 97.613281 100.492188 97.632812 100.347656 97.683594 100.207031 C 97.734375 100.066406 97.8125 99.941406 97.910156 99.832031 Z M 100.9375 96.519531 C 101.039062 96.410156 101.15625 96.324219 101.292969 96.261719 C 101.425781 96.199219 101.566406 96.164062 101.714844 96.15625 C 101.867188 96.148438 102.007812 96.171875 102.148438 96.222656 C 102.289062 96.273438 102.414062 96.347656 102.523438 96.449219 C 102.632812 96.546875 102.71875 96.667969 102.785156 96.800781 C 102.847656 96.9375 102.882812 97.078125 102.886719 97.226562 C 102.894531 97.375 102.871094 97.519531 102.820312 97.660156 C 102.769531 97.800781 102.695312 97.921875 102.59375 98.035156 C 102.496094 98.144531 102.378906 98.230469 102.242188 98.292969 C 102.109375 98.355469 101.964844 98.390625 101.816406 98.398438 C 101.667969 98.40625 101.523438 98.382812 101.386719 98.332031 C 101.246094 98.28125 101.121094 98.207031 101.011719 98.105469 C 100.898438 98.003906 100.8125 97.886719 100.75 97.753906 C 100.6875 97.617188 100.652344 97.476562 100.644531 97.328125 C 100.640625 97.179688 100.660156 97.035156 100.710938 96.894531 C 100.761719 96.753906 100.839844 96.628906 100.9375 96.519531 Z M 103.964844 93.207031 C 104.066406 93.097656 104.183594 93.011719 104.320312 92.945312 C 104.453125 92.882812 104.59375 92.847656 104.746094 92.84375 C 104.894531 92.835938 105.039062 92.859375 105.175781 92.910156 C 105.316406 92.960938 105.441406 93.035156 105.550781 93.136719 C 105.660156 93.234375 105.746094 93.351562 105.8125 93.488281 C 105.875 93.621094 105.910156 93.765625 105.914062 93.914062 C 105.921875 94.0625 105.898438 94.207031 105.851562 94.34375 C 105.800781 94.484375 105.722656 94.609375 105.625 94.71875 L 105.621094 94.71875 C 105.523438 94.832031 105.40625 94.917969 105.269531 94.980469 C 105.136719 95.042969 104.992188 95.078125 104.84375 95.085938 C 104.695312 95.089844 104.550781 95.070312 104.414062 95.019531 C 104.273438 94.96875 104.148438 94.890625 104.039062 94.792969 C 103.929688 94.691406 103.839844 94.574219 103.777344 94.4375 C 103.714844 94.304688 103.679688 94.164062 103.671875 94.015625 C 103.667969 93.867188 103.6875 93.722656 103.738281 93.582031 C 103.789062 93.441406 103.867188 93.316406 103.964844 93.207031 Z M 106.992188 89.894531 C 107.09375 89.785156 107.210938 89.695312 107.347656 89.632812 C 107.480469 89.570312 107.625 89.535156 107.773438 89.527344 C 107.921875 89.523438 108.066406 89.542969 108.203125 89.59375 C 108.34375 89.644531 108.46875 89.722656 108.578125 89.820312 C 108.6875 89.921875 108.777344 90.039062 108.839844 90.175781 C 108.902344 90.308594 108.9375 90.449219 108.941406 90.597656 C 108.949219 90.75 108.929688 90.890625 108.878906 91.03125 C 108.828125 91.171875 108.75 91.296875 108.652344 91.40625 C 108.550781 91.515625 108.433594 91.601562 108.296875 91.667969 C 108.164062 91.730469 108.019531 91.765625 107.871094 91.769531 C 107.722656 91.777344 107.578125 91.753906 107.441406 91.707031 C 107.300781 91.65625 107.175781 91.578125 107.066406 91.476562 C 106.957031 91.378906 106.867188 91.261719 106.804688 91.125 C 106.742188 90.992188 106.707031 90.847656 106.703125 90.699219 C 106.695312 90.550781 106.714844 90.40625 106.765625 90.269531 C 106.816406 90.128906 106.894531 90.003906 106.992188 89.894531 Z M 110.023438 86.578125 C 110.121094 86.46875 110.238281 86.382812 110.375 86.320312 C 110.507812 86.257812 110.652344 86.222656 110.800781 86.214844 C 110.949219 86.210938 111.09375 86.230469 111.230469 86.28125 C 111.371094 86.332031 111.496094 86.40625 111.605469 86.507812 C 111.714844 86.609375 111.804688 86.726562 111.867188 86.859375 C 111.929688 86.996094 111.964844 87.136719 111.972656 87.285156 C 111.976562 87.433594 111.957031 87.578125 111.90625 87.71875 C 111.855469 87.859375 111.777344 87.984375 111.679688 88.09375 C 111.578125 88.203125 111.460938 88.289062 111.324219 88.351562 C 111.191406 88.417969 111.050781 88.449219 110.898438 88.457031 C 110.75 88.464844 110.609375 88.441406 110.46875 88.390625 C 110.328125 88.339844 110.203125 88.265625 110.09375 88.164062 C 109.984375 88.066406 109.898438 87.945312 109.832031 87.8125 C 109.769531 87.675781 109.734375 87.535156 109.730469 87.386719 C 109.722656 87.238281 109.746094 87.09375 109.796875 86.953125 C 109.84375 86.816406 109.921875 86.691406 110.023438 86.578125 Z M 113.050781 83.265625 C 113.148438 83.15625 113.265625 83.070312 113.402344 83.007812 C 113.535156 82.945312 113.679688 82.910156 113.828125 82.902344 C 113.976562 82.894531 114.121094 82.917969 114.261719 82.96875 C 114.398438 83.019531 114.523438 83.09375 114.632812 83.195312 C 114.746094 83.296875 114.832031 83.414062 114.894531 83.546875 C 114.957031 83.683594 114.992188 83.824219 115 83.972656 C 115.003906 84.121094 114.984375 84.265625 114.933594 84.40625 C 114.882812 84.546875 114.804688 84.671875 114.707031 84.78125 C 114.605469 84.890625 114.488281 84.976562 114.351562 85.039062 C 114.21875 85.101562 114.078125 85.136719 113.929688 85.144531 C 113.78125 85.152344 113.636719 85.128906 113.496094 85.078125 C 113.355469 85.027344 113.230469 84.953125 113.121094 84.851562 C 113.011719 84.75 112.925781 84.632812 112.859375 84.5 C 112.796875 84.363281 112.761719 84.222656 112.757812 84.074219 C 112.75 83.925781 112.773438 83.78125 112.824219 83.640625 C 112.875 83.5 112.949219 83.375 113.050781 83.265625 Z M 116.078125 79.953125 C 116.175781 79.84375 116.292969 79.757812 116.429688 79.695312 C 116.5625 79.628906 116.707031 79.597656 116.855469 79.589844 C 117.003906 79.582031 117.148438 79.605469 117.289062 79.65625 C 117.425781 79.707031 117.550781 79.78125 117.660156 79.882812 C 117.773438 79.980469 117.859375 80.101562 117.921875 80.234375 C 117.984375 80.371094 118.019531 80.511719 118.027344 80.660156 C 118.03125 80.808594 118.011719 80.953125 117.960938 81.09375 C 117.910156 81.230469 117.832031 81.355469 117.734375 81.46875 C 117.632812 81.578125 117.515625 81.664062 117.378906 81.726562 C 117.246094 81.789062 117.105469 81.824219 116.957031 81.832031 C 116.808594 81.835938 116.664062 81.816406 116.523438 81.765625 C 116.382812 81.714844 116.257812 81.640625 116.148438 81.539062 C 116.039062 81.4375 115.953125 81.320312 115.890625 81.1875 C 115.824219 81.050781 115.789062 80.910156 115.785156 80.761719 C 115.777344 80.613281 115.800781 80.46875 115.851562 80.328125 C 115.902344 80.1875 115.976562 80.0625 116.078125 79.953125 Z M 119.105469 76.640625 C 119.203125 76.53125 119.324219 76.445312 119.457031 76.378906 C 119.59375 76.316406 119.734375 76.28125 119.882812 76.277344 C 120.03125 76.269531 120.175781 76.292969 120.316406 76.34375 C 120.453125 76.390625 120.578125 76.46875 120.691406 76.570312 C 120.800781 76.667969 120.886719 76.785156 120.949219 76.921875 C 121.011719 77.054688 121.046875 77.199219 121.054688 77.347656 C 121.058594 77.496094 121.039062 77.640625 120.988281 77.777344 C 120.9375 77.917969 120.863281 78.042969 120.761719 78.152344 C 120.660156 78.261719 120.542969 78.351562 120.410156 78.414062 C 120.273438 78.476562 120.132812 78.511719 119.984375 78.519531 C 119.835938 78.523438 119.691406 78.503906 119.550781 78.453125 C 119.410156 78.402344 119.285156 78.324219 119.175781 78.226562 C 119.066406 78.125 118.980469 78.007812 118.917969 77.871094 C 118.851562 77.738281 118.820312 77.597656 118.8125 77.449219 C 118.804688 77.296875 118.828125 77.15625 118.878906 77.015625 C 118.929688 76.875 119.003906 76.75 119.105469 76.640625 Z M 122.132812 73.328125 C 122.230469 73.214844 122.351562 73.128906 122.484375 73.066406 C 122.621094 73.003906 122.761719 72.96875 122.910156 72.960938 C 123.058594 72.957031 123.203125 72.976562 123.34375 73.027344 C 123.484375 73.078125 123.605469 73.15625 123.71875 73.253906 C 123.828125 73.355469 123.914062 73.472656 123.976562 73.609375 C 124.039062 73.742188 124.074219 73.882812 124.082031 74.03125 C 124.089844 74.179688 124.066406 74.324219 124.015625 74.464844 C 123.964844 74.605469 123.890625 74.730469 123.789062 74.839844 C 123.6875 74.949219 123.570312 75.035156 123.4375 75.101562 C 123.300781 75.164062 123.160156 75.199219 123.011719 75.203125 C 122.863281 75.210938 122.71875 75.1875 122.578125 75.136719 C 122.4375 75.085938 122.3125 75.011719 122.203125 74.910156 C 122.09375 74.8125 122.007812 74.695312 121.945312 74.558594 C 121.882812 74.425781 121.847656 74.28125 121.839844 74.132812 C 121.832031 73.984375 121.855469 73.839844 121.90625 73.703125 C 121.957031 73.5625 122.03125 73.4375 122.132812 73.328125 Z M 125.160156 70.011719 C 125.261719 69.902344 125.378906 69.816406 125.511719 69.753906 C 125.648438 69.691406 125.789062 69.65625 125.9375 69.648438 C 126.085938 69.640625 126.230469 69.664062 126.371094 69.714844 C 126.511719 69.765625 126.636719 69.839844 126.746094 69.941406 C 126.855469 70.042969 126.941406 70.160156 127.003906 70.292969 C 127.066406 70.429688 127.101562 70.570312 127.109375 70.71875 C 127.117188 70.867188 127.09375 71.011719 127.042969 71.152344 C 126.992188 71.292969 126.917969 71.417969 126.816406 71.527344 C 126.714844 71.636719 126.597656 71.722656 126.464844 71.785156 C 126.328125 71.847656 126.1875 71.882812 126.039062 71.890625 C 125.890625 71.898438 125.746094 71.875 125.605469 71.824219 C 125.464844 71.773438 125.339844 71.699219 125.230469 71.597656 C 125.121094 71.5 125.035156 71.378906 124.972656 71.246094 C 124.910156 71.109375 124.875 70.96875 124.867188 70.820312 C 124.859375 70.671875 124.882812 70.527344 124.933594 70.386719 C 124.984375 70.25 125.058594 70.125 125.160156 70.011719 Z M 128.1875 66.699219 C 128.289062 66.589844 128.40625 66.503906 128.539062 66.441406 C 128.675781 66.378906 128.816406 66.34375 128.964844 66.335938 C 129.113281 66.328125 129.257812 66.351562 129.398438 66.402344 C 129.539062 66.453125 129.664062 66.527344 129.773438 66.628906 C 129.882812 66.730469 129.96875 66.847656 130.03125 66.980469 C 130.09375 67.117188 130.128906 67.257812 130.136719 67.40625 C 130.144531 67.554688 130.121094 67.699219 130.070312 67.839844 C 130.019531 67.980469 129.945312 68.105469 129.84375 68.214844 C 129.742188 68.324219 129.625 68.410156 129.492188 68.472656 C 129.355469 68.535156 129.214844 68.570312 129.066406 68.578125 C 128.917969 68.585938 128.773438 68.5625 128.632812 68.511719 C 128.492188 68.460938 128.367188 68.386719 128.257812 68.285156 C 128.148438 68.183594 128.0625 68.066406 128 67.933594 C 127.9375 67.796875 127.902344 67.65625 127.894531 67.507812 C 127.886719 67.359375 127.910156 67.214844 127.960938 67.074219 C 128.011719 66.933594 128.085938 66.808594 128.1875 66.699219 Z M 131.214844 63.386719 C 131.316406 63.277344 131.433594 63.191406 131.566406 63.128906 C 131.703125 63.0625 131.84375 63.027344 131.992188 63.023438 C 132.140625 63.015625 132.285156 63.039062 132.425781 63.089844 C 132.566406 63.140625 132.691406 63.214844 132.800781 63.316406 C 132.910156 63.414062 132.996094 63.53125 133.058594 63.667969 C 133.121094 63.800781 133.15625 63.945312 133.164062 64.09375 C 133.171875 64.242188 133.148438 64.386719 133.097656 64.527344 C 133.046875 64.664062 132.972656 64.789062 132.871094 64.898438 L 132.871094 64.902344 C 132.769531 65.011719 132.652344 65.097656 132.519531 65.160156 C 132.382812 65.222656 132.242188 65.257812 132.09375 65.265625 C 131.945312 65.269531 131.800781 65.25 131.660156 65.199219 C 131.519531 65.148438 131.394531 65.070312 131.285156 64.972656 C 131.175781 64.871094 131.089844 64.753906 131.027344 64.621094 C 130.964844 64.484375 130.929688 64.34375 130.921875 64.195312 C 130.914062 64.046875 130.9375 63.902344 130.988281 63.761719 C 131.039062 63.621094 131.113281 63.496094 131.214844 63.386719 Z M 134.242188 60.074219 C 134.34375 59.964844 134.460938 59.875 134.59375 59.8125 C 134.730469 59.75 134.871094 59.714844 135.019531 59.710938 C 135.167969 59.703125 135.3125 59.722656 135.453125 59.773438 C 135.59375 59.824219 135.71875 59.902344 135.828125 60 C 135.9375 60.101562 136.023438 60.21875 136.085938 60.355469 C 136.148438 60.488281 136.183594 60.632812 136.191406 60.78125 C 136.199219 60.929688 136.175781 61.074219 136.125 61.210938 C 136.074219 61.351562 136 61.476562 135.898438 61.585938 C 135.796875 61.695312 135.679688 61.785156 135.546875 61.847656 C 135.410156 61.910156 135.269531 61.945312 135.121094 61.949219 C 134.972656 61.957031 134.828125 61.9375 134.6875 61.886719 C 134.546875 61.835938 134.421875 61.757812 134.3125 61.660156 C 134.203125 61.558594 134.117188 61.441406 134.054688 61.304688 C 133.992188 61.171875 133.957031 61.03125 133.949219 60.878906 C 133.941406 60.730469 133.964844 60.585938 134.015625 60.449219 C 134.066406 60.308594 134.140625 60.183594 134.242188 60.074219 Z M 137.269531 56.761719 C 137.371094 56.648438 137.488281 56.5625 137.621094 56.5 C 137.757812 56.4375 137.898438 56.402344 138.046875 56.394531 C 138.195312 56.390625 138.339844 56.410156 138.480469 56.460938 C 138.621094 56.511719 138.746094 56.589844 138.855469 56.6875 C 138.964844 56.789062 139.050781 56.90625 139.113281 57.042969 C 139.175781 57.175781 139.210938 57.316406 139.21875 57.464844 C 139.226562 57.613281 139.203125 57.757812 139.152344 57.898438 C 139.101562 58.039062 139.027344 58.164062 138.925781 58.273438 C 138.824219 58.382812 138.707031 58.46875 138.574219 58.53125 C 138.4375 58.597656 138.296875 58.632812 138.148438 58.636719 C 138 58.644531 137.855469 58.621094 137.714844 58.570312 C 137.574219 58.519531 137.449219 58.445312 137.339844 58.34375 C 137.230469 58.246094 137.144531 58.128906 137.082031 57.992188 C 137.019531 57.859375 136.984375 57.714844 136.976562 57.566406 C 136.96875 57.417969 136.992188 57.273438 137.042969 57.132812 C 137.09375 56.996094 137.167969 56.871094 137.269531 56.761719 Z M 140.296875 53.445312 C 140.398438 53.335938 140.515625 53.25 140.648438 53.1875 C 140.785156 53.125 140.925781 53.089844 141.074219 53.082031 C 141.222656 53.074219 141.367188 53.097656 141.507812 53.148438 C 141.648438 53.199219 141.773438 53.273438 141.882812 53.375 C 141.992188 53.476562 142.078125 53.59375 142.140625 53.726562 C 142.207031 53.863281 142.238281 54.003906 142.246094 54.152344 C 142.253906 54.300781 142.230469 54.445312 142.179688 54.585938 C 142.128906 54.726562 142.054688 54.851562 141.953125 54.960938 C 141.855469 55.070312 141.734375 55.15625 141.601562 55.21875 C 141.464844 55.28125 141.324219 55.316406 141.175781 55.324219 C 141.027344 55.332031 140.882812 55.308594 140.742188 55.257812 C 140.605469 55.207031 140.480469 55.132812 140.367188 55.03125 C 140.257812 54.929688 140.171875 54.8125 140.109375 54.679688 C 140.046875 54.542969 140.011719 54.402344 140.003906 54.253906 C 140 54.105469 140.019531 53.960938 140.070312 53.820312 C 140.121094 53.679688 140.195312 53.554688 140.296875 53.445312 Z M 143.324219 50.132812 C 143.425781 50.023438 143.542969 49.9375 143.679688 49.875 C 143.8125 49.8125 143.953125 49.777344 144.101562 49.769531 C 144.25 49.761719 144.394531 49.785156 144.535156 49.835938 C 144.675781 49.886719 144.800781 49.960938 144.910156 50.0625 C 145.019531 50.164062 145.105469 50.28125 145.167969 50.414062 C 145.234375 50.550781 145.269531 50.691406 145.273438 50.839844 C 145.28125 50.988281 145.257812 51.132812 145.207031 51.273438 C 145.15625 51.414062 145.082031 51.535156 144.980469 51.648438 C 144.882812 51.757812 144.761719 51.84375 144.628906 51.90625 C 144.492188 51.96875 144.351562 52.003906 144.203125 52.011719 C 144.054688 52.019531 143.910156 51.996094 143.769531 51.945312 C 143.632812 51.894531 143.507812 51.820312 143.394531 51.71875 C 143.285156 51.617188 143.199219 51.5 143.136719 51.367188 C 143.074219 51.230469 143.039062 51.089844 143.03125 50.941406 C 143.027344 50.792969 143.046875 50.648438 143.097656 50.507812 C 143.148438 50.367188 143.226562 50.242188 143.324219 50.132812 Z M 143.324219 50.132812 " fill-opacity="1" fill-rule="nonzero"/></svg>