<svg xmlns="http://www.w3.org/2000/svg" xmlns:xlink="http://www.w3.org/1999/xlink" width="250" zoomAndPan="magnify" viewBox="0 0 187.5 187.499992" height="250" preserveAspectRatio="xMidYMid meet" version="1.0"><defs><g/><clipPath id="b934cd3728"><path d="M 81.886719 81.886719 L 105.113281 81.886719 L 105.113281 105.113281 L 81.886719 105.113281 Z M 81.886719 81.886719 " clip-rule="nonzero"/></clipPath><clipPath id="62c48ca4a8"><path d="M 93.5 81.886719 C 87.085938 81.886719 81.886719 87.085938 81.886719 93.5 C 81.886719 99.914062 87.085938 105.113281 93.5 105.113281 C 99.914062 105.113281 105.113281 99.914062 105.113281 93.5 C 105.113281 87.085938 99.914062 81.886719 93.5 81.886719 Z M 93.5 81.886719 " clip-rule="nonzero"/></clipPath><clipPath id="be22406c7c"><path d="M 56.101562 56.101562 L 79.324219 56.101562 L 79.324219 79.324219 L 56.101562 79.324219 Z M 56.101562 56.101562 " clip-rule="nonzero"/></clipPath><clipPath id="c91df73824"><path d="M 67.714844 56.101562 C 61.300781 56.101562 56.101562 61.300781 56.101562 67.714844 C 56.101562 74.125 61.300781 79.324219 67.714844 79.324219 C 74.125 79.324219 79.324219 74.125 79.324219 67.714844 C 79.324219 61.300781 74.125 56.101562 67.714844 56.101562 Z M 67.714844 56.101562 " clip-rule="nonzero"/></clipPath><clipPath id="432c5f8306"><path d="M 107.675781 56.101562 L 130.902344 56.101562 L 130.902344 79.324219 L 107.675781 79.324219 Z M 107.675781 56.101562 " clip-rule="nonzero"/></clipPath><clipPath id="baec6b6b95"><path d="M 119.289062 56.101562 C 112.875 56.101562 107.675781 61.300781 107.675781 67.714844 C 107.675781 74.125 112.875 79.324219 119.289062 79.324219 C 125.703125 79.324219 130.902344 74.125 130.902344 67.714844 C 130.902344 61.300781 125.703125 56.101562 119.289062 56.101562 Z M 119.289062 56.101562 " clip-rule="nonzero"/></clipPath><clipPath id="3144e94ee1"><path d="M 56.101562 107.675781 L 79.324219 107.675781 L 79.324219 130.902344 L 56.101562 130.902344 Z M 56.101562 107.675781 " clip-rule="nonzero"/></clipPath><clipPath id="d6cffae536"><path d="M 67.714844 107.675781 C 61.300781 107.675781 56.101562 112.875 56.101562 119.289062 C 56.101562 125.703125 61.300781 130.902344 67.714844 130.902344 C 74.125 130.902344 79.324219 125.703125 79.324219 119.289062 C 79.324219 112.875 74.125 107.675781 67.714844 107.675781 Z M 67.714844 107.675781 " clip-rule="nonzero"/></clipPath><clipPath id="25bf98b90d"><path d="M 107.675781 107.675781 L 130.902344 107.675781 L 130.902344 130.902344 L 107.675781 130.902344 Z M 107.675781 107.675781 " clip-rule="nonzero"/></clipPath><clipPath id="f5237974ea"><path d="M 119.289062 107.675781 C 112.875 107.675781 107.675781 112.875 107.675781 119.289062 C 107.675781 125.703125 112.875 130.902344 119.289062 130.902344 C 125.703125 130.902344 130.902344 125.703125 130.902344 119.289062 C 130.902344 112.875 125.703125 107.675781 119.289062 107.675781 Z M 119.289062 107.675781 " clip-rule="nonzero"/></clipPath><clipPath id="5ccbeb0e0f"><path d="M 18.699219 16.78125 L 168.300781 16.78125 L 168.300781 170.125 L 18.699219 170.125 Z M 18.699219 16.78125 " clip-rule="nonzero"/></clipPath></defs><g clip-path="url(#b934cd3728)"><g clip-path="url(#62c48ca4a8)"><path fill="#964590" d="M 81.886719 81.886719 L 105.113281 81.886719 L 105.113281 105.113281 L 81.886719 105.113281 Z M 81.886719 81.886719 " fill-opacity="1" fill-rule="nonzero"/></g></g><g fill="#ffffff" fill-opacity="1"><g transform="translate(90.115938, 97.614686)"><g><path d="M 1.078125 0 L 1.078125 -8.546875 L 2.890625 -8.546875 L 2.890625 -1.5 L 6.359375 -1.5 L 6.359375 0 Z M 1.078125 0 "/></g></g></g><g clip-path="url(#be22406c7c)"><g clip-path="url(#c91df73824)"><path fill="#fac90a" d="M 56.101562 56.101562 L 79.324219 56.101562 L 79.324219 79.324219 L 56.101562 79.324219 Z M 56.101562 56.101562 " fill-opacity="1" fill-rule="nonzero"/></g></g><g fill="#000000" fill-opacity="1"><g transform="translate(60.161833, 71.827206)"><g><path d="M 6.3125 0 L 5.6875 -2.03125 L 2.578125 -2.03125 L 1.953125 0 L 0 0 L 3.015625 -8.578125 L 5.234375 -8.578125 L 8.25 0 Z M 5.25 -3.546875 L 4.640625 -5.546875 C 4.597656 -5.671875 4.546875 -5.835938 4.484375 -6.046875 C 4.421875 -6.253906 4.351562 -6.46875 4.28125 -6.6875 C 4.21875 -6.90625 4.164062 -7.09375 4.125 -7.25 C 4.09375 -7.09375 4.039062 -6.894531 3.96875 -6.65625 C 3.90625 -6.425781 3.84375 -6.203125 3.78125 -5.984375 C 3.71875 -5.773438 3.671875 -5.628906 3.640625 -5.546875 L 3.03125 -3.546875 Z M 5.25 -3.546875 "/></g></g><g transform="translate(68.41911, 71.827206)"><g><path d="M 4.9375 0 L 3.140625 0 L 3.140625 -4.9375 C 3.140625 -5.082031 3.140625 -5.253906 3.140625 -5.453125 C 3.148438 -5.648438 3.15625 -5.851562 3.15625 -6.0625 C 3.164062 -6.28125 3.175781 -6.472656 3.1875 -6.640625 C 3.144531 -6.585938 3.054688 -6.5 2.921875 -6.375 C 2.796875 -6.257812 2.675781 -6.148438 2.5625 -6.046875 L 1.578125 -5.265625 L 0.703125 -6.359375 L 3.453125 -8.546875 L 4.9375 -8.546875 Z M 4.9375 0 "/></g></g></g><g clip-path="url(#432c5f8306)"><g clip-path="url(#baec6b6b95)"><path fill="#fac90a" d="M 107.675781 56.101562 L 130.902344 56.101562 L 130.902344 79.324219 L 107.675781 79.324219 Z M 107.675781 56.101562 " fill-opacity="1" fill-rule="nonzero"/></g></g><g fill="#000000" fill-opacity="1"><g transform="translate(111.736795, 71.827206)"><g><path d="M 6.3125 0 L 5.6875 -2.03125 L 2.578125 -2.03125 L 1.953125 0 L 0 0 L 3.015625 -8.578125 L 5.234375 -8.578125 L 8.25 0 Z M 5.25 -3.546875 L 4.640625 -5.546875 C 4.597656 -5.671875 4.546875 -5.835938 4.484375 -6.046875 C 4.421875 -6.253906 4.351562 -6.46875 4.28125 -6.6875 C 4.21875 -6.90625 4.164062 -7.09375 4.125 -7.25 C 4.09375 -7.09375 4.039062 -6.894531 3.96875 -6.65625 C 3.90625 -6.425781 3.84375 -6.203125 3.78125 -5.984375 C 3.71875 -5.773438 3.671875 -5.628906 3.640625 -5.546875 L 3.03125 -3.546875 Z M 5.25 -3.546875 "/></g></g><g transform="translate(119.994072, 71.827206)"><g><path d="M 6.453125 0 L 0.484375 0 L 0.484375 -1.25 L 2.625 -3.421875 C 3.050781 -3.867188 3.394531 -4.238281 3.65625 -4.53125 C 3.925781 -4.832031 4.117188 -5.101562 4.234375 -5.34375 C 4.359375 -5.59375 4.421875 -5.859375 4.421875 -6.140625 C 4.421875 -6.484375 4.320312 -6.738281 4.125 -6.90625 C 3.9375 -7.070312 3.6875 -7.15625 3.375 -7.15625 C 3.039062 -7.15625 2.71875 -7.078125 2.40625 -6.921875 C 2.101562 -6.773438 1.78125 -6.5625 1.4375 -6.28125 L 0.453125 -7.453125 C 0.703125 -7.660156 0.960938 -7.859375 1.234375 -8.046875 C 1.503906 -8.234375 1.820312 -8.382812 2.1875 -8.5 C 2.550781 -8.613281 2.988281 -8.671875 3.5 -8.671875 C 4.0625 -8.671875 4.546875 -8.566406 4.953125 -8.359375 C 5.359375 -8.160156 5.671875 -7.882812 5.890625 -7.53125 C 6.109375 -7.1875 6.21875 -6.796875 6.21875 -6.359375 C 6.21875 -5.878906 6.125 -5.445312 5.9375 -5.0625 C 5.75 -4.675781 5.472656 -4.289062 5.109375 -3.90625 C 4.753906 -3.519531 4.328125 -3.097656 3.828125 -2.640625 L 2.734375 -1.59375 L 2.734375 -1.515625 L 6.453125 -1.515625 Z M 6.453125 0 "/></g></g></g><g clip-path="url(#3144e94ee1)"><g clip-path="url(#d6cffae536)"><path fill="#fac90a" d="M 56.101562 107.675781 L 79.324219 107.675781 L 79.324219 130.902344 L 56.101562 130.902344 Z M 56.101562 107.675781 " fill-opacity="1" fill-rule="nonzero"/></g></g><g fill="#000000" fill-opacity="1"><g transform="translate(60.161833, 123.402159)"><g><path d="M 6.3125 0 L 5.6875 -2.03125 L 2.578125 -2.03125 L 1.953125 0 L 0 0 L 3.015625 -8.578125 L 5.234375 -8.578125 L 8.25 0 Z M 5.25 -3.546875 L 4.640625 -5.546875 C 4.597656 -5.671875 4.546875 -5.835938 4.484375 -6.046875 C 4.421875 -6.253906 4.351562 -6.46875 4.28125 -6.6875 C 4.21875 -6.90625 4.164062 -7.09375 4.125 -7.25 C 4.09375 -7.09375 4.039062 -6.894531 3.96875 -6.65625 C 3.90625 -6.425781 3.84375 -6.203125 3.78125 -5.984375 C 3.71875 -5.773438 3.671875 -5.628906 3.640625 -5.546875 L 3.03125 -3.546875 Z M 5.25 -3.546875 "/></g></g><g transform="translate(68.41911, 123.402159)"><g><path d="M 6.125 -6.640625 C 6.125 -6.242188 6.039062 -5.898438 5.875 -5.609375 C 5.707031 -5.316406 5.484375 -5.078125 5.203125 -4.890625 C 4.929688 -4.710938 4.617188 -4.582031 4.265625 -4.5 L 4.265625 -4.46875 C 4.953125 -4.382812 5.472656 -4.171875 5.828125 -3.828125 C 6.191406 -3.492188 6.375 -3.046875 6.375 -2.484375 C 6.375 -1.984375 6.25 -1.535156 6 -1.140625 C 5.757812 -0.753906 5.382812 -0.445312 4.875 -0.21875 C 4.375 0 3.722656 0.109375 2.921875 0.109375 C 2.453125 0.109375 2.015625 0.0703125 1.609375 0 C 1.203125 -0.0703125 0.816406 -0.1875 0.453125 -0.34375 L 0.453125 -1.875 C 0.816406 -1.6875 1.195312 -1.546875 1.59375 -1.453125 C 2 -1.359375 2.378906 -1.3125 2.734375 -1.3125 C 3.378906 -1.3125 3.832031 -1.421875 4.09375 -1.640625 C 4.351562 -1.867188 4.484375 -2.1875 4.484375 -2.59375 C 4.484375 -2.832031 4.421875 -3.03125 4.296875 -3.1875 C 4.171875 -3.351562 3.957031 -3.476562 3.65625 -3.5625 C 3.363281 -3.65625 2.953125 -3.703125 2.421875 -3.703125 L 1.765625 -3.703125 L 1.765625 -5.078125 L 2.4375 -5.078125 C 2.957031 -5.078125 3.351562 -5.125 3.625 -5.21875 C 3.90625 -5.320312 4.09375 -5.460938 4.1875 -5.640625 C 4.289062 -5.816406 4.34375 -6.015625 4.34375 -6.234375 C 4.34375 -6.535156 4.25 -6.769531 4.0625 -6.9375 C 3.875 -7.113281 3.5625 -7.203125 3.125 -7.203125 C 2.851562 -7.203125 2.601562 -7.164062 2.375 -7.09375 C 2.15625 -7.03125 1.953125 -6.953125 1.765625 -6.859375 C 1.585938 -6.765625 1.429688 -6.671875 1.296875 -6.578125 L 0.46875 -7.828125 C 0.800781 -8.066406 1.191406 -8.265625 1.640625 -8.421875 C 2.085938 -8.585938 2.625 -8.671875 3.25 -8.671875 C 4.132812 -8.671875 4.832031 -8.492188 5.34375 -8.140625 C 5.863281 -7.785156 6.125 -7.285156 6.125 -6.640625 Z M 6.125 -6.640625 "/></g></g></g><g clip-path="url(#25bf98b90d)"><g clip-path="url(#f5237974ea)"><path fill="#fac90a" d="M 107.675781 107.675781 L 130.902344 107.675781 L 130.902344 130.902344 L 107.675781 130.902344 Z M 107.675781 107.675781 " fill-opacity="1" fill-rule="nonzero"/></g></g><g fill="#000000" fill-opacity="1"><g transform="translate(111.736795, 123.402159)"><g><path d="M 6.3125 0 L 5.6875 -2.03125 L 2.578125 -2.03125 L 1.953125 0 L 0 0 L 3.015625 -8.578125 L 5.234375 -8.578125 L 8.25 0 Z M 5.25 -3.546875 L 4.640625 -5.546875 C 4.597656 -5.671875 4.546875 -5.835938 4.484375 -6.046875 C 4.421875 -6.253906 4.351562 -6.46875 4.28125 -6.6875 C 4.21875 -6.90625 4.164062 -7.09375 4.125 -7.25 C 4.09375 -7.09375 4.039062 -6.894531 3.96875 -6.65625 C 3.90625 -6.425781 3.84375 -6.203125 3.78125 -5.984375 C 3.71875 -5.773438 3.671875 -5.628906 3.640625 -5.546875 L 3.03125 -3.546875 Z M 5.25 -3.546875 "/></g></g><g transform="translate(119.994072, 123.402159)"><g><path d="M 6.640625 -1.765625 L 5.609375 -1.765625 L 5.609375 0 L 3.84375 0 L 3.84375 -1.765625 L 0.203125 -1.765625 L 0.203125 -3.03125 L 3.953125 -8.546875 L 5.609375 -8.546875 L 5.609375 -3.171875 L 6.640625 -3.171875 Z M 3.84375 -3.171875 L 3.84375 -4.625 C 3.84375 -4.757812 3.847656 -4.921875 3.859375 -5.109375 C 3.867188 -5.296875 3.875 -5.484375 3.875 -5.671875 C 3.882812 -5.859375 3.894531 -6.023438 3.90625 -6.171875 C 3.914062 -6.316406 3.921875 -6.414062 3.921875 -6.46875 L 3.875 -6.46875 C 3.800781 -6.3125 3.722656 -6.15625 3.640625 -6 C 3.566406 -5.851562 3.472656 -5.703125 3.359375 -5.546875 L 1.796875 -3.171875 Z M 3.84375 -3.171875 "/></g></g></g><path fill="#000000" d="M 67.714844 106.882812 C 67.824219 106.773438 67.953125 106.71875 68.109375 106.71875 C 68.265625 106.71875 68.398438 106.773438 68.507812 106.882812 C 68.617188 106.992188 68.671875 107.121094 68.671875 107.277344 C 68.671875 107.433594 68.617188 107.566406 68.507812 107.675781 C 68.398438 107.785156 68.265625 107.839844 68.109375 107.839844 C 67.953125 107.839844 67.824219 107.785156 67.714844 107.675781 C 67.601562 107.566406 67.546875 107.433594 67.546875 107.277344 C 67.546875 107.125 67.601562 106.992188 67.714844 106.882812 Z M 69.300781 105.292969 C 69.410156 105.183594 69.542969 105.128906 69.695312 105.128906 C 69.851562 105.128906 69.984375 105.183594 70.09375 105.292969 C 70.203125 105.402344 70.257812 105.535156 70.257812 105.691406 C 70.257812 105.847656 70.203125 105.976562 70.09375 106.085938 C 69.984375 106.199219 69.851562 106.253906 69.695312 106.253906 C 69.542969 106.253906 69.410156 106.199219 69.300781 106.085938 C 69.191406 105.976562 69.136719 105.847656 69.136719 105.691406 C 69.136719 105.535156 69.191406 105.402344 69.300781 105.292969 Z M 70.886719 103.707031 C 70.996094 103.597656 71.128906 103.542969 71.285156 103.542969 C 71.4375 103.542969 71.570312 103.597656 71.679688 103.707031 C 71.789062 103.816406 71.84375 103.949219 71.84375 104.105469 C 71.84375 104.257812 71.789062 104.390625 71.679688 104.5 C 71.570312 104.609375 71.4375 104.664062 71.285156 104.664062 C 71.128906 104.664062 70.996094 104.609375 70.886719 104.5 C 70.777344 104.390625 70.722656 104.257812 70.722656 104.105469 C 70.722656 103.949219 70.777344 103.816406 70.886719 103.707031 Z M 72.472656 102.121094 C 72.582031 102.011719 72.714844 101.957031 72.871094 101.957031 C 73.023438 101.957031 73.15625 102.011719 73.265625 102.121094 C 73.375 102.230469 73.429688 102.363281 73.429688 102.515625 C 73.429688 102.671875 73.375 102.804688 73.265625 102.914062 C 73.15625 103.023438 73.023438 103.078125 72.871094 103.078125 C 72.714844 103.078125 72.582031 103.023438 72.472656 102.914062 C 72.363281 102.804688 72.308594 102.671875 72.308594 102.515625 C 72.308594 102.363281 72.363281 102.230469 72.472656 102.121094 Z M 74.058594 100.535156 C 74.167969 100.425781 74.300781 100.371094 74.457031 100.371094 C 74.613281 100.371094 74.746094 100.425781 74.855469 100.535156 C 74.964844 100.644531 75.019531 100.777344 75.019531 100.929688 C 75.019531 101.085938 74.964844 101.21875 74.855469 101.328125 C 74.742188 101.4375 74.613281 101.492188 74.457031 101.492188 C 74.300781 101.492188 74.167969 101.4375 74.058594 101.328125 C 73.949219 101.21875 73.894531 101.085938 73.894531 100.929688 C 73.894531 100.777344 73.949219 100.644531 74.058594 100.535156 Z M 75.648438 98.945312 C 75.757812 98.835938 75.890625 98.78125 76.042969 98.78125 C 76.199219 98.78125 76.332031 98.835938 76.441406 98.945312 C 76.550781 99.054688 76.605469 99.1875 76.605469 99.34375 C 76.605469 99.5 76.550781 99.632812 76.441406 99.742188 C 76.332031 99.851562 76.199219 99.90625 76.042969 99.90625 C 75.890625 99.90625 75.757812 99.851562 75.648438 99.742188 C 75.539062 99.632812 75.484375 99.5 75.484375 99.34375 C 75.484375 99.1875 75.539062 99.058594 75.648438 98.945312 Z M 77.234375 97.359375 C 77.34375 97.25 77.476562 97.195312 77.628906 97.195312 C 77.785156 97.195312 77.917969 97.25 78.027344 97.359375 C 78.136719 97.46875 78.191406 97.601562 78.191406 97.757812 C 78.191406 97.910156 78.136719 98.042969 78.027344 98.152344 C 77.917969 98.261719 77.785156 98.316406 77.628906 98.316406 C 77.476562 98.316406 77.34375 98.261719 77.234375 98.152344 C 77.125 98.042969 77.070312 97.910156 77.070312 97.757812 C 77.070312 97.601562 77.125 97.46875 77.234375 97.359375 Z M 78.820312 95.773438 C 78.929688 95.664062 79.0625 95.609375 79.21875 95.609375 C 79.371094 95.609375 79.503906 95.664062 79.613281 95.773438 C 79.722656 95.882812 79.777344 96.015625 79.777344 96.171875 C 79.777344 96.324219 79.722656 96.457031 79.613281 96.566406 C 79.503906 96.675781 79.371094 96.730469 79.21875 96.730469 C 79.0625 96.730469 78.929688 96.675781 78.820312 96.566406 C 78.710938 96.457031 78.65625 96.324219 78.65625 96.171875 C 78.65625 96.015625 78.710938 95.882812 78.820312 95.773438 Z M 80.40625 94.1875 C 80.515625 94.078125 80.648438 94.023438 80.804688 94.023438 C 80.960938 94.023438 81.089844 94.078125 81.199219 94.1875 C 81.3125 94.296875 81.367188 94.429688 81.367188 94.582031 C 81.367188 94.738281 81.3125 94.871094 81.199219 94.980469 C 81.089844 95.089844 80.960938 95.144531 80.804688 95.144531 C 80.648438 95.144531 80.515625 95.089844 80.40625 94.980469 C 80.296875 94.871094 80.242188 94.738281 80.242188 94.582031 C 80.242188 94.429688 80.296875 94.296875 80.40625 94.1875 Z M 80.40625 94.1875 " fill-opacity="1" fill-rule="nonzero"/><path fill="#000000" d="M 68.507812 79.328125 C 68.617188 79.4375 68.671875 79.570312 68.671875 79.722656 C 68.671875 79.878906 68.617188 80.011719 68.507812 80.121094 C 68.398438 80.230469 68.265625 80.285156 68.109375 80.285156 C 67.953125 80.285156 67.824219 80.230469 67.714844 80.121094 C 67.601562 80.011719 67.546875 79.878906 67.546875 79.722656 C 67.546875 79.570312 67.601562 79.4375 67.714844 79.328125 C 67.824219 79.21875 67.953125 79.164062 68.109375 79.164062 C 68.265625 79.164062 68.398438 79.21875 68.507812 79.328125 Z M 70.09375 80.914062 C 70.203125 81.023438 70.257812 81.15625 70.257812 81.308594 C 70.257812 81.464844 70.203125 81.597656 70.09375 81.707031 C 69.984375 81.816406 69.851562 81.871094 69.695312 81.871094 C 69.542969 81.871094 69.410156 81.816406 69.300781 81.707031 C 69.191406 81.597656 69.136719 81.464844 69.136719 81.308594 C 69.136719 81.15625 69.191406 81.023438 69.300781 80.914062 C 69.410156 80.804688 69.542969 80.75 69.695312 80.75 C 69.851562 80.75 69.984375 80.804688 70.09375 80.914062 Z M 71.679688 82.5 C 71.789062 82.609375 71.84375 82.742188 71.84375 82.898438 C 71.84375 83.050781 71.789062 83.183594 71.679688 83.292969 C 71.570312 83.402344 71.4375 83.457031 71.285156 83.457031 C 71.128906 83.457031 70.996094 83.402344 70.886719 83.292969 C 70.777344 83.183594 70.722656 83.050781 70.722656 82.898438 C 70.722656 82.742188 70.777344 82.609375 70.886719 82.5 C 70.996094 82.390625 71.128906 82.335938 71.285156 82.335938 C 71.4375 82.335938 71.570312 82.390625 71.679688 82.5 Z M 73.265625 84.085938 C 73.375 84.195312 73.429688 84.328125 73.429688 84.484375 C 73.429688 84.640625 73.375 84.769531 73.265625 84.878906 C 73.15625 84.988281 73.023438 85.042969 72.871094 85.042969 C 72.714844 85.042969 72.582031 84.988281 72.472656 84.878906 C 72.363281 84.769531 72.308594 84.640625 72.308594 84.484375 C 72.308594 84.328125 72.363281 84.195312 72.472656 84.085938 C 72.582031 83.976562 72.714844 83.921875 72.871094 83.921875 C 73.023438 83.921875 73.15625 83.976562 73.265625 84.085938 Z M 74.855469 85.675781 C 74.964844 85.785156 75.019531 85.914062 75.019531 86.070312 C 75.019531 86.226562 74.964844 86.359375 74.855469 86.46875 C 74.746094 86.578125 74.613281 86.632812 74.457031 86.632812 C 74.300781 86.632812 74.167969 86.578125 74.058594 86.46875 C 73.949219 86.359375 73.894531 86.226562 73.894531 86.070312 C 73.894531 85.914062 73.949219 85.785156 74.058594 85.675781 C 74.167969 85.5625 74.300781 85.507812 74.457031 85.507812 C 74.613281 85.507812 74.742188 85.5625 74.855469 85.675781 Z M 76.441406 87.261719 C 76.550781 87.371094 76.605469 87.503906 76.605469 87.65625 C 76.605469 87.8125 76.550781 87.945312 76.441406 88.054688 C 76.332031 88.164062 76.199219 88.21875 76.042969 88.21875 C 75.890625 88.21875 75.757812 88.164062 75.648438 88.054688 C 75.539062 87.945312 75.484375 87.8125 75.484375 87.65625 C 75.484375 87.503906 75.539062 87.371094 75.648438 87.261719 C 75.757812 87.152344 75.890625 87.097656 76.042969 87.097656 C 76.199219 87.097656 76.332031 87.152344 76.441406 87.261719 Z M 78.027344 88.847656 C 78.136719 88.957031 78.191406 89.089844 78.191406 89.246094 C 78.191406 89.398438 78.136719 89.53125 78.027344 89.640625 C 77.917969 89.75 77.785156 89.804688 77.628906 89.804688 C 77.476562 89.804688 77.34375 89.75 77.234375 89.640625 C 77.125 89.53125 77.070312 89.398438 77.070312 89.246094 C 77.070312 89.089844 77.125 88.957031 77.234375 88.847656 C 77.34375 88.738281 77.476562 88.683594 77.628906 88.683594 C 77.785156 88.683594 77.917969 88.738281 78.027344 88.847656 Z M 79.613281 90.433594 C 79.722656 90.542969 79.777344 90.675781 79.777344 90.832031 C 79.777344 90.984375 79.722656 91.117188 79.613281 91.226562 C 79.503906 91.335938 79.371094 91.390625 79.21875 91.390625 C 79.0625 91.390625 78.929688 91.335938 78.820312 91.226562 C 78.710938 91.117188 78.65625 90.984375 78.65625 90.832031 C 78.65625 90.675781 78.710938 90.542969 78.820312 90.433594 C 78.929688 90.324219 79.0625 90.269531 79.21875 90.269531 C 79.371094 90.269531 79.503906 90.324219 79.613281 90.433594 Z M 81.199219 92.019531 C 81.3125 92.132812 81.367188 92.261719 81.367188 92.417969 C 81.367188 92.574219 81.3125 92.707031 81.199219 92.816406 C 81.089844 92.925781 80.960938 92.980469 80.804688 92.980469 C 80.648438 92.980469 80.515625 92.925781 80.40625 92.816406 C 80.296875 92.707031 80.242188 92.574219 80.242188 92.417969 C 80.242188 92.261719 80.296875 92.132812 80.40625 92.019531 C 80.515625 91.910156 80.648438 91.855469 80.804688 91.855469 C 80.960938 91.855469 81.089844 91.910156 81.199219 92.019531 Z M 81.199219 92.019531 " fill-opacity="1" fill-rule="nonzero"/><path fill="#000000" d="M 105.113281 92.707031 C 105.222656 92.597656 105.355469 92.542969 105.511719 92.542969 C 105.664062 92.542969 105.796875 92.597656 105.90625 92.707031 C 106.015625 92.816406 106.070312 92.949219 106.070312 93.101562 C 106.070312 93.257812 106.015625 93.390625 105.90625 93.5 C 105.796875 93.609375 105.664062 93.664062 105.511719 93.664062 C 105.355469 93.664062 105.222656 93.609375 105.113281 93.5 C 105.003906 93.390625 104.949219 93.257812 104.949219 93.101562 C 104.949219 92.949219 105.003906 92.816406 105.113281 92.707031 Z M 106.699219 91.121094 C 106.808594 91.011719 106.941406 90.957031 107.097656 90.957031 C 107.25 90.957031 107.382812 91.011719 107.492188 91.121094 C 107.601562 91.230469 107.65625 91.363281 107.65625 91.515625 C 107.65625 91.671875 107.601562 91.804688 107.492188 91.914062 C 107.382812 92.023438 107.25 92.078125 107.097656 92.078125 C 106.941406 92.078125 106.808594 92.023438 106.699219 91.914062 C 106.589844 91.804688 106.535156 91.671875 106.535156 91.515625 C 106.535156 91.363281 106.589844 91.230469 106.699219 91.121094 Z M 108.285156 89.53125 C 108.394531 89.421875 108.527344 89.367188 108.683594 89.367188 C 108.839844 89.367188 108.972656 89.421875 109.082031 89.53125 C 109.191406 89.640625 109.246094 89.773438 109.246094 89.929688 C 109.246094 90.085938 109.191406 90.214844 109.082031 90.328125 C 108.96875 90.4375 108.839844 90.492188 108.683594 90.492188 C 108.527344 90.492188 108.394531 90.4375 108.285156 90.328125 C 108.175781 90.214844 108.121094 90.085938 108.121094 89.929688 C 108.121094 89.773438 108.175781 89.640625 108.285156 89.53125 Z M 109.875 87.945312 C 109.984375 87.835938 110.117188 87.78125 110.269531 87.78125 C 110.425781 87.78125 110.558594 87.835938 110.667969 87.945312 C 110.777344 88.054688 110.832031 88.1875 110.832031 88.34375 C 110.832031 88.496094 110.777344 88.628906 110.667969 88.738281 C 110.558594 88.847656 110.425781 88.902344 110.269531 88.902344 C 110.117188 88.902344 109.984375 88.847656 109.875 88.738281 C 109.765625 88.628906 109.710938 88.496094 109.710938 88.34375 C 109.710938 88.1875 109.765625 88.054688 109.875 87.945312 Z M 111.460938 86.359375 C 111.570312 86.25 111.703125 86.195312 111.855469 86.195312 C 112.011719 86.195312 112.144531 86.25 112.253906 86.359375 C 112.363281 86.46875 112.417969 86.601562 112.417969 86.757812 C 112.417969 86.910156 112.363281 87.042969 112.253906 87.152344 C 112.144531 87.261719 112.011719 87.316406 111.855469 87.316406 C 111.703125 87.316406 111.570312 87.261719 111.460938 87.152344 C 111.351562 87.042969 111.296875 86.910156 111.296875 86.757812 C 111.296875 86.601562 111.351562 86.46875 111.460938 86.359375 Z M 113.046875 84.773438 C 113.15625 84.664062 113.289062 84.609375 113.445312 84.609375 C 113.597656 84.609375 113.730469 84.664062 113.839844 84.773438 C 113.949219 84.882812 114.003906 85.015625 114.003906 85.167969 C 114.003906 85.324219 113.949219 85.457031 113.839844 85.566406 C 113.730469 85.675781 113.597656 85.730469 113.445312 85.730469 C 113.289062 85.730469 113.15625 85.675781 113.046875 85.566406 C 112.9375 85.457031 112.882812 85.324219 112.882812 85.167969 C 112.882812 85.015625 112.9375 84.882812 113.046875 84.773438 Z M 114.632812 83.1875 L 114.632812 83.183594 C 114.742188 83.074219 114.875 83.019531 115.03125 83.019531 C 115.1875 83.019531 115.316406 83.074219 115.425781 83.183594 C 115.539062 83.296875 115.59375 83.425781 115.59375 83.582031 C 115.59375 83.738281 115.539062 83.871094 115.425781 83.980469 C 115.316406 84.089844 115.1875 84.144531 115.03125 84.144531 C 114.875 84.144531 114.742188 84.089844 114.632812 83.980469 C 114.523438 83.871094 114.46875 83.738281 114.46875 83.582031 C 114.46875 83.425781 114.523438 83.296875 114.632812 83.1875 Z M 116.222656 81.597656 C 116.332031 81.488281 116.460938 81.433594 116.617188 81.433594 C 116.773438 81.433594 116.90625 81.488281 117.015625 81.597656 C 117.125 81.707031 117.179688 81.839844 117.179688 81.996094 C 117.179688 82.148438 117.125 82.28125 117.015625 82.390625 C 116.90625 82.5 116.773438 82.554688 116.617188 82.554688 C 116.460938 82.554688 116.332031 82.5 116.222656 82.390625 C 116.113281 82.28125 116.058594 82.148438 116.058594 81.996094 C 116.058594 81.839844 116.113281 81.707031 116.222656 81.597656 Z M 117.808594 80.011719 C 117.917969 79.902344 118.050781 79.847656 118.203125 79.847656 C 118.359375 79.847656 118.492188 79.902344 118.601562 80.011719 C 118.710938 80.121094 118.765625 80.253906 118.765625 80.410156 C 118.765625 80.5625 118.710938 80.695312 118.601562 80.804688 C 118.492188 80.914062 118.359375 80.96875 118.203125 80.96875 C 118.050781 80.96875 117.917969 80.914062 117.808594 80.804688 C 117.699219 80.695312 117.644531 80.5625 117.644531 80.410156 C 117.644531 80.253906 117.699219 80.121094 117.808594 80.011719 Z M 117.808594 80.011719 " fill-opacity="1" fill-rule="nonzero"/><path fill="#000000" d="M 118.492188 107.675781 C 118.382812 107.566406 118.328125 107.433594 118.328125 107.277344 C 118.328125 107.121094 118.382812 106.992188 118.492188 106.882812 C 118.601562 106.773438 118.734375 106.71875 118.890625 106.71875 C 119.042969 106.71875 119.175781 106.773438 119.285156 106.882812 C 119.394531 106.992188 119.449219 107.125 119.449219 107.277344 C 119.449219 107.433594 119.394531 107.566406 119.285156 107.675781 C 119.175781 107.785156 119.042969 107.839844 118.890625 107.839844 C 118.734375 107.839844 118.601562 107.785156 118.492188 107.675781 Z M 116.90625 106.085938 C 116.796875 105.976562 116.742188 105.847656 116.742188 105.691406 C 116.742188 105.535156 116.796875 105.402344 116.90625 105.292969 C 117.015625 105.183594 117.148438 105.128906 117.304688 105.128906 C 117.457031 105.128906 117.589844 105.183594 117.699219 105.292969 C 117.808594 105.402344 117.863281 105.535156 117.863281 105.691406 C 117.863281 105.847656 117.808594 105.976562 117.699219 106.085938 C 117.589844 106.199219 117.457031 106.253906 117.304688 106.253906 C 117.148438 106.253906 117.015625 106.199219 116.90625 106.085938 Z M 115.320312 104.5 C 115.210938 104.390625 115.15625 104.257812 115.15625 104.105469 C 115.15625 103.949219 115.210938 103.816406 115.320312 103.707031 C 115.429688 103.597656 115.5625 103.542969 115.714844 103.542969 C 115.871094 103.542969 116.003906 103.597656 116.113281 103.707031 C 116.222656 103.816406 116.277344 103.949219 116.277344 104.105469 C 116.277344 104.257812 116.222656 104.390625 116.113281 104.5 C 116.003906 104.609375 115.871094 104.664062 115.714844 104.664062 C 115.5625 104.664062 115.429688 104.609375 115.320312 104.5 Z M 113.734375 102.914062 C 113.625 102.804688 113.566406 102.671875 113.566406 102.515625 C 113.566406 102.363281 113.625 102.230469 113.734375 102.121094 C 113.84375 102.011719 113.972656 101.957031 114.128906 101.957031 C 114.285156 101.957031 114.417969 102.011719 114.527344 102.121094 C 114.636719 102.230469 114.691406 102.363281 114.691406 102.515625 C 114.691406 102.671875 114.636719 102.804688 114.527344 102.914062 C 114.417969 103.023438 114.285156 103.078125 114.128906 103.078125 C 113.972656 103.078125 113.84375 103.023438 113.734375 102.914062 Z M 112.144531 101.328125 C 112.035156 101.21875 111.980469 101.085938 111.980469 100.929688 C 111.980469 100.777344 112.035156 100.644531 112.144531 100.535156 C 112.253906 100.425781 112.386719 100.371094 112.542969 100.371094 C 112.699219 100.371094 112.828125 100.425781 112.9375 100.535156 C 113.046875 100.644531 113.105469 100.777344 113.105469 100.929688 C 113.105469 101.085938 113.046875 101.21875 112.9375 101.328125 C 112.828125 101.4375 112.699219 101.492188 112.542969 101.492188 C 112.386719 101.492188 112.253906 101.4375 112.144531 101.328125 Z M 110.558594 99.742188 C 110.449219 99.632812 110.394531 99.5 110.394531 99.34375 C 110.394531 99.1875 110.449219 99.054688 110.558594 98.945312 C 110.667969 98.835938 110.800781 98.78125 110.957031 98.78125 C 111.109375 98.78125 111.242188 98.835938 111.351562 98.945312 C 111.460938 99.058594 111.515625 99.1875 111.515625 99.34375 C 111.515625 99.5 111.460938 99.632812 111.351562 99.742188 C 111.242188 99.851562 111.109375 99.90625 110.957031 99.90625 C 110.800781 99.90625 110.667969 99.851562 110.558594 99.742188 Z M 108.972656 98.152344 C 108.863281 98.042969 108.808594 97.910156 108.808594 97.757812 C 108.808594 97.601562 108.863281 97.46875 108.972656 97.359375 C 109.082031 97.25 109.214844 97.195312 109.367188 97.195312 C 109.523438 97.195312 109.65625 97.25 109.765625 97.359375 C 109.875 97.46875 109.929688 97.601562 109.929688 97.757812 C 109.929688 97.910156 109.875 98.042969 109.765625 98.152344 C 109.65625 98.261719 109.523438 98.316406 109.367188 98.316406 C 109.214844 98.316406 109.082031 98.261719 108.972656 98.152344 Z M 107.386719 96.566406 C 107.277344 96.457031 107.222656 96.324219 107.222656 96.171875 C 107.222656 96.015625 107.277344 95.882812 107.386719 95.773438 C 107.496094 95.664062 107.628906 95.609375 107.78125 95.609375 C 107.9375 95.609375 108.070312 95.664062 108.179688 95.773438 C 108.289062 95.882812 108.34375 96.015625 108.34375 96.171875 C 108.34375 96.324219 108.289062 96.457031 108.179688 96.566406 C 108.070312 96.675781 107.9375 96.730469 107.78125 96.730469 C 107.628906 96.730469 107.496094 96.675781 107.386719 96.566406 Z M 105.796875 94.980469 C 105.6875 94.871094 105.632812 94.738281 105.632812 94.582031 C 105.632812 94.429688 105.6875 94.296875 105.796875 94.1875 C 105.90625 94.078125 106.039062 94.023438 106.195312 94.023438 C 106.351562 94.023438 106.480469 94.078125 106.589844 94.1875 L 106.59375 94.1875 C 106.703125 94.296875 106.757812 94.429688 106.757812 94.582031 C 106.757812 94.738281 106.703125 94.871094 106.59375 94.980469 C 106.480469 95.089844 106.351562 95.144531 106.195312 95.144531 C 106.039062 95.144531 105.90625 95.089844 105.796875 94.980469 Z M 105.796875 94.980469 " fill-opacity="1" fill-rule="nonzero"/><g clip-path="url(#5ccbeb0e0f)"><path fill="#000000" d="M 90.785156 170.085938 C 90.785156 170.085938 90.710938 170.085938 90.710938 170.085938 L 90.34375 170.085938 C 89.121094 170.011719 88.160156 168.980469 88.234375 167.761719 C 88.273438 166.542969 89.34375 165.582031 90.5625 165.65625 L 90.933594 165.65625 C 92.152344 165.730469 93.113281 166.761719 93.074219 167.980469 C 93.039062 169.164062 92.042969 170.125 90.859375 170.125 Z M 101.128906 169.71875 C 100.023438 169.71875 99.0625 168.867188 98.914062 167.722656 C 98.800781 166.503906 99.652344 165.433594 100.871094 165.285156 L 101.203125 165.285156 C 102.421875 165.101562 103.53125 165.988281 103.640625 167.207031 C 103.789062 168.425781 102.902344 169.53125 101.683594 169.644531 L 101.277344 169.644531 C 101.203125 169.679688 101.128906 169.71875 101.054688 169.71875 Z M 80.109375 168.867188 C 79.960938 168.867188 79.847656 168.867188 79.703125 168.832031 L 79.332031 168.757812 C 78.113281 168.535156 77.335938 167.355469 77.59375 166.171875 C 77.816406 164.953125 79 164.179688 80.183594 164.4375 L 80.515625 164.511719 C 81.734375 164.734375 82.507812 165.914062 82.289062 167.09375 C 82.101562 168.167969 81.140625 168.90625 80.109375 168.90625 Z M 111.695312 167.761719 C 110.699219 167.761719 109.8125 167.09375 109.554688 166.097656 C 109.257812 164.917969 109.960938 163.699219 111.140625 163.402344 L 111.476562 163.328125 C 112.65625 162.996094 113.875 163.699219 114.207031 164.878906 C 114.542969 166.0625 113.839844 167.28125 112.65625 167.613281 L 112.289062 167.722656 C 112.101562 167.761719 111.917969 167.796875 111.734375 167.796875 Z M 69.761719 166.097656 C 69.503906 166.097656 69.28125 166.0625 69.023438 165.988281 L 68.65625 165.878906 C 67.507812 165.472656 66.917969 164.179688 67.324219 163.035156 C 67.730469 161.890625 69.023438 161.296875 70.167969 161.703125 L 70.503906 161.816406 C 71.648438 162.222656 72.277344 163.476562 71.832031 164.660156 C 71.5 165.582031 70.648438 166.136719 69.726562 166.136719 Z M 121.855469 164.253906 C 121.007812 164.253906 120.195312 163.773438 119.824219 162.921875 C 119.34375 161.816406 119.824219 160.488281 120.96875 160.007812 L 121.300781 159.859375 C 122.410156 159.378906 123.742188 159.859375 124.222656 161.003906 C 124.699219 162.109375 124.222656 163.441406 123.074219 163.921875 L 122.742188 164.066406 C 122.449219 164.179688 122.152344 164.253906 121.855469 164.253906 Z M 59.9375 161.777344 C 59.566406 161.777344 59.234375 161.703125 58.902344 161.519531 L 58.570312 161.335938 C 57.496094 160.746094 57.089844 159.414062 57.683594 158.34375 C 58.273438 157.273438 59.601562 156.867188 60.675781 157.457031 L 61.007812 157.644531 C 62.078125 158.234375 62.484375 159.5625 61.929688 160.632812 C 61.523438 161.371094 60.75 161.816406 59.972656 161.816406 Z M 131.351562 159.230469 C 130.613281 159.230469 129.910156 158.863281 129.46875 158.195312 C 128.800781 157.164062 129.132812 155.796875 130.167969 155.132812 L 130.464844 154.949219 C 131.5 154.285156 132.867188 154.617188 133.53125 155.648438 C 134.195312 156.683594 133.863281 158.050781 132.828125 158.714844 L 132.496094 158.898438 C 132.128906 159.121094 131.722656 159.230469 131.3125 159.230469 Z M 50.882812 156.019531 C 50.441406 156.019531 49.960938 155.871094 49.554688 155.574219 L 49.257812 155.355469 C 48.296875 154.617188 48.078125 153.210938 48.816406 152.253906 C 49.554688 151.292969 50.957031 151.070312 51.917969 151.808594 L 52.214844 152.03125 C 53.210938 152.769531 53.394531 154.136719 52.65625 155.132812 C 52.214844 155.722656 51.550781 156.019531 50.882812 156.019531 Z M 139.996094 152.878906 C 139.367188 152.878906 138.742188 152.621094 138.296875 152.105469 C 137.484375 151.183594 137.59375 149.777344 138.554688 148.964844 L 138.8125 148.746094 C 139.738281 147.933594 141.140625 148.042969 141.953125 148.964844 C 142.765625 149.890625 142.65625 151.292969 141.734375 152.105469 L 141.4375 152.363281 C 141.03125 152.734375 140.515625 152.878906 139.996094 152.878906 Z M 42.757812 149.003906 C 42.203125 149.003906 41.609375 148.78125 41.203125 148.339844 L 40.945312 148.082031 C 40.097656 147.195312 40.097656 145.789062 40.945312 144.941406 C 41.832031 144.09375 43.238281 144.09375 44.085938 144.941406 L 44.34375 145.199219 C 45.195312 146.050781 45.195312 147.453125 44.34375 148.339844 C 43.902344 148.78125 43.347656 149.003906 42.792969 149.003906 Z M 147.605469 145.3125 C 147.089844 145.3125 146.574219 145.125 146.167969 144.757812 C 145.242188 143.945312 145.132812 142.542969 145.945312 141.617188 L 146.167969 141.359375 C 146.980469 140.4375 148.382812 140.328125 149.308594 141.140625 C 150.230469 141.949219 150.339844 143.355469 149.527344 144.277344 L 149.269531 144.574219 C 148.828125 145.089844 148.199219 145.347656 147.605469 145.347656 Z M 35.738281 140.878906 C 35.070312 140.878906 34.40625 140.585938 33.964844 139.992188 L 33.742188 139.699219 C 33.003906 138.703125 33.222656 137.335938 34.222656 136.597656 C 35.21875 135.859375 36.585938 136.082031 37.324219 137.078125 L 37.546875 137.371094 C 38.285156 138.371094 38.0625 139.734375 37.101562 140.472656 C 36.695312 140.769531 36.253906 140.917969 35.773438 140.917969 Z M 154.074219 136.746094 C 153.667969 136.746094 153.261719 136.632812 152.890625 136.375 C 151.855469 135.710938 151.558594 134.34375 152.226562 133.3125 L 152.410156 133.015625 C 153.074219 131.980469 154.441406 131.6875 155.476562 132.351562 C 156.511719 133.015625 156.808594 134.382812 156.140625 135.414062 L 155.921875 135.746094 C 155.511719 136.414062 154.773438 136.746094 154.074219 136.746094 Z M 29.972656 131.871094 C 29.195312 131.871094 28.421875 131.464844 28.015625 130.726562 L 27.828125 130.394531 C 27.238281 129.324219 27.644531 127.957031 28.714844 127.402344 C 29.789062 126.8125 31.15625 127.21875 31.710938 128.328125 L 31.894531 128.660156 C 32.484375 129.730469 32.078125 131.09375 31.007812 131.648438 C 30.675781 131.835938 30.304688 131.90625 29.9375 131.90625 Z M 159.246094 127.328125 C 158.949219 127.328125 158.617188 127.253906 158.320312 127.144531 C 157.214844 126.628906 156.734375 125.335938 157.214844 124.191406 L 157.359375 123.859375 C 157.878906 122.75 159.171875 122.234375 160.28125 122.75 C 161.386719 123.269531 161.90625 124.558594 161.386719 125.667969 L 161.238281 126 C 160.871094 126.8125 160.058594 127.292969 159.207031 127.292969 Z M 25.539062 122.085938 C 24.652344 122.085938 23.804688 121.53125 23.46875 120.644531 L 23.324219 120.277344 C 22.917969 119.132812 23.507812 117.839844 24.652344 117.433594 C 25.796875 117.027344 27.089844 117.617188 27.496094 118.761719 L 27.609375 119.09375 C 28.015625 120.242188 27.460938 121.53125 26.277344 121.9375 C 26.019531 122.050781 25.761719 122.085938 25.503906 122.085938 Z M 163.011719 117.285156 C 162.792969 117.285156 162.605469 117.285156 162.386719 117.210938 C 161.203125 116.878906 160.539062 115.625 160.871094 114.480469 L 160.980469 114.148438 C 161.3125 112.964844 162.535156 112.300781 163.714844 112.632812 C 164.898438 112.964844 165.5625 114.183594 165.230469 115.367188 L 165.121094 115.734375 C 164.824219 116.695312 163.9375 117.324219 162.976562 117.324219 Z M 22.546875 111.785156 C 21.511719 111.785156 20.589844 111.082031 20.367188 110.050781 L 20.292969 109.679688 C 20.035156 108.5 20.808594 107.316406 21.992188 107.058594 C 23.175781 106.800781 24.355469 107.574219 24.617188 108.757812 L 24.691406 109.089844 C 24.949219 110.269531 24.171875 111.453125 22.988281 111.710938 C 22.84375 111.710938 22.695312 111.746094 22.511719 111.746094 Z M 165.304688 106.800781 C 165.195312 106.800781 165.082031 106.800781 164.972656 106.800781 C 163.753906 106.617188 162.902344 105.507812 163.085938 104.289062 L 163.085938 103.921875 C 163.308594 102.703125 164.417969 101.851562 165.636719 102.039062 C 166.855469 102.222656 167.707031 103.328125 167.519531 104.546875 L 167.519531 104.917969 C 167.300781 106.023438 166.375 106.800781 165.265625 106.800781 Z M 21.03125 101.113281 C 19.886719 101.113281 18.890625 100.226562 18.816406 99.046875 L 18.816406 98.675781 C 18.703125 97.457031 19.628906 96.386719 20.847656 96.3125 C 22.066406 96.242188 23.136719 97.164062 23.210938 98.382812 L 23.210938 98.75 C 23.324219 99.96875 22.398438 101.039062 21.179688 101.113281 C 21.144531 101.113281 21.070312 101.113281 21.03125 101.113281 Z M 166.078125 96.054688 C 164.859375 96.054688 163.863281 95.058594 163.863281 93.839844 L 163.863281 93.472656 C 163.863281 93.472656 163.863281 93.324219 163.863281 93.324219 C 163.863281 92.105469 164.859375 91.109375 166.078125 91.109375 C 167.300781 91.109375 168.296875 92.105469 168.296875 93.324219 L 168.296875 93.472656 C 168.296875 93.472656 168.296875 93.878906 168.296875 93.878906 C 168.296875 95.097656 167.300781 96.09375 166.078125 96.09375 Z M 20.996094 90.40625 C 20.957031 90.40625 20.882812 90.40625 20.847656 90.40625 C 19.628906 90.332031 18.703125 89.261719 18.777344 88.042969 L 18.777344 87.675781 C 18.890625 86.457031 19.960938 85.53125 21.179688 85.644531 C 22.398438 85.71875 23.324219 86.789062 23.210938 88.007812 L 23.210938 88.375 C 23.101562 89.558594 22.140625 90.445312 20.996094 90.445312 Z M 165.339844 85.199219 C 164.269531 85.199219 163.308594 84.386719 163.160156 83.28125 L 163.160156 82.910156 C 162.941406 81.691406 163.789062 80.585938 165.007812 80.402344 C 166.226562 80.214844 167.335938 81.066406 167.519531 82.285156 L 167.519531 82.652344 C 167.742188 83.871094 166.894531 84.980469 165.671875 85.164062 C 165.5625 85.164062 165.453125 85.164062 165.378906 85.164062 Z M 22.511719 79.773438 C 22.363281 79.773438 22.214844 79.773438 22.066406 79.734375 C 20.882812 79.476562 20.109375 78.296875 20.367188 77.113281 L 20.441406 76.746094 C 20.699219 75.5625 21.882812 74.789062 23.0625 75.046875 C 24.246094 75.304688 25.023438 76.488281 24.761719 77.667969 L 24.691406 78 C 24.46875 79.035156 23.542969 79.773438 22.511719 79.773438 Z M 163.160156 74.714844 C 162.199219 74.714844 161.3125 74.085938 161.019531 73.089844 L 160.90625 72.757812 C 160.574219 71.574219 161.238281 70.355469 162.421875 70.023438 C 163.605469 69.691406 164.824219 70.355469 165.15625 71.539062 L 165.265625 71.90625 C 165.601562 73.089844 164.933594 74.308594 163.753906 74.640625 C 163.53125 74.714844 163.347656 74.714844 163.160156 74.714844 Z M 25.503906 69.472656 C 25.242188 69.472656 24.984375 69.433594 24.726562 69.324219 C 23.582031 68.917969 22.988281 67.625 23.398438 66.480469 L 23.542969 66.109375 C 23.988281 64.964844 25.242188 64.375 26.390625 64.820312 C 27.535156 65.261719 28.125 66.515625 27.683594 67.660156 L 27.570312 67.996094 C 27.238281 68.878906 26.390625 69.433594 25.503906 69.433594 Z M 159.503906 64.632812 C 158.652344 64.632812 157.839844 64.15625 157.472656 63.304688 L 157.324219 62.972656 C 156.808594 61.863281 157.324219 60.535156 158.433594 60.054688 C 159.539062 59.539062 160.871094 60.054688 161.351562 61.164062 L 161.5 61.53125 C 162.015625 62.640625 161.5 63.96875 160.390625 64.449219 C 160.09375 64.597656 159.800781 64.632812 159.503906 64.632812 Z M 29.898438 59.648438 C 29.53125 59.648438 29.195312 59.574219 28.863281 59.390625 C 27.792969 58.800781 27.386719 57.472656 27.976562 56.402344 L 28.164062 56.066406 C 28.753906 54.996094 30.082031 54.589844 31.15625 55.183594 C 32.226562 55.773438 32.632812 57.101562 32.042969 58.171875 L 31.855469 58.503906 C 31.449219 59.242188 30.675781 59.648438 29.898438 59.648438 Z M 154.40625 55.144531 C 153.667969 55.144531 152.964844 54.777344 152.519531 54.109375 L 152.335938 53.816406 C 151.671875 52.78125 151.96875 51.414062 153 50.75 C 154.035156 50.085938 155.402344 50.382812 156.066406 51.414062 L 156.253906 51.75 C 156.917969 52.78125 156.621094 54.148438 155.585938 54.8125 C 155.21875 55.035156 154.8125 55.144531 154.40625 55.144531 Z M 35.664062 50.605469 C 35.21875 50.605469 34.738281 50.457031 34.332031 50.160156 C 33.335938 49.421875 33.148438 48.054688 33.890625 47.058594 L 34.109375 46.761719 C 34.851562 45.804688 36.253906 45.582031 37.214844 46.320312 C 38.175781 47.058594 38.394531 48.460938 37.65625 49.421875 L 37.4375 49.71875 C 36.992188 50.308594 36.328125 50.605469 35.664062 50.605469 Z M 148.015625 46.542969 C 147.386719 46.542969 146.757812 46.285156 146.3125 45.765625 L 146.09375 45.507812 C 145.28125 44.585938 145.390625 43.183594 146.3125 42.371094 C 147.238281 41.558594 148.640625 41.667969 149.453125 42.589844 L 149.714844 42.886719 C 150.527344 43.808594 150.414062 45.210938 149.453125 46.023438 C 149.046875 46.394531 148.53125 46.542969 148.015625 46.542969 Z M 42.683594 42.480469 C 42.128906 42.480469 41.535156 42.257812 41.128906 41.816406 C 40.28125 40.964844 40.28125 39.5625 41.128906 38.675781 L 41.390625 38.417969 C 42.277344 37.570312 43.644531 37.570312 44.53125 38.417969 C 45.378906 39.304688 45.378906 40.671875 44.53125 41.558594 L 44.269531 41.816406 C 43.828125 42.257812 43.273438 42.480469 42.71875 42.480469 Z M 140.441406 38.9375 C 139.921875 38.9375 139.40625 38.75 138.960938 38.382812 L 138.703125 38.160156 C 137.78125 37.347656 137.667969 35.945312 138.480469 35.023438 C 139.292969 34.097656 140.699219 33.988281 141.621094 34.800781 L 141.917969 35.058594 C 142.839844 35.871094 142.914062 37.273438 142.140625 38.199219 C 141.695312 38.714844 141.105469 38.9375 140.476562 38.9375 Z M 50.773438 35.464844 C 50.109375 35.464844 49.441406 35.167969 49 34.578125 C 48.261719 33.582031 48.484375 32.214844 49.441406 31.476562 L 49.738281 31.257812 C 50.734375 30.515625 52.101562 30.738281 52.84375 31.734375 C 53.582031 32.734375 53.359375 34.097656 52.363281 34.835938 L 52.066406 35.058594 C 51.660156 35.355469 51.214844 35.503906 50.734375 35.503906 Z M 131.832031 32.511719 C 131.425781 32.511719 131.019531 32.402344 130.648438 32.179688 L 130.355469 31.996094 C 129.320312 31.328125 129.023438 29.964844 129.6875 28.929688 C 130.355469 27.894531 131.722656 27.601562 132.753906 28.265625 L 133.085938 28.449219 C 134.121094 29.113281 134.417969 30.480469 133.753906 31.515625 C 133.347656 32.179688 132.609375 32.546875 131.867188 32.546875 Z M 59.824219 29.707031 C 59.050781 29.707031 58.273438 29.300781 57.867188 28.523438 C 57.277344 27.453125 57.683594 26.085938 58.789062 25.53125 L 59.121094 25.347656 C 60.195312 24.757812 61.5625 25.199219 62.117188 26.269531 C 62.707031 27.34375 62.261719 28.707031 61.191406 29.261719 L 60.859375 29.445312 C 60.527344 29.632812 60.15625 29.707031 59.824219 29.707031 Z M 122.410156 27.414062 C 122.113281 27.414062 121.820312 27.34375 121.523438 27.230469 L 121.191406 27.082031 C 120.082031 26.605469 119.566406 25.273438 120.046875 24.167969 C 120.527344 23.058594 121.855469 22.542969 122.964844 23.023438 L 123.296875 23.167969 C 124.40625 23.648438 124.921875 24.980469 124.40625 26.085938 C 124.035156 26.898438 123.222656 27.414062 122.375 27.414062 Z M 69.652344 25.347656 C 68.730469 25.347656 67.878906 24.792969 67.546875 23.871094 C 67.140625 22.726562 67.730469 21.433594 68.875 21.027344 L 69.246094 20.917969 C 70.390625 20.511719 71.683594 21.140625 72.054688 22.285156 C 72.460938 23.429688 71.832031 24.71875 70.6875 25.089844 L 70.355469 25.199219 C 70.097656 25.273438 69.875 25.347656 69.617188 25.347656 Z M 112.324219 23.796875 C 112.140625 23.796875 111.917969 23.796875 111.734375 23.722656 L 111.363281 23.613281 C 110.179688 23.28125 109.480469 22.0625 109.8125 20.878906 C 110.144531 19.699219 111.363281 18.996094 112.546875 19.328125 L 112.914062 19.441406 C 114.097656 19.773438 114.800781 20.992188 114.46875 22.171875 C 114.207031 23.167969 113.320312 23.796875 112.324219 23.796875 Z M 80.035156 22.542969 C 79 22.542969 78.074219 21.804688 77.855469 20.734375 C 77.632812 19.515625 78.410156 18.371094 79.628906 18.148438 L 79.996094 18.074219 C 81.214844 17.851562 82.363281 18.628906 82.582031 19.847656 C 82.804688 21.066406 82.027344 22.210938 80.808594 22.429688 L 80.441406 22.503906 C 80.292969 22.503906 80.144531 22.542969 80.035156 22.542969 Z M 101.792969 21.730469 C 101.722656 21.730469 101.609375 21.730469 101.535156 21.730469 L 101.167969 21.730469 C 99.949219 21.546875 99.0625 20.472656 99.207031 19.257812 C 99.355469 18.039062 100.429688 17.152344 101.648438 17.300781 L 102.015625 17.300781 C 103.234375 17.484375 104.121094 18.589844 103.976562 19.808594 C 103.828125 20.953125 102.902344 21.765625 101.757812 21.765625 Z M 90.710938 21.285156 C 89.527344 21.285156 88.53125 20.363281 88.496094 19.144531 C 88.457031 17.925781 89.417969 16.894531 90.636719 16.855469 L 91.007812 16.855469 C 92.226562 16.78125 93.261719 17.742188 93.296875 18.996094 C 93.335938 20.214844 92.375 21.25 91.15625 21.285156 L 90.785156 21.285156 C 90.785156 21.285156 90.710938 21.285156 90.710938 21.285156 Z M 90.710938 21.285156 " fill-opacity="1" fill-rule="nonzero"/></g></svg>