<svg xmlns="http://www.w3.org/2000/svg" xmlns:xlink="http://www.w3.org/1999/xlink" width="250" zoomAndPan="magnify" viewBox="0 0 187.5 187.499992" height="250" preserveAspectRatio="xMidYMid meet" version="1.0"><defs><clipPath id="3ecc59e25b"><path d="M 9.351562 132.714844 L 177.652344 132.714844 L 177.652344 151.414062 L 9.351562 151.414062 Z M 9.351562 132.714844 " clip-rule="nonzero"/></clipPath><clipPath id="6d1bff52c6"><path d="M 9.351562 102.007812 L 177.652344 102.007812 L 177.652344 120.707031 L 9.351562 120.707031 Z M 9.351562 102.007812 " clip-rule="nonzero"/></clipPath><clipPath id="084389d105"><path d="M 9.351562 71.339844 L 177.652344 71.339844 L 177.652344 90.039062 L 9.351562 90.039062 Z M 9.351562 71.339844 " clip-rule="nonzero"/></clipPath><clipPath id="8885b1f8dc"><path d="M 9.351562 35.585938 L 177.652344 35.585938 L 177.652344 54.285156 L 9.351562 54.285156 Z M 9.351562 35.585938 " clip-rule="nonzero"/></clipPath></defs><g clip-path="url(#3ecc59e25b)"><path fill="#d73745" d="M 9.351562 132.714844 L 177.652344 132.714844 L 177.652344 151.414062 L 9.351562 151.414062 Z M 9.351562 132.714844 " fill-opacity="1" fill-rule="nonzero"/></g><g clip-path="url(#6d1bff52c6)"><path fill="#d7d8da" d="M 9.351562 102.007812 L 177.652344 102.007812 L 177.652344 120.707031 L 9.351562 120.707031 Z M 9.351562 102.007812 " fill-opacity="1" fill-rule="nonzero"/></g><g clip-path="url(#084389d105)"><path fill="#72c53c" d="M 9.351562 71.339844 L 177.652344 71.339844 L 177.652344 90.039062 L 9.351562 90.039062 Z M 9.351562 71.339844 " fill-opacity="1" fill-rule="nonzero"/></g><g clip-path="url(#8885b1f8dc)"><path fill="#964590" d="M 9.351562 35.585938 L 177.652344 35.585938 L 177.652344 54.285156 L 9.351562 54.285156 Z M 9.351562 35.585938 " fill-opacity="1" fill-rule="nonzero"/></g><path stroke-linecap="butt" transform="matrix(0, -0.748005, 0.748005, 0, 92.00465, 168.301183)" fill="none" stroke-linejoin="miter" d="M 0.000536581 1.999116 L 198.001109 1.999116 " stroke="#fac90a" stroke-width="4" stroke-opacity="1" stroke-miterlimit="4"/><path stroke-linecap="round" transform="matrix(0, -0.748005, 0.748005, 0, 92.00465, 168.301183)" fill="none" stroke-linejoin="round" d="M 190.000664 -4.001218 L 198.001109 1.999116 L 190.000664 7.99945 " stroke="#fac90a" stroke-width="4" stroke-opacity="1" stroke-miterlimit="4"/></svg>