<svg xmlns="http://www.w3.org/2000/svg" xmlns:xlink="http://www.w3.org/1999/xlink" width="250" zoomAndPan="magnify" viewBox="0 0 187.5 187.499992" height="250" preserveAspectRatio="xMidYMid meet" version="1.0"><defs><g/><clipPath id="2535dabd96"><path d="M 18.695312 70.222656 L 65.136719 70.222656 L 65.136719 116.660156 L 18.695312 116.660156 Z M 18.695312 70.222656 " clip-rule="nonzero"/></clipPath><clipPath id="a14df65557"><path d="M 145.023438 70.222656 L 168.300781 70.222656 L 168.300781 93.5 L 145.023438 93.5 Z M 145.023438 70.222656 " clip-rule="nonzero"/></clipPath><clipPath id="6eb1b7d955"><path d="M 121.746094 70.222656 L 145.023438 70.222656 L 145.023438 93.5 L 121.746094 93.5 Z M 121.746094 70.222656 " clip-rule="nonzero"/></clipPath><clipPath id="2ab80b5028"><path d="M 121.746094 93.5 L 145.023438 93.5 L 145.023438 116.777344 L 121.746094 116.777344 Z M 121.746094 93.5 " clip-rule="nonzero"/></clipPath><clipPath id="0e56805ea1"><path d="M 145.023438 93.5 L 168.300781 93.5 L 168.300781 116.777344 L 145.023438 116.777344 Z M 145.023438 93.5 " clip-rule="nonzero"/></clipPath><clipPath id="9fe082d74c"><path d="M 145.023438 76.054688 L 162.480469 76.054688 L 162.480469 93.496094 L 145.023438 93.496094 Z M 145.023438 76.054688 " clip-rule="nonzero"/></clipPath><clipPath id="2bb8bc84f4"><path d="M 127.574219 76.054688 L 145.019531 76.054688 L 145.019531 93.496094 L 127.574219 93.496094 Z M 127.574219 76.054688 " clip-rule="nonzero"/></clipPath><clipPath id="48a3aa7b1f"><path d="M 127.574219 93.5 L 145.019531 93.5 L 145.019531 110.945312 L 127.574219 110.945312 Z M 127.574219 93.5 " clip-rule="nonzero"/></clipPath><clipPath id="a2977fe2dc"><path d="M 145.023438 93.5 L 162.480469 93.5 L 162.480469 110.945312 L 145.023438 110.945312 Z M 145.023438 93.5 " clip-rule="nonzero"/></clipPath><clipPath id="494bdd9e66"><path d="M 145.023438 81.808594 L 156.660156 81.808594 L 156.660156 93.4375 L 145.023438 93.4375 Z M 145.023438 81.808594 " clip-rule="nonzero"/></clipPath><clipPath id="d3f95d179f"><path d="M 133.390625 81.808594 L 145.019531 81.808594 L 145.019531 93.4375 L 133.390625 93.4375 Z M 133.390625 81.808594 " clip-rule="nonzero"/></clipPath><clipPath id="2ca2d7bb84"><path d="M 133.390625 93.441406 L 145.019531 93.441406 L 145.019531 105.070312 L 133.390625 105.070312 Z M 133.390625 93.441406 " clip-rule="nonzero"/></clipPath><clipPath id="f7f2066f26"><path d="M 145.023438 93.441406 L 156.660156 93.441406 L 156.660156 105.070312 L 145.023438 105.070312 Z M 145.023438 93.441406 " clip-rule="nonzero"/></clipPath></defs><g clip-path="url(#2535dabd96)"><path fill="#d7d8da" d="M 65.136719 70.222656 L 65.136719 116.660156 L 18.695312 116.660156 L 18.695312 70.222656 Z M 65.136719 70.222656 " fill-opacity="1" fill-rule="nonzero"/></g><g clip-path="url(#a14df65557)"><path fill="#964590" d="M 145.023438 70.222656 C 132.175781 70.222656 121.746094 80.652344 121.746094 93.5 C 121.746094 106.347656 132.175781 116.777344 145.023438 116.777344 C 157.871094 116.777344 168.300781 106.347656 168.300781 93.5 C 168.300781 80.652344 157.871094 70.222656 145.023438 70.222656 Z M 145.023438 71.222656 C 157.320312 71.222656 167.300781 81.203125 167.300781 93.5 C 167.300781 105.796875 157.320312 115.777344 145.023438 115.777344 C 132.726562 115.777344 122.746094 105.796875 122.746094 93.5 C 122.746094 81.203125 132.726562 71.222656 145.023438 71.222656 Z M 145.023438 71.222656 " fill-opacity="1" fill-rule="evenodd"/></g><g clip-path="url(#6eb1b7d955)"><path fill="#964590" d="M 145.023438 70.222656 C 157.867188 70.222656 168.300781 80.652344 168.300781 93.5 C 168.300781 106.347656 157.867188 116.777344 145.023438 116.777344 C 132.175781 116.777344 121.746094 106.347656 121.746094 93.5 C 121.746094 80.652344 132.175781 70.222656 145.023438 70.222656 Z M 145.023438 71.222656 C 132.726562 71.222656 122.742188 81.203125 122.742188 93.5 C 122.742188 105.796875 132.726562 115.777344 145.023438 115.777344 C 157.316406 115.777344 167.300781 105.796875 167.300781 93.5 C 167.300781 81.203125 157.316406 71.222656 145.023438 71.222656 Z M 145.023438 71.222656 " fill-opacity="1" fill-rule="evenodd"/></g><g clip-path="url(#2ab80b5028)"><path fill="#964590" d="M 145.023438 116.777344 C 157.867188 116.777344 168.300781 106.347656 168.300781 93.5 C 168.300781 80.652344 157.867188 70.222656 145.023438 70.222656 C 132.175781 70.222656 121.746094 80.652344 121.746094 93.5 C 121.746094 106.347656 132.175781 116.777344 145.023438 116.777344 Z M 145.023438 115.78125 C 132.726562 115.78125 122.742188 105.796875 122.742188 93.5 C 122.742188 81.207031 132.726562 71.222656 145.023438 71.222656 C 157.316406 71.222656 167.300781 81.207031 167.300781 93.5 C 167.300781 105.796875 157.316406 115.78125 145.023438 115.78125 Z M 145.023438 115.78125 " fill-opacity="1" fill-rule="evenodd"/></g><g clip-path="url(#0e56805ea1)"><path fill="#964590" d="M 145.023438 116.777344 C 132.175781 116.777344 121.746094 106.347656 121.746094 93.5 C 121.746094 80.652344 132.175781 70.222656 145.023438 70.222656 C 157.871094 70.222656 168.300781 80.652344 168.300781 93.5 C 168.300781 106.347656 157.871094 116.777344 145.023438 116.777344 Z M 145.023438 115.78125 C 157.320312 115.78125 167.300781 105.796875 167.300781 93.5 C 167.300781 81.207031 157.320312 71.222656 145.023438 71.222656 C 132.726562 71.222656 122.746094 81.207031 122.746094 93.5 C 122.746094 105.796875 132.726562 115.78125 145.023438 115.78125 Z M 145.023438 115.78125 " fill-opacity="1" fill-rule="evenodd"/></g><g clip-path="url(#9fe082d74c)"><path fill="#964590" d="M 145.023438 76.054688 C 135.394531 76.054688 127.582031 83.871094 127.582031 93.496094 C 127.582031 103.125 135.394531 110.941406 145.023438 110.941406 C 154.652344 110.941406 162.46875 103.125 162.46875 93.496094 C 162.46875 83.871094 154.652344 76.054688 145.023438 76.054688 Z M 145.023438 76.800781 C 154.238281 76.800781 161.71875 84.28125 161.71875 93.496094 C 161.71875 102.710938 154.238281 110.191406 145.023438 110.191406 C 135.808594 110.191406 128.328125 102.710938 128.328125 93.496094 C 128.328125 84.28125 135.808594 76.800781 145.023438 76.800781 Z M 145.023438 76.800781 " fill-opacity="1" fill-rule="evenodd"/></g><g clip-path="url(#2bb8bc84f4)"><path fill="#964590" d="M 145.019531 76.054688 C 154.644531 76.054688 162.460938 83.871094 162.460938 93.496094 C 162.460938 103.125 154.644531 110.941406 145.019531 110.941406 C 135.390625 110.941406 127.574219 103.125 127.574219 93.496094 C 127.574219 83.871094 135.390625 76.054688 145.019531 76.054688 Z M 145.019531 76.800781 C 135.804688 76.800781 128.324219 84.28125 128.324219 93.496094 C 128.324219 102.710938 135.804688 110.191406 145.019531 110.191406 C 154.234375 110.191406 161.714844 102.710938 161.714844 93.496094 C 161.714844 84.28125 154.234375 76.800781 145.019531 76.800781 Z M 145.019531 76.800781 " fill-opacity="1" fill-rule="evenodd"/></g><g clip-path="url(#48a3aa7b1f)"><path fill="#964590" d="M 145.019531 110.945312 C 154.644531 110.945312 162.460938 103.128906 162.460938 93.5 C 162.460938 83.875 154.644531 76.058594 145.019531 76.058594 C 135.390625 76.058594 127.574219 83.875 127.574219 93.5 C 127.574219 103.128906 135.390625 110.945312 145.019531 110.945312 Z M 145.019531 110.195312 C 135.804688 110.195312 128.324219 102.714844 128.324219 93.5 C 128.324219 84.285156 135.804688 76.804688 145.019531 76.804688 C 154.234375 76.804688 161.714844 84.285156 161.714844 93.5 C 161.714844 102.714844 154.234375 110.195312 145.019531 110.195312 Z M 145.019531 110.195312 " fill-opacity="1" fill-rule="evenodd"/></g><g clip-path="url(#a2977fe2dc)"><path fill="#964590" d="M 145.023438 110.945312 C 135.394531 110.945312 127.582031 103.128906 127.582031 93.5 C 127.582031 83.875 135.394531 76.058594 145.023438 76.058594 C 154.652344 76.058594 162.46875 83.875 162.46875 93.5 C 162.46875 103.128906 154.652344 110.945312 145.023438 110.945312 Z M 145.023438 110.195312 C 154.238281 110.195312 161.71875 102.714844 161.71875 93.5 C 161.71875 84.285156 154.238281 76.804688 145.023438 76.804688 C 135.808594 76.804688 128.328125 84.285156 128.328125 93.5 C 128.328125 102.714844 135.808594 110.195312 145.023438 110.195312 Z M 145.023438 110.195312 " fill-opacity="1" fill-rule="evenodd"/></g><g clip-path="url(#494bdd9e66)"><path fill="#964590" d="M 145.023438 81.808594 C 138.605469 81.808594 133.394531 87.019531 133.394531 93.4375 C 133.394531 99.855469 138.605469 105.066406 145.023438 105.066406 C 151.441406 105.066406 156.652344 99.855469 156.652344 93.4375 C 156.652344 87.019531 151.441406 81.808594 145.023438 81.808594 Z M 145.023438 82.308594 C 151.164062 82.308594 156.152344 87.296875 156.152344 93.4375 C 156.152344 99.578125 151.164062 104.566406 145.023438 104.566406 C 138.882812 104.566406 133.894531 99.578125 133.894531 93.4375 C 133.894531 87.296875 138.882812 82.308594 145.023438 82.308594 Z M 145.023438 82.308594 " fill-opacity="1" fill-rule="evenodd"/></g><g clip-path="url(#d3f95d179f)"><path fill="#964590" d="M 145.019531 81.808594 C 151.4375 81.808594 156.648438 87.019531 156.648438 93.4375 C 156.648438 99.855469 151.4375 105.066406 145.019531 105.066406 C 138.601562 105.066406 133.390625 99.855469 133.390625 93.4375 C 133.390625 87.019531 138.601562 81.808594 145.019531 81.808594 Z M 145.019531 82.308594 C 138.875 82.308594 133.890625 87.296875 133.890625 93.4375 C 133.890625 99.578125 138.875 104.566406 145.019531 104.566406 C 151.160156 104.566406 156.148438 99.578125 156.148438 93.4375 C 156.148438 87.296875 151.160156 82.308594 145.019531 82.308594 Z M 145.019531 82.308594 " fill-opacity="1" fill-rule="evenodd"/></g><g clip-path="url(#2ca2d7bb84)"><path fill="#964590" d="M 145.019531 105.070312 C 151.4375 105.070312 156.648438 99.859375 156.648438 93.441406 C 156.648438 87.023438 151.4375 81.8125 145.019531 81.8125 C 138.601562 81.8125 133.390625 87.023438 133.390625 93.441406 C 133.390625 99.859375 138.601562 105.070312 145.019531 105.070312 Z M 145.019531 104.570312 C 138.875 104.570312 133.890625 99.582031 133.890625 93.441406 C 133.890625 87.300781 138.875 82.3125 145.019531 82.3125 C 151.160156 82.3125 156.148438 87.300781 156.148438 93.441406 C 156.148438 99.582031 151.160156 104.570312 145.019531 104.570312 Z M 145.019531 104.570312 " fill-opacity="1" fill-rule="evenodd"/></g><g clip-path="url(#f7f2066f26)"><path fill="#964590" d="M 145.023438 105.070312 C 138.605469 105.070312 133.394531 99.859375 133.394531 93.441406 C 133.394531 87.023438 138.605469 81.8125 145.023438 81.8125 C 151.441406 81.8125 156.652344 87.023438 156.652344 93.441406 C 156.652344 99.859375 151.441406 105.070312 145.023438 105.070312 Z M 145.023438 104.570312 C 151.164062 104.570312 156.152344 99.582031 156.152344 93.441406 C 156.152344 87.300781 151.164062 82.3125 145.023438 82.3125 C 138.882812 82.3125 133.894531 87.300781 133.894531 93.441406 C 133.894531 99.582031 138.882812 104.570312 145.023438 104.570312 Z M 145.023438 104.570312 " fill-opacity="1" fill-rule="evenodd"/></g><g fill="#000000" fill-opacity="1"><g transform="translate(36.194766, 101.669269)"><g><path d="M 3.21875 -5.671875 L 3.21875 -6.53125 C 3.21875 -7.0625 3.289062 -7.53125 3.4375 -7.9375 C 3.59375 -8.351562 3.832031 -8.742188 4.15625 -9.109375 C 4.488281 -9.484375 4.921875 -9.863281 5.453125 -10.25 C 5.941406 -10.59375 6.332031 -10.898438 6.625 -11.171875 C 6.914062 -11.441406 7.128906 -11.710938 7.265625 -11.984375 C 7.398438 -12.253906 7.46875 -12.5625 7.46875 -12.90625 C 7.46875 -13.40625 7.28125 -13.785156 6.90625 -14.046875 C 6.53125 -14.316406 6.007812 -14.453125 5.34375 -14.453125 C 4.675781 -14.453125 4.007812 -14.347656 3.34375 -14.140625 C 2.6875 -13.929688 2.019531 -13.65625 1.34375 -13.3125 L 0.0625 -15.875 C 0.84375 -16.3125 1.6875 -16.660156 2.59375 -16.921875 C 3.507812 -17.191406 4.507812 -17.328125 5.59375 -17.328125 C 7.257812 -17.328125 8.550781 -16.925781 9.46875 -16.125 C 10.382812 -15.332031 10.84375 -14.320312 10.84375 -13.09375 C 10.84375 -12.4375 10.738281 -11.867188 10.53125 -11.390625 C 10.332031 -10.910156 10.023438 -10.460938 9.609375 -10.046875 C 9.191406 -9.640625 8.671875 -9.210938 8.046875 -8.765625 C 7.578125 -8.421875 7.21875 -8.128906 6.96875 -7.890625 C 6.71875 -7.660156 6.546875 -7.429688 6.453125 -7.203125 C 6.367188 -6.972656 6.328125 -6.695312 6.328125 -6.375 L 6.328125 -5.671875 Z M 2.859375 -1.671875 C 2.859375 -2.398438 3.054688 -2.910156 3.453125 -3.203125 C 3.859375 -3.503906 4.34375 -3.65625 4.90625 -3.65625 C 5.457031 -3.65625 5.929688 -3.503906 6.328125 -3.203125 C 6.734375 -2.910156 6.9375 -2.398438 6.9375 -1.671875 C 6.9375 -0.972656 6.734375 -0.46875 6.328125 -0.15625 C 5.929688 0.15625 5.457031 0.3125 4.90625 0.3125 C 4.34375 0.3125 3.859375 0.15625 3.453125 -0.15625 C 3.054688 -0.46875 2.859375 -0.972656 2.859375 -1.671875 Z M 2.859375 -1.671875 "/></g></g></g><path fill="#fac90a" d="M 66.261719 92.320312 C 66.410156 92.320312 66.554688 92.347656 66.691406 92.40625 C 66.828125 92.464844 66.949219 92.542969 67.054688 92.648438 C 67.160156 92.753906 67.242188 92.875 67.296875 93.015625 C 67.355469 93.152344 67.382812 93.292969 67.382812 93.445312 C 67.382812 93.59375 67.351562 93.734375 67.296875 93.871094 C 67.238281 94.011719 67.15625 94.132812 67.050781 94.238281 C 66.949219 94.339844 66.824219 94.421875 66.6875 94.480469 C 66.550781 94.535156 66.40625 94.566406 66.257812 94.5625 C 66.109375 94.5625 65.96875 94.535156 65.828125 94.480469 C 65.691406 94.421875 65.570312 94.339844 65.464844 94.234375 C 65.359375 94.128906 65.28125 94.007812 65.222656 93.871094 C 65.167969 93.734375 65.136719 93.589844 65.136719 93.441406 C 65.136719 93.292969 65.167969 93.148438 65.222656 93.011719 C 65.28125 92.875 65.363281 92.753906 65.46875 92.648438 C 65.574219 92.542969 65.695312 92.460938 65.832031 92.40625 C 65.96875 92.347656 66.113281 92.320312 66.261719 92.320312 Z M 70.75 92.324219 C 70.898438 92.324219 71.042969 92.355469 71.179688 92.410156 C 71.316406 92.46875 71.4375 92.550781 71.542969 92.65625 C 71.648438 92.761719 71.730469 92.882812 71.785156 93.019531 C 71.84375 93.15625 71.871094 93.300781 71.871094 93.449219 C 71.871094 93.597656 71.839844 93.738281 71.785156 93.878906 C 71.726562 94.015625 71.644531 94.136719 71.539062 94.242188 C 71.4375 94.347656 71.3125 94.425781 71.175781 94.484375 C 71.039062 94.539062 70.894531 94.570312 70.746094 94.570312 C 70.597656 94.570312 70.457031 94.539062 70.316406 94.484375 C 70.179688 94.425781 70.058594 94.34375 69.953125 94.238281 C 69.847656 94.132812 69.769531 94.011719 69.710938 93.875 C 69.65625 93.738281 69.625 93.59375 69.625 93.445312 C 69.625 93.296875 69.65625 93.152344 69.710938 93.015625 C 69.769531 92.878906 69.851562 92.757812 69.957031 92.652344 C 70.0625 92.546875 70.183594 92.46875 70.320312 92.410156 C 70.457031 92.351562 70.601562 92.324219 70.75 92.324219 Z M 75.238281 92.328125 C 75.386719 92.328125 75.53125 92.359375 75.667969 92.414062 C 75.804688 92.472656 75.925781 92.554688 76.03125 92.660156 C 76.136719 92.765625 76.21875 92.886719 76.273438 93.023438 C 76.332031 93.160156 76.359375 93.304688 76.359375 93.453125 C 76.359375 93.601562 76.328125 93.746094 76.273438 93.882812 C 76.214844 94.019531 76.132812 94.140625 76.027344 94.246094 C 75.925781 94.351562 75.800781 94.433594 75.664062 94.488281 C 75.527344 94.546875 75.382812 94.574219 75.234375 94.574219 C 75.085938 94.574219 74.941406 94.546875 74.804688 94.488281 C 74.667969 94.429688 74.546875 94.351562 74.441406 94.246094 C 74.335938 94.140625 74.257812 94.019531 74.199219 93.878906 C 74.140625 93.742188 74.113281 93.597656 74.113281 93.449219 C 74.113281 93.300781 74.144531 93.160156 74.199219 93.019531 C 74.257812 92.882812 74.339844 92.761719 74.445312 92.65625 C 74.550781 92.550781 74.671875 92.472656 74.808594 92.414062 C 74.945312 92.359375 75.089844 92.328125 75.238281 92.328125 Z M 79.726562 92.335938 C 79.875 92.335938 80.019531 92.363281 80.15625 92.421875 C 80.292969 92.476562 80.414062 92.558594 80.519531 92.664062 C 80.625 92.769531 80.707031 92.890625 80.761719 93.027344 C 80.820312 93.164062 80.847656 93.308594 80.847656 93.457031 C 80.847656 93.605469 80.816406 93.75 80.761719 93.886719 C 80.703125 94.023438 80.621094 94.144531 80.515625 94.25 C 80.410156 94.355469 80.289062 94.4375 80.152344 94.492188 C 80.015625 94.550781 79.871094 94.578125 79.722656 94.578125 C 79.574219 94.578125 79.429688 94.550781 79.292969 94.492188 C 79.15625 94.4375 79.035156 94.355469 78.929688 94.25 C 78.824219 94.144531 78.746094 94.023438 78.6875 93.886719 C 78.628906 93.746094 78.601562 93.605469 78.601562 93.457031 C 78.601562 93.304688 78.632812 93.164062 78.6875 93.027344 C 78.746094 92.886719 78.828125 92.765625 78.933594 92.664062 C 79.039062 92.558594 79.160156 92.476562 79.296875 92.417969 C 79.433594 92.363281 79.578125 92.335938 79.726562 92.335938 Z M 84.214844 92.339844 C 84.363281 92.339844 84.507812 92.367188 84.644531 92.425781 C 84.78125 92.480469 84.902344 92.5625 85.007812 92.667969 C 85.113281 92.773438 85.195312 92.894531 85.25 93.03125 C 85.308594 93.171875 85.335938 93.3125 85.335938 93.460938 C 85.335938 93.609375 85.304688 93.753906 85.25 93.890625 C 85.191406 94.027344 85.109375 94.148438 85.003906 94.253906 C 84.898438 94.359375 84.777344 94.441406 84.640625 94.5 C 84.503906 94.554688 84.359375 94.582031 84.210938 94.582031 C 84.0625 94.582031 83.917969 94.554688 83.78125 94.496094 C 83.644531 94.441406 83.523438 94.359375 83.417969 94.253906 C 83.3125 94.148438 83.234375 94.027344 83.175781 93.890625 C 83.117188 93.753906 83.089844 93.609375 83.089844 93.460938 C 83.089844 93.3125 83.121094 93.167969 83.175781 93.03125 C 83.234375 92.894531 83.316406 92.773438 83.421875 92.667969 C 83.527344 92.5625 83.648438 92.480469 83.785156 92.425781 C 83.921875 92.367188 84.066406 92.339844 84.214844 92.339844 Z M 88.703125 92.34375 C 88.851562 92.34375 88.996094 92.371094 89.132812 92.429688 C 89.269531 92.488281 89.390625 92.566406 89.496094 92.671875 C 89.601562 92.777344 89.683594 92.898438 89.738281 93.039062 C 89.796875 93.175781 89.824219 93.316406 89.824219 93.46875 C 89.824219 93.617188 89.792969 93.757812 89.738281 93.894531 C 89.679688 94.035156 89.597656 94.15625 89.492188 94.261719 C 89.386719 94.367188 89.265625 94.445312 89.128906 94.503906 C 88.992188 94.558594 88.847656 94.589844 88.699219 94.589844 C 88.550781 94.585938 88.40625 94.558594 88.269531 94.503906 C 88.132812 94.445312 88.011719 94.363281 87.90625 94.257812 C 87.800781 94.152344 87.722656 94.03125 87.664062 93.894531 C 87.605469 93.757812 87.578125 93.613281 87.578125 93.464844 C 87.578125 93.316406 87.609375 93.171875 87.664062 93.035156 C 87.722656 92.898438 87.804688 92.777344 87.910156 92.671875 C 88.015625 92.566406 88.136719 92.484375 88.273438 92.429688 C 88.410156 92.371094 88.554688 92.34375 88.703125 92.34375 Z M 93.191406 92.347656 C 93.339844 92.347656 93.484375 92.378906 93.621094 92.433594 C 93.757812 92.492188 93.878906 92.574219 93.984375 92.679688 C 94.089844 92.785156 94.167969 92.90625 94.226562 93.042969 C 94.285156 93.179688 94.3125 93.324219 94.3125 93.472656 C 94.3125 93.621094 94.28125 93.765625 94.226562 93.902344 C 94.167969 94.039062 94.085938 94.160156 93.980469 94.265625 C 93.875 94.371094 93.753906 94.449219 93.617188 94.507812 C 93.480469 94.566406 93.335938 94.59375 93.1875 94.59375 C 93.039062 94.59375 92.894531 94.5625 92.757812 94.507812 C 92.621094 94.449219 92.5 94.367188 92.394531 94.261719 C 92.289062 94.15625 92.210938 94.035156 92.152344 93.898438 C 92.09375 93.761719 92.066406 93.617188 92.066406 93.46875 C 92.066406 93.320312 92.097656 93.175781 92.152344 93.039062 C 92.210938 92.902344 92.292969 92.78125 92.398438 92.675781 C 92.503906 92.570312 92.625 92.492188 92.761719 92.433594 C 92.898438 92.375 93.042969 92.347656 93.191406 92.347656 Z M 97.679688 92.351562 C 97.828125 92.355469 97.972656 92.382812 98.109375 92.4375 C 98.246094 92.496094 98.367188 92.578125 98.472656 92.683594 C 98.578125 92.789062 98.65625 92.910156 98.714844 93.046875 C 98.773438 93.183594 98.800781 93.328125 98.800781 93.476562 C 98.800781 93.625 98.769531 93.769531 98.714844 93.90625 C 98.65625 94.042969 98.574219 94.164062 98.46875 94.269531 C 98.363281 94.375 98.242188 94.457031 98.105469 94.511719 C 97.96875 94.570312 97.824219 94.597656 97.675781 94.597656 C 97.527344 94.597656 97.382812 94.570312 97.246094 94.511719 C 97.109375 94.453125 96.988281 94.375 96.882812 94.269531 C 96.777344 94.164062 96.699219 94.042969 96.640625 93.902344 C 96.582031 93.765625 96.554688 93.621094 96.554688 93.472656 C 96.554688 93.324219 96.585938 93.183594 96.640625 93.042969 C 96.699219 92.90625 96.78125 92.785156 96.886719 92.679688 C 96.992188 92.574219 97.113281 92.496094 97.25 92.4375 C 97.386719 92.382812 97.53125 92.351562 97.679688 92.351562 Z M 102.167969 92.359375 C 102.316406 92.359375 102.460938 92.386719 102.597656 92.445312 C 102.734375 92.5 102.855469 92.582031 102.960938 92.6875 C 103.066406 92.792969 103.144531 92.914062 103.203125 93.050781 C 103.261719 93.1875 103.289062 93.332031 103.289062 93.480469 C 103.289062 93.628906 103.257812 93.773438 103.203125 93.910156 C 103.144531 94.046875 103.0625 94.167969 102.957031 94.273438 C 102.851562 94.378906 102.730469 94.460938 102.59375 94.515625 C 102.457031 94.574219 102.3125 94.601562 102.164062 94.601562 C 102.015625 94.601562 101.871094 94.574219 101.734375 94.515625 C 101.597656 94.460938 101.476562 94.378906 101.371094 94.273438 C 101.265625 94.167969 101.1875 94.046875 101.128906 93.910156 C 101.070312 93.769531 101.042969 93.628906 101.042969 93.480469 C 101.042969 93.332031 101.074219 93.1875 101.128906 93.050781 C 101.1875 92.914062 101.269531 92.789062 101.375 92.6875 C 101.480469 92.582031 101.601562 92.5 101.738281 92.441406 C 101.875 92.386719 102.019531 92.359375 102.167969 92.359375 Z M 106.65625 92.363281 C 106.804688 92.363281 106.949219 92.390625 107.085938 92.449219 C 107.222656 92.503906 107.34375 92.585938 107.449219 92.691406 C 107.554688 92.796875 107.632812 92.917969 107.691406 93.054688 C 107.75 93.195312 107.777344 93.335938 107.777344 93.484375 C 107.777344 93.636719 107.746094 93.777344 107.691406 93.914062 C 107.632812 94.050781 107.550781 94.175781 107.445312 94.277344 C 107.339844 94.382812 107.21875 94.464844 107.082031 94.523438 C 106.945312 94.578125 106.800781 94.605469 106.652344 94.605469 C 106.503906 94.605469 106.359375 94.578125 106.222656 94.519531 C 106.085938 94.464844 105.964844 94.382812 105.859375 94.277344 C 105.753906 94.171875 105.675781 94.050781 105.617188 93.914062 C 105.558594 93.777344 105.53125 93.632812 105.53125 93.484375 C 105.53125 93.335938 105.5625 93.191406 105.617188 93.054688 C 105.675781 92.917969 105.757812 92.796875 105.863281 92.691406 C 105.96875 92.585938 106.089844 92.503906 106.226562 92.449219 C 106.363281 92.390625 106.507812 92.363281 106.65625 92.363281 Z M 111.144531 92.367188 C 111.292969 92.367188 111.4375 92.394531 111.574219 92.453125 C 111.710938 92.511719 111.832031 92.589844 111.9375 92.695312 C 112.042969 92.800781 112.121094 92.921875 112.179688 93.0625 C 112.238281 93.199219 112.265625 93.34375 112.265625 93.492188 C 112.265625 93.640625 112.234375 93.78125 112.179688 93.921875 C 112.121094 94.058594 112.039062 94.179688 111.933594 94.285156 C 111.828125 94.390625 111.707031 94.46875 111.570312 94.527344 C 111.433594 94.582031 111.289062 94.613281 111.140625 94.613281 C 110.992188 94.613281 110.847656 94.582031 110.710938 94.527344 C 110.574219 94.46875 110.453125 94.386719 110.347656 94.28125 C 110.242188 94.175781 110.164062 94.054688 110.105469 93.917969 C 110.046875 93.78125 110.019531 93.636719 110.019531 93.488281 C 110.019531 93.339844 110.050781 93.195312 110.105469 93.058594 C 110.164062 92.921875 110.246094 92.800781 110.351562 92.695312 C 110.457031 92.589844 110.578125 92.507812 110.714844 92.453125 C 110.851562 92.394531 110.996094 92.367188 111.144531 92.367188 Z M 115.632812 92.371094 C 115.78125 92.371094 115.925781 92.402344 116.0625 92.457031 C 116.199219 92.515625 116.320312 92.597656 116.425781 92.703125 C 116.53125 92.808594 116.609375 92.929688 116.667969 93.066406 C 116.726562 93.203125 116.753906 93.347656 116.753906 93.496094 C 116.753906 93.644531 116.722656 93.789062 116.667969 93.925781 C 116.609375 94.0625 116.527344 94.183594 116.421875 94.289062 C 116.316406 94.394531 116.195312 94.472656 116.058594 94.53125 C 115.921875 94.589844 115.777344 94.617188 115.628906 94.617188 C 115.480469 94.617188 115.335938 94.585938 115.199219 94.53125 C 115.0625 94.472656 114.941406 94.390625 114.835938 94.285156 C 114.730469 94.179688 114.652344 94.058594 114.59375 93.921875 C 114.535156 93.785156 114.507812 93.640625 114.507812 93.492188 C 114.507812 93.34375 114.539062 93.203125 114.59375 93.0625 C 114.652344 92.925781 114.734375 92.804688 114.839844 92.699219 C 114.945312 92.59375 115.066406 92.515625 115.203125 92.457031 C 115.339844 92.398438 115.484375 92.371094 115.632812 92.371094 Z M 115.632812 92.371094 " fill-opacity="1" fill-rule="nonzero"/><path stroke-linecap="round" transform="matrix(0.748005, 0.000785472, -0.000785472, 0.748005, 65.139071, 92.319204)" fill="none" stroke-linejoin="round" d="M 68.175081 -2.999776 L 74.174922 1.500704 L 68.179308 5.998114 " stroke="#fac90a" stroke-width="3" stroke-opacity="1" stroke-miterlimit="4"/></svg>