<svg xmlns="http://www.w3.org/2000/svg" xmlns:xlink="http://www.w3.org/1999/xlink" width="250" zoomAndPan="magnify" viewBox="0 0 187.5 187.499992" height="250" preserveAspectRatio="xMidYMid meet" version="1.0"><defs><filter x="0%" y="0%" width="100%" height="100%" id="810ba0f29a"><feColorMatrix values="0 0 0 0 1 0 0 0 0 1 0 0 0 0 1 0 0 0 1 0" color-interpolation-filters="sRGB"/></filter><clipPath id="24560d890a"><path d="M 70.277344 130.589844 L 116.714844 130.589844 L 116.714844 177.027344 L 70.277344 177.027344 Z M 70.277344 130.589844 " clip-rule="nonzero"/></clipPath><clipPath id="0801eb12d1"><path d="M 65.449219 27.28125 L 121.550781 27.28125 L 121.550781 126.769531 L 65.449219 126.769531 Z M 65.449219 27.28125 " clip-rule="nonzero"/></clipPath><clipPath id="8e2b6b30a9"><path d="M 93.5 126.769531 L 65.449219 27.425781 L 121.550781 27.425781 Z M 93.5 126.769531 " clip-rule="nonzero"/></clipPath><clipPath id="f51c1b8a1c"><path d="M 87.789062 12.261719 L 99.214844 12.261719 L 99.214844 23.6875 L 87.789062 23.6875 Z M 87.789062 12.261719 " clip-rule="nonzero"/></clipPath><clipPath id="e9a0ef088e"><path d="M 93.5 12.261719 C 90.34375 12.261719 87.789062 14.816406 87.789062 17.972656 C 87.789062 21.128906 90.34375 23.6875 93.5 23.6875 C 96.65625 23.6875 99.214844 21.128906 99.214844 17.972656 C 99.214844 14.816406 96.65625 12.261719 93.5 12.261719 Z M 93.5 12.261719 " clip-rule="nonzero"/></clipPath><mask id="b6c89fa99f"><g filter="url(#810ba0f29a)"><rect x="-18.75" width="225" fill="#000000" y="-18.749999" height="224.99999" fill-opacity="0.3"/></g></mask><clipPath id="0624dd97c3"><path d="M 0.503906 0.976562 L 16.5 0.976562 L 16.5 16.972656 L 0.503906 16.972656 Z M 0.503906 0.976562 " clip-rule="nonzero"/></clipPath><clipPath id="26ca931d24"><path d="M 8.5 0.976562 C 4.082031 0.976562 0.503906 4.554688 0.503906 8.972656 C 0.503906 13.390625 4.082031 16.972656 8.5 16.972656 C 12.917969 16.972656 16.5 13.390625 16.5 8.972656 C 16.5 4.554688 12.917969 0.976562 8.5 0.976562 Z M 8.5 0.976562 " clip-rule="nonzero"/></clipPath><clipPath id="ba13dc6b23"><rect x="0" width="17" y="0" height="18"/></clipPath></defs><g clip-path="url(#24560d890a)"><path fill="#72c53c" d="M 116.714844 130.589844 L 116.714844 177.027344 L 70.277344 177.027344 L 70.277344 130.589844 Z M 116.714844 130.589844 " fill-opacity="1" fill-rule="nonzero"/></g><g clip-path="url(#0801eb12d1)"><g clip-path="url(#8e2b6b30a9)"><path fill="#fac90a" d="M 121.550781 126.769531 L 65.449219 126.769531 L 65.449219 27.5 L 121.550781 27.5 Z M 121.550781 126.769531 " fill-opacity="1" fill-rule="nonzero"/></g></g><g clip-path="url(#f51c1b8a1c)"><g clip-path="url(#e9a0ef088e)"><path fill="#964590" d="M 87.789062 12.261719 L 99.214844 12.261719 L 99.214844 23.6875 L 87.789062 23.6875 Z M 87.789062 12.261719 " fill-opacity="1" fill-rule="nonzero"/></g></g><g mask="url(#b6c89fa99f)"><g transform="matrix(1, 0, 0, 1, 85, 9)"><g clip-path="url(#ba13dc6b23)"><g clip-path="url(#0624dd97c3)"><g clip-path="url(#26ca931d24)"><path fill="#964590" d="M 0.503906 0.976562 L 16.5 0.976562 L 16.5 16.972656 L 0.503906 16.972656 Z M 0.503906 0.976562 " fill-opacity="1" fill-rule="nonzero"/></g></g></g></g></g></svg>