<svg xmlns="http://www.w3.org/2000/svg" xmlns:xlink="http://www.w3.org/1999/xlink" width="250" zoomAndPan="magnify" viewBox="0 0 187.5 187.499992" height="250" preserveAspectRatio="xMidYMid meet" version="1.0"><defs><filter x="0%" y="0%" width="100%" height="100%" id="69d14b0094"><feColorMatrix values="0 0 0 0 1 0 0 0 0 1 0 0 0 0 1 0 0 0 1 0" color-interpolation-filters="sRGB"/></filter><clipPath id="b14494040a"><path d="M 18.6875 76.074219 L 53.515625 76.074219 L 53.515625 110.902344 L 18.6875 110.902344 Z M 18.6875 76.074219 " clip-rule="nonzero"/></clipPath><clipPath id="7b4d916c88"><path d="M 60.355469 72.457031 L 130.207031 72.457031 L 130.207031 114.535156 L 60.355469 114.535156 Z M 60.355469 72.457031 " clip-rule="nonzero"/></clipPath><clipPath id="d7433929be"><path d="M 60.355469 93.496094 L 130.070312 72.457031 L 130.070312 114.535156 Z M 60.355469 93.496094 " clip-rule="nonzero"/></clipPath><clipPath id="ca436ceb8e"><path d="M 87.78125 20.984375 L 99.207031 20.984375 L 99.207031 32.410156 L 87.78125 32.410156 Z M 87.78125 20.984375 " clip-rule="nonzero"/></clipPath><clipPath id="8384c748ca"><path d="M 99.207031 26.699219 C 99.207031 23.542969 96.648438 20.984375 93.492188 20.984375 C 90.339844 20.984375 87.78125 23.542969 87.78125 26.699219 C 87.78125 29.851562 90.339844 32.410156 93.492188 32.410156 C 96.648438 32.410156 99.207031 29.851562 99.207031 26.699219 Z M 99.207031 26.699219 " clip-rule="nonzero"/></clipPath><mask id="2b2a363beb"><g filter="url(#69d14b0094)"><rect x="-18.75" width="225" fill="#000000" y="-18.749999" height="224.99999" fill-opacity="0.3"/></g></mask><clipPath id="68520dbd6b"><path d="M 0.496094 0.699219 L 16.492188 0.699219 L 16.492188 16.695312 L 0.496094 16.695312 Z M 0.496094 0.699219 " clip-rule="nonzero"/></clipPath><clipPath id="5ae74ffaea"><path d="M 16.492188 8.699219 C 16.492188 4.28125 12.910156 0.699219 8.492188 0.699219 C 4.074219 0.699219 0.496094 4.28125 0.496094 8.699219 C 0.496094 13.117188 4.074219 16.695312 8.492188 16.695312 C 12.910156 16.695312 16.492188 13.117188 16.492188 8.699219 Z M 16.492188 8.699219 " clip-rule="nonzero"/></clipPath><clipPath id="15f9ad7de0"><rect x="0" width="17" y="0" height="17"/></clipPath><clipPath id="259fc68a87"><path d="M 136.886719 77.277344 L 174.285156 77.277344 L 174.285156 109.441406 L 136.886719 109.441406 Z M 136.886719 77.277344 " clip-rule="nonzero"/></clipPath><clipPath id="65615df18e"><path d="M 61.175781 117.464844 L 130.890625 117.464844 L 130.890625 152.292969 L 61.175781 152.292969 Z M 61.175781 117.464844 " clip-rule="nonzero"/></clipPath><clipPath id="d1a91b68d5"><path d="M 68.613281 152.304688 L 84.609375 152.304688 L 84.609375 168.300781 L 68.613281 168.300781 Z M 68.613281 152.304688 " clip-rule="nonzero"/></clipPath><clipPath id="b6bd5577cf"><path d="M 84.609375 160.304688 C 84.609375 155.886719 81.03125 152.304688 76.613281 152.304688 C 72.195312 152.304688 68.613281 155.886719 68.613281 160.304688 C 68.613281 164.71875 72.195312 168.300781 76.613281 168.300781 C 81.03125 168.300781 84.609375 164.71875 84.609375 160.304688 Z M 84.609375 160.304688 " clip-rule="nonzero"/></clipPath><clipPath id="c8949eb114"><path d="M 106.25 152.304688 L 122.246094 152.304688 L 122.246094 168.300781 L 106.25 168.300781 Z M 106.25 152.304688 " clip-rule="nonzero"/></clipPath><clipPath id="140e7cb75c"><path d="M 122.246094 160.304688 C 122.246094 155.886719 118.664062 152.304688 114.246094 152.304688 C 109.832031 152.304688 106.25 155.886719 106.25 160.304688 C 106.25 164.71875 109.832031 168.300781 114.246094 168.300781 C 118.664062 168.300781 122.246094 164.71875 122.246094 160.304688 Z M 122.246094 160.304688 " clip-rule="nonzero"/></clipPath></defs><g clip-path="url(#b14494040a)"><path fill="#964590" d="M 53.515625 110.902344 L 18.6875 110.902344 L 18.6875 76.074219 L 53.515625 76.074219 Z M 53.515625 110.902344 " fill-opacity="1" fill-rule="nonzero"/></g><g clip-path="url(#7b4d916c88)"><g clip-path="url(#d7433929be)"><path fill="#72c53c" d="M 60.355469 114.535156 L 60.355469 72.457031 L 130.042969 72.457031 L 130.042969 114.535156 Z M 60.355469 114.535156 " fill-opacity="1" fill-rule="nonzero"/></g></g><g clip-path="url(#ca436ceb8e)"><g clip-path="url(#8384c748ca)"><path fill="#964590" d="M 99.207031 20.984375 L 99.207031 32.410156 L 87.78125 32.410156 L 87.78125 20.984375 Z M 99.207031 20.984375 " fill-opacity="1" fill-rule="nonzero"/></g></g><g mask="url(#2b2a363beb)"><g transform="matrix(1, 0, 0, 1, 85, 18)"><g clip-path="url(#15f9ad7de0)"><g clip-path="url(#68520dbd6b)"><g clip-path="url(#5ae74ffaea)"><path fill="#964590" d="M 16.492188 0.699219 L 16.492188 16.695312 L 0.496094 16.695312 L 0.496094 0.699219 Z M 16.492188 0.699219 " fill-opacity="1" fill-rule="nonzero"/></g></g></g></g></g><g clip-path="url(#259fc68a87)"><path fill="#fac90a" d="M 140.363281 96.578125 L 153.5625 108.902344 C 154.109375 109.414062 154.832031 109.699219 155.585938 109.699219 C 156.335938 109.699219 157.0625 109.414062 157.609375 108.902344 L 170.808594 96.578125 C 173.027344 94.511719 174.285156 91.613281 174.285156 88.582031 L 174.285156 88.15625 C 174.285156 83.050781 170.597656 78.699219 165.5625 77.859375 C 162.230469 77.300781 158.84375 78.390625 156.460938 80.773438 L 155.585938 81.648438 L 154.707031 80.773438 C 152.328125 78.390625 148.9375 77.300781 145.605469 77.859375 C 140.574219 78.699219 136.886719 83.050781 136.886719 88.15625 L 136.886719 88.582031 C 136.886719 91.613281 138.140625 94.511719 140.363281 96.578125 Z M 140.363281 96.578125 " fill-opacity="1" fill-rule="nonzero"/></g><g clip-path="url(#65615df18e)"><path fill="#d7d8da" d="M 130.890625 152.292969 L 61.234375 152.292969 L 61.234375 117.464844 L 130.890625 117.464844 Z M 130.890625 152.292969 " fill-opacity="1" fill-rule="nonzero"/></g><g clip-path="url(#d1a91b68d5)"><g clip-path="url(#b6bd5577cf)"><path fill="#72c53c" d="M 84.609375 152.304688 L 84.609375 168.300781 L 68.613281 168.300781 L 68.613281 152.304688 Z M 84.609375 152.304688 " fill-opacity="1" fill-rule="nonzero"/></g></g><g clip-path="url(#c8949eb114)"><g clip-path="url(#140e7cb75c)"><path fill="#72c53c" d="M 122.246094 152.304688 L 122.246094 168.300781 L 106.25 168.300781 L 106.25 152.304688 Z M 122.246094 152.304688 " fill-opacity="1" fill-rule="nonzero"/></g></g></svg>