<svg xmlns="http://www.w3.org/2000/svg" xmlns:xlink="http://www.w3.org/1999/xlink" width="250" zoomAndPan="magnify" viewBox="0 0 187.5 187.499992" height="250" preserveAspectRatio="xMidYMid meet" version="1.0"><defs><clipPath id="db463a5384"><path d="M 136.625 71.988281 L 179.652344 71.988281 L 179.652344 115.011719 L 136.625 115.011719 Z M 136.625 71.988281 " clip-rule="nonzero"/></clipPath><clipPath id="e4e6484e7e"><path d="M 158.140625 71.988281 C 146.257812 71.988281 136.625 81.621094 136.625 93.5 C 136.625 105.382812 146.257812 115.011719 158.140625 115.011719 C 170.019531 115.011719 179.652344 105.382812 179.652344 93.5 C 179.652344 81.621094 170.019531 71.988281 158.140625 71.988281 Z M 158.140625 71.988281 " clip-rule="nonzero"/></clipPath><clipPath id="56a3e27c28"><path d="M 150.460938 85.824219 L 165.816406 85.824219 L 165.816406 101.179688 L 150.460938 101.179688 Z M 150.460938 85.824219 " clip-rule="nonzero"/></clipPath><clipPath id="f150231c01"><path d="M 158.140625 85.824219 C 153.898438 85.824219 150.460938 89.261719 150.460938 93.5 C 150.460938 97.742188 153.898438 101.179688 158.140625 101.179688 C 162.378906 101.179688 165.816406 97.742188 165.816406 93.5 C 165.816406 89.261719 162.378906 85.824219 158.140625 85.824219 Z M 158.140625 85.824219 " clip-rule="nonzero"/></clipPath><clipPath id="078a95548f"><path d="M 7.347656 43.238281 L 107.582031 43.238281 L 107.582031 143.46875 L 7.347656 143.46875 Z M 7.347656 43.238281 " clip-rule="nonzero"/></clipPath><clipPath id="90d2c97403"><path d="M 83.335938 88.125 L 102.398438 88.125 L 102.398438 98.875 L 83.335938 98.875 Z M 83.335938 88.125 " clip-rule="nonzero"/></clipPath><clipPath id="5c3d6515d4"><path d="M 102.398438 93.5 L 83.363281 98.875 L 83.363281 88.125 Z M 102.398438 93.5 " clip-rule="nonzero"/></clipPath></defs><g clip-path="url(#db463a5384)"><g clip-path="url(#e4e6484e7e)"><path fill="#d7d8da" d="M 136.625 71.988281 L 179.652344 71.988281 L 179.652344 115.011719 L 136.625 115.011719 Z M 136.625 71.988281 " fill-opacity="1" fill-rule="nonzero"/></g></g><g clip-path="url(#56a3e27c28)"><g clip-path="url(#f150231c01)"><path fill="#484854" d="M 150.460938 85.824219 L 165.816406 85.824219 L 165.816406 101.179688 L 150.460938 101.179688 Z M 150.460938 85.824219 " fill-opacity="1" fill-rule="nonzero"/></g></g><g clip-path="url(#078a95548f)"><path fill="#fac90a" d="M 54.710938 143.71875 C 52.769531 143.605469 50.816406 143.382812 48.90625 143.046875 L 49.242188 141.132812 C 51.078125 141.453125 52.953125 141.671875 54.824219 141.777344 L 54.710938 143.714844 Z M 60.550781 143.714844 L 60.441406 141.773438 C 62.308594 141.664062 64.183594 141.445312 66.019531 141.125 L 66.355469 143.039062 C 64.449219 143.375 62.496094 143.601562 60.550781 143.714844 Z M 43.21875 141.710938 C 41.359375 141.15625 39.511719 140.484375 37.722656 139.714844 L 38.492188 137.929688 C 40.210938 138.667969 41.988281 139.316406 43.773438 139.847656 Z M 72.042969 141.695312 L 71.484375 139.832031 C 73.269531 139.296875 75.046875 138.648438 76.761719 137.90625 L 77.53125 139.691406 C 75.75 140.464844 73.902344 141.136719 72.042969 141.695312 Z M 32.5 137.089844 C 30.820312 136.121094 29.175781 135.039062 27.617188 133.875 L 28.777344 132.316406 C 30.277344 133.433594 31.855469 134.472656 33.472656 135.40625 Z M 82.75 137.066406 L 81.773438 135.386719 C 83.386719 134.449219 84.964844 133.410156 86.464844 132.292969 L 87.625 133.851562 C 86.070312 135.015625 84.429688 136.097656 82.75 137.066406 Z M 23.140625 130.121094 C 21.726562 128.789062 20.378906 127.363281 19.128906 125.875 L 20.613281 124.625 C 21.816406 126.050781 23.113281 127.425781 24.472656 128.707031 Z M 92.097656 130.09375 L 90.765625 128.679688 C 92.121094 127.398438 93.417969 126.023438 94.621094 124.59375 L 96.109375 125.84375 C 94.859375 127.332031 93.511719 128.761719 92.097656 130.09375 Z M 15.632812 121.195312 C 14.5625 119.574219 13.578125 117.871094 12.703125 116.140625 L 14.441406 115.265625 C 15.277344 116.929688 16.226562 118.566406 17.257812 120.125 Z M 99.601562 121.15625 L 97.976562 120.089844 C 99.003906 118.527344 99.953125 116.890625 100.789062 115.226562 L 102.523438 116.097656 C 101.652344 117.832031 100.667969 119.535156 99.597656 121.15625 Z M 10.382812 110.777344 C 9.714844 108.953125 9.152344 107.070312 8.703125 105.179688 L 10.59375 104.730469 C 11.027344 106.546875 11.570312 108.355469 12.207031 110.113281 Z M 104.847656 110.730469 L 103.019531 110.066406 C 103.660156 108.3125 104.199219 106.5 104.628906 104.683594 L 106.519531 105.128906 C 106.074219 107.023438 105.511719 108.90625 104.847656 110.730469 Z M 7.6875 99.429688 C 7.464844 97.503906 7.351562 95.542969 7.347656 93.597656 L 9.292969 93.597656 C 9.292969 95.46875 9.40625 97.355469 9.621094 99.203125 L 7.691406 99.429688 Z M 107.527344 99.375 L 105.597656 99.152344 C 105.8125 97.304688 105.921875 95.417969 105.921875 93.542969 L 105.921875 93.441406 C 105.921875 93.441406 107.863281 93.433594 107.863281 93.433594 L 107.863281 93.542969 C 107.863281 95.488281 107.75 97.449219 107.53125 99.375 Z M 9.609375 87.984375 L 7.675781 87.765625 C 7.898438 85.832031 8.234375 83.894531 8.679688 82.007812 L 10.570312 82.453125 C 10.144531 84.265625 9.820312 86.128906 9.609375 87.984375 Z M 105.585938 87.832031 C 105.367188 85.976562 105.039062 84.117188 104.605469 82.300781 L 106.496094 81.851562 C 106.945312 83.738281 107.289062 85.675781 107.519531 87.605469 L 105.589844 87.832031 Z M 12.175781 77.066406 L 10.347656 76.402344 C 11.011719 74.578125 11.789062 72.773438 12.660156 71.03125 L 14.398438 71.902344 C 13.558594 73.574219 12.8125 75.3125 12.175781 77.0625 Z M 102.984375 76.925781 C 102.34375 75.171875 101.59375 73.4375 100.75 71.773438 L 102.480469 70.894531 C 103.359375 72.628906 104.140625 74.433594 104.8125 76.253906 Z M 17.207031 67.039062 L 15.582031 65.972656 C 16.644531 64.351562 17.820312 62.773438 19.066406 61.285156 L 20.558594 62.53125 C 19.355469 63.964844 18.230469 65.480469 17.207031 67.039062 Z M 97.929688 66.917969 C 96.898438 65.363281 95.765625 63.847656 94.5625 62.421875 L 96.050781 61.167969 C 97.300781 62.652344 98.476562 64.226562 99.550781 65.84375 Z M 24.410156 58.441406 L 23.074219 57.027344 C 24.484375 55.695312 25.988281 54.429688 27.542969 53.265625 L 28.707031 54.824219 C 27.210938 55.941406 25.765625 57.15625 24.410156 58.441406 Z M 90.699219 58.34375 C 89.335938 57.0625 87.886719 55.847656 86.390625 54.738281 L 87.546875 53.175781 C 89.105469 54.335938 90.613281 55.597656 92.027344 56.929688 L 90.695312 58.34375 Z M 33.390625 51.726562 L 32.414062 50.046875 C 34.09375 49.070312 35.847656 48.1875 37.628906 47.414062 L 38.402344 49.195312 C 36.691406 49.9375 35.003906 50.789062 33.390625 51.726562 Z M 81.691406 51.652344 C 80.074219 50.71875 78.382812 49.871094 76.667969 49.136719 L 77.4375 47.351562 C 79.222656 48.117188 80.976562 49 82.664062 49.96875 Z M 43.675781 47.269531 L 43.117188 45.40625 C 44.972656 44.847656 46.886719 44.394531 48.800781 44.054688 L 49.140625 45.96875 C 47.300781 46.292969 45.460938 46.730469 43.675781 47.269531 Z M 71.386719 47.222656 C 69.597656 46.691406 67.757812 46.261719 65.917969 45.941406 L 66.25 44.027344 C 68.164062 44.359375 70.078125 44.808594 71.941406 45.363281 L 71.386719 47.226562 Z M 54.71875 45.316406 L 54.605469 43.375 C 55.597656 43.316406 56.601562 43.289062 57.597656 43.289062 L 57.605469 43.289062 C 58.550781 43.289062 59.507812 43.316406 60.445312 43.367188 L 60.335938 45.308594 C 59.433594 45.257812 58.511719 45.230469 57.605469 45.230469 L 57.59375 45.230469 C 56.636719 45.230469 55.667969 45.261719 54.71875 45.316406 Z M 54.71875 45.316406 " fill-opacity="1" fill-rule="nonzero"/></g><g clip-path="url(#90d2c97403)"><g clip-path="url(#5c3d6515d4)"><path fill="#fac90a" d="M 102.398438 88.125 L 102.398438 98.875 L 83.375 98.875 L 83.375 88.125 Z M 102.398438 88.125 " fill-opacity="1" fill-rule="nonzero"/></g></g></svg>