<svg xmlns="http://www.w3.org/2000/svg" xmlns:xlink="http://www.w3.org/1999/xlink" width="250" zoomAndPan="magnify" viewBox="0 0 187.5 187.499992" height="250" preserveAspectRatio="xMidYMid meet" version="1.0"><defs><clipPath id="6d67139593"><path d="M 70.320312 72.609375 L 116.757812 72.609375 L 116.757812 119.046875 L 70.320312 119.046875 Z M 70.320312 72.609375 " clip-rule="nonzero"/></clipPath><clipPath id="3458765f95"><path d="M 70.269531 12.128906 L 116.707031 12.128906 L 116.707031 58.566406 L 70.269531 58.566406 Z M 70.269531 12.128906 " clip-rule="nonzero"/></clipPath><clipPath id="c34e1bf317"><path d="M 9.351562 128.433594 L 55.789062 128.433594 L 55.789062 174.871094 L 9.351562 174.871094 Z M 9.351562 128.433594 " clip-rule="nonzero"/></clipPath><clipPath id="063bca1fe9"><path d="M 70.28125 128.433594 L 116.71875 128.433594 L 116.71875 174.871094 L 70.28125 174.871094 Z M 70.28125 128.433594 " clip-rule="nonzero"/></clipPath><clipPath id="9c702f30cf"><path d="M 131.214844 128.433594 L 177.652344 128.433594 L 177.652344 174.871094 L 131.214844 174.871094 Z M 131.214844 128.433594 " clip-rule="nonzero"/></clipPath></defs><g clip-path="url(#6d67139593)"><path fill="#72c53c" d="M 70.320312 72.609375 L 116.757812 72.609375 L 116.757812 119.046875 L 70.320312 119.046875 Z M 70.320312 72.609375 " fill-opacity="1" fill-rule="nonzero"/></g><g clip-path="url(#3458765f95)"><path fill="#fac90a" d="M 70.269531 12.128906 L 116.707031 12.128906 L 116.707031 58.566406 L 70.269531 58.566406 Z M 70.269531 12.128906 " fill-opacity="1" fill-rule="nonzero"/></g><g clip-path="url(#c34e1bf317)"><path fill="#964590" d="M 9.351562 128.433594 L 55.789062 128.433594 L 55.789062 174.871094 L 9.351562 174.871094 Z M 9.351562 128.433594 " fill-opacity="1" fill-rule="nonzero"/></g><g clip-path="url(#063bca1fe9)"><path fill="#964590" d="M 70.28125 128.433594 L 116.71875 128.433594 L 116.71875 174.871094 L 70.28125 174.871094 Z M 70.28125 128.433594 " fill-opacity="1" fill-rule="nonzero"/></g><g clip-path="url(#9c702f30cf)"><path fill="#964590" d="M 131.214844 128.433594 L 177.652344 128.433594 L 177.652344 174.871094 L 131.214844 174.871094 Z M 131.214844 128.433594 " fill-opacity="1" fill-rule="nonzero"/></g><path stroke-linecap="round" transform="matrix(0.347069, -0.662612, 0.662612, 0.347069, 43.735737, 127.912156)" fill="none" stroke-linejoin="miter" d="M 1.501428 1.498861 L 103.943087 1.499445 " stroke="#000000" stroke-width="3" stroke-opacity="1" stroke-miterlimit="4"/><path stroke-linecap="round" transform="matrix(-0.0000785346, -0.748005, 0.748005, -0.0000785346, 92.370675, 128.429113)" fill="none" stroke-linejoin="miter" d="M 1.497853 1.499495 L 91.904971 1.498542 " stroke="#000000" stroke-width="3" stroke-opacity="1" stroke-miterlimit="4"/><path stroke-linecap="round" transform="matrix(-0.347178, -0.662555, 0.662555, -0.347178, 141.263937, 128.95051)" fill="none" stroke-linejoin="miter" d="M 1.497324 1.500527 L 103.953302 1.500743 " stroke="#000000" stroke-width="3" stroke-opacity="1" stroke-miterlimit="4"/></svg>