<svg xmlns="http://www.w3.org/2000/svg" xmlns:xlink="http://www.w3.org/1999/xlink" width="250" zoomAndPan="magnify" viewBox="0 0 187.5 187.499992" height="250" preserveAspectRatio="xMidYMid meet" version="1.0"><defs><clipPath id="5eedec03ac"><path d="M 0 140.5625 L 46.433594 140.5625 L 46.433594 187 L 0 187 Z M 0 140.5625 " clip-rule="nonzero"/></clipPath><clipPath id="fccef2069e"><path d="M 46.433594 94.125 L 92.871094 94.125 L 92.871094 140.5625 L 46.433594 140.5625 Z M 46.433594 94.125 " clip-rule="nonzero"/></clipPath><clipPath id="a8c828c76b"><path d="M 92.871094 47.6875 L 139.308594 47.6875 L 139.308594 94.125 L 92.871094 94.125 Z M 92.871094 47.6875 " clip-rule="nonzero"/></clipPath><clipPath id="f2258d6693"><path d="M 139.3125 1.238281 L 185.765625 1.238281 L 185.765625 47.6875 L 139.3125 47.6875 Z M 139.3125 1.238281 " clip-rule="nonzero"/></clipPath><clipPath id="56e89e5e71"><path d="M 162.539062 1.238281 C 149.710938 1.238281 139.3125 11.636719 139.3125 24.460938 C 139.3125 37.289062 149.710938 47.6875 162.539062 47.6875 C 175.367188 47.6875 185.765625 37.289062 185.765625 24.460938 C 185.765625 11.636719 175.367188 1.238281 162.539062 1.238281 Z M 162.539062 1.238281 " clip-rule="nonzero"/></clipPath></defs><g clip-path="url(#5eedec03ac)"><path fill="#d7d8da" d="M 46.433594 140.5625 L 46.433594 187 L -0.00390625 187 L -0.00390625 140.5625 Z M 46.433594 140.5625 " fill-opacity="1" fill-rule="nonzero"/></g><g clip-path="url(#fccef2069e)"><path fill="#72c53c" d="M 92.871094 94.125 L 92.871094 140.5625 L 46.433594 140.5625 L 46.433594 94.125 Z M 92.871094 94.125 " fill-opacity="1" fill-rule="nonzero"/></g><g clip-path="url(#a8c828c76b)"><path fill="#964590" d="M 139.308594 47.6875 L 139.308594 94.125 L 92.871094 94.125 L 92.871094 47.6875 Z M 139.308594 47.6875 " fill-opacity="1" fill-rule="nonzero"/></g><path fill="#000000" d="M 23.21875 138.972656 C 23.324219 138.867188 23.445312 138.785156 23.582031 138.730469 C 23.71875 138.671875 23.863281 138.644531 24.011719 138.644531 C 24.160156 138.644531 24.300781 138.671875 24.441406 138.730469 C 24.578125 138.785156 24.699219 138.867188 24.804688 138.972656 C 24.910156 139.078125 24.992188 139.199219 25.046875 139.335938 C 25.105469 139.472656 25.132812 139.617188 25.132812 139.765625 C 25.132812 139.914062 25.105469 140.058594 25.046875 140.195312 C 24.992188 140.332031 24.910156 140.453125 24.804688 140.558594 C 24.699219 140.664062 24.578125 140.746094 24.441406 140.800781 C 24.300781 140.859375 24.160156 140.886719 24.011719 140.886719 C 23.863281 140.886719 23.71875 140.859375 23.582031 140.800781 C 23.445312 140.746094 23.324219 140.664062 23.21875 140.558594 C 23.113281 140.453125 23.03125 140.332031 22.972656 140.195312 C 22.917969 140.058594 22.886719 139.914062 22.886719 139.765625 C 22.886719 139.617188 22.917969 139.472656 22.972656 139.335938 C 23.03125 139.199219 23.113281 139.078125 23.21875 138.972656 Z M 26.390625 135.800781 L 26.390625 135.796875 C 26.496094 135.695312 26.617188 135.613281 26.753906 135.554688 C 26.890625 135.5 27.035156 135.46875 27.183594 135.46875 C 27.332031 135.46875 27.476562 135.5 27.613281 135.554688 C 27.75 135.613281 27.871094 135.695312 27.976562 135.796875 C 28.082031 135.902344 28.164062 136.023438 28.222656 136.164062 C 28.277344 136.300781 28.304688 136.441406 28.304688 136.59375 C 28.304688 136.742188 28.277344 136.882812 28.222656 137.023438 C 28.164062 137.160156 28.082031 137.28125 27.976562 137.386719 C 27.871094 137.492188 27.75 137.570312 27.613281 137.628906 C 27.476562 137.6875 27.332031 137.714844 27.183594 137.714844 C 27.035156 137.714844 26.890625 137.6875 26.753906 137.628906 C 26.617188 137.570312 26.496094 137.492188 26.390625 137.386719 C 26.285156 137.28125 26.203125 137.160156 26.148438 137.023438 C 26.089844 136.882812 26.0625 136.742188 26.0625 136.59375 C 26.0625 136.445312 26.089844 136.300781 26.148438 136.164062 C 26.203125 136.027344 26.285156 135.902344 26.390625 135.800781 Z M 29.5625 132.625 L 29.566406 132.625 C 29.667969 132.519531 29.789062 132.4375 29.929688 132.382812 C 30.066406 132.324219 30.210938 132.296875 30.359375 132.296875 C 30.507812 132.296875 30.648438 132.324219 30.789062 132.382812 C 30.925781 132.4375 31.046875 132.519531 31.152344 132.625 C 31.257812 132.730469 31.335938 132.851562 31.394531 132.988281 C 31.453125 133.125 31.480469 133.269531 31.480469 133.417969 C 31.480469 133.566406 31.453125 133.710938 31.394531 133.847656 C 31.335938 133.984375 31.257812 134.105469 31.152344 134.210938 C 31.046875 134.316406 30.925781 134.398438 30.789062 134.457031 C 30.648438 134.511719 30.507812 134.539062 30.359375 134.539062 C 30.207031 134.539062 30.066406 134.511719 29.929688 134.457031 C 29.789062 134.398438 29.667969 134.316406 29.5625 134.210938 C 29.460938 134.105469 29.378906 133.984375 29.320312 133.847656 C 29.265625 133.710938 29.234375 133.566406 29.234375 133.417969 C 29.234375 133.269531 29.265625 133.125 29.320312 132.988281 C 29.378906 132.851562 29.460938 132.730469 29.5625 132.625 Z M 32.738281 129.453125 C 32.84375 129.347656 32.964844 129.265625 33.101562 129.207031 C 33.238281 129.152344 33.382812 129.121094 33.53125 129.121094 C 33.679688 129.121094 33.824219 129.152344 33.960938 129.207031 C 34.097656 129.265625 34.21875 129.347656 34.324219 129.453125 C 34.429688 129.554688 34.511719 129.679688 34.566406 129.816406 C 34.625 129.953125 34.652344 130.097656 34.652344 130.246094 C 34.652344 130.394531 34.625 130.535156 34.566406 130.675781 C 34.511719 130.8125 34.429688 130.933594 34.324219 131.039062 C 34.21875 131.144531 34.097656 131.222656 33.960938 131.28125 C 33.824219 131.339844 33.679688 131.367188 33.53125 131.367188 C 33.382812 131.367188 33.238281 131.339844 33.101562 131.28125 C 32.964844 131.222656 32.84375 131.144531 32.738281 131.039062 C 32.632812 130.933594 32.550781 130.8125 32.496094 130.675781 C 32.4375 130.535156 32.410156 130.394531 32.410156 130.246094 C 32.410156 130.097656 32.4375 129.953125 32.496094 129.816406 C 32.550781 129.679688 32.632812 129.554688 32.738281 129.453125 Z M 35.910156 126.277344 C 36.015625 126.171875 36.136719 126.089844 36.277344 126.035156 C 36.414062 125.976562 36.554688 125.949219 36.703125 125.949219 C 36.855469 125.949219 36.996094 125.976562 37.132812 126.035156 C 37.273438 126.089844 37.394531 126.171875 37.5 126.277344 C 37.605469 126.382812 37.683594 126.503906 37.742188 126.640625 C 37.796875 126.777344 37.828125 126.921875 37.828125 127.070312 C 37.828125 127.21875 37.796875 127.363281 37.742188 127.5 C 37.683594 127.636719 37.605469 127.757812 37.5 127.863281 C 37.394531 127.96875 37.273438 128.050781 37.132812 128.109375 C 36.996094 128.164062 36.855469 128.191406 36.703125 128.191406 C 36.554688 128.191406 36.414062 128.164062 36.277344 128.109375 C 36.136719 128.050781 36.015625 127.96875 35.910156 127.863281 C 35.804688 127.757812 35.726562 127.636719 35.667969 127.5 C 35.613281 127.363281 35.582031 127.21875 35.582031 127.070312 C 35.582031 126.921875 35.613281 126.777344 35.667969 126.640625 C 35.726562 126.503906 35.804688 126.382812 35.910156 126.277344 Z M 39.085938 123.105469 C 39.191406 123 39.3125 122.917969 39.449219 122.859375 C 39.585938 122.804688 39.730469 122.773438 39.878906 122.773438 C 40.027344 122.773438 40.171875 122.804688 40.308594 122.859375 C 40.445312 122.917969 40.566406 123 40.671875 123.105469 C 40.777344 123.207031 40.859375 123.332031 40.914062 123.46875 C 40.972656 123.605469 41 123.75 41 123.898438 C 41 124.046875 40.972656 124.1875 40.914062 124.328125 C 40.859375 124.464844 40.777344 124.585938 40.671875 124.691406 C 40.566406 124.796875 40.445312 124.875 40.308594 124.933594 C 40.171875 124.992188 40.027344 125.019531 39.878906 125.019531 C 39.730469 125.019531 39.585938 124.992188 39.449219 124.933594 C 39.3125 124.875 39.191406 124.796875 39.085938 124.691406 C 38.980469 124.585938 38.898438 124.464844 38.84375 124.328125 C 38.785156 124.1875 38.757812 124.046875 38.757812 123.898438 C 38.757812 123.75 38.785156 123.605469 38.84375 123.46875 C 38.898438 123.332031 38.980469 123.210938 39.085938 123.105469 Z M 42.257812 119.929688 C 42.363281 119.824219 42.484375 119.742188 42.621094 119.6875 C 42.761719 119.628906 42.902344 119.601562 43.050781 119.601562 C 43.199219 119.601562 43.34375 119.628906 43.480469 119.6875 C 43.617188 119.742188 43.742188 119.824219 43.84375 119.929688 C 43.949219 120.035156 44.03125 120.15625 44.089844 120.292969 C 44.144531 120.429688 44.175781 120.574219 44.175781 120.722656 C 44.175781 120.871094 44.144531 121.015625 44.089844 121.152344 C 44.03125 121.289062 43.949219 121.410156 43.84375 121.515625 C 43.742188 121.621094 43.617188 121.703125 43.480469 121.761719 C 43.34375 121.816406 43.199219 121.84375 43.050781 121.84375 C 42.902344 121.84375 42.761719 121.816406 42.621094 121.761719 C 42.484375 121.703125 42.363281 121.621094 42.257812 121.515625 C 42.152344 121.410156 42.074219 121.289062 42.015625 121.152344 C 41.957031 121.015625 41.929688 120.871094 41.929688 120.722656 C 41.929688 120.574219 41.957031 120.429688 42.015625 120.292969 C 42.074219 120.15625 42.152344 120.035156 42.257812 119.929688 Z M 45.433594 116.757812 C 45.539062 116.652344 45.660156 116.570312 45.796875 116.511719 C 45.933594 116.457031 46.078125 116.425781 46.226562 116.425781 C 46.375 116.425781 46.519531 116.457031 46.65625 116.511719 C 46.792969 116.570312 46.914062 116.652344 47.019531 116.757812 C 47.125 116.863281 47.207031 116.984375 47.261719 117.121094 C 47.320312 117.257812 47.347656 117.402344 47.347656 117.550781 C 47.347656 117.699219 47.320312 117.839844 47.261719 117.980469 C 47.207031 118.117188 47.125 118.238281 47.019531 118.34375 C 46.914062 118.449219 46.792969 118.53125 46.65625 118.585938 C 46.519531 118.644531 46.375 118.671875 46.226562 118.671875 C 46.078125 118.671875 45.933594 118.644531 45.796875 118.585938 C 45.660156 118.53125 45.539062 118.449219 45.433594 118.34375 C 45.328125 118.238281 45.246094 118.117188 45.1875 117.980469 C 45.132812 117.839844 45.105469 117.699219 45.105469 117.550781 C 45.105469 117.402344 45.132812 117.257812 45.1875 117.121094 C 45.246094 116.984375 45.328125 116.863281 45.433594 116.757812 Z M 48.605469 113.582031 C 48.710938 113.476562 48.832031 113.394531 48.96875 113.339844 C 49.109375 113.28125 49.25 113.253906 49.398438 113.253906 C 49.546875 113.253906 49.691406 113.28125 49.828125 113.339844 C 49.964844 113.394531 50.085938 113.476562 50.191406 113.582031 C 50.296875 113.6875 50.378906 113.808594 50.4375 113.945312 C 50.492188 114.082031 50.519531 114.226562 50.519531 114.375 C 50.519531 114.523438 50.492188 114.667969 50.4375 114.804688 C 50.378906 114.941406 50.296875 115.0625 50.191406 115.167969 C 50.085938 115.273438 49.964844 115.355469 49.828125 115.414062 C 49.691406 115.46875 49.546875 115.496094 49.398438 115.496094 C 49.25 115.496094 49.105469 115.46875 48.96875 115.414062 C 48.832031 115.355469 48.710938 115.273438 48.605469 115.167969 C 48.5 115.0625 48.417969 114.941406 48.363281 114.804688 C 48.304688 114.667969 48.277344 114.523438 48.277344 114.375 C 48.277344 114.226562 48.304688 114.085938 48.363281 113.945312 C 48.417969 113.808594 48.5 113.6875 48.605469 113.582031 Z M 51.78125 110.410156 C 51.886719 110.304688 52.007812 110.222656 52.144531 110.164062 C 52.28125 110.109375 52.425781 110.078125 52.574219 110.078125 C 52.722656 110.078125 52.863281 110.109375 53.003906 110.164062 C 53.140625 110.222656 53.261719 110.304688 53.367188 110.410156 C 53.472656 110.515625 53.550781 110.636719 53.609375 110.773438 C 53.667969 110.910156 53.695312 111.054688 53.695312 111.203125 C 53.695312 111.351562 53.667969 111.492188 53.609375 111.632812 C 53.550781 111.769531 53.472656 111.890625 53.367188 111.996094 C 53.261719 112.101562 53.140625 112.183594 53.003906 112.238281 C 52.863281 112.296875 52.722656 112.324219 52.574219 112.324219 C 52.425781 112.324219 52.28125 112.296875 52.144531 112.238281 C 52.007812 112.183594 51.882812 112.101562 51.78125 111.996094 C 51.675781 111.890625 51.59375 111.769531 51.535156 111.632812 C 51.480469 111.492188 51.449219 111.351562 51.449219 111.203125 C 51.449219 111.054688 51.480469 110.910156 51.535156 110.773438 C 51.59375 110.636719 51.675781 110.515625 51.78125 110.410156 Z M 54.953125 107.234375 C 55.058594 107.128906 55.179688 107.046875 55.316406 106.992188 C 55.453125 106.933594 55.597656 106.90625 55.746094 106.90625 C 55.894531 106.90625 56.039062 106.933594 56.175781 106.992188 C 56.3125 107.046875 56.433594 107.128906 56.539062 107.234375 C 56.644531 107.339844 56.726562 107.460938 56.78125 107.597656 C 56.839844 107.734375 56.867188 107.878906 56.867188 108.027344 C 56.867188 108.175781 56.839844 108.320312 56.78125 108.457031 C 56.726562 108.59375 56.644531 108.714844 56.539062 108.820312 C 56.433594 108.925781 56.3125 109.007812 56.175781 109.066406 C 56.039062 109.121094 55.894531 109.152344 55.746094 109.152344 C 55.597656 109.152344 55.453125 109.121094 55.316406 109.066406 C 55.179688 109.007812 55.058594 108.925781 54.953125 108.820312 C 54.847656 108.714844 54.765625 108.59375 54.710938 108.457031 C 54.652344 108.320312 54.625 108.175781 54.625 108.027344 C 54.625 107.878906 54.652344 107.738281 54.710938 107.597656 C 54.765625 107.460938 54.847656 107.339844 54.953125 107.234375 Z M 58.125 104.0625 C 58.230469 103.957031 58.351562 103.875 58.492188 103.816406 C 58.628906 103.761719 58.769531 103.734375 58.921875 103.734375 C 59.070312 103.734375 59.210938 103.761719 59.347656 103.816406 C 59.488281 103.875 59.609375 103.957031 59.714844 104.0625 C 59.820312 104.167969 59.898438 104.289062 59.957031 104.425781 C 60.011719 104.5625 60.042969 104.707031 60.042969 104.855469 C 60.042969 105.003906 60.015625 105.144531 59.957031 105.285156 C 59.898438 105.421875 59.820312 105.542969 59.714844 105.648438 C 59.609375 105.753906 59.488281 105.835938 59.347656 105.890625 C 59.210938 105.949219 59.070312 105.976562 58.921875 105.976562 C 58.769531 105.976562 58.628906 105.949219 58.492188 105.890625 C 58.351562 105.835938 58.230469 105.753906 58.125 105.648438 C 58.019531 105.542969 57.941406 105.421875 57.882812 105.285156 C 57.828125 105.148438 57.796875 105.003906 57.796875 104.855469 C 57.796875 104.707031 57.828125 104.5625 57.882812 104.425781 C 57.941406 104.289062 58.019531 104.167969 58.125 104.0625 Z M 61.300781 100.886719 C 61.40625 100.78125 61.527344 100.699219 61.664062 100.644531 C 61.800781 100.585938 61.945312 100.558594 62.09375 100.558594 C 62.242188 100.558594 62.386719 100.585938 62.523438 100.644531 C 62.660156 100.699219 62.78125 100.78125 62.886719 100.886719 C 62.992188 100.992188 63.074219 101.113281 63.128906 101.25 C 63.1875 101.390625 63.214844 101.53125 63.214844 101.679688 C 63.214844 101.828125 63.1875 101.972656 63.128906 102.109375 C 63.074219 102.246094 62.992188 102.367188 62.886719 102.472656 C 62.78125 102.578125 62.660156 102.660156 62.523438 102.71875 C 62.386719 102.773438 62.242188 102.804688 62.09375 102.804688 C 61.945312 102.804688 61.800781 102.773438 61.664062 102.71875 C 61.527344 102.660156 61.40625 102.578125 61.300781 102.472656 C 61.195312 102.367188 61.113281 102.246094 61.058594 102.109375 C 61 101.972656 60.972656 101.828125 60.972656 101.679688 C 60.972656 101.53125 61 101.390625 61.058594 101.25 C 61.113281 101.113281 61.195312 100.992188 61.300781 100.886719 Z M 64.472656 97.714844 C 64.578125 97.609375 64.699219 97.527344 64.839844 97.46875 C 64.976562 97.414062 65.117188 97.386719 65.265625 97.386719 C 65.417969 97.386719 65.558594 97.414062 65.695312 97.46875 C 65.835938 97.527344 65.957031 97.609375 66.0625 97.714844 C 66.164062 97.820312 66.246094 97.941406 66.304688 98.078125 C 66.359375 98.214844 66.390625 98.359375 66.390625 98.507812 C 66.390625 98.65625 66.359375 98.796875 66.304688 98.9375 C 66.246094 99.074219 66.164062 99.195312 66.0625 99.300781 C 65.957031 99.40625 65.835938 99.488281 65.695312 99.542969 C 65.558594 99.601562 65.414062 99.628906 65.265625 99.628906 C 65.117188 99.628906 64.976562 99.601562 64.835938 99.542969 C 64.699219 99.488281 64.578125 99.40625 64.472656 99.300781 C 64.367188 99.195312 64.289062 99.074219 64.230469 98.9375 C 64.171875 98.800781 64.144531 98.65625 64.144531 98.507812 C 64.144531 98.359375 64.171875 98.214844 64.230469 98.078125 C 64.289062 97.941406 64.367188 97.820312 64.472656 97.714844 Z M 67.648438 94.539062 C 67.753906 94.433594 67.875 94.355469 68.011719 94.296875 C 68.148438 94.238281 68.292969 94.210938 68.441406 94.210938 C 68.589844 94.210938 68.734375 94.238281 68.871094 94.296875 C 69.007812 94.351562 69.128906 94.433594 69.234375 94.539062 C 69.339844 94.644531 69.421875 94.765625 69.476562 94.902344 C 69.535156 95.042969 69.5625 95.183594 69.5625 95.332031 C 69.5625 95.480469 69.535156 95.625 69.476562 95.761719 C 69.421875 95.898438 69.339844 96.019531 69.234375 96.125 C 69.128906 96.230469 69.007812 96.3125 68.871094 96.371094 C 68.734375 96.425781 68.589844 96.457031 68.441406 96.457031 C 68.292969 96.457031 68.148438 96.425781 68.011719 96.371094 C 67.875 96.3125 67.753906 96.230469 67.648438 96.125 C 67.542969 96.023438 67.460938 95.898438 67.402344 95.761719 C 67.347656 95.625 67.320312 95.480469 67.320312 95.332031 C 67.320312 95.183594 67.347656 95.042969 67.402344 94.902344 C 67.460938 94.765625 67.542969 94.644531 67.648438 94.539062 Z M 70.820312 91.367188 C 70.925781 91.261719 71.046875 91.179688 71.183594 91.121094 C 71.324219 91.066406 71.464844 91.039062 71.613281 91.039062 C 71.761719 91.039062 71.90625 91.066406 72.042969 91.121094 C 72.179688 91.179688 72.300781 91.261719 72.40625 91.367188 C 72.511719 91.472656 72.59375 91.59375 72.652344 91.730469 C 72.707031 91.867188 72.738281 92.011719 72.738281 92.160156 C 72.738281 92.308594 72.707031 92.453125 72.652344 92.589844 C 72.59375 92.726562 72.511719 92.847656 72.40625 92.953125 C 72.300781 93.058594 72.179688 93.140625 72.042969 93.195312 C 71.90625 93.253906 71.761719 93.28125 71.613281 93.28125 C 71.464844 93.28125 71.324219 93.253906 71.183594 93.195312 C 71.046875 93.140625 70.925781 93.058594 70.820312 92.953125 C 70.714844 92.847656 70.632812 92.726562 70.578125 92.589844 C 70.519531 92.453125 70.492188 92.308594 70.492188 92.160156 C 70.492188 92.011719 70.519531 91.867188 70.578125 91.730469 C 70.632812 91.59375 70.714844 91.472656 70.820312 91.367188 Z M 73.996094 88.191406 C 74.101562 88.085938 74.222656 88.007812 74.359375 87.949219 C 74.496094 87.890625 74.640625 87.863281 74.789062 87.863281 C 74.9375 87.863281 75.078125 87.890625 75.21875 87.949219 C 75.355469 88.007812 75.476562 88.085938 75.582031 88.191406 C 75.6875 88.296875 75.769531 88.417969 75.824219 88.554688 C 75.882812 88.695312 75.910156 88.835938 75.910156 88.984375 C 75.910156 89.132812 75.882812 89.277344 75.824219 89.414062 C 75.769531 89.550781 75.6875 89.671875 75.582031 89.777344 C 75.476562 89.882812 75.355469 89.964844 75.21875 90.023438 C 75.078125 90.078125 74.9375 90.109375 74.789062 90.109375 C 74.640625 90.109375 74.496094 90.078125 74.359375 90.023438 C 74.222656 89.964844 74.101562 89.882812 73.996094 89.777344 C 73.890625 89.675781 73.808594 89.550781 73.75 89.414062 C 73.695312 89.277344 73.664062 89.132812 73.664062 88.984375 C 73.664062 88.835938 73.695312 88.695312 73.75 88.554688 C 73.808594 88.417969 73.890625 88.296875 73.996094 88.191406 Z M 77.167969 85.019531 C 77.273438 84.914062 77.394531 84.832031 77.53125 84.773438 C 77.667969 84.71875 77.8125 84.691406 77.960938 84.691406 C 78.109375 84.691406 78.253906 84.71875 78.390625 84.773438 C 78.527344 84.832031 78.648438 84.914062 78.753906 85.019531 C 78.859375 85.125 78.941406 85.246094 79 85.382812 C 79.054688 85.519531 79.082031 85.664062 79.082031 85.8125 C 79.082031 85.960938 79.054688 86.105469 79 86.242188 C 78.941406 86.378906 78.859375 86.5 78.753906 86.605469 C 78.648438 86.710938 78.527344 86.792969 78.390625 86.847656 C 78.253906 86.90625 78.109375 86.933594 77.960938 86.933594 C 77.8125 86.933594 77.667969 86.90625 77.53125 86.847656 C 77.394531 86.792969 77.273438 86.710938 77.167969 86.605469 C 77.0625 86.5 76.980469 86.378906 76.925781 86.242188 C 76.867188 86.105469 76.839844 85.960938 76.839844 85.8125 C 76.839844 85.664062 76.867188 85.519531 76.925781 85.382812 C 76.980469 85.246094 77.0625 85.125 77.167969 85.019531 Z M 80.339844 81.84375 L 80.34375 81.84375 C 80.445312 81.738281 80.570312 81.660156 80.707031 81.601562 C 80.84375 81.542969 80.988281 81.515625 81.136719 81.515625 C 81.285156 81.515625 81.425781 81.542969 81.566406 81.601562 C 81.703125 81.660156 81.824219 81.738281 81.929688 81.84375 C 82.035156 81.949219 82.113281 82.070312 82.171875 82.207031 C 82.230469 82.347656 82.257812 82.488281 82.257812 82.636719 C 82.257812 82.785156 82.230469 82.929688 82.171875 83.066406 C 82.113281 83.203125 82.035156 83.328125 81.929688 83.429688 C 81.824219 83.535156 81.703125 83.617188 81.566406 83.675781 C 81.425781 83.730469 81.285156 83.761719 81.136719 83.761719 C 80.984375 83.761719 80.84375 83.730469 80.707031 83.675781 C 80.566406 83.617188 80.445312 83.535156 80.339844 83.433594 C 80.238281 83.328125 80.15625 83.207031 80.097656 83.066406 C 80.042969 82.929688 80.011719 82.785156 80.011719 82.636719 C 80.011719 82.488281 80.042969 82.347656 80.097656 82.207031 C 80.15625 82.070312 80.238281 81.949219 80.339844 81.84375 Z M 83.515625 78.671875 C 83.621094 78.566406 83.742188 78.484375 83.878906 78.429688 C 84.015625 78.371094 84.160156 78.34375 84.308594 78.34375 C 84.457031 78.34375 84.601562 78.371094 84.738281 78.425781 C 84.875 78.484375 84.996094 78.566406 85.101562 78.671875 C 85.207031 78.777344 85.289062 78.898438 85.34375 79.035156 C 85.402344 79.171875 85.429688 79.316406 85.429688 79.464844 C 85.429688 79.613281 85.402344 79.757812 85.34375 79.894531 C 85.289062 80.03125 85.207031 80.152344 85.101562 80.257812 C 84.996094 80.363281 84.875 80.445312 84.738281 80.5 C 84.601562 80.558594 84.457031 80.585938 84.308594 80.585938 C 84.160156 80.585938 84.015625 80.558594 83.878906 80.5 C 83.742188 80.445312 83.621094 80.363281 83.515625 80.257812 C 83.410156 80.152344 83.328125 80.03125 83.273438 79.894531 C 83.214844 79.757812 83.1875 79.613281 83.1875 79.464844 C 83.1875 79.316406 83.214844 79.171875 83.273438 79.035156 C 83.328125 78.898438 83.410156 78.777344 83.515625 78.671875 Z M 86.6875 75.496094 C 86.792969 75.390625 86.914062 75.3125 87.054688 75.253906 C 87.191406 75.195312 87.332031 75.167969 87.480469 75.167969 C 87.632812 75.167969 87.773438 75.195312 87.910156 75.253906 C 88.050781 75.3125 88.171875 75.390625 88.277344 75.496094 C 88.382812 75.601562 88.460938 75.722656 88.519531 75.859375 C 88.574219 76 88.605469 76.140625 88.605469 76.289062 C 88.605469 76.4375 88.574219 76.582031 88.519531 76.71875 C 88.460938 76.855469 88.382812 76.980469 88.277344 77.082031 L 88.277344 77.085938 C 88.171875 77.1875 88.050781 77.269531 87.910156 77.328125 C 87.773438 77.382812 87.632812 77.414062 87.480469 77.414062 C 87.332031 77.414062 87.191406 77.382812 87.054688 77.328125 C 86.914062 77.269531 86.792969 77.1875 86.6875 77.085938 C 86.582031 76.980469 86.503906 76.859375 86.445312 76.71875 C 86.390625 76.582031 86.359375 76.441406 86.359375 76.289062 C 86.359375 76.140625 86.390625 76 86.445312 75.863281 C 86.503906 75.722656 86.582031 75.601562 86.6875 75.496094 Z M 89.863281 72.324219 C 89.96875 72.21875 90.089844 72.136719 90.226562 72.082031 C 90.363281 72.023438 90.507812 71.996094 90.65625 71.996094 C 90.804688 71.996094 90.949219 72.023438 91.085938 72.082031 C 91.222656 72.136719 91.34375 72.21875 91.449219 72.324219 C 91.554688 72.429688 91.636719 72.550781 91.691406 72.6875 C 91.75 72.824219 91.777344 72.96875 91.777344 73.117188 C 91.777344 73.265625 91.75 73.410156 91.691406 73.546875 C 91.636719 73.683594 91.554688 73.804688 91.449219 73.910156 C 91.34375 74.015625 91.222656 74.097656 91.085938 74.152344 C 90.949219 74.210938 90.804688 74.238281 90.65625 74.238281 C 90.507812 74.238281 90.363281 74.210938 90.226562 74.152344 C 90.089844 74.097656 89.96875 74.015625 89.863281 73.910156 C 89.757812 73.804688 89.675781 73.683594 89.621094 73.546875 C 89.5625 73.410156 89.535156 73.265625 89.535156 73.117188 C 89.535156 72.96875 89.5625 72.824219 89.621094 72.6875 C 89.675781 72.550781 89.757812 72.429688 89.863281 72.324219 Z M 93.035156 69.148438 C 93.140625 69.042969 93.261719 68.964844 93.398438 68.90625 C 93.539062 68.847656 93.679688 68.820312 93.828125 68.820312 C 93.976562 68.820312 94.121094 68.847656 94.257812 68.90625 C 94.394531 68.964844 94.519531 69.042969 94.621094 69.148438 C 94.726562 69.253906 94.808594 69.375 94.867188 69.511719 C 94.921875 69.652344 94.953125 69.792969 94.953125 69.941406 C 94.953125 70.09375 94.921875 70.234375 94.867188 70.371094 C 94.808594 70.511719 94.726562 70.632812 94.621094 70.738281 C 94.519531 70.839844 94.394531 70.921875 94.257812 70.980469 C 94.121094 71.035156 93.976562 71.066406 93.828125 71.066406 C 93.679688 71.066406 93.539062 71.035156 93.398438 70.980469 C 93.261719 70.921875 93.140625 70.84375 93.035156 70.738281 C 92.929688 70.632812 92.851562 70.511719 92.792969 70.371094 C 92.734375 70.234375 92.707031 70.09375 92.707031 69.941406 C 92.707031 69.792969 92.734375 69.652344 92.792969 69.515625 C 92.851562 69.375 92.929688 69.253906 93.035156 69.148438 Z M 96.210938 65.976562 C 96.316406 65.871094 96.4375 65.789062 96.574219 65.734375 C 96.710938 65.675781 96.855469 65.648438 97.003906 65.648438 C 97.152344 65.648438 97.296875 65.675781 97.433594 65.734375 C 97.570312 65.789062 97.691406 65.871094 97.796875 65.976562 C 97.902344 66.082031 97.984375 66.203125 98.039062 66.339844 C 98.097656 66.476562 98.125 66.621094 98.125 66.769531 C 98.125 66.917969 98.097656 67.0625 98.039062 67.199219 C 97.984375 67.335938 97.902344 67.457031 97.796875 67.5625 C 97.691406 67.667969 97.570312 67.75 97.433594 67.804688 C 97.296875 67.863281 97.152344 67.890625 97.003906 67.890625 C 96.855469 67.890625 96.710938 67.863281 96.574219 67.804688 C 96.4375 67.75 96.316406 67.667969 96.210938 67.5625 C 96.105469 67.457031 96.023438 67.335938 95.964844 67.199219 C 95.910156 67.0625 95.882812 66.917969 95.882812 66.769531 C 95.882812 66.621094 95.910156 66.476562 95.964844 66.339844 C 96.023438 66.203125 96.105469 66.082031 96.210938 65.976562 Z M 99.382812 62.800781 C 99.488281 62.695312 99.609375 62.617188 99.746094 62.558594 C 99.886719 62.503906 100.027344 62.472656 100.175781 62.472656 C 100.324219 62.472656 100.46875 62.503906 100.605469 62.558594 C 100.742188 62.617188 100.863281 62.695312 100.96875 62.800781 C 101.074219 62.90625 101.15625 63.027344 101.214844 63.167969 C 101.269531 63.304688 101.296875 63.445312 101.296875 63.59375 C 101.296875 63.746094 101.269531 63.886719 101.214844 64.023438 C 101.15625 64.164062 101.074219 64.285156 100.96875 64.390625 C 100.863281 64.496094 100.742188 64.574219 100.605469 64.632812 C 100.46875 64.6875 100.324219 64.71875 100.175781 64.71875 C 100.027344 64.71875 99.882812 64.6875 99.746094 64.632812 C 99.609375 64.574219 99.488281 64.496094 99.382812 64.390625 C 99.277344 64.285156 99.195312 64.164062 99.140625 64.023438 C 99.082031 63.886719 99.054688 63.746094 99.054688 63.59375 C 99.054688 63.445312 99.082031 63.304688 99.140625 63.167969 C 99.195312 63.027344 99.277344 62.90625 99.382812 62.800781 Z M 102.558594 59.628906 C 102.664062 59.523438 102.785156 59.441406 102.921875 59.386719 C 103.058594 59.328125 103.203125 59.300781 103.351562 59.300781 C 103.5 59.300781 103.640625 59.328125 103.78125 59.386719 C 103.917969 59.441406 104.039062 59.523438 104.144531 59.628906 C 104.25 59.734375 104.328125 59.855469 104.386719 59.992188 C 104.445312 60.128906 104.472656 60.273438 104.472656 60.421875 C 104.472656 60.570312 104.445312 60.714844 104.386719 60.851562 C 104.328125 60.988281 104.25 61.109375 104.144531 61.214844 C 104.039062 61.320312 103.917969 61.402344 103.78125 61.457031 C 103.640625 61.515625 103.5 61.542969 103.351562 61.542969 C 103.203125 61.542969 103.058594 61.515625 102.921875 61.457031 C 102.785156 61.402344 102.660156 61.320312 102.558594 61.214844 C 102.453125 61.109375 102.371094 60.988281 102.3125 60.851562 C 102.257812 60.714844 102.226562 60.570312 102.226562 60.421875 C 102.226562 60.273438 102.257812 60.128906 102.3125 59.992188 C 102.371094 59.855469 102.453125 59.734375 102.558594 59.628906 Z M 105.730469 56.453125 C 105.835938 56.347656 105.957031 56.269531 106.09375 56.210938 C 106.230469 56.15625 106.375 56.125 106.523438 56.125 C 106.671875 56.125 106.816406 56.15625 106.953125 56.210938 C 107.089844 56.269531 107.210938 56.347656 107.316406 56.453125 C 107.421875 56.558594 107.503906 56.679688 107.558594 56.820312 C 107.617188 56.957031 107.644531 57.097656 107.644531 57.246094 C 107.644531 57.398438 107.617188 57.539062 107.558594 57.675781 C 107.503906 57.816406 107.421875 57.9375 107.316406 58.042969 C 107.210938 58.148438 107.089844 58.226562 106.953125 58.285156 C 106.816406 58.339844 106.671875 58.371094 106.523438 58.371094 C 106.375 58.371094 106.230469 58.339844 106.09375 58.285156 C 105.957031 58.226562 105.835938 58.148438 105.730469 58.042969 C 105.625 57.9375 105.542969 57.816406 105.488281 57.675781 C 105.429688 57.539062 105.402344 57.398438 105.402344 57.25 C 105.402344 57.097656 105.429688 56.957031 105.488281 56.820312 C 105.542969 56.679688 105.625 56.558594 105.730469 56.453125 Z M 108.902344 53.28125 C 109.007812 53.175781 109.128906 53.09375 109.269531 53.039062 C 109.40625 52.980469 109.546875 52.953125 109.699219 52.953125 C 109.847656 52.953125 109.988281 52.980469 110.125 53.039062 C 110.265625 53.09375 110.386719 53.175781 110.492188 53.28125 C 110.597656 53.386719 110.675781 53.507812 110.734375 53.644531 C 110.792969 53.78125 110.820312 53.925781 110.820312 54.074219 C 110.820312 54.222656 110.792969 54.367188 110.734375 54.503906 C 110.675781 54.640625 110.597656 54.761719 110.492188 54.867188 C 110.386719 54.972656 110.265625 55.054688 110.125 55.109375 C 109.988281 55.167969 109.847656 55.195312 109.699219 55.195312 C 109.546875 55.195312 109.40625 55.167969 109.269531 55.109375 C 109.128906 55.054688 109.007812 54.972656 108.902344 54.867188 C 108.796875 54.761719 108.71875 54.640625 108.660156 54.503906 C 108.605469 54.367188 108.574219 54.222656 108.574219 54.074219 C 108.574219 53.925781 108.605469 53.78125 108.660156 53.644531 C 108.71875 53.507812 108.796875 53.386719 108.902344 53.28125 Z M 112.078125 50.105469 C 112.183594 50 112.304688 49.921875 112.441406 49.863281 C 112.578125 49.808594 112.722656 49.777344 112.871094 49.777344 C 113.019531 49.777344 113.164062 49.808594 113.300781 49.863281 C 113.4375 49.921875 113.558594 50 113.664062 50.105469 C 113.769531 50.210938 113.851562 50.332031 113.90625 50.472656 C 113.964844 50.609375 113.992188 50.75 113.992188 50.902344 C 113.992188 51.050781 113.964844 51.191406 113.90625 51.328125 C 113.851562 51.46875 113.769531 51.589844 113.664062 51.695312 C 113.558594 51.800781 113.4375 51.878906 113.300781 51.9375 C 113.164062 51.992188 113.019531 52.023438 112.871094 52.023438 C 112.722656 52.023438 112.578125 51.996094 112.441406 51.9375 C 112.304688 51.878906 112.183594 51.800781 112.078125 51.695312 C 111.972656 51.589844 111.890625 51.46875 111.835938 51.328125 C 111.777344 51.191406 111.75 51.050781 111.75 50.902344 C 111.75 50.75 111.777344 50.609375 111.835938 50.472656 C 111.890625 50.332031 111.972656 50.210938 112.078125 50.105469 Z M 115.25 46.933594 C 115.355469 46.828125 115.476562 46.746094 115.617188 46.691406 C 115.753906 46.632812 115.894531 46.605469 116.042969 46.605469 C 116.195312 46.605469 116.335938 46.632812 116.472656 46.691406 C 116.613281 46.746094 116.734375 46.828125 116.839844 46.933594 C 116.941406 47.039062 117.023438 47.160156 117.082031 47.296875 C 117.136719 47.433594 117.167969 47.578125 117.167969 47.726562 C 117.167969 47.875 117.136719 48.019531 117.082031 48.15625 C 117.023438 48.292969 116.941406 48.414062 116.839844 48.519531 C 116.734375 48.625 116.613281 48.707031 116.472656 48.761719 C 116.335938 48.820312 116.191406 48.847656 116.042969 48.847656 C 115.894531 48.847656 115.753906 48.820312 115.613281 48.761719 C 115.476562 48.707031 115.355469 48.625 115.25 48.519531 C 115.144531 48.414062 115.066406 48.292969 115.007812 48.15625 C 114.949219 48.019531 114.921875 47.875 114.921875 47.726562 C 114.921875 47.578125 114.949219 47.433594 115.007812 47.296875 C 115.066406 47.160156 115.144531 47.039062 115.25 46.933594 Z M 118.425781 43.757812 C 118.53125 43.65625 118.652344 43.574219 118.789062 43.515625 C 118.925781 43.460938 119.070312 43.429688 119.21875 43.429688 C 119.367188 43.429688 119.511719 43.460938 119.648438 43.515625 C 119.785156 43.574219 119.90625 43.65625 120.011719 43.757812 C 120.117188 43.863281 120.199219 43.984375 120.253906 44.125 C 120.3125 44.261719 120.339844 44.402344 120.339844 44.554688 C 120.339844 44.703125 120.3125 44.84375 120.253906 44.980469 C 120.199219 45.121094 120.117188 45.242188 120.011719 45.347656 C 119.90625 45.453125 119.785156 45.53125 119.648438 45.589844 C 119.511719 45.648438 119.367188 45.675781 119.21875 45.675781 C 119.070312 45.675781 118.925781 45.648438 118.789062 45.589844 C 118.652344 45.53125 118.53125 45.453125 118.425781 45.347656 C 118.320312 45.242188 118.238281 45.121094 118.179688 44.984375 C 118.125 44.84375 118.097656 44.703125 118.097656 44.554688 C 118.097656 44.40625 118.125 44.261719 118.179688 44.125 C 118.238281 43.984375 118.320312 43.863281 118.425781 43.757812 Z M 121.597656 40.585938 C 121.703125 40.480469 121.824219 40.398438 121.960938 40.34375 C 122.101562 40.285156 122.242188 40.257812 122.390625 40.257812 C 122.539062 40.257812 122.683594 40.285156 122.820312 40.34375 C 122.957031 40.398438 123.078125 40.480469 123.183594 40.585938 C 123.289062 40.691406 123.371094 40.8125 123.429688 40.949219 C 123.484375 41.085938 123.515625 41.230469 123.515625 41.378906 C 123.515625 41.527344 123.484375 41.671875 123.429688 41.808594 C 123.371094 41.945312 123.289062 42.066406 123.183594 42.171875 C 123.078125 42.277344 122.957031 42.359375 122.820312 42.414062 C 122.683594 42.472656 122.539062 42.5 122.390625 42.5 C 122.242188 42.5 122.101562 42.472656 121.960938 42.414062 C 121.824219 42.359375 121.703125 42.277344 121.597656 42.171875 C 121.492188 42.066406 121.410156 41.945312 121.355469 41.808594 C 121.296875 41.671875 121.269531 41.527344 121.269531 41.378906 C 121.269531 41.230469 121.296875 41.085938 121.355469 40.949219 C 121.410156 40.8125 121.492188 40.691406 121.597656 40.585938 Z M 124.773438 37.414062 L 124.773438 37.410156 C 124.878906 37.308594 125 37.226562 125.136719 37.167969 C 125.273438 37.113281 125.417969 37.082031 125.566406 37.082031 C 125.714844 37.082031 125.855469 37.113281 125.996094 37.167969 C 126.132812 37.226562 126.253906 37.308594 126.359375 37.410156 C 126.464844 37.515625 126.546875 37.636719 126.601562 37.777344 C 126.660156 37.914062 126.6875 38.054688 126.6875 38.207031 C 126.6875 38.355469 126.660156 38.496094 126.601562 38.632812 C 126.546875 38.773438 126.464844 38.894531 126.359375 39 C 126.253906 39.105469 126.132812 39.183594 125.996094 39.242188 C 125.855469 39.300781 125.714844 39.328125 125.566406 39.328125 C 125.417969 39.328125 125.273438 39.300781 125.136719 39.242188 C 125 39.183594 124.878906 39.105469 124.773438 39 C 124.667969 38.894531 124.585938 38.773438 124.527344 38.636719 C 124.472656 38.496094 124.441406 38.355469 124.441406 38.207031 C 124.441406 38.058594 124.472656 37.914062 124.527344 37.777344 C 124.585938 37.640625 124.667969 37.515625 124.773438 37.414062 Z M 127.945312 34.238281 C 128.050781 34.132812 128.171875 34.050781 128.308594 33.996094 C 128.445312 33.9375 128.589844 33.910156 128.738281 33.910156 C 128.886719 33.910156 129.03125 33.9375 129.167969 33.996094 C 129.304688 34.050781 129.425781 34.132812 129.53125 34.238281 C 129.636719 34.34375 129.71875 34.464844 129.777344 34.601562 C 129.832031 34.738281 129.859375 34.882812 129.859375 35.03125 C 129.859375 35.179688 129.832031 35.324219 129.777344 35.460938 C 129.71875 35.597656 129.636719 35.71875 129.53125 35.824219 C 129.425781 35.929688 129.304688 36.011719 129.167969 36.066406 C 129.03125 36.125 128.886719 36.152344 128.738281 36.152344 C 128.589844 36.152344 128.445312 36.125 128.308594 36.070312 C 128.171875 36.011719 128.050781 35.929688 127.945312 35.824219 C 127.839844 35.71875 127.757812 35.597656 127.703125 35.460938 C 127.644531 35.324219 127.617188 35.179688 127.617188 35.03125 C 127.617188 34.882812 127.644531 34.738281 127.703125 34.601562 C 127.757812 34.464844 127.839844 34.34375 127.945312 34.238281 Z M 131.117188 31.066406 L 131.121094 31.066406 C 131.222656 30.960938 131.347656 30.878906 131.484375 30.820312 C 131.621094 30.765625 131.765625 30.734375 131.914062 30.734375 C 132.0625 30.734375 132.203125 30.765625 132.34375 30.820312 C 132.480469 30.878906 132.601562 30.960938 132.707031 31.0625 C 132.8125 31.167969 132.890625 31.289062 132.949219 31.429688 C 133.007812 31.566406 133.035156 31.710938 133.035156 31.859375 C 133.035156 32.007812 133.007812 32.148438 132.949219 32.289062 C 132.890625 32.425781 132.8125 32.546875 132.707031 32.652344 C 132.601562 32.757812 132.480469 32.835938 132.34375 32.894531 C 132.203125 32.953125 132.0625 32.980469 131.914062 32.980469 C 131.761719 32.980469 131.621094 32.953125 131.484375 32.894531 C 131.34375 32.835938 131.222656 32.757812 131.117188 32.652344 C 131.015625 32.546875 130.933594 32.425781 130.875 32.289062 C 130.820312 32.148438 130.789062 32.007812 130.789062 31.859375 C 130.789062 31.710938 130.820312 31.566406 130.875 31.429688 C 130.933594 31.292969 131.015625 31.167969 131.117188 31.066406 Z M 134.292969 27.890625 C 134.398438 27.785156 134.519531 27.703125 134.65625 27.648438 C 134.792969 27.589844 134.9375 27.5625 135.085938 27.5625 C 135.234375 27.5625 135.378906 27.589844 135.515625 27.648438 C 135.652344 27.703125 135.773438 27.785156 135.878906 27.890625 C 135.984375 27.996094 136.066406 28.117188 136.121094 28.253906 C 136.179688 28.390625 136.207031 28.535156 136.207031 28.683594 C 136.207031 28.832031 136.179688 28.976562 136.121094 29.113281 C 136.066406 29.25 135.984375 29.371094 135.878906 29.476562 C 135.773438 29.582031 135.652344 29.664062 135.515625 29.722656 C 135.378906 29.777344 135.234375 29.804688 135.085938 29.804688 C 134.9375 29.804688 134.792969 29.777344 134.65625 29.722656 C 134.519531 29.664062 134.398438 29.582031 134.292969 29.476562 C 134.1875 29.371094 134.105469 29.25 134.050781 29.113281 C 133.992188 28.976562 133.964844 28.832031 133.964844 28.683594 C 133.964844 28.535156 133.992188 28.390625 134.050781 28.253906 C 134.105469 28.117188 134.1875 27.996094 134.292969 27.890625 Z M 137.464844 24.71875 C 137.570312 24.613281 137.691406 24.53125 137.832031 24.472656 C 137.96875 24.417969 138.109375 24.386719 138.257812 24.386719 C 138.410156 24.386719 138.550781 24.417969 138.6875 24.472656 C 138.828125 24.53125 138.949219 24.613281 139.054688 24.71875 C 139.160156 24.820312 139.238281 24.945312 139.296875 25.082031 C 139.351562 25.21875 139.382812 25.363281 139.382812 25.511719 C 139.382812 25.660156 139.351562 25.800781 139.296875 25.941406 C 139.238281 26.078125 139.160156 26.199219 139.054688 26.304688 C 138.949219 26.410156 138.828125 26.488281 138.6875 26.546875 C 138.550781 26.605469 138.410156 26.632812 138.257812 26.632812 C 138.109375 26.632812 137.96875 26.605469 137.832031 26.546875 C 137.691406 26.488281 137.570312 26.410156 137.464844 26.304688 C 137.359375 26.199219 137.28125 26.078125 137.222656 25.941406 C 137.167969 25.800781 137.136719 25.660156 137.136719 25.511719 C 137.136719 25.363281 137.167969 25.21875 137.222656 25.082031 C 137.28125 24.945312 137.359375 24.824219 137.464844 24.71875 Z M 137.464844 24.71875 " fill-opacity="1" fill-rule="nonzero"/><g clip-path="url(#f2258d6693)"><g clip-path="url(#56e89e5e71)"><path fill="#fac90a" d="M 139.3125 1.238281 L 185.765625 1.238281 L 185.765625 47.6875 L 139.3125 47.6875 Z M 139.3125 1.238281 " fill-opacity="1" fill-rule="nonzero"/></g></g></svg>