<svg xmlns="http://www.w3.org/2000/svg" xmlns:xlink="http://www.w3.org/1999/xlink" width="250" zoomAndPan="magnify" viewBox="0 0 187.5 187.499992" height="250" preserveAspectRatio="xMidYMid meet" version="1.0"><defs><clipPath id="868bb0f091"><path d="M 8.796875 140.5625 L 55.234375 140.5625 L 55.234375 187 L 8.796875 187 Z M 8.796875 140.5625 " clip-rule="nonzero"/></clipPath><clipPath id="900ad191a7"><path d="M 70.277344 140.5625 L 116.714844 140.5625 L 116.714844 187 L 70.277344 187 Z M 70.277344 140.5625 " clip-rule="nonzero"/></clipPath><clipPath id="5667cbe4a4"><path d="M 131.761719 140.5625 L 178.199219 140.5625 L 178.199219 187 L 131.761719 187 Z M 131.761719 140.5625 " clip-rule="nonzero"/></clipPath><clipPath id="21a9cbc573"><path d="M 127.089844 18.699219 L 173.542969 18.699219 L 173.542969 65.152344 L 127.089844 65.152344 Z M 127.089844 18.699219 " clip-rule="nonzero"/></clipPath><clipPath id="1ad047e16d"><path d="M 150.316406 18.699219 C 137.488281 18.699219 127.089844 29.097656 127.089844 41.925781 C 127.089844 54.753906 137.488281 65.152344 150.316406 65.152344 C 163.144531 65.152344 173.542969 54.753906 173.542969 41.925781 C 173.542969 29.097656 163.144531 18.699219 150.316406 18.699219 Z M 150.316406 18.699219 " clip-rule="nonzero"/></clipPath><clipPath id="b3ffd59f17"><path d="M 103.6875 70.273438 L 150.136719 70.273438 L 150.136719 116.726562 L 103.6875 116.726562 Z M 103.6875 70.273438 " clip-rule="nonzero"/></clipPath><clipPath id="34b44552ee"><path d="M 126.914062 70.273438 C 114.085938 70.273438 103.6875 80.671875 103.6875 93.5 C 103.6875 106.328125 114.085938 116.726562 126.914062 116.726562 C 139.738281 116.726562 150.136719 106.328125 150.136719 93.5 C 150.136719 80.671875 139.738281 70.273438 126.914062 70.273438 Z M 126.914062 70.273438 " clip-rule="nonzero"/></clipPath></defs><g clip-path="url(#868bb0f091)"><path fill="#d7d8da" d="M 55.234375 140.5625 L 55.234375 187 L 8.796875 187 L 8.796875 140.5625 Z M 55.234375 140.5625 " fill-opacity="1" fill-rule="nonzero"/></g><g clip-path="url(#900ad191a7)"><path fill="#72c53c" d="M 116.714844 140.5625 L 116.714844 187 L 70.277344 187 L 70.277344 140.5625 Z M 116.714844 140.5625 " fill-opacity="1" fill-rule="nonzero"/></g><g clip-path="url(#5667cbe4a4)"><path fill="#964590" d="M 178.199219 140.5625 L 178.199219 187 L 131.761719 187 L 131.761719 140.5625 Z M 178.199219 140.5625 " fill-opacity="1" fill-rule="nonzero"/></g><g clip-path="url(#21a9cbc573)"><g clip-path="url(#1ad047e16d)"><path fill="#fac90a" d="M 127.089844 18.699219 L 173.542969 18.699219 L 173.542969 65.152344 L 127.089844 65.152344 Z M 127.089844 18.699219 " fill-opacity="1" fill-rule="nonzero"/></g></g><path fill="#fac90a" d="M 168.683594 40.429688 L 171.675781 40.429688 L 171.675781 43.421875 L 168.683594 43.421875 M 174.667969 40.429688 L 177.660156 40.429688 L 177.660156 43.421875 L 174.667969 43.421875 M 180.652344 40.429688 L 181.378906 40.429688 L 181.378906 43.421875 L 180.652344 43.421875 " fill-opacity="1" fill-rule="nonzero"/><path stroke-linecap="round" transform="matrix(0.748005, 0, 0, 0.748005, 168.683605, 40.429684)" fill="none" stroke-linejoin="round" d="M 8.971763 -4.000218 L 16.972208 2.000116 L 8.971763 8.00045 " stroke="#fac90a" stroke-width="4" stroke-opacity="1" stroke-miterlimit="4"/><g clip-path="url(#b3ffd59f17)"><g clip-path="url(#34b44552ee)"><path fill="#d73745" d="M 103.6875 70.273438 L 150.136719 70.273438 L 150.136719 116.726562 L 103.6875 116.726562 Z M 103.6875 70.273438 " fill-opacity="1" fill-rule="nonzero"/></g></g><path fill="#d73745" d="M 145.648438 93.5 L 148.640625 93.5 L 148.640625 96.492188 L 145.648438 96.492188 M 151.632812 93.5 L 154.625 93.5 L 154.625 96.492188 L 151.632812 96.492188 M 157.617188 93.5 L 158.347656 93.5 L 158.347656 96.492188 L 157.617188 96.492188 " fill-opacity="1" fill-rule="nonzero"/><path stroke-linecap="round" transform="matrix(0.748005, 0, 0, 0.748005, 145.650214, 93.500657)" fill="none" stroke-linejoin="round" d="M 8.974626 -4.001101 L 16.975072 1.999233 L 8.974626 7.999567 " stroke="#d73745" stroke-width="4" stroke-opacity="1" stroke-miterlimit="4"/></svg>