<svg xmlns="http://www.w3.org/2000/svg" xmlns:xlink="http://www.w3.org/1999/xlink" width="800" zoomAndPan="magnify" viewBox="0 0 600 187.499995" height="250" preserveAspectRatio="xMidYMid meet" version="1.0"><defs><g/><clipPath id="ae252f0669"><path d="M 61.3125 80.777344 L 93.144531 80.777344 L 93.144531 112.609375 L 61.3125 112.609375 Z M 61.3125 80.777344 " clip-rule="nonzero"/></clipPath><clipPath id="0957f9eda8"><path d="M 103.078125 80.777344 L 134.910156 80.777344 L 134.910156 112.609375 L 103.078125 112.609375 Z M 103.078125 80.777344 " clip-rule="nonzero"/></clipPath><clipPath id="2cef1598bc"><path d="M 19.546875 80.777344 L 51.378906 80.777344 L 51.378906 112.609375 L 19.546875 112.609375 Z M 19.546875 80.777344 " clip-rule="nonzero"/></clipPath><clipPath id="6af746bea8"><path d="M 19.496094 84.515625 L 51.34375 84.515625 L 51.34375 109.066406 L 19.496094 109.066406 Z M 19.496094 84.515625 " clip-rule="nonzero"/></clipPath><clipPath id="81aec7d9b8"><path d="M 19.496094 39.320312 L 51.328125 39.320312 L 51.328125 71.152344 L 19.496094 71.152344 Z M 19.496094 39.320312 " clip-rule="nonzero"/></clipPath><clipPath id="151d0b3c4a"><path d="M 61.28125 39.320312 L 93.109375 39.320312 L 93.109375 71.152344 L 61.28125 71.152344 Z M 61.28125 39.320312 " clip-rule="nonzero"/></clipPath><clipPath id="bc68d3c5c9"><path d="M 103.0625 39.320312 L 134.894531 39.320312 L 134.894531 71.152344 L 103.0625 71.152344 Z M 103.0625 39.320312 " clip-rule="nonzero"/></clipPath><clipPath id="86569b3e9f"><path d="M 19.523438 119.042969 L 51.355469 119.042969 L 51.355469 150.871094 L 19.523438 150.871094 Z M 19.523438 119.042969 " clip-rule="nonzero"/></clipPath><clipPath id="732464fbc8"><path d="M 61.289062 119.042969 L 93.121094 119.042969 L 93.121094 150.871094 L 61.289062 150.871094 Z M 61.289062 119.042969 " clip-rule="nonzero"/></clipPath><clipPath id="2e8a9dfcb5"><path d="M 103.054688 119.042969 L 134.886719 119.042969 L 134.886719 150.871094 L 103.054688 150.871094 Z M 103.054688 119.042969 " clip-rule="nonzero"/></clipPath></defs><g clip-path="url(#ae252f0669)"><path fill="#d73745" d="M 61.3125 80.777344 L 93.144531 80.777344 L 93.144531 112.609375 L 61.3125 112.609375 Z M 61.3125 80.777344 " fill-opacity="1" fill-rule="nonzero"/></g><g clip-path="url(#0957f9eda8)"><path fill="#964590" d="M 103.078125 80.777344 L 134.910156 80.777344 L 134.910156 112.609375 L 103.078125 112.609375 Z M 103.078125 80.777344 " fill-opacity="1" fill-rule="nonzero"/></g><g clip-path="url(#2cef1598bc)"><path fill="#fac90a" d="M 19.546875 80.777344 L 51.378906 80.777344 L 51.378906 112.609375 L 19.546875 112.609375 Z M 19.546875 80.777344 " fill-opacity="1" fill-rule="nonzero"/></g><g clip-path="url(#6af746bea8)"><path fill="#000000" d="M 19.496094 97.894531 L 20.570312 97.894531 L 19.496094 97.863281 C 30.046875 97.414062 30.125 97.335938 30.570312 86.707031 L 30.601562 87.203125 L 30.601562 86.707031 C 30.625 87.230469 30.644531 87.726562 30.667969 88.199219 L 30.894531 91.726562 C 31.320312 95.957031 32.371094 97.089844 36.453125 97.542969 L 40.316406 97.804688 C 40.746094 97.820312 41.199219 97.839844 41.671875 97.863281 L 41.195312 97.863281 L 41.671875 97.894531 C 31.125 98.34375 31.046875 98.421875 30.601562 109.046875 L 30.570312 108.5625 L 30.570312 109.046875 C 30.546875 108.550781 30.527344 108.078125 30.507812 107.625 L 30.265625 103.90625 C 29.683594 98.378906 27.964844 98.253906 19.496094 97.894531 Z M 37.136719 91.714844 L 37.824219 91.714844 L 37.136719 91.695312 C 43.894531 91.40625 43.945312 91.359375 44.230469 84.550781 L 44.25 84.867188 L 44.25 84.550781 C 44.265625 84.886719 44.277344 85.203125 44.292969 85.507812 L 44.4375 87.765625 C 44.710938 90.476562 45.382812 91.199219 48 91.492188 L 50.472656 91.65625 C 50.75 91.671875 51.039062 91.683594 51.34375 91.695312 L 51.039062 91.695312 L 51.34375 91.714844 C 44.585938 92.003906 44.535156 92.054688 44.25 98.863281 L 44.230469 98.550781 L 44.230469 98.863281 C 44.214844 98.542969 44.203125 98.238281 44.191406 97.949219 L 44.035156 95.570312 C 43.664062 92.023438 42.5625 91.945312 37.136719 91.714844 Z M 36.914062 104.265625 L 37.371094 104.265625 L 36.914062 104.253906 C 41.433594 104.058594 41.46875 104.027344 41.660156 99.472656 L 41.671875 99.683594 L 41.671875 99.472656 C 41.683594 99.695312 41.691406 99.90625 41.699219 100.109375 L 41.796875 101.621094 C 41.980469 103.4375 42.429688 103.921875 44.179688 104.113281 L 45.835938 104.226562 C 46.023438 104.234375 46.214844 104.242188 46.417969 104.253906 L 46.214844 104.253906 L 46.417969 104.265625 C 41.898438 104.457031 41.863281 104.492188 41.671875 109.046875 L 41.660156 108.839844 L 41.660156 109.046875 C 41.648438 108.835938 41.640625 108.632812 41.632812 108.4375 L 41.527344 106.84375 C 41.28125 104.472656 40.542969 104.421875 36.914062 104.265625 Z M 36.914062 104.265625 " fill-opacity="1" fill-rule="evenodd"/></g><g fill="#000000" fill-opacity="1"><g transform="translate(144.845214, 106.975752)"><g><path d="M 13.3125 0.375 C 11.039062 0.375 8.984375 -0.113281 7.140625 -1.09375 C 5.304688 -2.082031 3.863281 -3.453125 2.8125 -5.203125 C 1.757812 -6.953125 1.234375 -8.929688 1.234375 -11.140625 C 1.234375 -13.347656 1.757812 -15.328125 2.8125 -17.078125 C 3.863281 -18.835938 5.304688 -20.207031 7.140625 -21.1875 C 8.984375 -22.175781 11.050781 -22.671875 13.34375 -22.671875 C 15.269531 -22.671875 17.015625 -22.332031 18.578125 -21.65625 C 20.140625 -20.976562 21.453125 -20 22.515625 -18.71875 L 19.203125 -15.671875 C 17.691406 -17.410156 15.820312 -18.28125 13.59375 -18.28125 C 12.21875 -18.28125 10.988281 -17.976562 9.90625 -17.375 C 8.820312 -16.769531 7.976562 -15.925781 7.375 -14.84375 C 6.769531 -13.757812 6.46875 -12.523438 6.46875 -11.140625 C 6.46875 -9.765625 6.769531 -8.535156 7.375 -7.453125 C 7.976562 -6.367188 8.820312 -5.523438 9.90625 -4.921875 C 10.988281 -4.316406 12.21875 -4.015625 13.59375 -4.015625 C 15.820312 -4.015625 17.691406 -4.894531 19.203125 -6.65625 L 22.515625 -3.59375 C 21.453125 -2.300781 20.132812 -1.316406 18.5625 -0.640625 C 16.988281 0.0351562 15.238281 0.375 13.3125 0.375 Z M 13.3125 0.375 "/></g></g></g><g fill="#000000" fill-opacity="1"><g transform="translate(167.734395, 106.975752)"><g><path d="M 17.328125 -4.78125 L 6.96875 -4.78125 L 5 0 L -0.28125 0 L 9.65625 -22.296875 L 14.75 -22.296875 L 24.703125 0 L 19.296875 0 Z M 15.703125 -8.6875 L 12.171875 -17.234375 L 8.625 -8.6875 Z M 15.703125 -8.6875 "/></g></g></g><g fill="#000000" fill-opacity="1"><g transform="translate(192.119872, 106.975752)"><g><path d="M 23.09375 -22.296875 L 23.09375 0 L 18.84375 0 L 7.734375 -13.53125 L 7.734375 0 L 2.640625 0 L 2.640625 -22.296875 L 6.90625 -22.296875 L 17.984375 -8.75 L 17.984375 -22.296875 Z M 23.09375 -22.296875 "/></g></g></g><g fill="#000000" fill-opacity="1"><g transform="translate(217.715056, 106.975752)"><g><path d="M 24.078125 -22.296875 L 14.421875 0 L 9.328125 0 L -0.28125 -22.296875 L 5.28125 -22.296875 L 12.0625 -6.375 L 18.953125 -22.296875 Z M 24.078125 -22.296875 "/></g></g></g><g fill="#000000" fill-opacity="1"><g transform="translate(240.25397, 106.975752)"><g><path d="M 17.328125 -4.78125 L 6.96875 -4.78125 L 5 0 L -0.28125 0 L 9.65625 -22.296875 L 14.75 -22.296875 L 24.703125 0 L 19.296875 0 Z M 15.703125 -8.6875 L 12.171875 -17.234375 L 8.625 -8.6875 Z M 15.703125 -8.6875 "/></g></g></g><g fill="#000000" fill-opacity="1"><g transform="translate(264.639448, 106.975752)"><g><path d="M 9.96875 0.375 C 8.207031 0.375 6.503906 0.140625 4.859375 -0.328125 C 3.210938 -0.804688 1.890625 -1.429688 0.890625 -2.203125 L 2.640625 -6.078125 C 3.597656 -5.378906 4.734375 -4.816406 6.046875 -4.390625 C 7.367188 -3.960938 8.6875 -3.75 10 -3.75 C 11.46875 -3.75 12.550781 -3.96875 13.25 -4.40625 C 13.945312 -4.84375 14.296875 -5.421875 14.296875 -6.140625 C 14.296875 -6.671875 14.085938 -7.113281 13.671875 -7.46875 C 13.265625 -7.820312 12.734375 -8.101562 12.078125 -8.3125 C 11.429688 -8.519531 10.554688 -8.753906 9.453125 -9.015625 C 7.753906 -9.410156 6.363281 -9.8125 5.28125 -10.21875 C 4.195312 -10.625 3.269531 -11.269531 2.5 -12.15625 C 1.726562 -13.050781 1.34375 -14.242188 1.34375 -15.734375 C 1.34375 -17.023438 1.691406 -18.195312 2.390625 -19.25 C 3.085938 -20.300781 4.140625 -21.132812 5.546875 -21.75 C 6.960938 -22.363281 8.691406 -22.671875 10.734375 -22.671875 C 12.148438 -22.671875 13.535156 -22.5 14.890625 -22.15625 C 16.253906 -21.820312 17.445312 -21.335938 18.46875 -20.703125 L 16.875 -16.78125 C 14.8125 -17.945312 12.753906 -18.53125 10.703125 -18.53125 C 9.253906 -18.53125 8.1875 -18.296875 7.5 -17.828125 C 6.8125 -17.359375 6.46875 -16.742188 6.46875 -15.984375 C 6.46875 -15.222656 6.863281 -14.65625 7.65625 -14.28125 C 8.457031 -13.90625 9.671875 -13.539062 11.296875 -13.1875 C 13.003906 -12.78125 14.394531 -12.375 15.46875 -11.96875 C 16.550781 -11.570312 17.476562 -10.9375 18.25 -10.0625 C 19.03125 -9.1875 19.421875 -8.007812 19.421875 -6.53125 C 19.421875 -5.257812 19.066406 -4.097656 18.359375 -3.046875 C 17.648438 -1.992188 16.582031 -1.160156 15.15625 -0.546875 C 13.738281 0.0664062 12.007812 0.375 9.96875 0.375 Z M 9.96875 0.375 "/></g></g></g><g fill="#000000" fill-opacity="1"><g transform="translate(284.950068, 106.975752)"><g><path d="M 12.515625 -22.390625 C 14.617188 -22.390625 16.523438 -21.898438 18.234375 -20.921875 C 19.941406 -19.941406 21.28125 -18.597656 22.25 -16.890625 C 23.226562 -15.179688 23.71875 -13.285156 23.71875 -11.203125 C 23.71875 -9.128906 23.21875 -7.222656 22.21875 -5.484375 C 21.226562 -3.753906 19.875 -2.390625 18.15625 -1.390625 C 16.4375 -0.398438 14.535156 0.09375 12.453125 0.09375 C 10.367188 0.09375 8.472656 -0.398438 6.765625 -1.390625 C 5.054688 -2.390625 3.707031 -3.75 2.71875 -5.46875 C 1.726562 -7.195312 1.234375 -9.085938 1.234375 -11.140625 C 1.234375 -13.203125 1.726562 -15.09375 2.71875 -16.8125 C 3.707031 -18.53125 5.0625 -19.890625 6.78125 -20.890625 C 8.5 -21.890625 10.410156 -22.390625 12.515625 -22.390625 Z M 12.453125 -1.96875 C 14.148438 -1.96875 15.691406 -2.375 17.078125 -3.1875 C 18.472656 -4.007812 19.566406 -5.125 20.359375 -6.53125 C 21.160156 -7.945312 21.5625 -9.503906 21.5625 -11.203125 C 21.5625 -12.921875 21.171875 -14.46875 20.390625 -15.84375 C 19.617188 -17.226562 18.539062 -18.316406 17.15625 -19.109375 C 15.78125 -19.910156 14.234375 -20.3125 12.515625 -20.3125 C 10.796875 -20.3125 9.242188 -19.90625 7.859375 -19.09375 C 6.484375 -18.289062 5.398438 -17.1875 4.609375 -15.78125 C 3.828125 -14.382812 3.4375 -12.835938 3.4375 -11.140625 C 3.4375 -9.441406 3.828125 -7.890625 4.609375 -6.484375 C 5.398438 -5.085938 6.476562 -3.984375 7.84375 -3.171875 C 9.21875 -2.367188 10.753906 -1.96875 12.453125 -1.96875 Z M 18.375 -12.921875 C 18.375 -12.035156 18.175781 -11.269531 17.78125 -10.625 C 17.394531 -9.976562 16.816406 -9.472656 16.046875 -9.109375 L 18.75 -4.96875 L 15.4375 -4.96875 L 13.125 -8.53125 L 10.921875 -8.53125 L 10.921875 -4.96875 L 7.609375 -4.96875 L 7.609375 -17.328125 L 13 -17.328125 C 14.675781 -17.328125 15.988281 -16.925781 16.9375 -16.125 C 17.894531 -15.332031 18.375 -14.265625 18.375 -12.921875 Z M 12.765625 -11.015625 C 13.515625 -11.015625 14.09375 -11.175781 14.5 -11.5 C 14.914062 -11.832031 15.125 -12.304688 15.125 -12.921875 C 15.125 -13.546875 14.914062 -14.023438 14.5 -14.359375 C 14.09375 -14.703125 13.515625 -14.875 12.765625 -14.875 L 10.890625 -14.875 L 10.890625 -11.015625 Z M 12.765625 -11.015625 "/></g></g></g><g clip-path="url(#81aec7d9b8)"><path fill="#964590" d="M 19.496094 39.320312 L 51.328125 39.320312 L 51.328125 71.152344 L 19.496094 71.152344 Z M 19.496094 39.320312 " fill-opacity="1" fill-rule="nonzero"/></g><g clip-path="url(#151d0b3c4a)"><path fill="#72c53c" d="M 61.28125 39.320312 L 93.109375 39.320312 L 93.109375 71.152344 L 61.28125 71.152344 Z M 61.28125 39.320312 " fill-opacity="1" fill-rule="nonzero"/></g><g clip-path="url(#bc68d3c5c9)"><path fill="#d7d8da" d="M 103.0625 39.320312 L 134.894531 39.320312 L 134.894531 71.152344 L 103.0625 71.152344 Z M 103.0625 39.320312 " fill-opacity="1" fill-rule="nonzero"/></g><g fill="#000000" fill-opacity="1"><g transform="translate(144.845214, 65.850769)"><g><path d="M 24.234375 -17.390625 C 26.378906 -17.390625 28.082031 -16.753906 29.34375 -15.484375 C 30.601562 -14.222656 31.234375 -12.332031 31.234375 -9.8125 L 31.234375 0 L 26.265625 0 L 26.265625 -9.046875 C 26.265625 -10.398438 25.984375 -11.410156 25.421875 -12.078125 C 24.859375 -12.753906 24.054688 -13.09375 23.015625 -13.09375 C 21.847656 -13.09375 20.925781 -12.710938 20.25 -11.953125 C 19.570312 -11.203125 19.234375 -10.082031 19.234375 -8.59375 L 19.234375 0 L 14.265625 0 L 14.265625 -9.046875 C 14.265625 -11.742188 13.179688 -13.09375 11.015625 -13.09375 C 9.867188 -13.09375 8.957031 -12.710938 8.28125 -11.953125 C 7.601562 -11.203125 7.265625 -10.082031 7.265625 -8.59375 L 7.265625 0 L 2.296875 0 L 2.296875 -17.125 L 7.03125 -17.125 L 7.03125 -15.15625 C 7.675781 -15.875 8.457031 -16.425781 9.375 -16.8125 C 10.300781 -17.195312 11.316406 -17.390625 12.421875 -17.390625 C 13.628906 -17.390625 14.71875 -17.148438 15.6875 -16.671875 C 16.664062 -16.191406 17.457031 -15.492188 18.0625 -14.578125 C 18.757812 -15.472656 19.644531 -16.164062 20.71875 -16.65625 C 21.789062 -17.144531 22.960938 -17.390625 24.234375 -17.390625 Z M 24.234375 -17.390625 "/></g></g></g><g fill="#000000" fill-opacity="1"><g transform="translate(178.25089, 65.850769)"><g><path d="M 2.296875 -17.125 L 7.265625 -17.125 L 7.265625 0 L 2.296875 0 Z M 4.78125 -19.515625 C 3.863281 -19.515625 3.117188 -19.78125 2.546875 -20.3125 C 1.972656 -20.84375 1.6875 -21.503906 1.6875 -22.296875 C 1.6875 -23.078125 1.972656 -23.734375 2.546875 -24.265625 C 3.117188 -24.796875 3.863281 -25.0625 4.78125 -25.0625 C 5.6875 -25.0625 6.425781 -24.804688 7 -24.296875 C 7.570312 -23.785156 7.859375 -23.148438 7.859375 -22.390625 C 7.859375 -21.554688 7.570312 -20.867188 7 -20.328125 C 6.425781 -19.785156 5.6875 -19.515625 4.78125 -19.515625 Z M 4.78125 -19.515625 "/></g></g></g><g fill="#000000" fill-opacity="1"><g transform="translate(187.836314, 65.850769)"><g><path d="M 10.578125 0.25 C 8.742188 0.25 7.097656 -0.125 5.640625 -0.875 C 4.191406 -1.625 3.054688 -2.664062 2.234375 -4 C 1.421875 -5.34375 1.015625 -6.863281 1.015625 -8.5625 C 1.015625 -10.257812 1.421875 -11.773438 2.234375 -13.109375 C 3.054688 -14.453125 4.191406 -15.5 5.640625 -16.25 C 7.097656 -17.007812 8.742188 -17.390625 10.578125 -17.390625 C 12.378906 -17.390625 13.953125 -17.007812 15.296875 -16.25 C 16.648438 -15.5 17.632812 -14.425781 18.25 -13.03125 L 14.390625 -10.953125 C 13.503906 -12.523438 12.222656 -13.3125 10.546875 -13.3125 C 9.242188 -13.3125 8.164062 -12.882812 7.3125 -12.03125 C 6.46875 -11.1875 6.046875 -10.03125 6.046875 -8.5625 C 6.046875 -7.101562 6.46875 -5.945312 7.3125 -5.09375 C 8.164062 -4.25 9.242188 -3.828125 10.546875 -3.828125 C 12.242188 -3.828125 13.523438 -4.609375 14.390625 -6.171875 L 18.25 -4.078125 C 17.632812 -2.710938 16.648438 -1.648438 15.296875 -0.890625 C 13.953125 -0.128906 12.378906 0.25 10.578125 0.25 Z M 10.578125 0.25 "/></g></g></g><g fill="#000000" fill-opacity="1"><g transform="translate(206.656863, 65.850769)"><g><path d="M 7.03125 -14.875 C 7.625 -15.695312 8.425781 -16.320312 9.4375 -16.75 C 10.445312 -17.175781 11.609375 -17.390625 12.921875 -17.390625 L 12.921875 -12.796875 C 12.367188 -12.835938 12 -12.859375 11.8125 -12.859375 C 10.394531 -12.859375 9.28125 -12.460938 8.46875 -11.671875 C 7.664062 -10.878906 7.265625 -9.6875 7.265625 -8.09375 L 7.265625 0 L 2.296875 0 L 2.296875 -17.125 L 7.03125 -17.125 Z M 7.03125 -14.875 "/></g></g></g><g fill="#000000" fill-opacity="1"><g transform="translate(220.095564, 65.850769)"><g><path d="M 10.4375 0.25 C 8.632812 0.25 7.015625 -0.125 5.578125 -0.875 C 4.148438 -1.625 3.03125 -2.664062 2.21875 -4 C 1.414062 -5.34375 1.015625 -6.863281 1.015625 -8.5625 C 1.015625 -10.257812 1.414062 -11.773438 2.21875 -13.109375 C 3.03125 -14.453125 4.148438 -15.5 5.578125 -16.25 C 7.015625 -17.007812 8.632812 -17.390625 10.4375 -17.390625 C 12.25 -17.390625 13.863281 -17.007812 15.28125 -16.25 C 16.707031 -15.5 17.820312 -14.453125 18.625 -13.109375 C 19.4375 -11.773438 19.84375 -10.257812 19.84375 -8.5625 C 19.84375 -6.863281 19.4375 -5.34375 18.625 -4 C 17.820312 -2.664062 16.707031 -1.625 15.28125 -0.875 C 13.863281 -0.125 12.25 0.25 10.4375 0.25 Z M 10.4375 -3.828125 C 11.71875 -3.828125 12.765625 -4.253906 13.578125 -5.109375 C 14.398438 -5.972656 14.8125 -7.125 14.8125 -8.5625 C 14.8125 -10.007812 14.398438 -11.160156 13.578125 -12.015625 C 12.765625 -12.878906 11.71875 -13.3125 10.4375 -13.3125 C 9.164062 -13.3125 8.113281 -12.878906 7.28125 -12.015625 C 6.457031 -11.160156 6.046875 -10.007812 6.046875 -8.5625 C 6.046875 -7.125 6.457031 -5.972656 7.28125 -5.109375 C 8.113281 -4.253906 9.164062 -3.828125 10.4375 -3.828125 Z M 10.4375 -3.828125 "/></g></g></g><g clip-path="url(#86569b3e9f)"><path fill="#72c53c" d="M 19.523438 119.042969 L 51.355469 119.042969 L 51.355469 150.871094 L 19.523438 150.871094 Z M 19.523438 119.042969 " fill-opacity="1" fill-rule="nonzero"/></g><g clip-path="url(#732464fbc8)"><path fill="#d7d8da" d="M 61.289062 119.042969 L 93.121094 119.042969 L 93.121094 150.871094 L 61.289062 150.871094 Z M 61.289062 119.042969 " fill-opacity="1" fill-rule="nonzero"/></g><g clip-path="url(#2e8a9dfcb5)"><path fill="#fac90a" d="M 103.054688 119.042969 L 134.886719 119.042969 L 134.886719 150.871094 L 103.054688 150.871094 Z M 103.054688 119.042969 " fill-opacity="1" fill-rule="nonzero"/></g><g fill="#000000" fill-opacity="1"><g transform="translate(149.723348, 141.260056)"><g><path d="M 4.765625 -11.09375 L 4.765625 -7.484375 L 11.0625 -7.484375 L 11.0625 -4.953125 L 4.765625 -4.953125 L 4.765625 0 L 1.609375 0 L 1.609375 -13.609375 L 11.90625 -13.609375 L 11.90625 -11.09375 Z M 4.765625 -11.09375 "/></g></g></g><g fill="#000000" fill-opacity="1"><g transform="translate(162.156683, 141.260056)"><g><path d="M 10.296875 0 L 7.671875 -3.796875 L 4.765625 -3.796875 L 4.765625 0 L 1.609375 0 L 1.609375 -13.609375 L 7.515625 -13.609375 C 8.710938 -13.609375 9.753906 -13.40625 10.640625 -13 C 11.535156 -12.601562 12.222656 -12.035156 12.703125 -11.296875 C 13.179688 -10.554688 13.421875 -9.679688 13.421875 -8.671875 C 13.421875 -7.660156 13.175781 -6.785156 12.6875 -6.046875 C 12.207031 -5.316406 11.519531 -4.757812 10.625 -4.375 L 13.671875 0 Z M 10.234375 -8.671875 C 10.234375 -9.441406 9.984375 -10.03125 9.484375 -10.4375 C 8.992188 -10.84375 8.273438 -11.046875 7.328125 -11.046875 L 4.765625 -11.046875 L 4.765625 -6.296875 L 7.328125 -6.296875 C 8.273438 -6.296875 8.992188 -6.503906 9.484375 -6.921875 C 9.984375 -7.335938 10.234375 -7.921875 10.234375 -8.671875 Z M 10.234375 -8.671875 "/></g></g></g><g fill="#000000" fill-opacity="1"><g transform="translate(176.457931, 141.260056)"><g><path d="M 10.578125 -2.921875 L 4.265625 -2.921875 L 3.046875 0 L -0.171875 0 L 5.890625 -13.609375 L 9 -13.609375 L 15.09375 0 L 11.78125 0 Z M 9.59375 -5.3125 L 7.4375 -10.53125 L 5.265625 -5.3125 Z M 9.59375 -5.3125 "/></g></g></g><g fill="#000000" fill-opacity="1"><g transform="translate(191.362367, 141.260056)"><g><path d="M 14 0 L 13.984375 -8.171875 L 9.984375 -1.4375 L 8.5625 -1.4375 L 4.578125 -8 L 4.578125 0 L 1.609375 0 L 1.609375 -13.609375 L 4.21875 -13.609375 L 9.3125 -5.15625 L 14.34375 -13.609375 L 16.921875 -13.609375 L 16.96875 0 Z M 14 0 "/></g></g></g><g fill="#000000" fill-opacity="1"><g transform="translate(209.94427, 141.260056)"><g><path d="M 12.15625 -2.53125 L 12.15625 0 L 1.609375 0 L 1.609375 -13.609375 L 11.90625 -13.609375 L 11.90625 -11.09375 L 4.75 -11.09375 L 4.75 -8.125 L 11.0625 -8.125 L 11.0625 -5.6875 L 4.75 -5.6875 L 4.75 -2.53125 Z M 12.15625 -2.53125 "/></g></g></g><g fill="#000000" fill-opacity="1"><g transform="translate(223.000239, 141.260056)"><g><path d="M 22.203125 -13.609375 L 17.734375 0 L 14.359375 0 L 11.359375 -9.21875 L 8.265625 0 L 4.90625 0 L 0.421875 -13.609375 L 3.703125 -13.609375 L 6.765625 -4.046875 L 9.984375 -13.609375 L 12.890625 -13.609375 L 16.015625 -3.96875 L 19.1875 -13.609375 Z M 22.203125 -13.609375 "/></g></g></g><g fill="#000000" fill-opacity="1"><g transform="translate(245.629302, 141.260056)"><g><path d="M 8.203125 0.234375 C 6.796875 0.234375 5.523438 -0.0664062 4.390625 -0.671875 C 3.253906 -1.285156 2.363281 -2.128906 1.71875 -3.203125 C 1.082031 -4.273438 0.765625 -5.476562 0.765625 -6.8125 C 0.765625 -8.144531 1.082031 -9.34375 1.71875 -10.40625 C 2.363281 -11.476562 3.253906 -12.316406 4.390625 -12.921875 C 5.523438 -13.535156 6.796875 -13.84375 8.203125 -13.84375 C 9.617188 -13.84375 10.890625 -13.535156 12.015625 -12.921875 C 13.148438 -12.316406 14.039062 -11.476562 14.6875 -10.40625 C 15.332031 -9.34375 15.65625 -8.144531 15.65625 -6.8125 C 15.65625 -5.476562 15.332031 -4.273438 14.6875 -3.203125 C 14.039062 -2.128906 13.148438 -1.285156 12.015625 -0.671875 C 10.890625 -0.0664062 9.617188 0.234375 8.203125 0.234375 Z M 8.203125 -2.453125 C 9.015625 -2.453125 9.742188 -2.632812 10.390625 -3 C 11.035156 -3.375 11.539062 -3.890625 11.90625 -4.546875 C 12.28125 -5.210938 12.46875 -5.96875 12.46875 -6.8125 C 12.46875 -7.65625 12.28125 -8.40625 11.90625 -9.0625 C 11.539062 -9.726562 11.035156 -10.242188 10.390625 -10.609375 C 9.742188 -10.984375 9.015625 -11.171875 8.203125 -11.171875 C 7.398438 -11.171875 6.675781 -10.984375 6.03125 -10.609375 C 5.382812 -10.242188 4.875 -9.726562 4.5 -9.0625 C 4.132812 -8.40625 3.953125 -7.65625 3.953125 -6.8125 C 3.953125 -5.96875 4.132812 -5.210938 4.5 -4.546875 C 4.875 -3.890625 5.382812 -3.375 6.03125 -3 C 6.675781 -2.632812 7.398438 -2.453125 8.203125 -2.453125 Z M 8.203125 -2.453125 "/></g></g></g><g fill="#000000" fill-opacity="1"><g transform="translate(262.051425, 141.260056)"><g><path d="M 10.296875 0 L 7.671875 -3.796875 L 4.765625 -3.796875 L 4.765625 0 L 1.609375 0 L 1.609375 -13.609375 L 7.515625 -13.609375 C 8.710938 -13.609375 9.753906 -13.40625 10.640625 -13 C 11.535156 -12.601562 12.222656 -12.035156 12.703125 -11.296875 C 13.179688 -10.554688 13.421875 -9.679688 13.421875 -8.671875 C 13.421875 -7.660156 13.175781 -6.785156 12.6875 -6.046875 C 12.207031 -5.316406 11.519531 -4.757812 10.625 -4.375 L 13.671875 0 Z M 10.234375 -8.671875 C 10.234375 -9.441406 9.984375 -10.03125 9.484375 -10.4375 C 8.992188 -10.84375 8.273438 -11.046875 7.328125 -11.046875 L 4.765625 -11.046875 L 4.765625 -6.296875 L 7.328125 -6.296875 C 8.273438 -6.296875 8.992188 -6.503906 9.484375 -6.921875 C 9.984375 -7.335938 10.234375 -7.921875 10.234375 -8.671875 Z M 10.234375 -8.671875 "/></g></g></g><g fill="#000000" fill-opacity="1"><g transform="translate(276.352673, 141.260056)"><g><path d="M 6.578125 -5.34375 L 4.75 -3.4375 L 4.75 0 L 1.609375 0 L 1.609375 -13.609375 L 4.75 -13.609375 L 4.75 -7.25 L 10.78125 -13.609375 L 14.28125 -13.609375 L 8.640625 -7.546875 L 14.609375 0 L 10.9375 0 Z M 6.578125 -5.34375 "/></g></g></g><g fill="#000000" fill-opacity="1"><g transform="translate(290.751217, 141.260056)"><g/></g></g><g fill="#000000" fill-opacity="1"><g transform="translate(296.257683, 141.260056)"><g><path d="M 14.703125 -13.609375 L 8.8125 0 L 5.703125 0 L -0.171875 -13.609375 L 3.234375 -13.609375 L 7.375 -3.890625 L 11.578125 -13.609375 Z M 14.703125 -13.609375 "/></g></g></g><g fill="#000000" fill-opacity="1"><g transform="translate(310.772969, 141.260056)"><g><path d="M 10.9375 -2.5625 L 10.9375 0 L 0.640625 0 L 0.640625 -2.046875 L 5.890625 -7 C 6.453125 -7.53125 6.828125 -7.988281 7.015625 -8.375 C 7.210938 -8.757812 7.3125 -9.140625 7.3125 -9.515625 C 7.3125 -10.054688 7.125 -10.472656 6.75 -10.765625 C 6.382812 -11.054688 5.847656 -11.203125 5.140625 -11.203125 C 4.535156 -11.203125 3.992188 -11.085938 3.515625 -10.859375 C 3.035156 -10.640625 2.632812 -10.300781 2.3125 -9.84375 L 0.015625 -11.328125 C 0.546875 -12.117188 1.28125 -12.734375 2.21875 -13.171875 C 3.15625 -13.617188 4.222656 -13.84375 5.421875 -13.84375 C 6.429688 -13.84375 7.316406 -13.675781 8.078125 -13.34375 C 8.835938 -13.019531 9.425781 -12.554688 9.84375 -11.953125 C 10.269531 -11.347656 10.484375 -10.640625 10.484375 -9.828125 C 10.484375 -9.085938 10.328125 -8.390625 10.015625 -7.734375 C 9.703125 -7.085938 9.097656 -6.351562 8.203125 -5.53125 L 5.078125 -2.5625 Z M 10.9375 -2.5625 "/></g></g></g><g fill="#000000" fill-opacity="1"><g transform="translate(322.25289, 141.260056)"><g><path d="M 2.546875 0.15625 C 2.015625 0.15625 1.566406 -0.0234375 1.203125 -0.390625 C 0.835938 -0.753906 0.65625 -1.207031 0.65625 -1.75 C 0.65625 -2.3125 0.835938 -2.765625 1.203125 -3.109375 C 1.566406 -3.453125 2.015625 -3.625 2.546875 -3.625 C 3.078125 -3.625 3.523438 -3.453125 3.890625 -3.109375 C 4.253906 -2.765625 4.4375 -2.3125 4.4375 -1.75 C 4.4375 -1.207031 4.253906 -0.753906 3.890625 -0.390625 C 3.523438 -0.0234375 3.078125 0.15625 2.546875 0.15625 Z M 2.546875 0.15625 "/></g></g></g><g fill="#000000" fill-opacity="1"><g transform="translate(327.350749, 141.260056)"><g><path d="M 6.015625 -13.609375 L 6.015625 0 L 2.859375 0 L 2.859375 -11.09375 L 0.140625 -11.09375 L 0.140625 -13.609375 Z M 6.015625 -13.609375 "/></g></g></g></svg>