<svg xmlns="http://www.w3.org/2000/svg" width="1200" height="700" viewBox="0 0 1200 700">
  <rect width="1200" height="700" fill="#ffffff"/>
  <rect x="40" y="40" width="520" height="260" fill="#f7f7f7" stroke="#333" stroke-width="2"/>
  <text x="60" y="70" font-family="Arial" font-size="20" fill="#111">Canon (normative)</text>
  <text x="60" y="105" font-family="Arial" font-size="16" fill="#111">Definitions</text>
  <text x="60" y="130" font-family="Arial" font-size="16" fill="#111">Evidence Logic</text>
  <text x="60" y="155" font-family="Arial" font-size="16" fill="#111">Decision Theory</text>
  <text x="60" y="180" font-family="Arial" font-size="16" fill="#111">Epistemic Model</text>
  <text x="60" y="205" font-family="Arial" font-size="16" fill="#111">Stage Mechanics</text>

  <rect x="640" y="40" width="520" height="260" fill="#f7f7f7" stroke="#333" stroke-width="2"/>
  <text x="660" y="70" font-family="Arial" font-size="20" fill="#111">Book (explanatory)</text>
  <text x="660" y="105" font-family="Arial" font-size="16" fill="#111">Front matter</text>
  <text x="660" y="130" font-family="Arial" font-size="16" fill="#111">Phase 1</text>
  <text x="660" y="155" font-family="Arial" font-size="16" fill="#111">Phase 2</text>
  <text x="660" y="180" font-family="Arial" font-size="16" fill="#111">Phase 3</text>
  <text x="660" y="205" font-family="Arial" font-size="16" fill="#111">Phase 4</text>
  <text x="660" y="230" font-family="Arial" font-size="16" fill="#111">Phase 5</text>
  <text x="660" y="255" font-family="Arial" font-size="16" fill="#111">Conclusion / Tools</text>

  <rect x="40" y="330" width="520" height="150" fill="#eef6ff" stroke="#1a5fb4" stroke-width="2"/>
  <text x="60" y="360" font-family="Arial" font-size="18" fill="#1a5fb4">Capability layer (parallel)</text>
  <text x="60" y="390" font-family="Arial" font-size="16" fill="#111">Pre-Discovery (governance / maturity)</text>
  <text x="60" y="415" font-family="Arial" font-size="14" fill="#555">Orthogonal to epistemic stages</text>

  <rect x="640" y="330" width="520" height="150" fill="#fff7e6" stroke="#c77d00" stroke-width="2"/>
  <text x="660" y="360" font-family="Arial" font-size="18" fill="#c77d00">Epistemic stages (non-linear)</text>
  <text x="660" y="390" font-family="Arial" font-size="16" fill="#111">Explore → Test → Validate → Commit</text>
  <text x="660" y="415" font-family="Arial" font-size="14" fill="#555">Reversible, evidence-thresholded</text>

  <line x1="300" y1="300" x2="300" y2="330" stroke="#333" stroke-width="2" stroke-dasharray="6,6"/>
  <line x1="900" y1="300" x2="900" y2="330" stroke="#333" stroke-width="2" stroke-dasharray="6,6"/>

  <text x="40" y="660" font-family="Arial" font-size="16" fill="#111">Figure 1 — MCF 2.2 System Map</text>
</svg>
