<svg xmlns="http://www.w3.org/2000/svg" xmlns:xlink="http://www.w3.org/1999/xlink" width="250" zoomAndPan="magnify" viewBox="0 0 187.5 187.499992" height="250" preserveAspectRatio="xMidYMid meet" version="1.0"><defs><clipPath id="5868e0b73b"><path d="M 93.871094 77.070312 L 117.132812 77.070312 L 117.132812 100.332031 L 93.871094 100.332031 Z M 93.871094 77.070312 " clip-rule="nonzero"/></clipPath><clipPath id="1b26fd389c"><path d="M 93.871094 132.4375 L 117.132812 132.4375 L 117.132812 155.703125 L 93.871094 155.703125 Z M 93.871094 132.4375 " clip-rule="nonzero"/></clipPath><clipPath id="5a380e5fac"><path d="M 145.40625 104.042969 L 168.671875 104.042969 L 168.671875 127.304688 L 145.40625 127.304688 Z M 145.40625 104.042969 " clip-rule="nonzero"/></clipPath><clipPath id="dad3efa561"><path d="M 122.148438 30.507812 L 145.445312 30.507812 L 145.445312 52.679688 L 122.148438 52.679688 Z M 122.148438 30.507812 " clip-rule="nonzero"/></clipPath><clipPath id="76b0bd55d2"><path d="M 133.78125 30.507812 L 136.527344 38.976562 L 145.410156 38.976562 L 138.222656 44.210938 L 140.96875 52.679688 L 133.78125 47.445312 L 126.589844 52.679688 L 129.335938 44.210938 L 122.148438 38.976562 L 131.035156 38.976562 Z M 133.78125 30.507812 " clip-rule="nonzero"/></clipPath></defs><path fill="#000000" d="M 20.195312 115.269531 C 20.347656 115.269531 20.488281 115.300781 20.625 115.355469 C 20.765625 115.414062 20.886719 115.496094 20.992188 115.601562 C 21.09375 115.703125 21.175781 115.828125 21.234375 115.964844 C 21.289062 116.101562 21.320312 116.246094 21.320312 116.394531 C 21.320312 116.542969 21.289062 116.683594 21.234375 116.824219 C 21.175781 116.960938 21.09375 117.082031 20.992188 117.1875 C 20.886719 117.292969 20.765625 117.371094 20.625 117.429688 C 20.488281 117.488281 20.347656 117.515625 20.195312 117.515625 C 20.046875 117.515625 19.90625 117.488281 19.765625 117.429688 C 19.628906 117.371094 19.507812 117.292969 19.402344 117.1875 C 19.296875 117.082031 19.21875 116.960938 19.160156 116.824219 C 19.101562 116.683594 19.074219 116.542969 19.074219 116.394531 C 19.074219 116.246094 19.101562 116.101562 19.160156 115.964844 C 19.21875 115.828125 19.296875 115.703125 19.402344 115.601562 C 19.507812 115.496094 19.628906 115.414062 19.765625 115.355469 C 19.90625 115.300781 20.046875 115.269531 20.195312 115.269531 Z M 24.683594 115.269531 C 24.835938 115.269531 24.976562 115.300781 25.113281 115.355469 C 25.253906 115.414062 25.375 115.496094 25.480469 115.601562 C 25.582031 115.703125 25.664062 115.828125 25.722656 115.964844 C 25.777344 116.101562 25.808594 116.246094 25.808594 116.394531 C 25.808594 116.542969 25.777344 116.683594 25.722656 116.824219 C 25.664062 116.960938 25.582031 117.082031 25.480469 117.1875 C 25.375 117.292969 25.253906 117.371094 25.113281 117.429688 C 24.976562 117.488281 24.835938 117.515625 24.683594 117.515625 C 24.535156 117.515625 24.394531 117.488281 24.253906 117.429688 C 24.117188 117.371094 23.996094 117.292969 23.890625 117.1875 C 23.785156 117.082031 23.707031 116.960938 23.648438 116.824219 C 23.589844 116.683594 23.5625 116.542969 23.5625 116.394531 C 23.5625 116.246094 23.589844 116.101562 23.648438 115.964844 C 23.707031 115.828125 23.785156 115.703125 23.890625 115.601562 C 23.996094 115.496094 24.117188 115.414062 24.253906 115.355469 C 24.394531 115.300781 24.535156 115.269531 24.683594 115.269531 Z M 29.171875 115.269531 C 29.320312 115.269531 29.464844 115.300781 29.601562 115.355469 C 29.742188 115.414062 29.863281 115.496094 29.96875 115.601562 C 30.070312 115.703125 30.152344 115.828125 30.210938 115.964844 C 30.265625 116.101562 30.296875 116.246094 30.296875 116.394531 C 30.296875 116.542969 30.265625 116.683594 30.210938 116.824219 C 30.152344 116.960938 30.070312 117.082031 29.96875 117.1875 C 29.863281 117.292969 29.742188 117.371094 29.601562 117.429688 C 29.464844 117.488281 29.320312 117.515625 29.171875 117.515625 C 29.023438 117.515625 28.882812 117.488281 28.742188 117.429688 C 28.605469 117.371094 28.484375 117.292969 28.378906 117.1875 C 28.273438 117.082031 28.195312 116.960938 28.136719 116.824219 C 28.078125 116.683594 28.050781 116.542969 28.050781 116.394531 C 28.050781 116.246094 28.078125 116.101562 28.136719 115.964844 C 28.195312 115.828125 28.273438 115.703125 28.378906 115.601562 C 28.484375 115.496094 28.605469 115.414062 28.742188 115.355469 C 28.882812 115.300781 29.023438 115.269531 29.171875 115.269531 Z M 33.660156 115.269531 C 33.808594 115.269531 33.953125 115.300781 34.089844 115.355469 C 34.230469 115.414062 34.351562 115.496094 34.457031 115.601562 C 34.558594 115.703125 34.640625 115.828125 34.699219 115.964844 C 34.753906 116.101562 34.785156 116.246094 34.785156 116.394531 C 34.785156 116.542969 34.753906 116.683594 34.699219 116.824219 C 34.640625 116.960938 34.558594 117.082031 34.457031 117.1875 C 34.351562 117.292969 34.230469 117.371094 34.089844 117.429688 C 33.953125 117.488281 33.808594 117.515625 33.660156 117.515625 C 33.511719 117.515625 33.371094 117.488281 33.230469 117.429688 C 33.09375 117.371094 32.972656 117.292969 32.867188 117.1875 C 32.761719 117.082031 32.683594 116.960938 32.625 116.824219 C 32.566406 116.683594 32.539062 116.542969 32.539062 116.394531 C 32.539062 116.246094 32.566406 116.101562 32.625 115.964844 C 32.683594 115.828125 32.761719 115.703125 32.867188 115.601562 C 32.972656 115.496094 33.09375 115.414062 33.230469 115.355469 C 33.371094 115.300781 33.511719 115.269531 33.660156 115.269531 Z M 38.148438 115.269531 C 38.296875 115.269531 38.441406 115.300781 38.578125 115.355469 C 38.71875 115.414062 38.839844 115.496094 38.941406 115.601562 C 39.046875 115.703125 39.128906 115.828125 39.1875 115.964844 C 39.242188 116.101562 39.273438 116.246094 39.273438 116.394531 C 39.273438 116.542969 39.242188 116.683594 39.1875 116.824219 C 39.128906 116.960938 39.046875 117.082031 38.941406 117.1875 C 38.839844 117.292969 38.71875 117.371094 38.578125 117.429688 C 38.441406 117.488281 38.296875 117.515625 38.148438 117.515625 C 38 117.515625 37.859375 117.488281 37.71875 117.429688 C 37.582031 117.371094 37.460938 117.292969 37.355469 117.1875 C 37.25 117.082031 37.171875 116.960938 37.113281 116.824219 C 37.054688 116.683594 37.027344 116.542969 37.027344 116.394531 C 37.027344 116.246094 37.054688 116.101562 37.113281 115.964844 C 37.171875 115.828125 37.25 115.703125 37.355469 115.601562 C 37.460938 115.496094 37.582031 115.414062 37.71875 115.355469 C 37.859375 115.300781 38 115.269531 38.148438 115.269531 Z M 42.636719 115.269531 C 42.785156 115.269531 42.929688 115.300781 43.066406 115.355469 C 43.203125 115.414062 43.328125 115.496094 43.429688 115.601562 C 43.535156 115.703125 43.617188 115.828125 43.675781 115.964844 C 43.730469 116.101562 43.761719 116.246094 43.761719 116.394531 C 43.761719 116.542969 43.730469 116.683594 43.675781 116.824219 C 43.617188 116.960938 43.535156 117.082031 43.429688 117.1875 C 43.328125 117.292969 43.203125 117.371094 43.066406 117.429688 C 42.929688 117.488281 42.785156 117.515625 42.636719 117.515625 C 42.488281 117.515625 42.347656 117.488281 42.207031 117.429688 C 42.070312 117.371094 41.949219 117.292969 41.84375 117.1875 C 41.738281 117.082031 41.660156 116.960938 41.601562 116.824219 C 41.542969 116.683594 41.515625 116.542969 41.515625 116.394531 C 41.515625 116.246094 41.542969 116.101562 41.601562 115.964844 C 41.660156 115.828125 41.738281 115.703125 41.84375 115.601562 C 41.949219 115.496094 42.070312 115.414062 42.207031 115.355469 C 42.347656 115.300781 42.488281 115.269531 42.636719 115.269531 Z M 47.125 115.269531 C 47.273438 115.269531 47.417969 115.300781 47.554688 115.355469 C 47.691406 115.414062 47.816406 115.496094 47.917969 115.601562 C 48.023438 115.703125 48.105469 115.828125 48.164062 115.964844 C 48.21875 116.101562 48.25 116.246094 48.25 116.394531 C 48.25 116.542969 48.21875 116.683594 48.164062 116.824219 C 48.105469 116.960938 48.023438 117.082031 47.917969 117.1875 C 47.816406 117.292969 47.691406 117.371094 47.554688 117.429688 C 47.417969 117.488281 47.273438 117.515625 47.125 117.515625 C 46.976562 117.515625 46.835938 117.488281 46.695312 117.429688 C 46.558594 117.371094 46.4375 117.292969 46.332031 117.1875 C 46.226562 117.082031 46.148438 116.960938 46.089844 116.824219 C 46.03125 116.683594 46.003906 116.542969 46.003906 116.394531 C 46.003906 116.246094 46.03125 116.101562 46.089844 115.964844 C 46.148438 115.828125 46.226562 115.703125 46.332031 115.601562 C 46.4375 115.496094 46.558594 115.414062 46.695312 115.355469 C 46.835938 115.300781 46.976562 115.269531 47.125 115.269531 Z M 51.613281 115.269531 C 51.761719 115.269531 51.90625 115.300781 52.042969 115.355469 C 52.179688 115.414062 52.304688 115.496094 52.40625 115.601562 C 52.511719 115.703125 52.59375 115.828125 52.652344 115.964844 C 52.707031 116.101562 52.738281 116.246094 52.738281 116.394531 C 52.738281 116.542969 52.707031 116.683594 52.652344 116.824219 C 52.59375 116.960938 52.511719 117.082031 52.40625 117.1875 C 52.304688 117.292969 52.179688 117.371094 52.042969 117.429688 C 51.90625 117.488281 51.761719 117.515625 51.613281 117.515625 C 51.464844 117.515625 51.324219 117.488281 51.183594 117.429688 C 51.046875 117.371094 50.925781 117.292969 50.820312 117.1875 C 50.714844 117.082031 50.636719 116.960938 50.578125 116.824219 C 50.519531 116.683594 50.492188 116.542969 50.492188 116.394531 C 50.492188 116.246094 50.519531 116.101562 50.578125 115.964844 C 50.636719 115.828125 50.714844 115.703125 50.820312 115.601562 C 50.925781 115.496094 51.046875 115.414062 51.183594 115.355469 C 51.324219 115.300781 51.464844 115.269531 51.613281 115.269531 Z M 56.101562 115.269531 C 56.25 115.269531 56.394531 115.300781 56.53125 115.355469 C 56.667969 115.414062 56.792969 115.496094 56.894531 115.601562 C 57 115.703125 57.082031 115.828125 57.140625 115.964844 C 57.195312 116.101562 57.226562 116.246094 57.226562 116.394531 C 57.226562 116.542969 57.195312 116.683594 57.140625 116.824219 C 57.082031 116.960938 57 117.082031 56.894531 117.1875 C 56.792969 117.292969 56.667969 117.371094 56.53125 117.429688 C 56.394531 117.488281 56.25 117.515625 56.101562 117.515625 C 55.953125 117.515625 55.8125 117.488281 55.671875 117.429688 C 55.535156 117.371094 55.414062 117.292969 55.308594 117.1875 C 55.203125 117.082031 55.125 116.960938 55.066406 116.824219 C 55.007812 116.683594 54.980469 116.542969 54.980469 116.394531 C 54.980469 116.246094 55.007812 116.101562 55.066406 115.964844 C 55.125 115.828125 55.203125 115.703125 55.308594 115.601562 C 55.414062 115.496094 55.535156 115.414062 55.671875 115.355469 C 55.8125 115.300781 55.953125 115.269531 56.101562 115.269531 Z M 60.589844 115.269531 C 60.738281 115.269531 60.882812 115.300781 61.019531 115.355469 C 61.15625 115.414062 61.28125 115.496094 61.382812 115.601562 C 61.488281 115.703125 61.570312 115.828125 61.628906 115.964844 C 61.683594 116.101562 61.714844 116.246094 61.714844 116.394531 C 61.714844 116.542969 61.683594 116.683594 61.628906 116.824219 C 61.570312 116.960938 61.488281 117.082031 61.382812 117.1875 C 61.28125 117.292969 61.15625 117.371094 61.019531 117.429688 C 60.882812 117.488281 60.738281 117.515625 60.589844 117.515625 C 60.441406 117.515625 60.300781 117.488281 60.160156 117.429688 C 60.023438 117.371094 59.902344 117.292969 59.796875 117.1875 C 59.691406 117.082031 59.613281 116.960938 59.554688 116.824219 C 59.496094 116.683594 59.46875 116.542969 59.46875 116.394531 C 59.46875 116.246094 59.496094 116.101562 59.554688 115.964844 C 59.613281 115.828125 59.691406 115.703125 59.796875 115.601562 C 59.902344 115.496094 60.023438 115.414062 60.160156 115.355469 C 60.300781 115.300781 60.441406 115.269531 60.589844 115.269531 Z M 65.078125 115.269531 C 65.226562 115.269531 65.371094 115.300781 65.507812 115.355469 C 65.644531 115.414062 65.769531 115.496094 65.871094 115.601562 C 65.976562 115.703125 66.058594 115.828125 66.117188 115.964844 C 66.171875 116.101562 66.203125 116.246094 66.203125 116.394531 C 66.203125 116.542969 66.171875 116.683594 66.117188 116.824219 C 66.058594 116.960938 65.976562 117.082031 65.871094 117.1875 C 65.769531 117.292969 65.644531 117.371094 65.507812 117.429688 C 65.371094 117.488281 65.226562 117.515625 65.078125 117.515625 C 64.929688 117.515625 64.789062 117.488281 64.648438 117.429688 C 64.511719 117.371094 64.390625 117.292969 64.285156 117.1875 C 64.179688 117.082031 64.101562 116.960938 64.042969 116.824219 C 63.984375 116.683594 63.957031 116.542969 63.957031 116.394531 C 63.957031 116.246094 63.984375 116.101562 64.042969 115.964844 C 64.101562 115.828125 64.179688 115.703125 64.285156 115.601562 C 64.390625 115.496094 64.511719 115.414062 64.648438 115.355469 C 64.789062 115.300781 64.929688 115.269531 65.078125 115.269531 Z M 69.566406 115.269531 C 69.714844 115.269531 69.859375 115.300781 69.996094 115.355469 C 70.132812 115.414062 70.257812 115.496094 70.359375 115.601562 C 70.464844 115.703125 70.546875 115.828125 70.605469 115.964844 C 70.660156 116.101562 70.691406 116.246094 70.691406 116.394531 C 70.691406 116.542969 70.660156 116.683594 70.605469 116.824219 C 70.546875 116.960938 70.464844 117.082031 70.359375 117.1875 C 70.257812 117.292969 70.132812 117.371094 69.996094 117.429688 C 69.859375 117.488281 69.714844 117.515625 69.566406 117.515625 C 69.417969 117.515625 69.277344 117.488281 69.136719 117.429688 C 69 117.371094 68.878906 117.292969 68.773438 117.1875 C 68.667969 117.082031 68.585938 116.960938 68.53125 116.824219 C 68.472656 116.683594 68.445312 116.542969 68.445312 116.394531 C 68.445312 116.246094 68.472656 116.101562 68.53125 115.964844 C 68.585938 115.828125 68.667969 115.703125 68.773438 115.601562 C 68.878906 115.496094 69 115.414062 69.136719 115.355469 C 69.277344 115.300781 69.417969 115.269531 69.566406 115.269531 Z M 69.566406 115.269531 " fill-opacity="1" fill-rule="nonzero"/><path stroke-linecap="round" transform="matrix(0.748005, 0.00000000000000014, -0.00000000000000014, 0.748005, 19.074712, 115.271007)" fill="none" stroke-linejoin="round" d="M 68.175458 -2.999528 L 74.175792 1.502028 L 68.175458 5.998362 " stroke="#000000" stroke-width="3" stroke-opacity="1" stroke-miterlimit="4"/><path fill="#000000" d="M 20.707031 115.675781 C 20.8125 115.78125 20.894531 115.902344 20.949219 116.039062 C 21.007812 116.175781 21.035156 116.320312 21.035156 116.46875 C 21.035156 116.617188 21.007812 116.761719 20.949219 116.898438 C 20.894531 117.035156 20.8125 117.15625 20.707031 117.261719 C 20.601562 117.367188 20.480469 117.449219 20.34375 117.507812 C 20.203125 117.5625 20.0625 117.589844 19.914062 117.589844 C 19.765625 117.589844 19.621094 117.5625 19.484375 117.507812 C 19.347656 117.449219 19.226562 117.367188 19.121094 117.261719 C 19.015625 117.15625 18.933594 117.035156 18.875 116.898438 C 18.820312 116.761719 18.789062 116.617188 18.789062 116.46875 C 18.789062 116.320312 18.820312 116.175781 18.875 116.039062 C 18.933594 115.902344 19.015625 115.78125 19.121094 115.675781 C 19.226562 115.570312 19.347656 115.488281 19.484375 115.433594 C 19.621094 115.375 19.765625 115.347656 19.914062 115.347656 C 20.0625 115.347656 20.203125 115.375 20.34375 115.433594 C 20.480469 115.488281 20.601562 115.570312 20.707031 115.675781 Z M 23.878906 118.851562 C 23.984375 118.957031 24.066406 119.078125 24.125 119.214844 C 24.179688 119.351562 24.207031 119.496094 24.207031 119.644531 C 24.207031 119.792969 24.179688 119.933594 24.125 120.074219 C 24.066406 120.210938 23.984375 120.332031 23.878906 120.4375 C 23.773438 120.542969 23.652344 120.621094 23.515625 120.679688 C 23.378906 120.738281 23.234375 120.765625 23.085938 120.765625 C 22.9375 120.765625 22.792969 120.738281 22.65625 120.679688 C 22.519531 120.621094 22.398438 120.542969 22.292969 120.4375 C 22.1875 120.332031 22.105469 120.210938 22.050781 120.074219 C 21.992188 119.933594 21.964844 119.792969 21.964844 119.644531 C 21.964844 119.496094 21.992188 119.351562 22.050781 119.214844 C 22.105469 119.078125 22.1875 118.953125 22.292969 118.851562 C 22.398438 118.746094 22.519531 118.664062 22.65625 118.605469 C 22.792969 118.550781 22.9375 118.519531 23.085938 118.519531 C 23.234375 118.519531 23.378906 118.550781 23.515625 118.605469 C 23.652344 118.664062 23.773438 118.746094 23.878906 118.851562 Z M 27.054688 122.023438 C 27.160156 122.128906 27.238281 122.25 27.296875 122.386719 C 27.355469 122.523438 27.382812 122.667969 27.382812 122.816406 C 27.382812 122.964844 27.355469 123.109375 27.296875 123.246094 C 27.238281 123.382812 27.160156 123.503906 27.054688 123.609375 C 26.949219 123.714844 26.828125 123.796875 26.691406 123.855469 C 26.550781 123.910156 26.410156 123.9375 26.261719 123.9375 C 26.113281 123.9375 25.96875 123.910156 25.832031 123.855469 C 25.695312 123.796875 25.574219 123.714844 25.46875 123.609375 C 25.363281 123.503906 25.28125 123.382812 25.222656 123.246094 C 25.167969 123.109375 25.136719 122.964844 25.136719 122.816406 C 25.136719 122.667969 25.167969 122.523438 25.222656 122.386719 C 25.28125 122.25 25.363281 122.128906 25.46875 122.023438 C 25.570312 121.917969 25.695312 121.835938 25.832031 121.78125 C 25.96875 121.722656 26.113281 121.695312 26.261719 121.695312 C 26.410156 121.695312 26.550781 121.722656 26.691406 121.78125 C 26.828125 121.835938 26.949219 121.917969 27.054688 122.023438 Z M 30.226562 125.195312 C 30.332031 125.300781 30.414062 125.421875 30.472656 125.5625 C 30.527344 125.699219 30.554688 125.84375 30.554688 125.992188 C 30.554688 126.140625 30.527344 126.28125 30.472656 126.421875 C 30.414062 126.558594 30.332031 126.679688 30.226562 126.785156 C 30.121094 126.890625 30 126.96875 29.863281 127.027344 C 29.726562 127.085938 29.582031 127.113281 29.433594 127.113281 C 29.285156 127.113281 29.140625 127.085938 29.003906 127.027344 C 28.867188 126.96875 28.746094 126.890625 28.640625 126.785156 C 28.535156 126.679688 28.453125 126.558594 28.398438 126.417969 C 28.339844 126.28125 28.3125 126.140625 28.3125 125.992188 C 28.3125 125.839844 28.339844 125.699219 28.398438 125.5625 C 28.453125 125.421875 28.535156 125.300781 28.640625 125.195312 C 28.746094 125.09375 28.867188 125.011719 29.003906 124.953125 C 29.140625 124.898438 29.285156 124.867188 29.433594 124.867188 C 29.582031 124.867188 29.726562 124.898438 29.863281 124.953125 C 30 125.011719 30.121094 125.09375 30.226562 125.195312 Z M 33.402344 128.371094 C 33.507812 128.476562 33.585938 128.597656 33.644531 128.734375 C 33.703125 128.871094 33.730469 129.015625 33.730469 129.164062 C 33.730469 129.3125 33.703125 129.457031 33.644531 129.59375 C 33.585938 129.730469 33.507812 129.851562 33.402344 129.957031 C 33.296875 130.0625 33.175781 130.144531 33.039062 130.199219 C 32.898438 130.257812 32.757812 130.285156 32.609375 130.285156 C 32.460938 130.285156 32.316406 130.257812 32.179688 130.199219 C 32.039062 130.144531 31.917969 130.0625 31.8125 129.957031 C 31.710938 129.851562 31.628906 129.730469 31.570312 129.59375 C 31.515625 129.457031 31.484375 129.3125 31.484375 129.164062 C 31.484375 129.015625 31.515625 128.871094 31.570312 128.734375 C 31.628906 128.597656 31.710938 128.476562 31.8125 128.371094 C 31.917969 128.265625 32.039062 128.183594 32.179688 128.128906 C 32.316406 128.070312 32.457031 128.042969 32.609375 128.042969 C 32.757812 128.042969 32.898438 128.070312 33.035156 128.128906 C 33.175781 128.183594 33.296875 128.265625 33.402344 128.371094 Z M 36.574219 131.542969 C 36.679688 131.648438 36.761719 131.769531 36.816406 131.910156 C 36.875 132.046875 36.902344 132.1875 36.902344 132.339844 C 36.902344 132.488281 36.875 132.628906 36.816406 132.765625 C 36.761719 132.90625 36.679688 133.027344 36.574219 133.132812 C 36.46875 133.238281 36.347656 133.316406 36.210938 133.375 C 36.074219 133.429688 35.929688 133.460938 35.78125 133.460938 C 35.632812 133.460938 35.488281 133.429688 35.351562 133.375 C 35.214844 133.316406 35.09375 133.238281 34.988281 133.132812 C 34.882812 133.027344 34.800781 132.90625 34.746094 132.765625 C 34.6875 132.628906 34.660156 132.488281 34.660156 132.335938 C 34.660156 132.1875 34.6875 132.046875 34.746094 131.910156 C 34.800781 131.769531 34.882812 131.648438 34.988281 131.542969 C 35.09375 131.4375 35.214844 131.359375 35.351562 131.300781 C 35.488281 131.246094 35.632812 131.214844 35.78125 131.214844 C 35.929688 131.214844 36.074219 131.246094 36.210938 131.300781 C 36.347656 131.359375 36.46875 131.4375 36.574219 131.542969 Z M 39.75 134.71875 C 39.855469 134.824219 39.933594 134.945312 39.992188 135.082031 C 40.046875 135.21875 40.078125 135.363281 40.078125 135.511719 C 40.078125 135.660156 40.046875 135.804688 39.992188 135.941406 C 39.933594 136.078125 39.855469 136.199219 39.75 136.304688 C 39.644531 136.410156 39.523438 136.492188 39.382812 136.546875 C 39.246094 136.605469 39.105469 136.632812 38.957031 136.632812 C 38.804688 136.632812 38.664062 136.605469 38.527344 136.546875 C 38.386719 136.492188 38.265625 136.410156 38.160156 136.304688 C 38.054688 136.199219 37.976562 136.078125 37.917969 135.941406 C 37.863281 135.804688 37.832031 135.660156 37.832031 135.511719 C 37.832031 135.363281 37.863281 135.21875 37.917969 135.082031 C 37.976562 134.945312 38.054688 134.824219 38.160156 134.71875 C 38.265625 134.613281 38.386719 134.53125 38.527344 134.476562 C 38.664062 134.417969 38.804688 134.390625 38.953125 134.390625 C 39.105469 134.390625 39.246094 134.417969 39.382812 134.476562 C 39.523438 134.53125 39.644531 134.613281 39.75 134.71875 Z M 42.921875 137.890625 C 43.027344 137.996094 43.109375 138.117188 43.164062 138.257812 C 43.222656 138.394531 43.25 138.535156 43.25 138.683594 C 43.25 138.835938 43.222656 138.976562 43.164062 139.113281 C 43.109375 139.253906 43.027344 139.375 42.921875 139.480469 C 42.816406 139.582031 42.695312 139.664062 42.558594 139.722656 C 42.421875 139.777344 42.277344 139.808594 42.128906 139.808594 C 41.980469 139.808594 41.835938 139.777344 41.699219 139.722656 C 41.5625 139.664062 41.441406 139.582031 41.335938 139.480469 C 41.230469 139.375 41.148438 139.253906 41.09375 139.113281 C 41.035156 138.976562 41.007812 138.832031 41.007812 138.683594 C 41.007812 138.535156 41.035156 138.394531 41.09375 138.253906 C 41.148438 138.117188 41.230469 137.996094 41.335938 137.890625 C 41.441406 137.785156 41.5625 137.707031 41.699219 137.648438 C 41.835938 137.589844 41.980469 137.5625 42.128906 137.5625 C 42.277344 137.5625 42.421875 137.589844 42.558594 137.648438 C 42.695312 137.707031 42.816406 137.785156 42.921875 137.890625 Z M 46.097656 141.066406 C 46.199219 141.171875 46.28125 141.292969 46.339844 141.429688 C 46.394531 141.566406 46.425781 141.710938 46.425781 141.859375 C 46.425781 142.007812 46.394531 142.152344 46.339844 142.289062 C 46.28125 142.425781 46.199219 142.546875 46.097656 142.652344 C 45.992188 142.757812 45.871094 142.839844 45.730469 142.894531 C 45.59375 142.953125 45.453125 142.980469 45.300781 142.980469 C 45.152344 142.980469 45.011719 142.953125 44.875 142.894531 C 44.734375 142.839844 44.613281 142.757812 44.507812 142.652344 C 44.402344 142.546875 44.324219 142.425781 44.265625 142.289062 C 44.207031 142.152344 44.179688 142.007812 44.179688 141.859375 C 44.179688 141.710938 44.207031 141.566406 44.265625 141.429688 C 44.324219 141.292969 44.402344 141.171875 44.507812 141.066406 C 44.613281 140.960938 44.734375 140.878906 44.871094 140.820312 C 45.011719 140.765625 45.152344 140.738281 45.300781 140.738281 C 45.449219 140.738281 45.59375 140.765625 45.730469 140.820312 C 45.871094 140.878906 45.992188 140.960938 46.097656 141.066406 Z M 49.269531 144.238281 C 49.375 144.34375 49.457031 144.464844 49.511719 144.601562 C 49.570312 144.742188 49.597656 144.882812 49.597656 145.03125 C 49.597656 145.179688 49.570312 145.324219 49.511719 145.460938 C 49.457031 145.597656 49.375 145.722656 49.269531 145.824219 C 49.164062 145.929688 49.042969 146.011719 48.90625 146.070312 C 48.769531 146.125 48.625 146.15625 48.476562 146.15625 C 48.328125 146.15625 48.183594 146.125 48.046875 146.070312 C 47.910156 146.011719 47.789062 145.929688 47.683594 145.824219 C 47.578125 145.71875 47.496094 145.597656 47.4375 145.460938 C 47.382812 145.324219 47.355469 145.179688 47.355469 145.03125 C 47.355469 144.882812 47.382812 144.742188 47.4375 144.601562 C 47.496094 144.464844 47.578125 144.34375 47.683594 144.238281 C 47.789062 144.132812 47.910156 144.054688 48.046875 143.996094 C 48.183594 143.9375 48.328125 143.910156 48.476562 143.910156 C 48.625 143.910156 48.769531 143.9375 48.90625 143.996094 C 49.042969 144.054688 49.164062 144.132812 49.269531 144.238281 Z M 52.441406 147.414062 C 52.546875 147.519531 52.628906 147.640625 52.6875 147.777344 C 52.742188 147.914062 52.773438 148.058594 52.773438 148.207031 C 52.773438 148.355469 52.742188 148.5 52.6875 148.636719 C 52.628906 148.773438 52.546875 148.894531 52.441406 149 C 52.339844 149.105469 52.214844 149.1875 52.078125 149.242188 C 51.941406 149.300781 51.796875 149.328125 51.648438 149.328125 C 51.5 149.328125 51.359375 149.300781 51.21875 149.242188 C 51.082031 149.1875 50.960938 149.105469 50.855469 149 C 50.75 148.894531 50.671875 148.773438 50.613281 148.636719 C 50.554688 148.5 50.527344 148.355469 50.527344 148.207031 C 50.527344 148.058594 50.554688 147.914062 50.613281 147.777344 C 50.671875 147.640625 50.75 147.519531 50.855469 147.414062 C 50.960938 147.308594 51.082031 147.226562 51.21875 147.167969 C 51.359375 147.113281 51.5 147.085938 51.648438 147.085938 C 51.796875 147.085938 51.941406 147.113281 52.078125 147.167969 C 52.214844 147.226562 52.335938 147.308594 52.441406 147.414062 Z M 55.617188 150.585938 C 55.722656 150.691406 55.804688 150.8125 55.859375 150.949219 C 55.917969 151.089844 55.945312 151.230469 55.945312 151.378906 C 55.945312 151.527344 55.917969 151.671875 55.859375 151.808594 C 55.804688 151.945312 55.722656 152.066406 55.617188 152.171875 C 55.511719 152.277344 55.390625 152.359375 55.253906 152.417969 C 55.117188 152.472656 54.972656 152.503906 54.824219 152.503906 C 54.675781 152.503906 54.53125 152.472656 54.394531 152.417969 C 54.257812 152.359375 54.136719 152.277344 54.03125 152.171875 C 53.925781 152.066406 53.84375 151.945312 53.785156 151.808594 C 53.730469 151.671875 53.703125 151.527344 53.703125 151.378906 C 53.703125 151.230469 53.730469 151.089844 53.785156 150.949219 C 53.84375 150.8125 53.925781 150.691406 54.03125 150.585938 C 54.136719 150.480469 54.257812 150.398438 54.394531 150.34375 C 54.53125 150.285156 54.675781 150.257812 54.824219 150.257812 C 54.972656 150.257812 55.117188 150.285156 55.253906 150.34375 C 55.390625 150.398438 55.511719 150.480469 55.617188 150.585938 Z M 55.617188 150.585938 " fill-opacity="1" fill-rule="nonzero"/><path stroke-linecap="round" transform="matrix(0.52892, 0.52892, -0.52892, 0.52892, 19.912936, 114.88268)" fill="none" stroke-linejoin="round" d="M 68.175246 -2.999388 L 74.175833 1.501976 L 68.178938 5.999647 " stroke="#000000" stroke-width="3" stroke-opacity="1" stroke-miterlimit="4"/><path fill="#000000" d="M 19.164062 115.507812 C 19.269531 115.402344 19.390625 115.320312 19.527344 115.265625 C 19.667969 115.207031 19.808594 115.179688 19.957031 115.179688 C 20.105469 115.179688 20.25 115.207031 20.386719 115.265625 C 20.523438 115.320312 20.648438 115.402344 20.75 115.507812 C 20.855469 115.613281 20.9375 115.734375 20.996094 115.871094 C 21.050781 116.007812 21.082031 116.152344 21.082031 116.300781 C 21.082031 116.449219 21.050781 116.59375 20.996094 116.730469 C 20.9375 116.867188 20.855469 116.988281 20.75 117.09375 C 20.644531 117.199219 20.523438 117.28125 20.386719 117.335938 C 20.25 117.394531 20.105469 117.421875 19.957031 117.421875 C 19.808594 117.421875 19.667969 117.394531 19.527344 117.335938 C 19.390625 117.28125 19.269531 117.199219 19.164062 117.09375 C 19.058594 116.988281 18.980469 116.867188 18.921875 116.730469 C 18.863281 116.59375 18.835938 116.449219 18.835938 116.300781 C 18.835938 116.152344 18.863281 116.007812 18.921875 115.871094 C 18.980469 115.734375 19.058594 115.613281 19.164062 115.507812 Z M 22.339844 112.332031 C 22.445312 112.230469 22.566406 112.148438 22.703125 112.089844 C 22.839844 112.035156 22.984375 112.003906 23.132812 112.003906 C 23.28125 112.003906 23.425781 112.035156 23.5625 112.089844 C 23.699219 112.148438 23.820312 112.230469 23.925781 112.332031 C 24.03125 112.4375 24.113281 112.558594 24.167969 112.699219 C 24.226562 112.835938 24.253906 112.976562 24.253906 113.128906 C 24.253906 113.277344 24.226562 113.417969 24.167969 113.554688 C 24.113281 113.695312 24.03125 113.816406 23.925781 113.921875 C 23.820312 114.027344 23.699219 114.105469 23.5625 114.164062 C 23.425781 114.222656 23.28125 114.25 23.132812 114.25 C 22.984375 114.25 22.839844 114.222656 22.703125 114.164062 C 22.566406 114.105469 22.445312 114.027344 22.339844 113.921875 C 22.234375 113.816406 22.152344 113.695312 22.09375 113.558594 C 22.039062 113.417969 22.011719 113.277344 22.011719 113.128906 C 22.011719 112.976562 22.039062 112.835938 22.09375 112.699219 C 22.152344 112.558594 22.234375 112.4375 22.339844 112.332031 Z M 25.511719 109.160156 C 25.617188 109.054688 25.738281 108.972656 25.875 108.917969 C 26.015625 108.859375 26.15625 108.832031 26.304688 108.832031 C 26.453125 108.832031 26.597656 108.859375 26.734375 108.917969 C 26.871094 108.972656 26.992188 109.054688 27.097656 109.160156 C 27.203125 109.265625 27.285156 109.386719 27.34375 109.523438 C 27.398438 109.660156 27.429688 109.804688 27.429688 109.953125 C 27.429688 110.101562 27.398438 110.246094 27.34375 110.382812 C 27.285156 110.519531 27.203125 110.640625 27.097656 110.746094 C 26.992188 110.851562 26.871094 110.933594 26.734375 110.988281 C 26.597656 111.046875 26.453125 111.074219 26.304688 111.074219 C 26.15625 111.074219 26.015625 111.046875 25.875 110.988281 C 25.738281 110.933594 25.617188 110.851562 25.511719 110.746094 C 25.40625 110.640625 25.324219 110.519531 25.269531 110.382812 C 25.210938 110.246094 25.183594 110.101562 25.183594 109.953125 C 25.183594 109.804688 25.210938 109.660156 25.269531 109.523438 C 25.324219 109.386719 25.40625 109.265625 25.511719 109.160156 Z M 28.6875 105.988281 C 28.792969 105.882812 28.914062 105.800781 29.050781 105.742188 C 29.1875 105.6875 29.332031 105.65625 29.480469 105.65625 C 29.628906 105.65625 29.769531 105.6875 29.910156 105.742188 C 30.046875 105.800781 30.167969 105.882812 30.273438 105.988281 C 30.378906 106.089844 30.460938 106.214844 30.515625 106.351562 C 30.574219 106.488281 30.601562 106.632812 30.601562 106.78125 C 30.601562 106.929688 30.574219 107.070312 30.515625 107.210938 C 30.460938 107.347656 30.378906 107.46875 30.273438 107.574219 C 30.167969 107.679688 30.046875 107.757812 29.910156 107.816406 C 29.769531 107.875 29.628906 107.902344 29.480469 107.902344 C 29.332031 107.902344 29.1875 107.875 29.050781 107.816406 C 28.914062 107.757812 28.792969 107.679688 28.6875 107.574219 C 28.582031 107.46875 28.5 107.347656 28.441406 107.210938 C 28.386719 107.070312 28.355469 106.929688 28.355469 106.78125 C 28.355469 106.632812 28.386719 106.488281 28.441406 106.351562 C 28.5 106.214844 28.582031 106.089844 28.6875 105.988281 Z M 31.859375 102.8125 C 31.964844 102.707031 32.085938 102.625 32.222656 102.570312 C 32.359375 102.511719 32.503906 102.484375 32.652344 102.484375 C 32.800781 102.484375 32.945312 102.511719 33.082031 102.570312 C 33.21875 102.625 33.339844 102.707031 33.445312 102.8125 C 33.550781 102.917969 33.632812 103.039062 33.691406 103.175781 C 33.746094 103.3125 33.773438 103.457031 33.773438 103.605469 C 33.773438 103.753906 33.746094 103.898438 33.691406 104.035156 C 33.632812 104.171875 33.550781 104.292969 33.445312 104.398438 C 33.339844 104.503906 33.21875 104.585938 33.082031 104.644531 C 32.945312 104.699219 32.800781 104.726562 32.652344 104.726562 C 32.503906 104.726562 32.359375 104.699219 32.222656 104.644531 C 32.085938 104.585938 31.964844 104.503906 31.859375 104.398438 C 31.753906 104.292969 31.671875 104.171875 31.617188 104.035156 C 31.558594 103.898438 31.53125 103.753906 31.53125 103.605469 C 31.53125 103.457031 31.558594 103.3125 31.617188 103.175781 C 31.671875 103.039062 31.753906 102.917969 31.859375 102.8125 Z M 35.035156 99.640625 C 35.140625 99.535156 35.261719 99.453125 35.398438 99.394531 C 35.535156 99.339844 35.679688 99.308594 35.828125 99.308594 C 35.976562 99.308594 36.117188 99.339844 36.257812 99.394531 C 36.394531 99.453125 36.515625 99.535156 36.621094 99.640625 C 36.726562 99.746094 36.804688 99.867188 36.863281 100.003906 C 36.921875 100.140625 36.949219 100.285156 36.949219 100.433594 C 36.949219 100.582031 36.921875 100.722656 36.863281 100.863281 C 36.804688 101 36.726562 101.121094 36.621094 101.226562 C 36.515625 101.332031 36.394531 101.414062 36.257812 101.46875 C 36.117188 101.527344 35.976562 101.554688 35.828125 101.554688 C 35.679688 101.554688 35.535156 101.527344 35.398438 101.46875 C 35.261719 101.414062 35.136719 101.332031 35.035156 101.226562 C 34.929688 101.121094 34.847656 101 34.789062 100.863281 C 34.734375 100.722656 34.703125 100.582031 34.703125 100.433594 C 34.703125 100.285156 34.734375 100.140625 34.789062 100.003906 C 34.847656 99.867188 34.929688 99.746094 35.035156 99.640625 Z M 38.207031 96.464844 C 38.3125 96.359375 38.433594 96.277344 38.570312 96.222656 C 38.707031 96.164062 38.851562 96.136719 39 96.136719 C 39.148438 96.136719 39.292969 96.164062 39.429688 96.222656 C 39.566406 96.277344 39.6875 96.359375 39.792969 96.464844 C 39.898438 96.570312 39.980469 96.691406 40.039062 96.828125 C 40.09375 96.96875 40.121094 97.109375 40.121094 97.257812 C 40.121094 97.40625 40.09375 97.550781 40.039062 97.6875 C 39.980469 97.824219 39.898438 97.945312 39.792969 98.050781 C 39.6875 98.15625 39.566406 98.238281 39.429688 98.296875 C 39.292969 98.351562 39.148438 98.382812 39 98.382812 C 38.851562 98.382812 38.707031 98.351562 38.570312 98.296875 C 38.433594 98.238281 38.3125 98.15625 38.207031 98.050781 C 38.101562 97.945312 38.019531 97.824219 37.964844 97.6875 C 37.90625 97.550781 37.878906 97.40625 37.878906 97.257812 C 37.878906 97.109375 37.90625 96.96875 37.964844 96.828125 C 38.019531 96.691406 38.101562 96.570312 38.207031 96.464844 Z M 41.378906 93.292969 C 41.484375 93.1875 41.605469 93.105469 41.746094 93.046875 C 41.882812 92.992188 42.027344 92.964844 42.175781 92.964844 C 42.324219 92.964844 42.464844 92.992188 42.605469 93.046875 C 42.742188 93.105469 42.863281 93.1875 42.96875 93.292969 C 43.074219 93.398438 43.152344 93.519531 43.210938 93.65625 C 43.269531 93.792969 43.296875 93.9375 43.296875 94.085938 C 43.296875 94.234375 43.269531 94.378906 43.210938 94.515625 C 43.152344 94.652344 43.074219 94.773438 42.96875 94.878906 C 42.863281 94.984375 42.742188 95.066406 42.601562 95.121094 C 42.464844 95.179688 42.324219 95.207031 42.175781 95.207031 C 42.023438 95.207031 41.882812 95.179688 41.746094 95.121094 C 41.605469 95.066406 41.484375 94.984375 41.378906 94.878906 C 41.277344 94.773438 41.195312 94.652344 41.136719 94.515625 C 41.082031 94.378906 41.050781 94.234375 41.050781 94.085938 C 41.050781 93.9375 41.082031 93.792969 41.136719 93.65625 C 41.195312 93.519531 41.277344 93.398438 41.378906 93.292969 Z M 44.554688 90.117188 C 44.660156 90.011719 44.78125 89.933594 44.917969 89.875 C 45.054688 89.816406 45.199219 89.789062 45.347656 89.789062 C 45.496094 89.789062 45.640625 89.816406 45.777344 89.875 C 45.914062 89.933594 46.035156 90.011719 46.140625 90.117188 C 46.246094 90.222656 46.328125 90.34375 46.382812 90.480469 C 46.441406 90.621094 46.46875 90.761719 46.46875 90.910156 C 46.46875 91.058594 46.441406 91.203125 46.382812 91.339844 C 46.328125 91.476562 46.246094 91.597656 46.140625 91.703125 C 46.035156 91.808594 45.914062 91.890625 45.777344 91.949219 C 45.640625 92.003906 45.496094 92.035156 45.347656 92.035156 C 45.199219 92.035156 45.054688 92.003906 44.917969 91.949219 C 44.78125 91.890625 44.660156 91.808594 44.554688 91.703125 C 44.449219 91.601562 44.367188 91.476562 44.3125 91.339844 C 44.253906 91.203125 44.226562 91.058594 44.226562 90.910156 C 44.226562 90.761719 44.253906 90.621094 44.3125 90.480469 C 44.367188 90.34375 44.449219 90.222656 44.554688 90.117188 Z M 47.726562 86.945312 C 47.832031 86.839844 47.953125 86.757812 48.09375 86.699219 C 48.230469 86.644531 48.371094 86.617188 48.523438 86.617188 C 48.671875 86.617188 48.8125 86.644531 48.949219 86.699219 C 49.089844 86.757812 49.210938 86.839844 49.316406 86.945312 C 49.421875 87.050781 49.5 87.171875 49.558594 87.308594 C 49.613281 87.445312 49.644531 87.589844 49.644531 87.738281 C 49.644531 87.886719 49.613281 88.03125 49.558594 88.167969 C 49.5 88.304688 49.421875 88.425781 49.316406 88.53125 C 49.210938 88.636719 49.089844 88.71875 48.949219 88.773438 C 48.8125 88.832031 48.671875 88.859375 48.519531 88.859375 C 48.371094 88.859375 48.230469 88.832031 48.09375 88.773438 C 47.953125 88.71875 47.832031 88.636719 47.726562 88.53125 C 47.621094 88.425781 47.542969 88.304688 47.484375 88.167969 C 47.429688 88.03125 47.398438 87.886719 47.398438 87.738281 C 47.398438 87.589844 47.429688 87.445312 47.484375 87.308594 C 47.542969 87.171875 47.621094 87.050781 47.726562 86.945312 Z M 50.902344 83.769531 C 51.007812 83.664062 51.128906 83.585938 51.265625 83.527344 C 51.402344 83.46875 51.546875 83.441406 51.695312 83.441406 C 51.84375 83.441406 51.988281 83.46875 52.125 83.527344 C 52.261719 83.585938 52.382812 83.664062 52.488281 83.769531 C 52.59375 83.875 52.675781 83.996094 52.730469 84.132812 C 52.789062 84.273438 52.816406 84.414062 52.816406 84.5625 C 52.816406 84.710938 52.789062 84.855469 52.730469 84.992188 C 52.675781 85.132812 52.59375 85.253906 52.488281 85.355469 L 52.488281 85.359375 C 52.382812 85.460938 52.261719 85.542969 52.125 85.601562 C 51.988281 85.65625 51.84375 85.6875 51.695312 85.6875 C 51.546875 85.6875 51.402344 85.65625 51.265625 85.601562 C 51.128906 85.542969 51.007812 85.460938 50.902344 85.359375 C 50.796875 85.253906 50.714844 85.132812 50.660156 84.992188 C 50.601562 84.855469 50.574219 84.714844 50.574219 84.5625 C 50.574219 84.414062 50.601562 84.273438 50.660156 84.136719 C 50.714844 83.996094 50.796875 83.875 50.902344 83.769531 Z M 54.074219 80.597656 C 54.179688 80.492188 54.300781 80.410156 54.441406 80.355469 C 54.578125 80.296875 54.71875 80.269531 54.867188 80.269531 C 55.019531 80.269531 55.160156 80.296875 55.296875 80.355469 C 55.4375 80.410156 55.558594 80.492188 55.664062 80.597656 C 55.765625 80.703125 55.847656 80.824219 55.90625 80.960938 C 55.960938 81.097656 55.992188 81.242188 55.992188 81.390625 C 55.992188 81.539062 55.960938 81.683594 55.90625 81.820312 C 55.847656 81.957031 55.765625 82.078125 55.664062 82.183594 C 55.558594 82.289062 55.4375 82.371094 55.296875 82.425781 C 55.160156 82.484375 55.015625 82.511719 54.867188 82.511719 C 54.71875 82.511719 54.578125 82.484375 54.4375 82.425781 C 54.300781 82.371094 54.179688 82.289062 54.074219 82.183594 C 53.96875 82.078125 53.890625 81.957031 53.832031 81.820312 C 53.773438 81.683594 53.746094 81.539062 53.746094 81.390625 C 53.746094 81.242188 53.773438 81.097656 53.832031 80.960938 C 53.890625 80.824219 53.96875 80.703125 54.074219 80.597656 Z M 54.074219 80.597656 " fill-opacity="1" fill-rule="nonzero"/><path stroke-linecap="round" transform="matrix(0.52892, -0.52892, 0.52892, 0.52892, 18.371552, 116.300961)" fill="none" stroke-linejoin="round" d="M 68.177485 -3.002743 L 74.178072 1.498621 L 68.177485 5.999984 " stroke="#000000" stroke-width="3" stroke-opacity="1" stroke-miterlimit="4"/><g clip-path="url(#5868e0b73b)"><path fill="#72c53c" d="M 117.132812 77.070312 L 117.132812 100.332031 L 93.871094 100.332031 L 93.871094 77.070312 Z M 117.132812 77.070312 " fill-opacity="1" fill-rule="nonzero"/></g><g clip-path="url(#1b26fd389c)"><path fill="#72c53c" d="M 117.132812 132.4375 L 117.132812 155.703125 L 93.871094 155.703125 L 93.871094 132.4375 Z M 117.132812 132.4375 " fill-opacity="1" fill-rule="nonzero"/></g><g clip-path="url(#5a380e5fac)"><path fill="#72c53c" d="M 168.671875 104.042969 L 168.671875 127.304688 L 145.40625 127.304688 L 145.40625 104.042969 Z M 168.671875 104.042969 " fill-opacity="1" fill-rule="nonzero"/></g><g clip-path="url(#dad3efa561)"><g clip-path="url(#76b0bd55d2)"><path fill="#fac90a" d="M 122.148438 30.507812 L 145.445312 30.507812 L 145.445312 52.679688 L 122.148438 52.679688 Z M 122.148438 30.507812 " fill-opacity="1" fill-rule="nonzero"/></g></g></svg>