<svg xmlns="http://www.w3.org/2000/svg" xmlns:xlink="http://www.w3.org/1999/xlink" width="250" zoomAndPan="magnify" viewBox="0 0 187.5 187.499992" height="250" preserveAspectRatio="xMidYMid meet" version="1.0"><defs><clipPath id="7c0c43ba8c"><path d="M 18.699219 133.472656 L 53.527344 133.472656 L 53.527344 168.300781 L 18.699219 168.300781 Z M 18.699219 133.472656 " clip-rule="nonzero"/></clipPath><clipPath id="5d098db9d6"><path d="M 57.382812 133.472656 L 92.210938 133.472656 L 92.210938 168.300781 L 57.382812 168.300781 Z M 57.382812 133.472656 " clip-rule="nonzero"/></clipPath><clipPath id="ebb89ffc80"><path d="M 96.070312 133.472656 L 130.898438 133.472656 L 130.898438 168.300781 L 96.070312 168.300781 Z M 96.070312 133.472656 " clip-rule="nonzero"/></clipPath><clipPath id="ed6029d877"><path d="M 18.699219 94.785156 L 53.527344 94.785156 L 53.527344 129.613281 L 18.699219 129.613281 Z M 18.699219 94.785156 " clip-rule="nonzero"/></clipPath><clipPath id="2ae6da0548"><path d="M 57.382812 94.785156 L 92.210938 94.785156 L 92.210938 129.613281 L 57.382812 129.613281 Z M 57.382812 94.785156 " clip-rule="nonzero"/></clipPath><clipPath id="f782b6dac1"><path d="M 96.070312 94.785156 L 130.898438 94.785156 L 130.898438 129.613281 L 96.070312 129.613281 Z M 96.070312 94.785156 " clip-rule="nonzero"/></clipPath><clipPath id="31c042c1db"><path d="M 141 74 L 164 74 L 164 90 L 141 90 Z M 141 74 " clip-rule="nonzero"/></clipPath><clipPath id="b05e741f5f"><path d="M 141.640625 78.953125 L 152.394531 68.195312 L 163.148438 78.953125 L 152.394531 89.707031 Z M 141.640625 78.953125 " clip-rule="nonzero"/></clipPath><clipPath id="f7fbe0b618"><path d="M 141.640625 78.953125 L 152.394531 68.195312 L 163.148438 78.953125 L 152.394531 89.707031 Z M 141.640625 78.953125 " clip-rule="nonzero"/></clipPath><clipPath id="41d12f6343"><path d="M 141.640625 78.953125 L 152.394531 68.195312 L 163.148438 78.953125 L 152.394531 89.707031 Z M 141.640625 78.953125 " clip-rule="nonzero"/></clipPath><clipPath id="050b06a945"><path d="M 126.300781 63.613281 L 152.394531 37.519531 L 178.484375 63.613281 L 152.394531 89.703125 Z M 126.300781 63.613281 " clip-rule="nonzero"/></clipPath><clipPath id="a400c34102"><path d="M 137 78 L 153 78 L 153 101 L 137 101 Z M 137 78 " clip-rule="nonzero"/></clipPath><clipPath id="92e0b2a678"><path d="M 130.902344 89.6875 L 141.65625 78.933594 L 152.410156 89.6875 L 141.65625 100.441406 Z M 130.902344 89.6875 " clip-rule="nonzero"/></clipPath><clipPath id="fa3e18296c"><path d="M 141.636719 78.953125 L 130.882812 89.707031 L 141.636719 100.464844 L 152.390625 89.707031 Z M 141.636719 78.953125 " clip-rule="nonzero"/></clipPath><clipPath id="3430d97f56"><path d="M 141.636719 78.953125 L 130.882812 89.707031 L 141.636719 100.464844 L 152.390625 89.707031 Z M 141.636719 78.953125 " clip-rule="nonzero"/></clipPath><clipPath id="b12ed243a9"><path d="M 126.296875 63.617188 L 100.207031 89.710938 L 126.296875 115.800781 L 152.390625 89.710938 Z M 126.296875 63.617188 " clip-rule="nonzero"/></clipPath><clipPath id="0449a5efed"><path d="M 141 89 L 164 89 L 164 105 L 141 105 Z M 141 89 " clip-rule="nonzero"/></clipPath><clipPath id="51a3ce9053"><path d="M 141.640625 100.425781 L 152.394531 89.671875 L 163.148438 100.425781 L 152.394531 111.179688 Z M 141.640625 100.425781 " clip-rule="nonzero"/></clipPath><clipPath id="720a1a7c08"><path d="M 163.105469 100.425781 L 152.351562 111.179688 L 141.597656 100.425781 L 152.351562 89.671875 Z M 163.105469 100.425781 " clip-rule="nonzero"/></clipPath><clipPath id="0aa2b99dc6"><path d="M 163.105469 100.425781 L 152.351562 111.179688 L 141.597656 100.425781 L 152.351562 89.671875 Z M 163.105469 100.425781 " clip-rule="nonzero"/></clipPath><clipPath id="a3716025df"><path d="M 178.445312 115.761719 L 152.351562 141.855469 L 126.261719 115.761719 L 152.351562 89.671875 Z M 178.445312 115.761719 " clip-rule="nonzero"/></clipPath><clipPath id="c9496e353f"><path d="M 152 78 L 168 78 L 168 101 L 152 101 Z M 152 78 " clip-rule="nonzero"/></clipPath><clipPath id="2bf6988e84"><path d="M 152.375 89.6875 L 163.128906 78.933594 L 173.886719 89.6875 L 163.128906 100.441406 Z M 152.375 89.6875 " clip-rule="nonzero"/></clipPath><clipPath id="1826432eed"><path d="M 163.109375 100.421875 L 173.863281 89.667969 L 163.109375 78.914062 L 152.355469 89.667969 Z M 163.109375 100.421875 " clip-rule="nonzero"/></clipPath><clipPath id="ab6ecf37aa"><path d="M 163.109375 100.421875 L 173.863281 89.667969 L 163.109375 78.914062 L 152.355469 89.667969 Z M 163.109375 100.421875 " clip-rule="nonzero"/></clipPath><clipPath id="223169ddf8"><path d="M 178.449219 115.757812 L 204.539062 89.667969 L 178.449219 63.574219 L 152.355469 89.667969 Z M 178.449219 115.757812 " clip-rule="nonzero"/></clipPath><clipPath id="92343e0561"><path d="M 141 74 L 164 74 L 164 90 L 141 90 Z M 141 74 " clip-rule="nonzero"/></clipPath><clipPath id="6a4478fcc0"><path d="M 141.640625 78.953125 L 152.394531 68.195312 L 163.148438 78.953125 L 152.394531 89.707031 Z M 141.640625 78.953125 " clip-rule="nonzero"/></clipPath><clipPath id="287cb561d3"><path d="M 141.640625 78.953125 L 152.394531 68.195312 L 163.148438 78.953125 L 152.394531 89.707031 Z M 141.640625 78.953125 " clip-rule="nonzero"/></clipPath><clipPath id="3871101f52"><path d="M 141.640625 78.953125 L 152.394531 68.195312 L 163.148438 78.953125 L 152.394531 89.707031 Z M 141.640625 78.953125 " clip-rule="nonzero"/></clipPath><clipPath id="962f0cff9a"><path d="M 126.300781 63.613281 L 152.394531 37.519531 L 178.484375 63.613281 L 152.394531 89.703125 Z M 126.300781 63.613281 " clip-rule="nonzero"/></clipPath><clipPath id="d8fcf430cd"><path d="M 137 78 L 153 78 L 153 101 L 137 101 Z M 137 78 " clip-rule="nonzero"/></clipPath><clipPath id="340012af83"><path d="M 130.902344 89.6875 L 141.65625 78.933594 L 152.410156 89.6875 L 141.65625 100.441406 Z M 130.902344 89.6875 " clip-rule="nonzero"/></clipPath><clipPath id="6a5824a908"><path d="M 141.636719 78.953125 L 130.882812 89.707031 L 141.636719 100.464844 L 152.390625 89.707031 Z M 141.636719 78.953125 " clip-rule="nonzero"/></clipPath><clipPath id="f5a449c283"><path d="M 141.636719 78.953125 L 130.882812 89.707031 L 141.636719 100.464844 L 152.390625 89.707031 Z M 141.636719 78.953125 " clip-rule="nonzero"/></clipPath><clipPath id="fbde229e9d"><path d="M 126.296875 63.617188 L 100.207031 89.710938 L 126.296875 115.800781 L 152.390625 89.710938 Z M 126.296875 63.617188 " clip-rule="nonzero"/></clipPath><clipPath id="85c0c787ae"><path d="M 141 89 L 164 89 L 164 105 L 141 105 Z M 141 89 " clip-rule="nonzero"/></clipPath><clipPath id="6b3cf5e520"><path d="M 141.640625 100.425781 L 152.394531 89.671875 L 163.148438 100.425781 L 152.394531 111.179688 Z M 141.640625 100.425781 " clip-rule="nonzero"/></clipPath><clipPath id="1cbddea0d5"><path d="M 163.105469 100.425781 L 152.351562 111.179688 L 141.597656 100.425781 L 152.351562 89.671875 Z M 163.105469 100.425781 " clip-rule="nonzero"/></clipPath><clipPath id="5cff1a14eb"><path d="M 163.105469 100.425781 L 152.351562 111.179688 L 141.597656 100.425781 L 152.351562 89.671875 Z M 163.105469 100.425781 " clip-rule="nonzero"/></clipPath><clipPath id="5cb4dd7813"><path d="M 178.445312 115.761719 L 152.351562 141.855469 L 126.261719 115.761719 L 152.351562 89.671875 Z M 178.445312 115.761719 " clip-rule="nonzero"/></clipPath><clipPath id="295a5022d3"><path d="M 152 78 L 168 78 L 168 101 L 152 101 Z M 152 78 " clip-rule="nonzero"/></clipPath><clipPath id="c5b6ae4c5d"><path d="M 152.375 89.6875 L 163.128906 78.933594 L 173.886719 89.6875 L 163.128906 100.441406 Z M 152.375 89.6875 " clip-rule="nonzero"/></clipPath><clipPath id="e002ace337"><path d="M 163.109375 100.421875 L 173.863281 89.667969 L 163.109375 78.914062 L 152.355469 89.667969 Z M 163.109375 100.421875 " clip-rule="nonzero"/></clipPath><clipPath id="0a580e9696"><path d="M 163.109375 100.421875 L 173.863281 89.667969 L 163.109375 78.914062 L 152.355469 89.667969 Z M 163.109375 100.421875 " clip-rule="nonzero"/></clipPath><clipPath id="8520c31652"><path d="M 178.449219 115.757812 L 204.539062 89.667969 L 178.449219 63.574219 L 152.355469 89.667969 Z M 178.449219 115.757812 " clip-rule="nonzero"/></clipPath><clipPath id="5adef6715d"><path d="M 143 76 L 162 76 L 162 90 L 143 90 Z M 143 76 " clip-rule="nonzero"/></clipPath><clipPath id="ff84ec05a6"><path d="M 143.324219 80.4375 L 152.507812 71.257812 L 161.6875 80.4375 L 152.507812 89.621094 Z M 143.324219 80.4375 " clip-rule="nonzero"/></clipPath><clipPath id="39c15ee23e"><path d="M 143.324219 80.4375 L 152.507812 71.257812 L 161.6875 80.4375 L 152.507812 89.621094 Z M 143.324219 80.4375 " clip-rule="nonzero"/></clipPath><clipPath id="71b250e21d"><path d="M 143.324219 80.4375 L 152.507812 71.257812 L 161.6875 80.4375 L 152.507812 89.621094 Z M 143.324219 80.4375 " clip-rule="nonzero"/></clipPath><clipPath id="a6076f3286"><path d="M 130.234375 67.34375 L 152.507812 45.070312 L 174.78125 67.34375 L 152.507812 89.617188 Z M 130.234375 67.34375 " clip-rule="nonzero"/></clipPath><clipPath id="d4b8980f5e"><path d="M 139 80 L 153 80 L 153 99 L 139 99 Z M 139 80 " clip-rule="nonzero"/></clipPath><clipPath id="6ae46a0793"><path d="M 134.273438 89.488281 L 143.457031 80.308594 L 152.636719 89.488281 L 143.457031 98.671875 Z M 134.273438 89.488281 " clip-rule="nonzero"/></clipPath><clipPath id="e7f72231ee"><path d="M 143.324219 80.441406 L 134.144531 89.621094 L 143.324219 98.800781 L 152.503906 89.621094 Z M 143.324219 80.441406 " clip-rule="nonzero"/></clipPath><clipPath id="8383bdfcf4"><path d="M 143.324219 80.441406 L 134.144531 89.621094 L 143.324219 98.800781 L 152.503906 89.621094 Z M 143.324219 80.441406 " clip-rule="nonzero"/></clipPath><clipPath id="4c2858a7db"><path d="M 130.230469 67.347656 L 107.957031 89.621094 L 130.230469 111.894531 L 152.503906 89.621094 Z M 130.230469 67.347656 " clip-rule="nonzero"/></clipPath><clipPath id="cf128bed99"><path d="M 143 89 L 162 89 L 162 103 L 143 103 Z M 143 89 " clip-rule="nonzero"/></clipPath><clipPath id="f189987695"><path d="M 143.324219 98.539062 L 152.507812 89.359375 L 161.6875 98.539062 L 152.507812 107.722656 Z M 143.324219 98.539062 " clip-rule="nonzero"/></clipPath><clipPath id="6237586a9b"><path d="M 161.425781 98.539062 L 152.242188 107.722656 L 143.0625 98.539062 L 152.242188 89.359375 Z M 161.425781 98.539062 " clip-rule="nonzero"/></clipPath><clipPath id="d9071fd1f7"><path d="M 161.425781 98.539062 L 152.242188 107.722656 L 143.0625 98.539062 L 152.242188 89.359375 Z M 161.425781 98.539062 " clip-rule="nonzero"/></clipPath><clipPath id="4ee66ddd5d"><path d="M 174.515625 111.632812 L 152.242188 133.90625 L 129.96875 111.632812 L 152.242188 89.359375 Z M 174.515625 111.632812 " clip-rule="nonzero"/></clipPath><clipPath id="9f762d4b2e"><path d="M 152 80 L 166 80 L 166 99 L 152 99 Z M 152 80 " clip-rule="nonzero"/></clipPath><clipPath id="1e623593a5"><path d="M 152.375 89.488281 L 161.558594 80.308594 L 170.738281 89.488281 L 161.558594 98.671875 Z M 152.375 89.488281 " clip-rule="nonzero"/></clipPath><clipPath id="2f4aba22a6"><path d="M 161.425781 98.539062 L 170.605469 89.359375 L 161.425781 80.175781 L 152.246094 89.359375 Z M 161.425781 98.539062 " clip-rule="nonzero"/></clipPath><clipPath id="324fe6fae3"><path d="M 161.425781 98.539062 L 170.605469 89.359375 L 161.425781 80.175781 L 152.246094 89.359375 Z M 161.425781 98.539062 " clip-rule="nonzero"/></clipPath><clipPath id="8f3ce61ac0"><path d="M 174.519531 111.632812 L 196.792969 89.359375 L 174.519531 67.085938 L 152.246094 89.359375 Z M 174.519531 111.632812 " clip-rule="nonzero"/></clipPath><clipPath id="cee88bf891"><path d="M 139.550781 142.652344 L 172.460938 142.652344 L 172.460938 168.085938 L 139.550781 168.085938 Z M 139.550781 142.652344 " clip-rule="nonzero"/></clipPath></defs><g clip-path="url(#7c0c43ba8c)"><path fill="#72c53c" d="M 53.527344 133.472656 L 53.527344 168.300781 L 18.699219 168.300781 L 18.699219 133.472656 Z M 53.527344 133.472656 " fill-opacity="1" fill-rule="nonzero"/></g><g clip-path="url(#5d098db9d6)"><path fill="#72c53c" d="M 92.210938 133.472656 L 92.210938 168.300781 L 57.382812 168.300781 L 57.382812 133.472656 Z M 92.210938 133.472656 " fill-opacity="1" fill-rule="nonzero"/></g><g clip-path="url(#ebb89ffc80)"><path fill="#72c53c" d="M 130.898438 133.472656 L 130.898438 168.300781 L 96.070312 168.300781 L 96.070312 133.472656 Z M 130.898438 133.472656 " fill-opacity="1" fill-rule="nonzero"/></g><g clip-path="url(#ed6029d877)"><path fill="#72c53c" d="M 53.527344 94.785156 L 53.527344 129.613281 L 18.699219 129.613281 L 18.699219 94.785156 Z M 53.527344 94.785156 " fill-opacity="1" fill-rule="nonzero"/></g><g clip-path="url(#2ae6da0548)"><path fill="#72c53c" d="M 92.210938 94.785156 L 92.210938 129.613281 L 57.382812 129.613281 L 57.382812 94.785156 Z M 92.210938 94.785156 " fill-opacity="1" fill-rule="nonzero"/></g><g clip-path="url(#f782b6dac1)"><path fill="#72c53c" d="M 130.898438 94.785156 L 130.898438 129.613281 L 96.070312 129.613281 L 96.070312 94.785156 Z M 130.898438 94.785156 " fill-opacity="1" fill-rule="nonzero"/></g><g clip-path="url(#31c042c1db)"><g clip-path="url(#b05e741f5f)"><g clip-path="url(#f7fbe0b618)"><g clip-path="url(#41d12f6343)"><g clip-path="url(#050b06a945)"><path fill="#000000" d="M 141.640625 78.949219 C 135.703125 84.886719 135.703125 94.523438 141.640625 100.457031 C 147.574219 106.394531 157.210938 106.394531 163.148438 100.457031 C 169.082031 94.523438 169.082031 84.886719 163.148438 78.949219 C 157.210938 73.015625 147.574219 73.015625 141.640625 78.949219 Z M 142.101562 79.414062 C 147.78125 73.730469 157.003906 73.730469 162.6875 79.414062 C 168.367188 85.09375 168.367188 94.316406 162.6875 99.996094 C 157.003906 105.679688 147.78125 105.679688 142.101562 99.996094 C 136.421875 94.316406 136.421875 85.09375 142.101562 79.414062 Z M 142.101562 79.414062 " fill-opacity="1" fill-rule="evenodd"/></g></g></g></g></g><g clip-path="url(#a400c34102)"><g clip-path="url(#92e0b2a678)"><g clip-path="url(#fa3e18296c)"><g clip-path="url(#3430d97f56)"><g clip-path="url(#b12ed243a9)"><path fill="#000000" d="M 141.636719 78.953125 C 147.570312 73.019531 157.207031 73.019531 163.144531 78.953125 C 169.078125 84.890625 169.078125 94.527344 163.144531 100.464844 C 157.207031 106.398438 147.570312 106.398438 141.636719 100.464844 C 135.699219 94.527344 135.699219 84.890625 141.636719 78.953125 Z M 142.097656 79.417969 C 136.417969 85.097656 136.417969 94.320312 142.097656 100 C 147.777344 105.683594 157 105.683594 162.683594 100 C 168.363281 94.320312 168.363281 85.097656 162.683594 79.417969 C 157 73.734375 147.777344 73.734375 142.097656 79.417969 Z M 142.097656 79.417969 " fill-opacity="1" fill-rule="evenodd"/></g></g></g></g></g><g clip-path="url(#0449a5efed)"><g clip-path="url(#51a3ce9053)"><g clip-path="url(#720a1a7c08)"><g clip-path="url(#0aa2b99dc6)"><g clip-path="url(#a3716025df)"><path fill="#000000" d="M 163.105469 100.425781 C 169.042969 94.492188 169.042969 84.851562 163.105469 78.917969 C 157.171875 72.984375 147.535156 72.984375 141.597656 78.917969 C 135.664062 84.851562 135.664062 94.492188 141.597656 100.425781 C 147.535156 106.359375 157.171875 106.359375 163.105469 100.425781 Z M 162.644531 99.964844 C 156.964844 105.644531 147.742188 105.644531 142.058594 99.964844 C 136.378906 94.285156 136.378906 85.058594 142.058594 79.378906 C 147.742188 73.699219 156.964844 73.699219 162.644531 79.378906 C 168.324219 85.058594 168.324219 94.285156 162.644531 99.964844 Z M 162.644531 99.964844 " fill-opacity="1" fill-rule="evenodd"/></g></g></g></g></g><g clip-path="url(#c9496e353f)"><g clip-path="url(#2bf6988e84)"><g clip-path="url(#1826432eed)"><g clip-path="url(#ab6ecf37aa)"><g clip-path="url(#223169ddf8)"><path fill="#000000" d="M 163.109375 100.421875 C 157.175781 106.355469 147.539062 106.355469 141.601562 100.421875 C 135.667969 94.488281 135.667969 84.847656 141.601562 78.914062 C 147.539062 72.976562 157.175781 72.976562 163.109375 78.914062 C 169.046875 84.847656 169.046875 94.488281 163.109375 100.421875 Z M 162.648438 99.960938 C 168.328125 94.28125 168.328125 85.054688 162.648438 79.375 C 156.96875 73.695312 147.746094 73.695312 142.0625 79.375 C 136.382812 85.054688 136.382812 94.28125 142.0625 99.960938 C 147.746094 105.640625 156.96875 105.640625 162.648438 99.960938 Z M 162.648438 99.960938 " fill-opacity="1" fill-rule="evenodd"/></g></g></g></g></g><path stroke-linecap="round" transform="matrix(-0.262302, -0.262302, 0.262302, -0.262302, 170.33877, 108.43876)" fill="none" stroke-linejoin="miter" d="M 1.497017 1.501112 L 29.553856 1.501112 " stroke="#000000" stroke-width="3" stroke-opacity="1" stroke-miterlimit="4"/><g clip-path="url(#92343e0561)"><g clip-path="url(#6a4478fcc0)"><g clip-path="url(#287cb561d3)"><g clip-path="url(#3871101f52)"><g clip-path="url(#962f0cff9a)"><path fill="#000000" d="M 141.640625 78.949219 C 135.703125 84.886719 135.703125 94.523438 141.640625 100.457031 C 147.574219 106.394531 157.210938 106.394531 163.148438 100.457031 C 169.082031 94.523438 169.082031 84.886719 163.148438 78.949219 C 157.210938 73.015625 147.574219 73.015625 141.640625 78.949219 Z M 142.101562 79.414062 C 147.78125 73.730469 157.003906 73.730469 162.6875 79.414062 C 168.367188 85.09375 168.367188 94.316406 162.6875 99.996094 C 157.003906 105.679688 147.78125 105.679688 142.101562 99.996094 C 136.421875 94.316406 136.421875 85.09375 142.101562 79.414062 Z M 142.101562 79.414062 " fill-opacity="1" fill-rule="evenodd"/></g></g></g></g></g><g clip-path="url(#d8fcf430cd)"><g clip-path="url(#340012af83)"><g clip-path="url(#6a5824a908)"><g clip-path="url(#f5a449c283)"><g clip-path="url(#fbde229e9d)"><path fill="#000000" d="M 141.636719 78.953125 C 147.570312 73.019531 157.207031 73.019531 163.144531 78.953125 C 169.078125 84.890625 169.078125 94.527344 163.144531 100.464844 C 157.207031 106.398438 147.570312 106.398438 141.636719 100.464844 C 135.699219 94.527344 135.699219 84.890625 141.636719 78.953125 Z M 142.097656 79.417969 C 136.417969 85.097656 136.417969 94.320312 142.097656 100 C 147.777344 105.683594 157 105.683594 162.683594 100 C 168.363281 94.320312 168.363281 85.097656 162.683594 79.417969 C 157 73.734375 147.777344 73.734375 142.097656 79.417969 Z M 142.097656 79.417969 " fill-opacity="1" fill-rule="evenodd"/></g></g></g></g></g><g clip-path="url(#85c0c787ae)"><g clip-path="url(#6b3cf5e520)"><g clip-path="url(#1cbddea0d5)"><g clip-path="url(#5cff1a14eb)"><g clip-path="url(#5cb4dd7813)"><path fill="#000000" d="M 163.105469 100.425781 C 169.042969 94.492188 169.042969 84.851562 163.105469 78.917969 C 157.171875 72.984375 147.535156 72.984375 141.597656 78.917969 C 135.664062 84.851562 135.664062 94.492188 141.597656 100.425781 C 147.535156 106.359375 157.171875 106.359375 163.105469 100.425781 Z M 162.644531 99.964844 C 156.964844 105.644531 147.742188 105.644531 142.058594 99.964844 C 136.378906 94.285156 136.378906 85.058594 142.058594 79.378906 C 147.742188 73.699219 156.964844 73.699219 162.644531 79.378906 C 168.324219 85.058594 168.324219 94.285156 162.644531 99.964844 Z M 162.644531 99.964844 " fill-opacity="1" fill-rule="evenodd"/></g></g></g></g></g><g clip-path="url(#295a5022d3)"><g clip-path="url(#c5b6ae4c5d)"><g clip-path="url(#e002ace337)"><g clip-path="url(#0a580e9696)"><g clip-path="url(#8520c31652)"><path fill="#000000" d="M 163.109375 100.421875 C 157.175781 106.355469 147.539062 106.355469 141.601562 100.421875 C 135.667969 94.488281 135.667969 84.847656 141.601562 78.914062 C 147.539062 72.976562 157.175781 72.976562 163.109375 78.914062 C 169.046875 84.847656 169.046875 94.488281 163.109375 100.421875 Z M 162.648438 99.960938 C 168.328125 94.28125 168.328125 85.054688 162.648438 79.375 C 156.96875 73.695312 147.746094 73.695312 142.0625 79.375 C 136.382812 85.054688 136.382812 94.28125 142.0625 99.960938 C 147.746094 105.640625 156.96875 105.640625 162.648438 99.960938 Z M 162.648438 99.960938 " fill-opacity="1" fill-rule="evenodd"/></g></g></g></g></g><g clip-path="url(#5adef6715d)"><g clip-path="url(#ff84ec05a6)"><g clip-path="url(#39c15ee23e)"><g clip-path="url(#71b250e21d)"><g clip-path="url(#a6076f3286)"><path fill="#000000" d="M 143.324219 80.4375 C 138.257812 85.503906 138.257812 93.730469 143.324219 98.800781 C 148.394531 103.867188 156.621094 103.867188 161.6875 98.800781 C 166.753906 93.730469 166.753906 85.503906 161.6875 80.4375 C 156.621094 75.371094 148.394531 75.371094 143.324219 80.4375 Z M 143.71875 80.832031 C 148.570312 75.984375 156.441406 75.984375 161.292969 80.832031 C 166.140625 85.679688 166.140625 93.554688 161.292969 98.40625 C 156.441406 103.253906 148.570312 103.253906 143.71875 98.40625 C 138.871094 93.554688 138.871094 85.679688 143.71875 80.832031 Z M 143.71875 80.832031 " fill-opacity="1" fill-rule="evenodd"/></g></g></g></g></g><g clip-path="url(#d4b8980f5e)"><g clip-path="url(#6ae46a0793)"><g clip-path="url(#e7f72231ee)"><g clip-path="url(#8383bdfcf4)"><g clip-path="url(#4c2858a7db)"><path fill="#000000" d="M 143.324219 80.441406 C 148.390625 75.375 156.617188 75.375 161.683594 80.441406 C 166.75 85.507812 166.75 93.734375 161.683594 98.800781 C 156.617188 103.867188 148.390625 103.867188 143.324219 98.800781 C 138.257812 93.734375 138.257812 85.507812 143.324219 80.441406 Z M 143.71875 80.835938 C 138.867188 85.683594 138.867188 93.558594 143.71875 98.40625 C 148.566406 103.257812 156.441406 103.257812 161.289062 98.40625 C 166.140625 93.558594 166.140625 85.683594 161.289062 80.835938 C 156.441406 75.984375 148.566406 75.984375 143.71875 80.835938 Z M 143.71875 80.835938 " fill-opacity="1" fill-rule="evenodd"/></g></g></g></g></g><g clip-path="url(#cf128bed99)"><g clip-path="url(#f189987695)"><g clip-path="url(#6237586a9b)"><g clip-path="url(#d9071fd1f7)"><g clip-path="url(#4ee66ddd5d)"><path fill="#000000" d="M 161.421875 98.539062 C 166.492188 93.472656 166.492188 85.246094 161.421875 80.179688 C 156.355469 75.113281 148.128906 75.113281 143.0625 80.179688 C 137.996094 85.246094 137.996094 93.472656 143.0625 98.539062 C 148.128906 103.605469 156.355469 103.605469 161.421875 98.539062 Z M 161.03125 98.148438 C 156.179688 102.996094 148.304688 102.996094 143.457031 98.148438 C 138.609375 93.296875 138.609375 85.421875 143.457031 80.574219 C 148.304688 75.722656 156.179688 75.722656 161.03125 80.574219 C 165.878906 85.421875 165.878906 93.296875 161.03125 98.148438 Z M 161.03125 98.148438 " fill-opacity="1" fill-rule="evenodd"/></g></g></g></g></g><g clip-path="url(#9f762d4b2e)"><g clip-path="url(#1e623593a5)"><g clip-path="url(#2f4aba22a6)"><g clip-path="url(#324fe6fae3)"><g clip-path="url(#8f3ce61ac0)"><path fill="#000000" d="M 161.425781 98.539062 C 156.359375 103.605469 148.132812 103.605469 143.066406 98.539062 C 138 93.472656 138 85.246094 143.066406 80.179688 C 148.132812 75.109375 156.359375 75.109375 161.425781 80.179688 C 166.492188 85.246094 166.492188 93.472656 161.425781 98.539062 Z M 161.03125 98.144531 C 165.882812 93.296875 165.882812 85.421875 161.03125 80.570312 C 156.183594 75.722656 148.308594 75.722656 143.460938 80.570312 C 138.609375 85.421875 138.609375 93.296875 143.460938 98.144531 C 148.308594 102.992188 156.183594 102.992188 161.03125 98.144531 Z M 161.03125 98.144531 " fill-opacity="1" fill-rule="evenodd"/></g></g></g></g></g><g clip-path="url(#cee88bf891)"><path fill="#fac90a" d="M 150.132812 162.789062 L 142.253906 154.90625 L 139.578125 157.582031 L 150.132812 168.136719 L 172.8125 145.457031 L 170.140625 142.785156 Z M 150.132812 162.789062 " fill-opacity="1" fill-rule="nonzero"/></g></svg>