<svg xmlns="http://www.w3.org/2000/svg" xmlns:xlink="http://www.w3.org/1999/xlink" width="250" zoomAndPan="magnify" viewBox="0 0 187.5 187.499992" height="250" preserveAspectRatio="xMidYMid meet" version="1.0"><defs><clipPath id="f577c6f2ed"><path d="M 33 34 L 153 34 L 153 177.546875 L 33 177.546875 Z M 33 34 " clip-rule="nonzero"/></clipPath><clipPath id="156213cf1f"><path d="M 9.351562 33 L 34 33 L 34 94 L 9.351562 94 Z M 9.351562 33 " clip-rule="nonzero"/></clipPath><clipPath id="c47cd872e1"><path d="M 153 32 L 177.652344 32 L 177.652344 94 L 153 94 Z M 153 32 " clip-rule="nonzero"/></clipPath><clipPath id="1fe3a92fbc"><path d="M 9.351562 93 L 34 93 L 34 155 L 9.351562 155 Z M 9.351562 93 " clip-rule="nonzero"/></clipPath><clipPath id="a4b2be609d"><path d="M 153 93 L 177.652344 93 L 177.652344 155 L 153 155 Z M 153 93 " clip-rule="nonzero"/></clipPath><clipPath id="f115313806"><path d="M 32 9.246094 L 155 9.246094 L 155 34 L 32 34 Z M 32 9.246094 " clip-rule="nonzero"/></clipPath><clipPath id="82add9b386"><path d="M 32 153 L 155 153 L 155 177.546875 L 32 177.546875 Z M 32 153 " clip-rule="nonzero"/></clipPath><clipPath id="4b994b952c"><path d="M 92 9.246094 L 94 9.246094 L 94 177.546875 L 92 177.546875 Z M 92 9.246094 " clip-rule="nonzero"/></clipPath><clipPath id="c203c3d1b7"><path d="M 9.351562 92 L 177.652344 92 L 177.652344 94 L 9.351562 94 Z M 9.351562 92 " clip-rule="nonzero"/></clipPath><clipPath id="f055078323"><path d="M 92 176 L 95 176 L 95 177.546875 L 92 177.546875 Z M 92 176 " clip-rule="nonzero"/></clipPath><clipPath id="23c2325eeb"><path d="M 9.351562 93 L 11 93 L 11 95 L 9.351562 95 Z M 9.351562 93 " clip-rule="nonzero"/></clipPath><clipPath id="0f68cbe0b9"><path d="M 9.351562 91 L 11 91 L 11 94 L 9.351562 94 Z M 9.351562 91 " clip-rule="nonzero"/></clipPath><clipPath id="e739d44737"><path d="M 92 9.246094 L 95 9.246094 L 95 11 L 92 11 Z M 92 9.246094 " clip-rule="nonzero"/></clipPath><clipPath id="01919aefce"><path d="M 176 93 L 177.652344 93 L 177.652344 95 L 176 95 Z M 176 93 " clip-rule="nonzero"/></clipPath></defs><g clip-path="url(#f577c6f2ed)"><path fill="#72c53c" d="M 136.40625 136.429688 L 93.265625 177.105469 L 51.550781 135.367188 L 59.113281 92.679688 L 33.589844 34.507812 L 93.582031 35.640625 L 152.933594 92.867188 L 136.40625 136.429688 " fill-opacity="1" fill-rule="nonzero"/></g><path fill="#000000" d="M 92.902344 34.71875 C 92.847656 34.71875 92.792969 34.726562 92.738281 34.746094 L 50.917969 50.265625 C 50.738281 50.332031 50.625 50.496094 50.613281 50.675781 C 50.621094 50.671875 50.632812 50.671875 50.644531 50.671875 C 50.699219 50.671875 50.757812 50.683594 50.808594 50.703125 C 51.011719 50.777344 51.132812 50.976562 51.117188 51.179688 C 51.160156 51.175781 51.203125 51.167969 51.246094 51.152344 L 93.070312 35.632812 C 93.3125 35.542969 93.4375 35.269531 93.347656 35.023438 C 93.277344 34.835938 93.097656 34.71875 92.902344 34.71875 Z M 92.902344 34.71875 " fill-opacity="1" fill-rule="nonzero"/><path fill="#000000" d="M 94.019531 34.71875 C 93.824219 34.71875 93.644531 34.835938 93.574219 35.023438 C 93.484375 35.269531 93.609375 35.542969 93.851562 35.632812 L 135.675781 51.152344 C 135.71875 51.167969 135.761719 51.175781 135.804688 51.179688 C 135.789062 50.976562 135.910156 50.777344 136.113281 50.703125 C 136.164062 50.683594 136.222656 50.671875 136.277344 50.671875 C 136.289062 50.671875 136.296875 50.671875 136.308594 50.675781 C 136.296875 50.496094 136.183594 50.332031 136.003906 50.265625 L 94.183594 34.746094 C 94.128906 34.726562 94.074219 34.71875 94.019531 34.71875 Z M 94.019531 34.71875 " fill-opacity="1" fill-rule="nonzero"/><path fill="#000000" d="M 50.609375 50.675781 C 50.429688 50.6875 50.269531 50.804688 50.203125 50.980469 L 34.683594 92.800781 C 34.59375 93.046875 34.71875 93.320312 34.964844 93.410156 C 35.015625 93.429688 35.074219 93.4375 35.128906 93.4375 C 35.320312 93.4375 35.5 93.320312 35.570312 93.132812 L 51.089844 51.308594 C 51.105469 51.265625 51.113281 51.222656 51.117188 51.179688 L 51.113281 51.179688 C 51.101562 51.179688 51.09375 51.179688 51.082031 51.179688 C 50.890625 51.179688 50.710938 51.0625 50.640625 50.871094 C 50.617188 50.808594 50.605469 50.738281 50.613281 50.675781 Z M 50.609375 50.675781 " fill-opacity="1" fill-rule="nonzero"/><path fill="#000000" d="M 136.308594 50.675781 C 136.316406 50.738281 136.304688 50.808594 136.28125 50.871094 C 136.210938 51.0625 136.03125 51.179688 135.839844 51.179688 C 135.828125 51.179688 135.820312 51.179688 135.808594 51.179688 L 135.804688 51.179688 C 135.808594 51.222656 135.816406 51.265625 135.832031 51.308594 L 151.351562 93.132812 C 151.421875 93.320312 151.601562 93.4375 151.792969 93.4375 C 151.847656 93.4375 151.90625 93.429688 151.957031 93.410156 C 152.203125 93.320312 152.328125 93.046875 152.238281 92.800781 L 136.71875 50.980469 C 136.652344 50.804688 136.492188 50.6875 136.316406 50.675781 Z M 136.308594 50.675781 " fill-opacity="1" fill-rule="nonzero"/><path fill="#000000" d="M 35.128906 93.605469 C 35.074219 93.605469 35.015625 93.617188 34.964844 93.636719 C 34.71875 93.726562 34.59375 94 34.683594 94.246094 L 50.203125 136.066406 C 50.269531 136.246094 50.433594 136.359375 50.613281 136.371094 L 50.613281 136.375 C 50.605469 136.308594 50.617188 136.238281 50.640625 136.175781 C 50.710938 135.984375 50.890625 135.867188 51.082031 135.867188 C 51.09375 135.867188 51.105469 135.867188 51.117188 135.867188 C 51.113281 135.824219 51.105469 135.78125 51.089844 135.738281 L 35.570312 93.914062 C 35.5 93.726562 35.320312 93.605469 35.128906 93.605469 Z M 35.128906 93.605469 " fill-opacity="1" fill-rule="nonzero"/><path fill="#000000" d="M 151.792969 93.605469 C 151.601562 93.605469 151.421875 93.726562 151.351562 93.914062 L 135.832031 135.738281 C 135.816406 135.78125 135.808594 135.824219 135.804688 135.867188 C 135.816406 135.867188 135.828125 135.867188 135.839844 135.867188 C 136.03125 135.867188 136.210938 135.984375 136.28125 136.175781 C 136.304688 136.238281 136.316406 136.308594 136.308594 136.371094 L 136.308594 136.375 C 136.488281 136.359375 136.652344 136.246094 136.71875 136.066406 L 152.238281 94.246094 C 152.328125 94 152.203125 93.726562 151.957031 93.636719 C 151.90625 93.617188 151.847656 93.605469 151.792969 93.605469 Z M 151.792969 93.605469 " fill-opacity="1" fill-rule="nonzero"/><path fill="#000000" d="M 51.117188 135.867188 C 51.132812 136.070312 51.011719 136.269531 50.808594 136.34375 C 50.757812 136.363281 50.699219 136.375 50.644531 136.375 C 50.636719 136.375 50.625 136.375 50.617188 136.371094 L 50.613281 136.375 C 50.625 136.550781 50.738281 136.714844 50.917969 136.78125 L 92.738281 152.300781 C 92.792969 152.320312 92.847656 152.328125 92.902344 152.328125 C 93.097656 152.328125 93.277344 152.210938 93.347656 152.019531 C 93.4375 151.777344 93.3125 151.503906 93.070312 151.414062 L 51.246094 135.894531 C 51.207031 135.878906 51.164062 135.871094 51.121094 135.867188 Z M 51.117188 135.867188 " fill-opacity="1" fill-rule="nonzero"/><path fill="#000000" d="M 135.800781 135.867188 C 135.757812 135.871094 135.714844 135.878906 135.675781 135.894531 L 93.851562 151.414062 C 93.609375 151.503906 93.484375 151.777344 93.574219 152.019531 C 93.644531 152.210938 93.824219 152.328125 94.019531 152.328125 C 94.074219 152.328125 94.128906 152.320312 94.183594 152.300781 L 136.003906 136.78125 C 136.183594 136.714844 136.296875 136.550781 136.308594 136.371094 L 136.304688 136.375 C 136.296875 136.375 136.285156 136.375 136.277344 136.375 C 136.222656 136.375 136.164062 136.363281 136.113281 136.34375 C 135.910156 136.269531 135.789062 136.070312 135.804688 135.867188 Z M 135.800781 135.867188 " fill-opacity="1" fill-rule="nonzero"/><path fill="#000000" d="M 93.972656 58.902344 L 117.511719 69.484375 C 117.75 69.59375 117.855469 69.871094 117.746094 70.109375 C 117.640625 70.347656 117.359375 70.453125 117.121094 70.347656 L 93.582031 59.761719 C 93.34375 59.65625 93.238281 59.375 93.347656 59.136719 C 93.453125 58.898438 93.734375 58.792969 93.972656 58.902344 Z M 93.972656 58.902344 " fill-opacity="1" fill-rule="nonzero"/><path fill="#000000" d="M 128.082031 94.035156 L 117.5 117.574219 C 117.390625 117.8125 117.113281 117.917969 116.875 117.808594 C 116.636719 117.703125 116.53125 117.421875 116.636719 117.183594 L 127.222656 93.644531 C 127.328125 93.40625 127.609375 93.300781 127.847656 93.410156 C 128.082031 93.515625 128.191406 93.796875 128.082031 94.035156 Z M 128.082031 94.035156 " fill-opacity="1" fill-rule="nonzero"/><path fill="#000000" d="M 92.949219 128.144531 L 69.410156 117.5625 C 69.171875 117.453125 69.066406 117.175781 69.175781 116.9375 C 69.28125 116.699219 69.5625 116.59375 69.800781 116.699219 L 93.339844 127.28125 C 93.578125 127.390625 93.683594 127.671875 93.574219 127.90625 C 93.46875 128.144531 93.1875 128.253906 92.949219 128.144531 Z M 92.949219 128.144531 " fill-opacity="1" fill-rule="nonzero"/><path fill="#000000" d="M 58.839844 93.011719 L 69.421875 69.472656 C 69.53125 69.234375 69.808594 69.128906 70.046875 69.238281 C 70.285156 69.34375 70.390625 69.625 70.285156 69.863281 L 59.699219 93.402344 C 59.59375 93.636719 59.3125 93.746094 59.074219 93.636719 C 58.839844 93.53125 58.730469 93.25 58.839844 93.011719 Z M 58.839844 93.011719 " fill-opacity="1" fill-rule="nonzero"/><path fill="#000000" d="M 93.972656 128.144531 L 117.511719 117.5625 C 117.75 117.453125 117.855469 117.175781 117.746094 116.9375 C 117.640625 116.699219 117.359375 116.59375 117.121094 116.699219 L 93.582031 127.28125 C 93.34375 127.390625 93.238281 127.671875 93.347656 127.90625 C 93.453125 128.144531 93.734375 128.253906 93.972656 128.144531 Z M 93.972656 128.144531 " fill-opacity="1" fill-rule="nonzero"/><path fill="#000000" d="M 58.839844 94.035156 L 69.421875 117.574219 C 69.53125 117.8125 69.808594 117.917969 70.046875 117.808594 C 70.285156 117.703125 70.390625 117.421875 70.285156 117.183594 L 59.699219 93.644531 C 59.59375 93.40625 59.3125 93.300781 59.074219 93.410156 C 58.839844 93.515625 58.730469 93.796875 58.839844 94.035156 Z M 58.839844 94.035156 " fill-opacity="1" fill-rule="nonzero"/><path fill="#000000" d="M 92.949219 58.902344 L 69.410156 69.484375 C 69.171875 69.59375 69.066406 69.871094 69.175781 70.109375 C 69.28125 70.347656 69.5625 70.453125 69.800781 70.347656 L 93.339844 59.761719 C 93.578125 59.65625 93.683594 59.375 93.574219 59.136719 C 93.46875 58.898438 93.1875 58.792969 92.949219 58.902344 Z M 92.949219 58.902344 " fill-opacity="1" fill-rule="nonzero"/><path fill="#000000" d="M 128.082031 93.011719 L 117.5 69.472656 C 117.390625 69.234375 117.113281 69.128906 116.875 69.238281 C 116.636719 69.34375 116.53125 69.625 116.636719 69.863281 L 127.222656 93.402344 C 127.328125 93.636719 127.609375 93.746094 127.847656 93.636719 C 128.082031 93.53125 128.191406 93.25 128.082031 93.011719 Z M 128.082031 93.011719 " fill-opacity="1" fill-rule="nonzero"/><path fill="#000000" d="M 93.953125 80.46875 L 102.113281 84.433594 C 102.347656 84.550781 102.445312 84.832031 102.332031 85.066406 C 102.21875 85.300781 101.9375 85.398438 101.703125 85.285156 L 93.539062 81.320312 C 93.304688 81.207031 93.207031 80.921875 93.320312 80.6875 C 93.433594 80.453125 93.71875 80.355469 93.953125 80.46875 Z M 93.953125 80.46875 " fill-opacity="1" fill-rule="nonzero"/><path fill="#000000" d="M 106.515625 94.015625 L 102.546875 102.175781 C 102.433594 102.410156 102.152344 102.507812 101.917969 102.394531 C 101.683594 102.28125 101.585938 102 101.699219 101.761719 L 105.664062 93.601562 C 105.777344 93.367188 106.058594 93.269531 106.296875 93.382812 C 106.53125 93.496094 106.628906 93.78125 106.515625 94.015625 Z M 106.515625 94.015625 " fill-opacity="1" fill-rule="nonzero"/><path fill="#000000" d="M 92.96875 106.578125 L 84.808594 102.609375 C 84.574219 102.496094 84.476562 102.214844 84.589844 101.980469 C 84.703125 101.746094 84.984375 101.648438 85.21875 101.761719 L 93.382812 105.726562 C 93.617188 105.839844 93.714844 106.121094 93.601562 106.359375 C 93.488281 106.59375 93.203125 106.691406 92.96875 106.578125 Z M 92.96875 106.578125 " fill-opacity="1" fill-rule="nonzero"/><path fill="#000000" d="M 80.40625 93.03125 L 84.371094 84.871094 C 84.488281 84.636719 84.769531 84.535156 85.003906 84.652344 C 85.238281 84.765625 85.335938 85.046875 85.222656 85.28125 L 81.257812 93.445312 C 81.144531 93.679688 80.859375 93.777344 80.625 93.664062 C 80.390625 93.550781 80.292969 93.265625 80.40625 93.03125 Z M 80.40625 93.03125 " fill-opacity="1" fill-rule="nonzero"/><path fill="#000000" d="M 93.953125 106.578125 L 102.113281 102.609375 C 102.347656 102.496094 102.445312 102.214844 102.332031 101.980469 C 102.21875 101.746094 101.9375 101.648438 101.703125 101.761719 L 93.539062 105.726562 C 93.304688 105.839844 93.207031 106.121094 93.320312 106.359375 C 93.433594 106.59375 93.71875 106.691406 93.953125 106.578125 Z M 93.953125 106.578125 " fill-opacity="1" fill-rule="nonzero"/><path fill="#000000" d="M 80.40625 94.015625 L 84.371094 102.175781 C 84.488281 102.410156 84.769531 102.507812 85.003906 102.394531 C 85.238281 102.28125 85.335938 102 85.222656 101.761719 L 81.257812 93.601562 C 81.144531 93.367188 80.859375 93.269531 80.625 93.382812 C 80.390625 93.496094 80.292969 93.78125 80.40625 94.015625 Z M 80.40625 94.015625 " fill-opacity="1" fill-rule="nonzero"/><path fill="#000000" d="M 92.96875 80.46875 L 84.808594 84.433594 C 84.574219 84.550781 84.476562 84.832031 84.589844 85.066406 C 84.703125 85.300781 84.984375 85.398438 85.21875 85.285156 L 93.382812 81.320312 C 93.617188 81.207031 93.714844 80.921875 93.601562 80.6875 C 93.488281 80.453125 93.203125 80.355469 92.96875 80.46875 Z M 92.96875 80.46875 " fill-opacity="1" fill-rule="nonzero"/><path fill="#000000" d="M 106.515625 93.03125 L 102.546875 84.871094 C 102.433594 84.636719 102.152344 84.535156 101.917969 84.652344 C 101.683594 84.765625 101.585938 85.046875 101.699219 85.28125 L 105.664062 93.445312 C 105.777344 93.679688 106.058594 93.777344 106.296875 93.664062 C 106.53125 93.550781 106.628906 93.265625 106.515625 93.03125 Z M 106.515625 93.03125 " fill-opacity="1" fill-rule="nonzero"/><g clip-path="url(#156213cf1f)"><path fill="#000000" d="M 32.523438 33.09375 L 32.242188 33.601562 L 9.886719 91.929688 C 9.929688 92.074219 9.765625 92.589844 9.386719 93.472656 C 9.765625 93.125 10.066406 93.140625 10.289062 93.523438 L 33.324219 33.386719 C 32.90625 33.558594 32.640625 33.460938 32.523438 33.09375 Z M 32.523438 33.09375 " fill-opacity="1" fill-rule="nonzero"/></g><g clip-path="url(#c47cd872e1)"><path fill="#000000" d="M 154.300781 32.714844 C 154.445312 32.90625 154.433594 33.113281 154.265625 33.335938 C 154.101562 33.507812 153.878906 33.523438 153.597656 33.386719 L 176.632812 93.523438 C 176.703125 93.363281 176.820312 93.265625 176.980469 93.230469 C 177.234375 93.199219 177.410156 93.296875 177.515625 93.523438 L 177.550781 93.320312 L 154.417969 32.886719 Z M 154.300781 32.714844 " fill-opacity="1" fill-rule="nonzero"/></g><g clip-path="url(#1fe3a92fbc)"><path fill="#000000" d="M 10.289062 93.523438 C 10.214844 93.710938 10.039062 93.824219 9.847656 93.824219 C 9.792969 93.824219 9.734375 93.816406 9.679688 93.792969 C 9.550781 93.746094 9.457031 93.644531 9.410156 93.527344 L 9.40625 93.527344 C 9.367188 93.632812 9.363281 93.75 9.40625 93.863281 L 32.503906 154.160156 C 32.53125 154.234375 32.578125 154.300781 32.636719 154.347656 L 32.636719 154.351562 C 32.527344 154.222656 32.488281 154.039062 32.550781 153.871094 C 32.625 153.683594 32.804688 153.566406 32.992188 153.566406 C 33.050781 153.566406 33.105469 153.578125 33.164062 153.597656 L 33.324219 153.660156 Z M 10.289062 93.523438 " fill-opacity="1" fill-rule="nonzero"/></g><g clip-path="url(#a4b2be609d)"><path fill="#000000" d="M 176.632812 93.523438 L 153.597656 153.660156 C 154.015625 153.460938 154.28125 153.585938 154.402344 154.039062 L 154.585938 153.722656 L 177.515625 93.863281 C 177.554688 93.75 177.554688 93.636719 177.515625 93.53125 C 177.21875 93.925781 176.925781 93.925781 176.632812 93.523438 Z M 176.632812 93.523438 " fill-opacity="1" fill-rule="nonzero"/></g><g clip-path="url(#f115313806)"><path fill="#000000" d="M 93.289062 9.4375 L 93.261719 9.4375 L 33.292969 32.382812 L 32.785156 32.621094 C 33.035156 32.554688 33.21875 32.609375 33.335938 32.789062 L 33.324219 33.386719 L 93.460938 10.355469 C 93.078125 9.953125 93.078125 9.660156 93.449219 9.476562 C 93.84375 9.535156 93.847656 9.828125 93.460938 10.355469 L 153.597656 33.386719 L 153.546875 32.851562 C 153.773438 32.570312 154.003906 32.507812 154.242188 32.667969 L 154.121094 32.582031 L 93.800781 9.46875 Z M 93.289062 9.4375 " fill-opacity="1" fill-rule="nonzero"/></g><g clip-path="url(#82add9b386)"><path fill="#000000" d="M 93.464844 176.695312 L 93.492188 176.707031 C 93.507812 176.714844 93.535156 176.730469 93.574219 176.757812 L 93.621094 176.796875 L 93.660156 176.839844 L 93.695312 176.890625 L 93.722656 176.945312 L 93.742188 177 L 93.757812 177.058594 L 93.761719 177.121094 L 93.761719 177.179688 C 93.757812 177.203125 93.753906 177.226562 93.75 177.25 C 93.734375 177.300781 93.722656 177.332031 93.71875 177.339844 C 93.699219 177.378906 93.675781 177.414062 93.644531 177.449219 C 93.632812 177.460938 93.617188 177.480469 93.589844 177.5 C 93.578125 177.511719 93.554688 177.527344 93.519531 177.550781 L 93.460938 177.578125 L 93.429688 177.5625 C 93.410156 177.554688 93.394531 177.542969 93.375 177.53125 C 93.363281 177.527344 93.339844 177.507812 93.300781 177.472656 C 93.269531 177.445312 93.246094 177.410156 93.222656 177.375 C 93.195312 177.320312 93.179688 177.277344 93.171875 177.242188 L 93.160156 177.179688 L 93.160156 177.121094 C 93.164062 177.023438 93.191406 176.933594 93.25 176.859375 C 93.308594 176.777344 93.382812 176.722656 93.464844 176.695312 M 33.324219 153.660156 L 33.386719 153.820312 L 33.3125 154.285156 C 33.144531 154.46875 32.941406 154.507812 32.707031 154.402344 L 32.824219 154.480469 L 93.289062 177.609375 L 93.800781 177.578125 L 154.125 154.441406 C 153.609375 154.472656 153.429688 154.214844 153.585938 153.667969 L 93.460938 176.695312 Z M 33.324219 153.660156 " fill-opacity="1" fill-rule="nonzero"/></g><g clip-path="url(#4b994b952c)"><path fill="#000000" d="M 93.46875 9.34375 L 93.40625 9.359375 L 92.519531 9.636719 L 92.523438 9.636719 L 92.523438 177.375 L 93.441406 177.699219 L 93.46875 177.558594 Z M 93.46875 9.34375 " fill-opacity="1" fill-rule="nonzero"/></g><g clip-path="url(#c203c3d1b7)"><path fill="#000000" d="M 177.367188 92.625 L 9.726562 92.625 L 9.339844 93.570312 L 177.652344 93.570312 Z M 177.367188 92.625 " fill-opacity="1" fill-rule="nonzero"/></g><path fill="#000000" d="M 33.296875 32.386719 L 33.144531 32.453125 C 32.828125 32.503906 32.640625 32.6875 32.578125 33 L 154.125 154.546875 L 154.605469 153.691406 Z M 33.296875 32.386719 " fill-opacity="1" fill-rule="nonzero"/><path fill="#000000" d="M 93.46875 92.554688 L 93.539062 92.625 L 93.914062 92.625 C 93.789062 92.625 93.664062 92.625 93.539062 92.625 C 93.515625 92.601562 93.492188 92.578125 93.46875 92.554688 " fill-opacity="1" fill-rule="nonzero"/><path fill="#000000" d="M 153.378906 32.324219 L 116.53125 69.046875 L 92.007812 93.570312 L 92.265625 93.570312 L 32.933594 152.644531 L 33.304688 153.609375 L 154.285156 32.628906 Z M 153.378906 32.324219 " fill-opacity="1" fill-rule="nonzero"/><path fill="#000000" d="M 32.933594 152.644531 L 32.203125 153.375 L 32.503906 154.160156 C 32.523438 154.21875 32.558594 154.273438 32.601562 154.316406 L 32.605469 154.3125 C 32.605469 154.3125 32.605469 154.3125 32.605469 154.308594 L 32.605469 154.3125 L 33.273438 153.640625 L 33.304688 153.609375 Z M 32.933594 152.644531 " fill-opacity="1" fill-rule="nonzero"/><g clip-path="url(#f055078323)"><path fill="#000000" d="M 93.507812 176.675781 L 93.5 176.675781 C 93.476562 176.675781 93.453125 176.679688 93.429688 176.683594 C 93.394531 176.691406 93.355469 176.703125 93.308594 176.722656 C 93.265625 176.726562 93.238281 176.730469 93.21875 176.734375 C 93.183594 176.746094 93.140625 176.773438 93.097656 176.808594 C 93.074219 176.832031 93.054688 176.859375 93.046875 176.890625 L 92.953125 177.148438 C 92.949219 177.160156 92.949219 177.171875 92.949219 177.183594 C 92.941406 177.230469 92.953125 177.28125 92.976562 177.335938 L 93.199219 177.574219 C 93.214844 177.59375 93.261719 177.613281 93.335938 177.640625 C 93.386719 177.660156 93.429688 177.667969 93.464844 177.667969 L 93.480469 177.667969 L 93.71875 177.601562 C 93.75 177.589844 93.78125 177.578125 93.8125 177.558594 C 93.886719 177.511719 93.996094 177.417969 94.144531 177.28125 C 94.226562 177.199219 94.304688 177.113281 94.375 177.023438 L 93.652344 176.683594 C 93.582031 176.675781 93.535156 176.675781 93.507812 176.675781 " fill-opacity="1" fill-rule="nonzero"/></g><path fill="#000000" d="M 33.015625 153.421875 L 32.972656 153.421875 C 32.886719 153.433594 32.808594 153.46875 32.734375 153.535156 C 32.710938 153.558594 32.683594 153.585938 32.660156 153.613281 C 32.617188 153.683594 32.582031 153.738281 32.5625 153.78125 C 32.53125 153.933594 32.515625 154.046875 32.519531 154.117188 C 32.523438 154.195312 32.554688 154.265625 32.605469 154.328125 L 32.792969 154.449219 C 32.859375 154.472656 32.921875 154.488281 32.980469 154.5 L 34.015625 154.589844 C 34.03125 154.582031 34.046875 154.578125 34.054688 154.566406 L 34.066406 154.546875 C 34.074219 154.535156 34.074219 154.519531 34.070312 154.5 C 34.066406 154.464844 34.042969 154.414062 34.007812 154.351562 L 33.539062 153.816406 C 33.488281 153.777344 33.4375 153.726562 33.390625 153.667969 L 33.160156 153.464844 C 33.117188 153.4375 33.070312 153.421875 33.015625 153.421875 " fill-opacity="1" fill-rule="nonzero"/><g clip-path="url(#23c2325eeb)"><path fill="#000000" d="M 9.953125 93.199219 L 9.949219 93.199219 C 9.933594 93.195312 9.875 93.21875 9.777344 93.257812 C 9.664062 93.269531 9.609375 93.277344 9.605469 93.28125 C 9.585938 93.289062 9.5625 93.304688 9.542969 93.320312 C 9.511719 93.347656 9.488281 93.367188 9.46875 93.382812 C 9.460938 93.394531 9.453125 93.402344 9.453125 93.40625 L 9.390625 93.640625 C 9.390625 93.652344 9.40625 93.699219 9.441406 93.777344 C 9.445312 93.859375 9.449219 93.921875 9.457031 93.964844 L 9.492188 94.023438 C 9.507812 94.054688 9.523438 94.074219 9.535156 94.089844 C 9.664062 94.199219 9.761719 94.292969 9.828125 94.375 C 9.878906 94.488281 9.949219 94.605469 10.035156 94.722656 L 10.324219 93.722656 C 10.320312 93.71875 10.316406 93.714844 10.3125 93.707031 C 10.308594 93.679688 10.304688 93.660156 10.308594 93.648438 C 10.308594 93.613281 10.3125 93.566406 10.320312 93.503906 C 10.292969 93.394531 10.253906 93.324219 10.199219 93.289062 C 10.160156 93.261719 10.136719 93.246094 10.125 93.242188 C 10.042969 93.21875 9.984375 93.203125 9.953125 93.199219 " fill-opacity="1" fill-rule="nonzero"/></g><g clip-path="url(#0f68cbe0b9)"><path fill="#000000" d="M 10.425781 91.707031 L 9.902344 91.871094 C 9.863281 91.949219 9.828125 92.023438 9.800781 92.097656 C 9.773438 92.152344 9.746094 92.246094 9.710938 92.367188 L 9.636719 92.523438 C 9.613281 92.644531 9.585938 92.734375 9.558594 92.789062 C 9.542969 92.867188 9.53125 92.921875 9.523438 92.949219 C 9.445312 93.171875 9.402344 93.304688 9.402344 93.355469 L 9.347656 93.480469 C 9.339844 93.535156 9.34375 93.570312 9.363281 93.589844 C 9.386719 93.605469 9.410156 93.609375 9.433594 93.597656 C 9.46875 93.585938 9.492188 93.578125 9.5 93.566406 C 9.59375 93.476562 9.6875 93.398438 9.785156 93.339844 C 9.871094 93.261719 9.921875 93.203125 9.941406 93.160156 C 9.988281 93.0625 10.023438 92.96875 10.050781 92.882812 L 10.101562 92.679688 C 10.125 92.597656 10.144531 92.542969 10.15625 92.515625 C 10.1875 92.410156 10.203125 92.347656 10.207031 92.335938 C 10.234375 92.226562 10.253906 92.148438 10.261719 92.09375 C 10.289062 91.984375 10.316406 91.90625 10.332031 91.855469 C 10.34375 91.816406 10.359375 91.785156 10.375 91.761719 C 10.390625 91.738281 10.410156 91.71875 10.429688 91.707031 L 10.425781 91.707031 " fill-opacity="1" fill-rule="nonzero"/></g><path fill="#000000" d="M 32.8125 32.59375 L 32.800781 32.59375 C 32.78125 32.597656 32.765625 32.605469 32.753906 32.625 L 32.476562 33.117188 C 32.421875 33.257812 32.359375 33.398438 32.289062 33.542969 C 32.277344 33.566406 32.265625 33.609375 32.257812 33.671875 C 32.25 33.6875 32.246094 33.695312 32.238281 33.699219 L 32.753906 34.183594 L 33.101562 33.703125 C 33.132812 33.644531 33.160156 33.597656 33.179688 33.554688 C 33.222656 33.488281 33.25 33.355469 33.273438 33.160156 C 33.261719 33.042969 33.203125 32.910156 33.097656 32.761719 C 33.03125 32.703125 32.972656 32.65625 32.929688 32.625 C 32.859375 32.601562 32.820312 32.589844 32.8125 32.59375 " fill-opacity="1" fill-rule="nonzero"/><g clip-path="url(#e739d44737)"><path fill="#000000" d="M 93.445312 9.375 L 92.933594 10.339844 C 92.929688 10.359375 92.933594 10.375 92.953125 10.394531 L 92.992188 10.421875 C 92.996094 10.425781 93.003906 10.425781 93.011719 10.425781 C 93.039062 10.425781 93.085938 10.421875 93.148438 10.417969 L 93.398438 10.363281 C 93.429688 10.359375 93.449219 10.359375 93.464844 10.355469 C 93.617188 10.308594 93.703125 10.289062 93.71875 10.292969 C 93.769531 10.269531 93.820312 10.246094 93.875 10.21875 C 93.894531 10.214844 93.917969 10.195312 93.949219 10.160156 C 93.96875 10.140625 93.984375 10.117188 94 10.089844 C 94.03125 10.027344 94.046875 9.992188 94.042969 9.984375 C 94.027344 9.925781 94.015625 9.875 94.011719 9.835938 C 93.992188 9.78125 93.980469 9.738281 93.972656 9.699219 C 93.945312 9.621094 93.921875 9.570312 93.90625 9.546875 C 93.890625 9.53125 93.863281 9.515625 93.828125 9.5 C 93.644531 9.433594 93.542969 9.402344 93.519531 9.410156 C 93.488281 9.402344 93.460938 9.390625 93.445312 9.375 " fill-opacity="1" fill-rule="nonzero"/></g><path fill="#000000" d="M 154.144531 32.601562 C 154.105469 32.605469 154.066406 32.617188 154.027344 32.636719 C 153.949219 32.6875 153.835938 32.753906 153.683594 32.832031 C 153.671875 32.84375 153.65625 32.859375 153.632812 32.875 C 153.59375 32.902344 153.558594 32.925781 153.527344 32.9375 L 153.511719 32.953125 L 153.472656 33 C 153.46875 33.011719 153.464844 33.03125 153.464844 33.046875 C 153.464844 33.050781 153.464844 33.0625 153.464844 33.082031 L 153.5 33.269531 L 153.507812 33.28125 C 153.507812 33.296875 153.550781 33.359375 153.636719 33.472656 C 153.691406 33.535156 153.738281 33.582031 153.78125 33.613281 C 153.796875 33.644531 153.84375 33.695312 153.921875 33.773438 C 154.03125 33.855469 154.09375 33.890625 154.109375 33.882812 L 154.195312 33.878906 C 154.222656 33.875 154.246094 33.871094 154.265625 33.863281 C 154.3125 33.84375 154.347656 33.8125 154.375 33.769531 C 154.390625 33.75 154.402344 33.722656 154.414062 33.695312 C 154.433594 33.644531 154.445312 33.589844 154.457031 33.535156 C 154.484375 33.402344 154.496094 33.308594 154.492188 33.25 C 154.5 33.191406 154.488281 33.15625 154.453125 33.132812 L 154.425781 32.941406 L 154.367188 32.785156 C 154.335938 32.75 154.316406 32.730469 154.308594 32.71875 C 154.300781 32.703125 154.289062 32.6875 154.285156 32.675781 L 154.253906 32.648438 C 154.226562 32.621094 154.191406 32.609375 154.144531 32.601562 " fill-opacity="1" fill-rule="nonzero"/><g clip-path="url(#01919aefce)"><path fill="#000000" d="M 177.3125 93.242188 L 176.628906 93.390625 C 176.640625 93.550781 176.65625 93.671875 176.675781 93.75 C 176.730469 93.894531 176.765625 93.972656 176.78125 93.988281 C 176.824219 94.039062 176.867188 94.070312 176.914062 94.085938 C 176.929688 94.089844 176.992188 94.085938 177.109375 94.0625 L 177.21875 94.015625 C 177.289062 93.957031 177.335938 93.925781 177.363281 93.917969 C 177.398438 93.886719 177.417969 93.867188 177.421875 93.863281 C 177.429688 93.855469 177.460938 93.839844 177.511719 93.816406 C 177.539062 93.796875 177.558594 93.757812 177.574219 93.699219 C 177.585938 93.648438 177.59375 93.589844 177.597656 93.523438 C 177.605469 93.480469 177.601562 93.453125 177.59375 93.445312 C 177.59375 93.433594 177.546875 93.402344 177.457031 93.355469 L 177.3125 93.242188 " fill-opacity="1" fill-rule="nonzero"/></g></svg>