<svg xmlns="http://www.w3.org/2000/svg" xmlns:xlink="http://www.w3.org/1999/xlink" width="250" zoomAndPan="magnify" viewBox="0 0 187.5 187.499992" height="250" preserveAspectRatio="xMidYMid meet" version="1.0"><defs><g/><clipPath id="d126b6d776"><path d="M 70.273438 70.273438 L 116.726562 70.273438 L 116.726562 116.726562 L 70.273438 116.726562 Z M 70.273438 70.273438 " clip-rule="nonzero"/></clipPath><clipPath id="a3dc33b3dd"><path d="M 93.5 70.273438 C 80.671875 70.273438 70.273438 80.671875 70.273438 93.5 C 70.273438 106.328125 80.671875 116.726562 93.5 116.726562 C 106.328125 116.726562 116.726562 106.328125 116.726562 93.5 C 116.726562 80.671875 106.328125 70.273438 93.5 70.273438 Z M 93.5 70.273438 " clip-rule="nonzero"/></clipPath><clipPath id="a913b964c0"><path d="M 18.699219 18.699219 L 65.152344 18.699219 L 65.152344 65.152344 L 18.699219 65.152344 Z M 18.699219 18.699219 " clip-rule="nonzero"/></clipPath><clipPath id="46fa162184"><path d="M 41.925781 18.699219 C 29.097656 18.699219 18.699219 29.097656 18.699219 41.925781 C 18.699219 54.753906 29.097656 65.152344 41.925781 65.152344 C 54.753906 65.152344 65.152344 54.753906 65.152344 41.925781 C 65.152344 29.097656 54.753906 18.699219 41.925781 18.699219 Z M 41.925781 18.699219 " clip-rule="nonzero"/></clipPath><clipPath id="8593b3a92a"><path d="M 121.851562 18.699219 L 168.300781 18.699219 L 168.300781 65.152344 L 121.851562 65.152344 Z M 121.851562 18.699219 " clip-rule="nonzero"/></clipPath><clipPath id="aca986ce9b"><path d="M 145.074219 18.699219 C 132.25 18.699219 121.851562 29.097656 121.851562 41.925781 C 121.851562 54.753906 132.25 65.152344 145.074219 65.152344 C 157.902344 65.152344 168.300781 54.753906 168.300781 41.925781 C 168.300781 29.097656 157.902344 18.699219 145.074219 18.699219 Z M 145.074219 18.699219 " clip-rule="nonzero"/></clipPath><clipPath id="ae0aa645e2"><path d="M 18.699219 121.851562 L 65.152344 121.851562 L 65.152344 168.300781 L 18.699219 168.300781 Z M 18.699219 121.851562 " clip-rule="nonzero"/></clipPath><clipPath id="afce6ae095"><path d="M 41.925781 121.851562 C 29.097656 121.851562 18.699219 132.25 18.699219 145.074219 C 18.699219 157.902344 29.097656 168.300781 41.925781 168.300781 C 54.753906 168.300781 65.152344 157.902344 65.152344 145.074219 C 65.152344 132.25 54.753906 121.851562 41.925781 121.851562 Z M 41.925781 121.851562 " clip-rule="nonzero"/></clipPath><clipPath id="51be84a11e"><path d="M 121.851562 121.851562 L 168.300781 121.851562 L 168.300781 168.300781 L 121.851562 168.300781 Z M 121.851562 121.851562 " clip-rule="nonzero"/></clipPath><clipPath id="1102239855"><path d="M 145.074219 121.851562 C 132.25 121.851562 121.851562 132.25 121.851562 145.074219 C 121.851562 157.902344 132.25 168.300781 145.074219 168.300781 C 157.902344 168.300781 168.300781 157.902344 168.300781 145.074219 C 168.300781 132.25 157.902344 121.851562 145.074219 121.851562 Z M 145.074219 121.851562 " clip-rule="nonzero"/></clipPath></defs><g clip-path="url(#d126b6d776)"><g clip-path="url(#a3dc33b3dd)"><path fill="#964590" d="M 70.273438 70.273438 L 116.726562 70.273438 L 116.726562 116.726562 L 70.273438 116.726562 Z M 70.273438 70.273438 " fill-opacity="1" fill-rule="nonzero"/></g></g><g fill="#ffffff" fill-opacity="1"><g transform="translate(83.972944, 101.728715)"><g><path d="M 17.65625 -8.5625 C 17.65625 -7.25 17.488281 -6.050781 17.15625 -4.96875 C 16.832031 -3.894531 16.335938 -2.96875 15.671875 -2.1875 C 15.015625 -1.40625 14.175781 -0.804688 13.15625 -0.390625 C 12.132812 0.0234375 10.925781 0.234375 9.53125 0.234375 C 8.132812 0.234375 6.925781 0.0234375 5.90625 -0.390625 C 4.882812 -0.804688 4.039062 -1.40625 3.375 -2.1875 C 2.707031 -2.96875 2.207031 -3.898438 1.875 -4.984375 C 1.550781 -6.066406 1.390625 -7.269531 1.390625 -8.59375 C 1.390625 -10.363281 1.675781 -11.90625 2.25 -13.21875 C 2.832031 -14.53125 3.726562 -15.546875 4.9375 -16.265625 C 6.144531 -16.992188 7.679688 -17.359375 9.546875 -17.359375 C 11.398438 -17.359375 12.925781 -16.992188 14.125 -16.265625 C 15.320312 -15.546875 16.207031 -14.523438 16.78125 -13.203125 C 17.363281 -11.890625 17.65625 -10.34375 17.65625 -8.5625 Z M 5.1875 -8.5625 C 5.1875 -7.375 5.335938 -6.347656 5.640625 -5.484375 C 5.941406 -4.628906 6.410156 -3.96875 7.046875 -3.5 C 7.679688 -3.039062 8.507812 -2.8125 9.53125 -2.8125 C 10.550781 -2.8125 11.378906 -3.039062 12.015625 -3.5 C 12.660156 -3.96875 13.128906 -4.628906 13.421875 -5.484375 C 13.710938 -6.347656 13.859375 -7.375 13.859375 -8.5625 C 13.859375 -10.351562 13.523438 -11.765625 12.859375 -12.796875 C 12.191406 -13.828125 11.085938 -14.34375 9.546875 -14.34375 C 8.523438 -14.34375 7.691406 -14.109375 7.046875 -13.640625 C 6.410156 -13.179688 5.941406 -12.519531 5.640625 -11.65625 C 5.335938 -10.800781 5.1875 -9.769531 5.1875 -8.5625 Z M 5.1875 -8.5625 "/></g></g></g><g clip-path="url(#a913b964c0)"><g clip-path="url(#46fa162184)"><path fill="#fac90a" d="M 18.699219 18.699219 L 65.152344 18.699219 L 65.152344 65.152344 L 18.699219 65.152344 Z M 18.699219 18.699219 " fill-opacity="1" fill-rule="nonzero"/></g></g><g fill="#000000" fill-opacity="1"><g transform="translate(27.126882, 50.153752)"><g><path d="M 15.890625 0 L 11.78125 0 L 7.3125 -7.203125 L 5.78125 -6.09375 L 5.78125 0 L 2.15625 0 L 2.15625 -17.09375 L 5.78125 -17.09375 L 5.78125 -9.265625 C 6.019531 -9.597656 6.253906 -9.929688 6.484375 -10.265625 C 6.722656 -10.609375 6.960938 -10.945312 7.203125 -11.28125 L 11.828125 -17.09375 L 15.84375 -17.09375 L 9.890625 -9.53125 Z M 15.890625 0 "/></g></g><g transform="translate(43.021994, 50.153752)"><g><path d="M 9.890625 0 L 6.28125 0 L 6.28125 -9.890625 C 6.28125 -10.160156 6.28125 -10.492188 6.28125 -10.890625 C 6.289062 -11.296875 6.300781 -11.710938 6.3125 -12.140625 C 6.332031 -12.566406 6.351562 -12.953125 6.375 -13.296875 C 6.28125 -13.191406 6.101562 -13.015625 5.84375 -12.765625 C 5.582031 -12.523438 5.34375 -12.304688 5.125 -12.109375 L 3.15625 -10.53125 L 1.421875 -12.703125 L 6.921875 -17.09375 L 9.890625 -17.09375 Z M 9.890625 0 "/></g></g></g><g clip-path="url(#8593b3a92a)"><g clip-path="url(#aca986ce9b)"><path fill="#fac90a" d="M 121.851562 18.699219 L 168.300781 18.699219 L 168.300781 65.152344 L 121.851562 65.152344 Z M 121.851562 18.699219 " fill-opacity="1" fill-rule="nonzero"/></g></g><g fill="#000000" fill-opacity="1"><g transform="translate(130.2768, 50.153752)"><g><path d="M 15.890625 0 L 11.78125 0 L 7.3125 -7.203125 L 5.78125 -6.09375 L 5.78125 0 L 2.15625 0 L 2.15625 -17.09375 L 5.78125 -17.09375 L 5.78125 -9.265625 C 6.019531 -9.597656 6.253906 -9.929688 6.484375 -10.265625 C 6.722656 -10.609375 6.960938 -10.945312 7.203125 -11.28125 L 11.828125 -17.09375 L 15.84375 -17.09375 L 9.890625 -9.53125 Z M 15.890625 0 "/></g></g><g transform="translate(146.171911, 50.153752)"><g><path d="M 12.90625 0 L 0.953125 0 L 0.953125 -2.515625 L 5.25 -6.84375 C 6.113281 -7.738281 6.804688 -8.484375 7.328125 -9.078125 C 7.859375 -9.671875 8.242188 -10.210938 8.484375 -10.703125 C 8.722656 -11.191406 8.84375 -11.71875 8.84375 -12.28125 C 8.84375 -12.957031 8.648438 -13.460938 8.265625 -13.796875 C 7.890625 -14.140625 7.382812 -14.3125 6.75 -14.3125 C 6.09375 -14.3125 5.453125 -14.160156 4.828125 -13.859375 C 4.203125 -13.554688 3.550781 -13.125 2.875 -12.5625 L 0.90625 -14.890625 C 1.394531 -15.304688 1.914062 -15.703125 2.46875 -16.078125 C 3.019531 -16.453125 3.660156 -16.753906 4.390625 -16.984375 C 5.117188 -17.210938 5.992188 -17.328125 7.015625 -17.328125 C 8.140625 -17.328125 9.101562 -17.125 9.90625 -16.71875 C 10.707031 -16.320312 11.328125 -15.773438 11.765625 -15.078125 C 12.203125 -14.378906 12.421875 -13.585938 12.421875 -12.703125 C 12.421875 -11.765625 12.234375 -10.90625 11.859375 -10.125 C 11.484375 -9.34375 10.9375 -8.566406 10.21875 -7.796875 C 9.507812 -7.035156 8.65625 -6.191406 7.65625 -5.265625 L 5.453125 -3.203125 L 5.453125 -3.03125 L 12.90625 -3.03125 Z M 12.90625 0 "/></g></g></g><g clip-path="url(#ae0aa645e2)"><g clip-path="url(#afce6ae095)"><path fill="#fac90a" d="M 18.699219 121.851562 L 65.152344 121.851562 L 65.152344 168.300781 L 18.699219 168.300781 Z M 18.699219 121.851562 " fill-opacity="1" fill-rule="nonzero"/></g></g><g fill="#000000" fill-opacity="1"><g transform="translate(27.126882, 153.303677)"><g><path d="M 15.890625 0 L 11.78125 0 L 7.3125 -7.203125 L 5.78125 -6.09375 L 5.78125 0 L 2.15625 0 L 2.15625 -17.09375 L 5.78125 -17.09375 L 5.78125 -9.265625 C 6.019531 -9.597656 6.253906 -9.929688 6.484375 -10.265625 C 6.722656 -10.609375 6.960938 -10.945312 7.203125 -11.28125 L 11.828125 -17.09375 L 15.84375 -17.09375 L 9.890625 -9.53125 Z M 15.890625 0 "/></g></g><g transform="translate(43.021994, 153.303677)"><g><path d="M 12.234375 -13.265625 C 12.234375 -12.472656 12.066406 -11.789062 11.734375 -11.21875 C 11.410156 -10.644531 10.96875 -10.171875 10.40625 -9.796875 C 9.851562 -9.429688 9.234375 -9.164062 8.546875 -9 L 8.546875 -8.9375 C 9.910156 -8.757812 10.945312 -8.332031 11.65625 -7.65625 C 12.375 -6.988281 12.734375 -6.097656 12.734375 -4.984375 C 12.734375 -3.984375 12.488281 -3.085938 12 -2.296875 C 11.519531 -1.515625 10.769531 -0.894531 9.75 -0.4375 C 8.738281 0.0078125 7.4375 0.234375 5.84375 0.234375 C 4.90625 0.234375 4.023438 0.15625 3.203125 0 C 2.390625 -0.144531 1.625 -0.375 0.90625 -0.6875 L 0.90625 -3.765625 C 1.644531 -3.390625 2.414062 -3.101562 3.21875 -2.90625 C 4.019531 -2.71875 4.765625 -2.625 5.453125 -2.625 C 6.753906 -2.625 7.660156 -2.847656 8.171875 -3.296875 C 8.691406 -3.742188 8.953125 -4.375 8.953125 -5.1875 C 8.953125 -5.664062 8.832031 -6.066406 8.59375 -6.390625 C 8.351562 -6.722656 7.929688 -6.972656 7.328125 -7.140625 C 6.734375 -7.316406 5.90625 -7.40625 4.84375 -7.40625 L 3.546875 -7.40625 L 3.546875 -10.171875 L 4.859375 -10.171875 C 5.910156 -10.171875 6.710938 -10.269531 7.265625 -10.46875 C 7.816406 -10.664062 8.191406 -10.9375 8.390625 -11.28125 C 8.585938 -11.632812 8.6875 -12.03125 8.6875 -12.46875 C 8.6875 -13.082031 8.5 -13.554688 8.125 -13.890625 C 7.75 -14.234375 7.125 -14.40625 6.25 -14.40625 C 5.707031 -14.40625 5.210938 -14.335938 4.765625 -14.203125 C 4.316406 -14.066406 3.910156 -13.90625 3.546875 -13.71875 C 3.191406 -13.53125 2.878906 -13.34375 2.609375 -13.15625 L 0.9375 -15.65625 C 1.601562 -16.132812 2.382812 -16.53125 3.28125 -16.84375 C 4.1875 -17.164062 5.265625 -17.328125 6.515625 -17.328125 C 8.273438 -17.328125 9.664062 -16.972656 10.6875 -16.265625 C 11.71875 -15.554688 12.234375 -14.554688 12.234375 -13.265625 Z M 12.234375 -13.265625 "/></g></g></g><g clip-path="url(#51be84a11e)"><g clip-path="url(#1102239855)"><path fill="#fac90a" d="M 121.851562 121.851562 L 168.300781 121.851562 L 168.300781 168.300781 L 121.851562 168.300781 Z M 121.851562 121.851562 " fill-opacity="1" fill-rule="nonzero"/></g></g><g fill="#000000" fill-opacity="1"><g transform="translate(130.2768, 153.303677)"><g><path d="M 15.890625 0 L 11.78125 0 L 7.3125 -7.203125 L 5.78125 -6.09375 L 5.78125 0 L 2.15625 0 L 2.15625 -17.09375 L 5.78125 -17.09375 L 5.78125 -9.265625 C 6.019531 -9.597656 6.253906 -9.929688 6.484375 -10.265625 C 6.722656 -10.609375 6.960938 -10.945312 7.203125 -11.28125 L 11.828125 -17.09375 L 15.84375 -17.09375 L 9.890625 -9.53125 Z M 15.890625 0 "/></g></g><g transform="translate(146.171911, 153.303677)"><g><path d="M 13.296875 -3.546875 L 11.234375 -3.546875 L 11.234375 0 L 7.703125 0 L 7.703125 -3.546875 L 0.40625 -3.546875 L 0.40625 -6.046875 L 7.90625 -17.09375 L 11.234375 -17.09375 L 11.234375 -6.34375 L 13.296875 -6.34375 Z M 7.703125 -6.34375 L 7.703125 -9.25 C 7.703125 -9.519531 7.707031 -9.84375 7.71875 -10.21875 C 7.726562 -10.59375 7.738281 -10.96875 7.75 -11.34375 C 7.769531 -11.71875 7.789062 -12.050781 7.8125 -12.34375 C 7.832031 -12.632812 7.847656 -12.835938 7.859375 -12.953125 L 7.765625 -12.953125 C 7.609375 -12.628906 7.445312 -12.316406 7.28125 -12.015625 C 7.125 -11.722656 6.9375 -11.410156 6.71875 -11.078125 L 3.59375 -6.34375 Z M 7.703125 -6.34375 "/></g></g></g><path fill="#000000" d="M 41.925781 120.261719 C 42.03125 120.15625 42.152344 120.074219 42.289062 120.019531 C 42.425781 119.960938 42.570312 119.933594 42.71875 119.933594 C 42.867188 119.933594 43.011719 119.960938 43.148438 120.019531 C 43.285156 120.074219 43.40625 120.15625 43.511719 120.261719 C 43.617188 120.367188 43.699219 120.488281 43.753906 120.625 C 43.8125 120.761719 43.839844 120.90625 43.839844 121.054688 C 43.839844 121.203125 43.8125 121.347656 43.753906 121.484375 C 43.699219 121.621094 43.617188 121.742188 43.511719 121.847656 C 43.40625 121.953125 43.285156 122.035156 43.148438 122.09375 C 43.011719 122.148438 42.867188 122.175781 42.71875 122.175781 C 42.570312 122.175781 42.425781 122.148438 42.289062 122.09375 C 42.152344 122.035156 42.03125 121.953125 41.925781 121.847656 C 41.820312 121.742188 41.738281 121.621094 41.683594 121.484375 C 41.625 121.347656 41.597656 121.203125 41.597656 121.054688 C 41.597656 120.90625 41.625 120.761719 41.683594 120.625 C 41.738281 120.488281 41.820312 120.367188 41.925781 120.261719 Z M 45.097656 117.089844 C 45.203125 116.984375 45.324219 116.902344 45.464844 116.84375 C 45.601562 116.789062 45.742188 116.757812 45.890625 116.757812 C 46.042969 116.757812 46.183594 116.789062 46.320312 116.84375 C 46.460938 116.902344 46.582031 116.984375 46.6875 117.089844 C 46.789062 117.195312 46.871094 117.316406 46.929688 117.453125 C 46.984375 117.589844 47.015625 117.734375 47.015625 117.882812 C 47.015625 118.03125 46.984375 118.171875 46.929688 118.3125 C 46.871094 118.449219 46.789062 118.570312 46.6875 118.675781 C 46.582031 118.78125 46.460938 118.863281 46.320312 118.917969 C 46.183594 118.976562 46.039062 119.003906 45.890625 119.003906 C 45.742188 119.003906 45.601562 118.976562 45.460938 118.917969 C 45.324219 118.863281 45.203125 118.78125 45.097656 118.675781 C 44.992188 118.570312 44.914062 118.449219 44.855469 118.3125 C 44.796875 118.171875 44.769531 118.03125 44.769531 117.882812 C 44.769531 117.734375 44.796875 117.589844 44.855469 117.453125 C 44.914062 117.316406 44.992188 117.195312 45.097656 117.089844 Z M 48.273438 113.914062 C 48.378906 113.808594 48.5 113.726562 48.636719 113.671875 C 48.773438 113.613281 48.917969 113.585938 49.066406 113.585938 C 49.214844 113.585938 49.359375 113.613281 49.496094 113.671875 C 49.632812 113.726562 49.753906 113.808594 49.859375 113.914062 C 49.964844 114.019531 50.046875 114.140625 50.101562 114.277344 C 50.160156 114.414062 50.1875 114.558594 50.1875 114.707031 C 50.1875 114.855469 50.160156 115 50.101562 115.136719 C 50.046875 115.273438 49.964844 115.394531 49.859375 115.5 C 49.753906 115.605469 49.632812 115.6875 49.496094 115.746094 C 49.359375 115.800781 49.214844 115.828125 49.066406 115.828125 C 48.917969 115.828125 48.773438 115.800781 48.636719 115.746094 C 48.5 115.6875 48.378906 115.605469 48.273438 115.5 C 48.167969 115.394531 48.085938 115.273438 48.027344 115.136719 C 47.972656 115 47.945312 114.855469 47.945312 114.707031 C 47.945312 114.558594 47.972656 114.417969 48.027344 114.277344 C 48.085938 114.140625 48.167969 114.019531 48.273438 113.914062 Z M 51.445312 110.742188 C 51.550781 110.636719 51.671875 110.554688 51.808594 110.496094 C 51.949219 110.441406 52.089844 110.414062 52.238281 110.414062 C 52.386719 110.414062 52.53125 110.441406 52.667969 110.496094 C 52.804688 110.554688 52.929688 110.636719 53.03125 110.742188 C 53.136719 110.847656 53.21875 110.96875 53.277344 111.105469 C 53.332031 111.242188 53.363281 111.386719 53.363281 111.535156 C 53.363281 111.683594 53.332031 111.824219 53.277344 111.964844 C 53.21875 112.101562 53.136719 112.222656 53.03125 112.328125 C 52.929688 112.433594 52.804688 112.515625 52.667969 112.570312 C 52.53125 112.628906 52.386719 112.65625 52.238281 112.65625 C 52.089844 112.65625 51.949219 112.628906 51.808594 112.570312 C 51.671875 112.515625 51.550781 112.433594 51.445312 112.328125 C 51.339844 112.222656 51.261719 112.101562 51.203125 111.964844 C 51.144531 111.828125 51.117188 111.683594 51.117188 111.535156 C 51.117188 111.386719 51.144531 111.242188 51.203125 111.105469 C 51.261719 110.96875 51.339844 110.847656 51.445312 110.742188 Z M 54.621094 107.566406 C 54.726562 107.460938 54.847656 107.378906 54.984375 107.324219 C 55.121094 107.265625 55.265625 107.238281 55.414062 107.238281 C 55.5625 107.238281 55.707031 107.265625 55.84375 107.324219 C 55.980469 107.378906 56.101562 107.460938 56.207031 107.566406 C 56.3125 107.671875 56.394531 107.792969 56.449219 107.929688 C 56.507812 108.070312 56.535156 108.210938 56.535156 108.359375 C 56.535156 108.507812 56.507812 108.652344 56.449219 108.789062 C 56.394531 108.925781 56.3125 109.046875 56.207031 109.152344 C 56.101562 109.257812 55.980469 109.339844 55.84375 109.398438 C 55.707031 109.453125 55.5625 109.484375 55.414062 109.484375 C 55.265625 109.484375 55.121094 109.453125 54.984375 109.398438 C 54.847656 109.339844 54.726562 109.257812 54.621094 109.152344 C 54.515625 109.050781 54.433594 108.925781 54.375 108.789062 C 54.320312 108.652344 54.292969 108.507812 54.292969 108.359375 C 54.292969 108.210938 54.320312 108.070312 54.375 107.929688 C 54.433594 107.792969 54.515625 107.671875 54.621094 107.566406 Z M 57.792969 104.394531 C 57.898438 104.289062 58.019531 104.207031 58.15625 104.148438 C 58.296875 104.09375 58.4375 104.066406 58.585938 104.066406 C 58.734375 104.066406 58.878906 104.09375 59.015625 104.148438 C 59.152344 104.207031 59.273438 104.289062 59.378906 104.394531 C 59.484375 104.5 59.566406 104.621094 59.625 104.757812 C 59.679688 104.894531 59.710938 105.039062 59.710938 105.1875 C 59.710938 105.335938 59.679688 105.480469 59.625 105.617188 C 59.566406 105.753906 59.484375 105.875 59.378906 105.980469 C 59.273438 106.085938 59.152344 106.167969 59.015625 106.222656 C 58.878906 106.28125 58.734375 106.308594 58.585938 106.308594 C 58.4375 106.308594 58.296875 106.28125 58.15625 106.222656 C 58.019531 106.167969 57.898438 106.085938 57.792969 105.980469 C 57.6875 105.875 57.605469 105.753906 57.550781 105.617188 C 57.492188 105.480469 57.464844 105.335938 57.464844 105.1875 C 57.464844 105.039062 57.492188 104.894531 57.550781 104.757812 C 57.605469 104.621094 57.6875 104.5 57.792969 104.394531 Z M 60.96875 101.21875 C 61.074219 101.113281 61.195312 101.035156 61.332031 100.976562 C 61.46875 100.917969 61.613281 100.890625 61.761719 100.890625 C 61.910156 100.890625 62.050781 100.917969 62.191406 100.976562 C 62.328125 101.035156 62.449219 101.113281 62.554688 101.21875 C 62.660156 101.324219 62.742188 101.445312 62.796875 101.582031 C 62.855469 101.722656 62.882812 101.863281 62.882812 102.011719 C 62.882812 102.160156 62.855469 102.304688 62.796875 102.441406 C 62.742188 102.578125 62.660156 102.703125 62.554688 102.804688 L 62.554688 102.808594 C 62.449219 102.910156 62.328125 102.992188 62.191406 103.050781 C 62.050781 103.105469 61.910156 103.136719 61.761719 103.136719 C 61.613281 103.136719 61.46875 103.105469 61.332031 103.050781 C 61.195312 102.992188 61.074219 102.910156 60.96875 102.808594 C 60.863281 102.703125 60.78125 102.582031 60.722656 102.441406 C 60.667969 102.304688 60.636719 102.160156 60.636719 102.011719 C 60.636719 101.863281 60.667969 101.722656 60.722656 101.582031 C 60.78125 101.445312 60.863281 101.324219 60.96875 101.21875 Z M 64.140625 98.046875 C 64.246094 97.941406 64.367188 97.859375 64.503906 97.804688 C 64.640625 97.746094 64.785156 97.71875 64.933594 97.71875 C 65.082031 97.71875 65.226562 97.746094 65.363281 97.804688 C 65.5 97.859375 65.621094 97.941406 65.726562 98.046875 C 65.832031 98.152344 65.914062 98.273438 65.972656 98.410156 C 66.027344 98.546875 66.054688 98.691406 66.054688 98.839844 C 66.054688 98.988281 66.027344 99.132812 65.972656 99.269531 C 65.914062 99.40625 65.832031 99.527344 65.726562 99.632812 C 65.621094 99.738281 65.5 99.820312 65.363281 99.875 C 65.226562 99.933594 65.082031 99.960938 64.933594 99.960938 C 64.785156 99.960938 64.640625 99.933594 64.503906 99.875 C 64.367188 99.820312 64.246094 99.738281 64.140625 99.632812 C 64.035156 99.527344 63.953125 99.40625 63.898438 99.269531 C 63.839844 99.132812 63.8125 98.988281 63.8125 98.839844 C 63.8125 98.691406 63.839844 98.546875 63.898438 98.410156 C 63.953125 98.273438 64.035156 98.152344 64.140625 98.046875 Z M 67.316406 94.871094 C 67.421875 94.765625 67.542969 94.6875 67.679688 94.628906 C 67.816406 94.570312 67.960938 94.542969 68.109375 94.542969 C 68.257812 94.542969 68.398438 94.570312 68.539062 94.628906 C 68.675781 94.6875 68.796875 94.765625 68.902344 94.871094 C 69.007812 94.976562 69.085938 95.097656 69.144531 95.238281 C 69.203125 95.375 69.230469 95.515625 69.230469 95.664062 C 69.230469 95.816406 69.203125 95.957031 69.144531 96.09375 C 69.085938 96.234375 69.007812 96.355469 68.902344 96.460938 C 68.796875 96.566406 68.675781 96.644531 68.539062 96.703125 C 68.398438 96.757812 68.257812 96.789062 68.109375 96.789062 C 67.960938 96.789062 67.816406 96.757812 67.679688 96.703125 C 67.542969 96.644531 67.417969 96.566406 67.316406 96.460938 C 67.210938 96.355469 67.128906 96.234375 67.070312 96.09375 C 67.015625 95.957031 66.984375 95.816406 66.984375 95.664062 C 66.984375 95.515625 67.015625 95.375 67.070312 95.238281 C 67.128906 95.097656 67.210938 94.976562 67.316406 94.871094 Z M 67.316406 94.871094 " fill-opacity="1" fill-rule="nonzero"/><path fill="#000000" d="M 43.511719 65.152344 C 43.617188 65.257812 43.699219 65.378906 43.753906 65.515625 C 43.8125 65.652344 43.839844 65.796875 43.839844 65.945312 C 43.839844 66.09375 43.8125 66.238281 43.753906 66.375 C 43.699219 66.511719 43.617188 66.632812 43.511719 66.738281 C 43.40625 66.84375 43.285156 66.925781 43.148438 66.984375 C 43.011719 67.039062 42.867188 67.066406 42.71875 67.066406 C 42.570312 67.066406 42.425781 67.039062 42.289062 66.984375 C 42.152344 66.925781 42.03125 66.84375 41.925781 66.738281 C 41.820312 66.632812 41.738281 66.511719 41.683594 66.375 C 41.625 66.238281 41.597656 66.09375 41.597656 65.945312 C 41.597656 65.796875 41.625 65.652344 41.683594 65.515625 C 41.738281 65.378906 41.820312 65.257812 41.925781 65.152344 C 42.03125 65.046875 42.152344 64.964844 42.289062 64.910156 C 42.425781 64.851562 42.570312 64.824219 42.71875 64.824219 C 42.867188 64.824219 43.011719 64.851562 43.148438 64.910156 C 43.285156 64.964844 43.40625 65.046875 43.511719 65.152344 Z M 46.6875 68.328125 C 46.789062 68.429688 46.871094 68.554688 46.929688 68.691406 C 46.984375 68.828125 47.015625 68.972656 47.015625 69.121094 C 47.015625 69.269531 46.984375 69.410156 46.929688 69.550781 C 46.871094 69.6875 46.789062 69.808594 46.6875 69.914062 C 46.582031 70.019531 46.460938 70.097656 46.320312 70.15625 C 46.183594 70.214844 46.042969 70.242188 45.890625 70.242188 C 45.742188 70.242188 45.601562 70.214844 45.464844 70.15625 C 45.324219 70.097656 45.203125 70.019531 45.097656 69.914062 C 44.992188 69.808594 44.914062 69.6875 44.855469 69.550781 C 44.796875 69.410156 44.769531 69.269531 44.769531 69.121094 C 44.769531 68.972656 44.796875 68.828125 44.855469 68.691406 C 44.914062 68.554688 44.992188 68.429688 45.097656 68.328125 C 45.203125 68.222656 45.324219 68.140625 45.460938 68.082031 C 45.601562 68.027344 45.742188 67.996094 45.890625 67.996094 C 46.039062 67.996094 46.183594 68.027344 46.320312 68.082031 C 46.460938 68.140625 46.582031 68.222656 46.6875 68.328125 Z M 49.859375 71.5 C 49.964844 71.605469 50.046875 71.726562 50.101562 71.863281 C 50.160156 72 50.1875 72.144531 50.1875 72.292969 C 50.1875 72.441406 50.160156 72.585938 50.101562 72.722656 C 50.046875 72.859375 49.964844 72.980469 49.859375 73.085938 C 49.753906 73.191406 49.632812 73.273438 49.496094 73.328125 C 49.359375 73.386719 49.214844 73.414062 49.066406 73.414062 C 48.917969 73.414062 48.773438 73.386719 48.636719 73.328125 C 48.5 73.273438 48.378906 73.191406 48.273438 73.085938 C 48.167969 72.980469 48.085938 72.859375 48.027344 72.722656 C 47.972656 72.585938 47.945312 72.441406 47.945312 72.292969 C 47.945312 72.144531 47.972656 72 48.027344 71.863281 C 48.085938 71.726562 48.167969 71.605469 48.273438 71.5 C 48.378906 71.394531 48.5 71.3125 48.636719 71.257812 C 48.773438 71.199219 48.917969 71.171875 49.066406 71.171875 C 49.214844 71.171875 49.359375 71.199219 49.496094 71.257812 C 49.632812 71.3125 49.753906 71.394531 49.859375 71.5 Z M 53.03125 74.671875 C 53.136719 74.777344 53.21875 74.898438 53.277344 75.039062 C 53.332031 75.175781 53.363281 75.316406 53.363281 75.46875 C 53.363281 75.617188 53.332031 75.757812 53.277344 75.898438 C 53.21875 76.035156 53.136719 76.15625 53.03125 76.261719 C 52.929688 76.367188 52.804688 76.445312 52.667969 76.503906 C 52.53125 76.5625 52.386719 76.589844 52.238281 76.589844 C 52.089844 76.589844 51.949219 76.5625 51.808594 76.503906 C 51.671875 76.445312 51.550781 76.367188 51.445312 76.261719 C 51.339844 76.15625 51.261719 76.035156 51.203125 75.894531 C 51.144531 75.757812 51.117188 75.617188 51.117188 75.46875 C 51.117188 75.316406 51.144531 75.175781 51.203125 75.039062 C 51.261719 74.898438 51.339844 74.777344 51.445312 74.671875 C 51.550781 74.570312 51.671875 74.488281 51.808594 74.429688 C 51.949219 74.375 52.089844 74.34375 52.238281 74.34375 C 52.386719 74.34375 52.53125 74.375 52.667969 74.429688 C 52.804688 74.488281 52.925781 74.570312 53.03125 74.671875 Z M 56.207031 77.847656 C 56.3125 77.953125 56.394531 78.074219 56.449219 78.210938 C 56.507812 78.347656 56.535156 78.492188 56.535156 78.640625 C 56.535156 78.789062 56.507812 78.933594 56.449219 79.070312 C 56.394531 79.207031 56.3125 79.328125 56.207031 79.433594 C 56.101562 79.539062 55.980469 79.621094 55.84375 79.675781 C 55.707031 79.734375 55.5625 79.761719 55.414062 79.761719 C 55.265625 79.761719 55.121094 79.734375 54.984375 79.675781 C 54.847656 79.621094 54.726562 79.539062 54.621094 79.433594 C 54.515625 79.328125 54.433594 79.207031 54.375 79.070312 C 54.320312 78.933594 54.292969 78.789062 54.292969 78.640625 C 54.292969 78.492188 54.320312 78.347656 54.375 78.210938 C 54.433594 78.074219 54.515625 77.953125 54.621094 77.847656 C 54.726562 77.742188 54.847656 77.660156 54.984375 77.605469 C 55.121094 77.546875 55.265625 77.519531 55.414062 77.519531 C 55.5625 77.519531 55.707031 77.546875 55.84375 77.605469 C 55.980469 77.660156 56.101562 77.742188 56.207031 77.847656 Z M 59.378906 81.019531 C 59.484375 81.125 59.566406 81.246094 59.625 81.386719 C 59.679688 81.523438 59.710938 81.664062 59.710938 81.816406 C 59.710938 81.964844 59.679688 82.105469 59.625 82.242188 C 59.566406 82.382812 59.484375 82.503906 59.378906 82.609375 C 59.273438 82.714844 59.152344 82.792969 59.015625 82.851562 C 58.878906 82.90625 58.734375 82.9375 58.585938 82.9375 C 58.4375 82.9375 58.296875 82.90625 58.15625 82.851562 C 58.019531 82.792969 57.898438 82.714844 57.792969 82.609375 C 57.6875 82.503906 57.605469 82.382812 57.550781 82.242188 C 57.492188 82.105469 57.464844 81.964844 57.464844 81.8125 C 57.464844 81.664062 57.492188 81.523438 57.550781 81.386719 C 57.605469 81.246094 57.6875 81.125 57.792969 81.019531 C 57.898438 80.914062 58.019531 80.835938 58.15625 80.777344 C 58.296875 80.722656 58.4375 80.691406 58.585938 80.691406 C 58.734375 80.691406 58.878906 80.722656 59.015625 80.777344 C 59.152344 80.835938 59.273438 80.914062 59.378906 81.019531 Z M 62.554688 84.195312 C 62.660156 84.300781 62.742188 84.421875 62.796875 84.558594 C 62.855469 84.695312 62.882812 84.839844 62.882812 84.988281 C 62.882812 85.136719 62.855469 85.28125 62.796875 85.417969 C 62.742188 85.554688 62.660156 85.675781 62.554688 85.78125 C 62.449219 85.886719 62.328125 85.96875 62.191406 86.023438 C 62.050781 86.082031 61.910156 86.109375 61.761719 86.109375 C 61.613281 86.109375 61.46875 86.082031 61.332031 86.023438 C 61.195312 85.96875 61.074219 85.886719 60.96875 85.78125 C 60.863281 85.675781 60.78125 85.554688 60.722656 85.417969 C 60.667969 85.28125 60.636719 85.136719 60.636719 84.988281 C 60.636719 84.839844 60.667969 84.695312 60.722656 84.558594 C 60.78125 84.421875 60.863281 84.300781 60.96875 84.195312 C 61.074219 84.089844 61.195312 84.007812 61.332031 83.953125 C 61.46875 83.894531 61.613281 83.867188 61.761719 83.867188 C 61.910156 83.867188 62.050781 83.894531 62.191406 83.953125 C 62.328125 84.007812 62.449219 84.089844 62.554688 84.195312 Z M 65.726562 87.367188 C 65.832031 87.472656 65.914062 87.59375 65.972656 87.734375 C 66.027344 87.871094 66.054688 88.011719 66.054688 88.160156 C 66.054688 88.3125 66.027344 88.453125 65.972656 88.589844 C 65.914062 88.730469 65.832031 88.851562 65.726562 88.957031 C 65.621094 89.058594 65.5 89.140625 65.363281 89.199219 C 65.226562 89.253906 65.082031 89.285156 64.933594 89.285156 C 64.785156 89.285156 64.640625 89.253906 64.503906 89.199219 C 64.367188 89.140625 64.246094 89.058594 64.140625 88.957031 L 64.140625 88.953125 C 64.035156 88.851562 63.953125 88.730469 63.898438 88.589844 C 63.839844 88.453125 63.8125 88.308594 63.8125 88.160156 C 63.8125 88.011719 63.839844 87.871094 63.898438 87.730469 C 63.953125 87.59375 64.035156 87.472656 64.140625 87.367188 C 64.246094 87.261719 64.367188 87.183594 64.503906 87.125 C 64.640625 87.066406 64.785156 87.039062 64.933594 87.039062 C 65.082031 87.039062 65.226562 87.066406 65.363281 87.125 C 65.5 87.183594 65.621094 87.261719 65.726562 87.367188 Z M 68.902344 90.542969 C 69.007812 90.648438 69.085938 90.769531 69.144531 90.90625 C 69.203125 91.042969 69.230469 91.1875 69.230469 91.335938 C 69.230469 91.484375 69.203125 91.628906 69.144531 91.765625 C 69.085938 91.902344 69.007812 92.023438 68.902344 92.128906 C 68.796875 92.234375 68.675781 92.316406 68.539062 92.371094 C 68.398438 92.429688 68.257812 92.457031 68.109375 92.457031 C 67.960938 92.457031 67.816406 92.429688 67.679688 92.371094 C 67.542969 92.316406 67.421875 92.234375 67.316406 92.128906 C 67.210938 92.023438 67.128906 91.902344 67.070312 91.765625 C 67.015625 91.628906 66.984375 91.484375 66.984375 91.335938 C 66.984375 91.1875 67.015625 91.042969 67.070312 90.90625 C 67.128906 90.769531 67.210938 90.648438 67.316406 90.542969 C 67.417969 90.4375 67.542969 90.355469 67.679688 90.296875 C 67.816406 90.242188 67.960938 90.214844 68.109375 90.214844 C 68.257812 90.214844 68.398438 90.242188 68.539062 90.296875 C 68.675781 90.355469 68.796875 90.4375 68.902344 90.542969 Z M 68.902344 90.542969 " fill-opacity="1" fill-rule="nonzero"/><path fill="#000000" d="M 116.726562 91.914062 C 116.832031 91.808594 116.953125 91.726562 117.089844 91.667969 C 117.226562 91.613281 117.371094 91.582031 117.519531 91.582031 C 117.667969 91.582031 117.8125 91.613281 117.949219 91.667969 C 118.085938 91.726562 118.207031 91.808594 118.3125 91.914062 C 118.417969 92.019531 118.5 92.140625 118.554688 92.277344 C 118.613281 92.414062 118.640625 92.558594 118.640625 92.707031 C 118.640625 92.855469 118.613281 92.996094 118.554688 93.136719 C 118.5 93.273438 118.417969 93.394531 118.3125 93.5 C 118.207031 93.605469 118.085938 93.6875 117.949219 93.742188 C 117.8125 93.800781 117.667969 93.828125 117.519531 93.828125 C 117.371094 93.828125 117.226562 93.800781 117.089844 93.742188 C 116.953125 93.6875 116.832031 93.605469 116.726562 93.5 C 116.621094 93.394531 116.539062 93.273438 116.484375 93.136719 C 116.425781 92.996094 116.398438 92.855469 116.398438 92.707031 C 116.398438 92.558594 116.425781 92.414062 116.484375 92.277344 C 116.539062 92.140625 116.621094 92.019531 116.726562 91.914062 Z M 119.898438 88.738281 C 120.003906 88.632812 120.125 88.550781 120.261719 88.496094 C 120.402344 88.4375 120.542969 88.410156 120.691406 88.410156 C 120.839844 88.410156 120.984375 88.4375 121.121094 88.496094 C 121.257812 88.550781 121.382812 88.632812 121.484375 88.738281 C 121.589844 88.84375 121.671875 88.964844 121.730469 89.101562 C 121.785156 89.238281 121.816406 89.382812 121.816406 89.53125 C 121.816406 89.679688 121.785156 89.824219 121.730469 89.960938 C 121.671875 90.097656 121.589844 90.21875 121.484375 90.324219 C 121.382812 90.429688 121.257812 90.511719 121.121094 90.570312 C 120.984375 90.625 120.839844 90.65625 120.691406 90.65625 C 120.542969 90.65625 120.402344 90.625 120.261719 90.570312 C 120.125 90.511719 120.003906 90.429688 119.898438 90.324219 C 119.792969 90.21875 119.714844 90.097656 119.65625 89.960938 C 119.597656 89.824219 119.570312 89.679688 119.570312 89.53125 C 119.570312 89.382812 119.597656 89.242188 119.65625 89.101562 C 119.714844 88.964844 119.792969 88.84375 119.898438 88.738281 Z M 123.074219 85.566406 C 123.179688 85.460938 123.300781 85.378906 123.4375 85.320312 C 123.574219 85.265625 123.71875 85.238281 123.867188 85.238281 C 124.015625 85.238281 124.160156 85.265625 124.296875 85.320312 C 124.433594 85.378906 124.554688 85.460938 124.660156 85.566406 C 124.765625 85.671875 124.847656 85.792969 124.902344 85.929688 C 124.960938 86.066406 124.988281 86.210938 124.988281 86.359375 C 124.988281 86.507812 124.960938 86.648438 124.902344 86.789062 C 124.847656 86.925781 124.765625 87.046875 124.660156 87.152344 C 124.554688 87.257812 124.433594 87.339844 124.296875 87.394531 C 124.160156 87.453125 124.015625 87.480469 123.867188 87.480469 C 123.71875 87.480469 123.574219 87.453125 123.4375 87.394531 C 123.300781 87.339844 123.179688 87.257812 123.074219 87.152344 C 122.96875 87.046875 122.886719 86.925781 122.828125 86.789062 C 122.773438 86.652344 122.746094 86.507812 122.746094 86.359375 C 122.746094 86.210938 122.773438 86.066406 122.828125 85.929688 C 122.886719 85.792969 122.96875 85.671875 123.074219 85.566406 Z M 126.246094 82.390625 C 126.351562 82.285156 126.472656 82.207031 126.609375 82.148438 C 126.75 82.089844 126.890625 82.0625 127.039062 82.0625 C 127.1875 82.0625 127.332031 82.089844 127.46875 82.148438 C 127.605469 82.207031 127.726562 82.285156 127.832031 82.390625 C 127.9375 82.496094 128.019531 82.617188 128.078125 82.753906 C 128.132812 82.894531 128.164062 83.035156 128.164062 83.183594 C 128.164062 83.332031 128.132812 83.476562 128.078125 83.613281 C 128.019531 83.75 127.9375 83.871094 127.832031 83.976562 C 127.726562 84.082031 127.605469 84.164062 127.46875 84.222656 C 127.332031 84.277344 127.1875 84.308594 127.039062 84.308594 C 126.890625 84.308594 126.75 84.277344 126.609375 84.222656 C 126.472656 84.164062 126.351562 84.082031 126.246094 83.976562 C 126.140625 83.875 126.058594 83.75 126.003906 83.613281 C 125.945312 83.476562 125.917969 83.332031 125.917969 83.183594 C 125.917969 83.035156 125.945312 82.894531 126.003906 82.753906 C 126.058594 82.617188 126.140625 82.496094 126.246094 82.390625 Z M 129.421875 79.21875 C 129.527344 79.113281 129.648438 79.03125 129.785156 78.972656 C 129.921875 78.917969 130.066406 78.890625 130.214844 78.890625 C 130.363281 78.890625 130.503906 78.917969 130.644531 78.972656 C 130.78125 79.03125 130.902344 79.113281 131.007812 79.21875 C 131.113281 79.324219 131.195312 79.445312 131.25 79.582031 C 131.308594 79.71875 131.335938 79.863281 131.335938 80.011719 C 131.335938 80.160156 131.308594 80.304688 131.25 80.441406 C 131.195312 80.578125 131.113281 80.699219 131.007812 80.804688 C 130.902344 80.910156 130.78125 80.992188 130.644531 81.046875 C 130.503906 81.105469 130.363281 81.132812 130.214844 81.132812 C 130.066406 81.132812 129.921875 81.105469 129.785156 81.046875 C 129.648438 80.992188 129.527344 80.910156 129.421875 80.804688 C 129.316406 80.699219 129.234375 80.578125 129.175781 80.441406 C 129.121094 80.304688 129.089844 80.160156 129.089844 80.011719 C 129.089844 79.863281 129.121094 79.71875 129.175781 79.582031 C 129.234375 79.445312 129.316406 79.324219 129.421875 79.21875 Z M 132.59375 76.042969 C 132.699219 75.9375 132.820312 75.859375 132.957031 75.800781 C 133.09375 75.742188 133.238281 75.714844 133.386719 75.714844 C 133.535156 75.714844 133.679688 75.742188 133.816406 75.800781 C 133.953125 75.859375 134.074219 75.9375 134.179688 76.042969 C 134.285156 76.148438 134.367188 76.269531 134.425781 76.40625 C 134.480469 76.546875 134.507812 76.6875 134.507812 76.835938 C 134.507812 76.984375 134.480469 77.128906 134.425781 77.265625 C 134.367188 77.402344 134.285156 77.527344 134.179688 77.628906 L 134.179688 77.632812 C 134.074219 77.734375 133.953125 77.816406 133.816406 77.875 C 133.679688 77.929688 133.535156 77.960938 133.386719 77.960938 C 133.238281 77.960938 133.09375 77.929688 132.957031 77.875 C 132.820312 77.816406 132.699219 77.734375 132.59375 77.632812 C 132.488281 77.527344 132.40625 77.40625 132.351562 77.265625 C 132.292969 77.128906 132.265625 76.988281 132.265625 76.835938 C 132.265625 76.6875 132.292969 76.546875 132.351562 76.410156 C 132.40625 76.269531 132.488281 76.148438 132.59375 76.042969 Z M 135.769531 72.871094 C 135.875 72.765625 135.996094 72.683594 136.132812 72.628906 C 136.269531 72.570312 136.414062 72.542969 136.5625 72.542969 C 136.710938 72.542969 136.851562 72.570312 136.992188 72.628906 C 137.128906 72.683594 137.25 72.765625 137.355469 72.871094 C 137.460938 72.976562 137.539062 73.097656 137.597656 73.234375 C 137.65625 73.371094 137.683594 73.515625 137.683594 73.664062 C 137.683594 73.8125 137.65625 73.957031 137.597656 74.09375 C 137.539062 74.230469 137.460938 74.351562 137.355469 74.457031 C 137.25 74.5625 137.128906 74.644531 136.992188 74.699219 C 136.851562 74.757812 136.710938 74.785156 136.5625 74.785156 C 136.414062 74.785156 136.269531 74.757812 136.132812 74.699219 C 135.996094 74.644531 135.871094 74.5625 135.769531 74.457031 C 135.664062 74.351562 135.582031 74.230469 135.523438 74.09375 C 135.46875 73.957031 135.4375 73.8125 135.4375 73.664062 C 135.4375 73.515625 135.46875 73.371094 135.523438 73.234375 C 135.582031 73.097656 135.664062 72.976562 135.769531 72.871094 Z M 138.941406 69.695312 C 139.046875 69.589844 139.167969 69.511719 139.304688 69.453125 C 139.441406 69.398438 139.585938 69.367188 139.734375 69.367188 C 139.882812 69.367188 140.027344 69.398438 140.164062 69.453125 C 140.300781 69.511719 140.421875 69.589844 140.527344 69.695312 C 140.632812 69.800781 140.714844 69.921875 140.773438 70.0625 C 140.828125 70.199219 140.855469 70.339844 140.855469 70.488281 C 140.855469 70.640625 140.828125 70.78125 140.773438 70.917969 C 140.714844 71.058594 140.632812 71.179688 140.527344 71.285156 C 140.421875 71.390625 140.300781 71.46875 140.164062 71.527344 C 140.027344 71.582031 139.882812 71.613281 139.734375 71.613281 C 139.585938 71.613281 139.441406 71.582031 139.304688 71.527344 C 139.167969 71.46875 139.046875 71.390625 138.941406 71.285156 C 138.835938 71.179688 138.753906 71.058594 138.699219 70.917969 C 138.640625 70.78125 138.613281 70.640625 138.613281 70.492188 C 138.613281 70.339844 138.640625 70.199219 138.699219 70.0625 C 138.753906 69.921875 138.835938 69.800781 138.941406 69.695312 Z M 142.113281 66.523438 L 142.117188 66.523438 C 142.21875 66.417969 142.339844 66.335938 142.480469 66.28125 C 142.617188 66.222656 142.761719 66.195312 142.910156 66.195312 C 143.058594 66.195312 143.199219 66.222656 143.339844 66.28125 C 143.476562 66.335938 143.597656 66.417969 143.703125 66.523438 C 143.808594 66.628906 143.886719 66.75 143.945312 66.886719 C 144.003906 67.023438 144.03125 67.167969 144.03125 67.316406 C 144.03125 67.464844 144.003906 67.609375 143.945312 67.746094 C 143.886719 67.882812 143.808594 68.003906 143.703125 68.109375 C 143.597656 68.214844 143.476562 68.296875 143.335938 68.351562 C 143.199219 68.410156 143.058594 68.4375 142.910156 68.4375 C 142.757812 68.4375 142.617188 68.410156 142.480469 68.351562 C 142.339844 68.296875 142.21875 68.214844 142.113281 68.109375 C 142.011719 68.003906 141.929688 67.882812 141.871094 67.746094 C 141.816406 67.609375 141.785156 67.464844 141.785156 67.316406 C 141.785156 67.167969 141.816406 67.023438 141.871094 66.886719 C 141.929688 66.75 142.011719 66.628906 142.113281 66.523438 Z M 142.113281 66.523438 " fill-opacity="1" fill-rule="nonzero"/><path fill="#000000" d="M 143.484375 121.847656 C 143.378906 121.742188 143.300781 121.621094 143.242188 121.484375 C 143.183594 121.347656 143.15625 121.203125 143.15625 121.054688 C 143.15625 120.90625 143.183594 120.761719 143.242188 120.625 C 143.300781 120.488281 143.378906 120.367188 143.484375 120.261719 C 143.589844 120.15625 143.710938 120.074219 143.847656 120.019531 C 143.988281 119.960938 144.128906 119.933594 144.277344 119.933594 C 144.425781 119.933594 144.570312 119.960938 144.707031 120.019531 C 144.847656 120.074219 144.96875 120.15625 145.074219 120.261719 C 145.175781 120.367188 145.257812 120.488281 145.316406 120.625 C 145.371094 120.761719 145.402344 120.90625 145.402344 121.054688 C 145.402344 121.203125 145.371094 121.347656 145.316406 121.484375 C 145.257812 121.621094 145.175781 121.742188 145.074219 121.847656 C 144.96875 121.953125 144.847656 122.035156 144.707031 122.09375 C 144.570312 122.148438 144.429688 122.175781 144.277344 122.175781 C 144.128906 122.175781 143.988281 122.148438 143.851562 122.09375 C 143.710938 122.035156 143.589844 121.953125 143.484375 121.847656 Z M 140.3125 118.675781 C 140.207031 118.570312 140.125 118.449219 140.070312 118.3125 C 140.011719 118.171875 139.984375 118.03125 139.984375 117.882812 C 139.984375 117.734375 140.011719 117.589844 140.070312 117.453125 C 140.125 117.316406 140.207031 117.191406 140.3125 117.089844 C 140.417969 116.984375 140.539062 116.902344 140.675781 116.84375 C 140.8125 116.789062 140.957031 116.757812 141.105469 116.757812 C 141.253906 116.757812 141.398438 116.789062 141.535156 116.84375 C 141.671875 116.902344 141.792969 116.984375 141.898438 117.089844 C 142.003906 117.195312 142.085938 117.316406 142.140625 117.453125 C 142.199219 117.589844 142.226562 117.734375 142.226562 117.882812 C 142.226562 118.03125 142.199219 118.171875 142.140625 118.3125 C 142.085938 118.449219 142.003906 118.570312 141.898438 118.675781 C 141.792969 118.78125 141.671875 118.863281 141.535156 118.917969 C 141.398438 118.976562 141.253906 119.003906 141.105469 119.003906 C 140.957031 119.003906 140.8125 118.976562 140.675781 118.917969 C 140.539062 118.863281 140.417969 118.78125 140.3125 118.675781 Z M 137.136719 115.5 C 137.03125 115.394531 136.953125 115.273438 136.894531 115.136719 C 136.839844 115 136.808594 114.855469 136.808594 114.707031 C 136.808594 114.558594 136.839844 114.414062 136.894531 114.277344 C 136.953125 114.140625 137.03125 114.019531 137.136719 113.914062 C 137.242188 113.808594 137.363281 113.726562 137.503906 113.671875 C 137.640625 113.613281 137.78125 113.585938 137.929688 113.585938 C 138.082031 113.585938 138.222656 113.613281 138.359375 113.671875 C 138.5 113.726562 138.621094 113.808594 138.726562 113.914062 C 138.832031 114.019531 138.910156 114.140625 138.96875 114.277344 C 139.023438 114.417969 139.054688 114.558594 139.054688 114.707031 C 139.054688 114.855469 139.023438 115 138.96875 115.136719 C 138.910156 115.273438 138.832031 115.394531 138.726562 115.5 C 138.621094 115.605469 138.5 115.6875 138.359375 115.746094 C 138.222656 115.800781 138.082031 115.828125 137.933594 115.828125 C 137.78125 115.828125 137.640625 115.800781 137.503906 115.746094 C 137.363281 115.6875 137.242188 115.605469 137.136719 115.5 Z M 133.964844 112.328125 C 133.859375 112.222656 133.777344 112.101562 133.722656 111.964844 C 133.664062 111.824219 133.636719 111.683594 133.636719 111.535156 C 133.636719 111.386719 133.664062 111.242188 133.722656 111.105469 C 133.777344 110.96875 133.859375 110.847656 133.964844 110.742188 C 134.070312 110.636719 134.191406 110.554688 134.328125 110.496094 C 134.464844 110.441406 134.609375 110.414062 134.757812 110.414062 C 134.90625 110.414062 135.050781 110.441406 135.1875 110.496094 C 135.324219 110.554688 135.445312 110.636719 135.550781 110.742188 C 135.65625 110.847656 135.738281 110.96875 135.792969 111.105469 C 135.851562 111.242188 135.878906 111.386719 135.878906 111.535156 C 135.878906 111.683594 135.851562 111.828125 135.792969 111.964844 C 135.738281 112.101562 135.65625 112.222656 135.550781 112.328125 C 135.445312 112.433594 135.324219 112.515625 135.1875 112.570312 C 135.050781 112.628906 134.90625 112.65625 134.757812 112.65625 C 134.609375 112.65625 134.464844 112.628906 134.328125 112.570312 C 134.191406 112.515625 134.070312 112.433594 133.964844 112.328125 Z M 130.789062 109.152344 C 130.6875 109.046875 130.605469 108.925781 130.546875 108.789062 C 130.492188 108.652344 130.460938 108.507812 130.460938 108.359375 C 130.460938 108.210938 130.492188 108.070312 130.546875 107.929688 C 130.605469 107.792969 130.6875 107.671875 130.789062 107.566406 C 130.894531 107.460938 131.015625 107.378906 131.15625 107.324219 C 131.292969 107.265625 131.433594 107.238281 131.585938 107.238281 C 131.734375 107.238281 131.875 107.265625 132.011719 107.324219 C 132.152344 107.378906 132.273438 107.460938 132.378906 107.566406 C 132.484375 107.671875 132.5625 107.792969 132.621094 107.929688 C 132.679688 108.070312 132.707031 108.210938 132.707031 108.359375 C 132.707031 108.507812 132.679688 108.652344 132.621094 108.789062 C 132.5625 108.925781 132.484375 109.050781 132.378906 109.152344 C 132.273438 109.257812 132.152344 109.339844 132.015625 109.398438 C 131.875 109.453125 131.734375 109.484375 131.585938 109.484375 C 131.4375 109.484375 131.292969 109.453125 131.15625 109.398438 C 131.015625 109.339844 130.894531 109.257812 130.789062 109.152344 Z M 127.617188 105.980469 C 127.511719 105.875 127.429688 105.753906 127.375 105.617188 C 127.316406 105.480469 127.289062 105.335938 127.289062 105.1875 C 127.289062 105.039062 127.316406 104.894531 127.375 104.757812 C 127.429688 104.621094 127.511719 104.5 127.617188 104.394531 C 127.722656 104.289062 127.84375 104.207031 127.980469 104.148438 C 128.117188 104.09375 128.261719 104.066406 128.410156 104.066406 C 128.558594 104.066406 128.703125 104.09375 128.839844 104.148438 C 128.976562 104.207031 129.097656 104.289062 129.203125 104.394531 C 129.308594 104.5 129.390625 104.621094 129.449219 104.757812 C 129.503906 104.894531 129.53125 105.039062 129.53125 105.1875 C 129.53125 105.335938 129.503906 105.480469 129.449219 105.617188 C 129.390625 105.753906 129.308594 105.875 129.203125 105.980469 C 129.097656 106.085938 128.976562 106.167969 128.839844 106.222656 C 128.703125 106.28125 128.558594 106.308594 128.410156 106.308594 C 128.261719 106.308594 128.117188 106.28125 127.980469 106.222656 C 127.84375 106.167969 127.722656 106.085938 127.617188 105.980469 Z M 124.445312 102.808594 L 124.445312 102.804688 C 124.339844 102.703125 124.257812 102.578125 124.199219 102.441406 C 124.144531 102.304688 124.113281 102.160156 124.113281 102.011719 C 124.113281 101.863281 124.144531 101.722656 124.199219 101.582031 C 124.257812 101.445312 124.339844 101.324219 124.445312 101.21875 C 124.546875 101.113281 124.671875 101.035156 124.808594 100.976562 C 124.945312 100.917969 125.089844 100.890625 125.238281 100.890625 C 125.386719 100.890625 125.527344 100.917969 125.667969 100.976562 C 125.804688 101.035156 125.925781 101.113281 126.03125 101.21875 C 126.136719 101.324219 126.214844 101.445312 126.273438 101.582031 C 126.332031 101.722656 126.359375 101.863281 126.359375 102.011719 C 126.359375 102.160156 126.332031 102.304688 126.273438 102.441406 C 126.214844 102.582031 126.136719 102.703125 126.03125 102.808594 C 125.925781 102.910156 125.804688 102.992188 125.667969 103.050781 C 125.527344 103.105469 125.386719 103.136719 125.238281 103.136719 C 125.089844 103.136719 124.945312 103.105469 124.808594 103.050781 C 124.671875 102.992188 124.550781 102.910156 124.445312 102.808594 Z M 121.269531 99.632812 C 121.164062 99.527344 121.082031 99.40625 121.027344 99.269531 C 120.96875 99.132812 120.941406 98.988281 120.941406 98.839844 C 120.941406 98.691406 120.96875 98.546875 121.027344 98.410156 C 121.082031 98.273438 121.164062 98.152344 121.269531 98.046875 C 121.375 97.941406 121.496094 97.859375 121.632812 97.804688 C 121.769531 97.746094 121.914062 97.71875 122.0625 97.71875 C 122.210938 97.71875 122.355469 97.746094 122.492188 97.804688 C 122.628906 97.859375 122.75 97.941406 122.855469 98.046875 C 122.960938 98.152344 123.042969 98.273438 123.101562 98.410156 C 123.15625 98.546875 123.183594 98.691406 123.183594 98.839844 C 123.183594 98.988281 123.15625 99.132812 123.101562 99.269531 C 123.042969 99.40625 122.960938 99.527344 122.855469 99.632812 C 122.75 99.738281 122.628906 99.820312 122.492188 99.875 C 122.355469 99.933594 122.210938 99.960938 122.0625 99.960938 C 121.914062 99.960938 121.769531 99.933594 121.632812 99.875 C 121.496094 99.820312 121.375 99.738281 121.269531 99.632812 Z M 118.097656 96.460938 C 117.992188 96.355469 117.910156 96.234375 117.851562 96.09375 C 117.796875 95.957031 117.765625 95.816406 117.765625 95.664062 C 117.765625 95.515625 117.796875 95.375 117.851562 95.238281 C 117.910156 95.097656 117.992188 94.976562 118.097656 94.871094 C 118.203125 94.765625 118.324219 94.6875 118.460938 94.628906 C 118.597656 94.570312 118.742188 94.542969 118.890625 94.542969 C 119.039062 94.542969 119.179688 94.570312 119.320312 94.628906 C 119.457031 94.6875 119.578125 94.765625 119.683594 94.871094 C 119.789062 94.976562 119.871094 95.097656 119.925781 95.238281 C 119.984375 95.375 120.011719 95.515625 120.011719 95.664062 C 120.011719 95.816406 119.984375 95.957031 119.925781 96.09375 C 119.871094 96.234375 119.789062 96.355469 119.683594 96.460938 C 119.578125 96.566406 119.457031 96.644531 119.320312 96.703125 C 119.179688 96.757812 119.039062 96.789062 118.890625 96.789062 C 118.742188 96.789062 118.597656 96.757812 118.460938 96.703125 C 118.324219 96.644531 118.203125 96.566406 118.097656 96.460938 Z M 118.097656 96.460938 " fill-opacity="1" fill-rule="nonzero"/></svg>