<svg xmlns="http://www.w3.org/2000/svg" xmlns:xlink="http://www.w3.org/1999/xlink" width="250" zoomAndPan="magnify" viewBox="0 0 187.5 187.499992" height="250" preserveAspectRatio="xMidYMid meet" version="1.0"><defs><clipPath id="e1547641d0"><path d="M 74.804688 18.699219 L 130.902344 18.699219 L 130.902344 74.796875 L 74.804688 74.796875 Z M 74.804688 18.699219 " clip-rule="nonzero"/></clipPath><clipPath id="a325272b9a"><path d="M 18.699219 18.699219 L 74.796875 18.699219 L 74.796875 74.796875 L 18.699219 74.796875 Z M 18.699219 18.699219 " clip-rule="nonzero"/></clipPath><clipPath id="a7efac3715"><path d="M 18.699219 74.800781 L 74.796875 74.800781 L 74.796875 130.902344 L 18.699219 130.902344 Z M 18.699219 74.800781 " clip-rule="nonzero"/></clipPath><clipPath id="a3b60623a8"><path d="M 74.804688 74.800781 L 130.902344 74.800781 L 130.902344 130.902344 L 74.804688 130.902344 Z M 74.804688 74.800781 " clip-rule="nonzero"/></clipPath><clipPath id="936fa08e3d"><path d="M 121.859375 121.859375 L 168.296875 121.859375 L 168.296875 168.296875 L 121.859375 168.296875 Z M 121.859375 121.859375 " clip-rule="nonzero"/></clipPath><clipPath id="6465efe638"><path d="M 121.863281 127.183594 L 168.238281 127.183594 L 168.238281 163 L 121.863281 163 Z M 121.863281 127.183594 " clip-rule="nonzero"/></clipPath></defs><g clip-path="url(#e1547641d0)"><path fill="#d73745" d="M 74.804688 18.699219 C 43.839844 18.699219 18.703125 43.835938 18.703125 74.800781 C 18.703125 105.761719 43.839844 130.898438 74.804688 130.898438 C 105.765625 130.898438 130.902344 105.761719 130.902344 74.800781 C 130.902344 43.835938 105.765625 18.699219 74.804688 18.699219 Z M 74.804688 21.109375 C 104.4375 21.109375 128.496094 45.164062 128.496094 74.800781 C 128.496094 104.433594 104.4375 128.492188 74.804688 128.492188 C 45.171875 128.492188 21.113281 104.433594 21.113281 74.800781 C 21.113281 45.164062 45.171875 21.109375 74.804688 21.109375 Z M 74.804688 21.109375 " fill-opacity="1" fill-rule="evenodd"/></g><g clip-path="url(#a325272b9a)"><path fill="#fac90a" d="M 74.796875 18.699219 C 105.757812 18.699219 130.894531 43.835938 130.894531 74.800781 C 130.894531 105.761719 105.757812 130.898438 74.796875 130.898438 C 43.835938 130.898438 18.699219 105.761719 18.699219 74.800781 C 18.699219 43.835938 43.835938 18.699219 74.796875 18.699219 Z M 74.796875 21.109375 C 45.164062 21.109375 21.105469 45.164062 21.105469 74.800781 C 21.105469 104.433594 45.164062 128.492188 74.796875 128.492188 C 104.429688 128.492188 128.488281 104.433594 128.488281 74.800781 C 128.488281 45.164062 104.429688 21.109375 74.796875 21.109375 Z M 74.796875 21.109375 " fill-opacity="1" fill-rule="evenodd"/></g><g clip-path="url(#a7efac3715)"><path fill="#964590" d="M 74.796875 130.898438 C 105.757812 130.898438 130.894531 105.761719 130.894531 74.800781 C 130.894531 43.839844 105.757812 18.703125 74.796875 18.703125 C 43.835938 18.703125 18.699219 43.839844 18.699219 74.800781 C 18.699219 105.761719 43.835938 130.898438 74.796875 130.898438 Z M 74.796875 128.492188 C 45.164062 128.492188 21.105469 104.433594 21.105469 74.800781 C 21.105469 45.167969 45.164062 21.109375 74.796875 21.109375 C 104.429688 21.109375 128.488281 45.167969 128.488281 74.800781 C 128.488281 104.433594 104.429688 128.492188 74.796875 128.492188 Z M 74.796875 128.492188 " fill-opacity="1" fill-rule="evenodd"/></g><g clip-path="url(#a3b60623a8)"><path fill="#72c53c" d="M 74.804688 130.898438 C 43.839844 130.898438 18.703125 105.761719 18.703125 74.800781 C 18.703125 43.839844 43.839844 18.703125 74.804688 18.703125 C 105.765625 18.703125 130.902344 43.839844 130.902344 74.800781 C 130.902344 105.761719 105.765625 130.898438 74.804688 130.898438 Z M 74.804688 128.492188 C 104.4375 128.492188 128.496094 104.433594 128.496094 74.800781 C 128.496094 45.167969 104.4375 21.109375 74.804688 21.109375 C 45.171875 21.109375 21.113281 45.167969 21.113281 74.800781 C 21.113281 104.433594 45.171875 128.492188 74.804688 128.492188 Z M 74.804688 128.492188 " fill-opacity="1" fill-rule="evenodd"/></g><g clip-path="url(#936fa08e3d)"><path fill="#fac90a" d="M 168.296875 168.296875 L 121.859375 168.296875 L 121.859375 121.859375 L 168.296875 121.859375 Z M 168.296875 168.296875 " fill-opacity="1" fill-rule="nonzero"/></g><g clip-path="url(#6465efe638)"><path fill="#000000" d="M 136.621094 155.375 L 125.632812 144.339844 L 121.902344 148.085938 L 136.621094 162.863281 L 168.238281 131.109375 L 164.511719 127.367188 Z M 136.621094 155.375 " fill-opacity="1" fill-rule="nonzero"/></g></svg>