<svg xmlns="http://www.w3.org/2000/svg" xmlns:xlink="http://www.w3.org/1999/xlink" width="250" zoomAndPan="magnify" viewBox="0 0 187.5 187.499992" height="250" preserveAspectRatio="xMidYMid meet" version="1.0"><defs><clipPath id="81038ee2f7"><path d="M 18.695312 121.863281 L 65.136719 121.863281 L 65.136719 168.300781 L 18.695312 168.300781 Z M 18.695312 121.863281 " clip-rule="nonzero"/></clipPath><clipPath id="38fe3aa56b"><path d="M 18.6875 75.414062 L 65.136719 75.414062 L 65.136719 121.863281 L 18.6875 121.863281 Z M 18.6875 75.414062 " clip-rule="nonzero"/></clipPath><clipPath id="3a68dbdd18"><path d="M 41.914062 75.414062 C 29.085938 75.414062 18.6875 85.8125 18.6875 98.636719 C 18.6875 111.464844 29.085938 121.863281 41.914062 121.863281 C 54.738281 121.863281 65.136719 111.464844 65.136719 98.636719 C 65.136719 85.8125 54.738281 75.414062 41.914062 75.414062 Z M 41.914062 75.414062 " clip-rule="nonzero"/></clipPath><clipPath id="1eb0e583cc"><path d="M 65.136719 18.699219 L 111.574219 18.699219 L 111.574219 65.136719 L 65.136719 65.136719 Z M 65.136719 18.699219 " clip-rule="nonzero"/></clipPath><clipPath id="dfb261bdb4"><path d="M 121.859375 18.699219 L 168.296875 18.699219 L 168.296875 65.136719 L 121.859375 65.136719 Z M 121.859375 18.699219 " clip-rule="nonzero"/></clipPath><clipPath id="d29a1fd816"><path d="M 93.496094 75.402344 L 139.933594 75.402344 L 139.933594 168.304688 L 93.496094 168.304688 Z M 93.496094 75.402344 " clip-rule="nonzero"/></clipPath><clipPath id="28bfa75f22"><path d="M 98.132812 112.5625 L 135.292969 112.5625 L 135.292969 131.140625 L 98.132812 131.140625 Z M 98.132812 112.5625 " clip-rule="nonzero"/></clipPath><clipPath id="386d0a1f5e"><path d="M 135.292969 115.464844 L 135.292969 128.238281 C 135.292969 129.84375 133.992188 131.140625 132.390625 131.140625 L 101.035156 131.140625 C 99.429688 131.140625 98.132812 129.84375 98.132812 128.238281 L 98.132812 115.464844 C 98.132812 113.859375 99.429688 112.5625 101.035156 112.5625 L 132.390625 112.5625 C 133.992188 112.5625 135.292969 113.859375 135.292969 115.464844 Z M 135.292969 115.464844 " clip-rule="nonzero"/></clipPath><clipPath id="d327d5f4c2"><path d="M 98.132812 84.210938 L 135.292969 84.210938 L 135.292969 102.792969 L 98.132812 102.792969 Z M 98.132812 84.210938 " clip-rule="nonzero"/></clipPath><clipPath id="6747e8df56"><path d="M 135.292969 87.113281 L 135.292969 99.890625 C 135.292969 101.492188 133.992188 102.792969 132.390625 102.792969 L 101.035156 102.792969 C 99.429688 102.792969 98.132812 101.492188 98.132812 99.890625 L 98.132812 87.113281 C 98.132812 85.511719 99.429688 84.210938 101.035156 84.210938 L 132.390625 84.210938 C 133.992188 84.210938 135.292969 85.511719 135.292969 87.113281 Z M 135.292969 87.113281 " clip-rule="nonzero"/></clipPath><clipPath id="fa447b29bc"><path d="M 98.132812 149.839844 L 114.128906 149.839844 L 114.128906 165.835938 L 98.132812 165.835938 Z M 98.132812 149.839844 " clip-rule="nonzero"/></clipPath><clipPath id="85ded2f5e3"><path d="M 114.128906 157.839844 C 114.128906 153.421875 110.546875 149.839844 106.128906 149.839844 C 101.710938 149.839844 98.132812 153.421875 98.132812 157.839844 C 98.132812 162.253906 101.710938 165.835938 106.128906 165.835938 C 110.546875 165.835938 114.128906 162.253906 114.128906 157.839844 Z M 114.128906 157.839844 " clip-rule="nonzero"/></clipPath><clipPath id="2e87bea16f"><path d="M 119.296875 149.839844 L 135.292969 149.839844 L 135.292969 165.835938 L 119.296875 165.835938 Z M 119.296875 149.839844 " clip-rule="nonzero"/></clipPath><clipPath id="37bfbfdddc"><path d="M 135.292969 157.839844 C 135.292969 153.421875 131.710938 149.839844 127.292969 149.839844 C 122.878906 149.839844 119.296875 153.421875 119.296875 157.839844 C 119.296875 162.253906 122.878906 165.835938 127.292969 165.835938 C 131.710938 165.835938 135.292969 162.253906 135.292969 157.839844 Z M 135.292969 157.839844 " clip-rule="nonzero"/></clipPath></defs><g clip-path="url(#81038ee2f7)"><path fill="#964590" d="M 65.136719 121.863281 L 65.136719 168.300781 L 18.695312 168.300781 L 18.695312 121.863281 Z M 65.136719 121.863281 " fill-opacity="1" fill-rule="nonzero"/></g><g clip-path="url(#38fe3aa56b)"><g clip-path="url(#3a68dbdd18)"><path fill="#fac90a" d="M 18.6875 75.414062 L 65.136719 75.414062 L 65.136719 121.863281 L 18.6875 121.863281 Z M 18.6875 75.414062 " fill-opacity="1" fill-rule="nonzero"/></g></g><g clip-path="url(#1eb0e583cc)"><path fill="#d7d8da" d="M 111.574219 18.699219 L 111.574219 65.136719 L 65.136719 65.136719 L 65.136719 18.699219 Z M 111.574219 18.699219 " fill-opacity="1" fill-rule="nonzero"/></g><path stroke-linecap="round" transform="matrix(0.748005, -0.000000000000000278, 0.000000000000000278, 0.748005, 74.506835, 31.318085)" fill="none" stroke-linejoin="miter" d="M 1.500084 1.501755 L 35.53331 1.501755 " stroke="#000000" stroke-width="3" stroke-opacity="1" stroke-miterlimit="4"/><path stroke-linecap="round" transform="matrix(0.748005, -0.000000000000000278, 0.000000000000000278, 0.748005, 74.506835, 40.797004)" fill="none" stroke-linejoin="miter" d="M 1.500084 1.498606 L 35.53331 1.498606 " stroke="#000000" stroke-width="3" stroke-opacity="1" stroke-miterlimit="4"/><path stroke-linecap="round" transform="matrix(0.748005, -0.000000000000000278, 0.000000000000000278, 0.748005, 74.506835, 50.521067)" fill="none" stroke-linejoin="miter" d="M 1.500084 1.501947 L 35.53331 1.501947 " stroke="#000000" stroke-width="3" stroke-opacity="1" stroke-miterlimit="4"/><g clip-path="url(#dfb261bdb4)"><path fill="#d7d8da" d="M 168.296875 18.699219 L 168.296875 65.136719 L 121.859375 65.136719 L 121.859375 18.699219 Z M 168.296875 18.699219 " fill-opacity="1" fill-rule="nonzero"/></g><path stroke-linecap="round" transform="matrix(0.748005, -0.000000000000000278, 0.000000000000000278, 0.748005, 131.232368, 31.318085)" fill="none" stroke-linejoin="miter" d="M 1.501461 1.501755 L 35.529464 1.501755 " stroke="#000000" stroke-width="3" stroke-opacity="1" stroke-miterlimit="4"/><path stroke-linecap="round" transform="matrix(0.748005, -0.000000000000000278, 0.000000000000000278, 0.748005, 131.232368, 40.797004)" fill="none" stroke-linejoin="miter" d="M 1.501461 1.498606 L 35.529464 1.498606 " stroke="#000000" stroke-width="3" stroke-opacity="1" stroke-miterlimit="4"/><path stroke-linecap="round" transform="matrix(0.748005, -0.000000000000000557, 0.000000000000000557, 0.748005, 131.232368, 50.521074)" fill="none" stroke-linejoin="miter" d="M 1.501461 1.501937 L 35.529464 1.501937 " stroke="#000000" stroke-width="3" stroke-opacity="1" stroke-miterlimit="4"/><g clip-path="url(#d29a1fd816)"><path fill="#d7d8da" d="M 139.933594 75.402344 L 139.933594 168.277344 L 93.496094 168.277344 L 93.496094 75.402344 Z M 139.933594 75.402344 " fill-opacity="1" fill-rule="nonzero"/></g><g clip-path="url(#28bfa75f22)"><g clip-path="url(#386d0a1f5e)"><path fill="#fac90a" d="M 135.292969 112.5625 L 135.292969 131.140625 L 98.132812 131.140625 L 98.132812 112.5625 Z M 135.292969 112.5625 " fill-opacity="1" fill-rule="nonzero"/></g></g><g clip-path="url(#d327d5f4c2)"><g clip-path="url(#6747e8df56)"><path fill="#fac90a" d="M 135.292969 84.210938 L 135.292969 102.792969 L 98.132812 102.792969 L 98.132812 84.210938 Z M 135.292969 84.210938 " fill-opacity="1" fill-rule="nonzero"/></g></g><g clip-path="url(#fa447b29bc)"><g clip-path="url(#85ded2f5e3)"><path fill="#72c53c" d="M 114.128906 149.839844 L 114.128906 165.835938 L 98.132812 165.835938 L 98.132812 149.839844 Z M 114.128906 149.839844 " fill-opacity="1" fill-rule="nonzero"/></g></g><g clip-path="url(#2e87bea16f)"><g clip-path="url(#37bfbfdddc)"><path fill="#72c53c" d="M 135.292969 149.839844 L 135.292969 165.835938 L 119.296875 165.835938 L 119.296875 149.839844 Z M 135.292969 149.839844 " fill-opacity="1" fill-rule="nonzero"/></g></g></svg>