<svg xmlns="http://www.w3.org/2000/svg" xmlns:xlink="http://www.w3.org/1999/xlink" width="250" zoomAndPan="magnify" viewBox="0 0 187.5 187.499992" height="250" preserveAspectRatio="xMidYMid meet" version="1.0"><defs><clipPath id="a2a32a325d"><path d="M 81.136719 82.359375 L 105.902344 82.359375 L 105.902344 107.125 L 81.136719 107.125 Z M 81.136719 82.359375 " clip-rule="nonzero"/></clipPath><clipPath id="fbe369067e"><path d="M 81.109375 50.101562 L 105.878906 50.101562 L 105.878906 74.871094 L 81.109375 74.871094 Z M 81.109375 50.101562 " clip-rule="nonzero"/></clipPath><clipPath id="48e1f93f2f"><path d="M 48.621094 112.132812 L 73.386719 112.132812 L 73.386719 136.898438 L 48.621094 136.898438 Z M 48.621094 112.132812 " clip-rule="nonzero"/></clipPath><clipPath id="e5f9c0d920"><path d="M 81.117188 112.132812 L 105.882812 112.132812 L 105.882812 136.898438 L 81.117188 136.898438 Z M 81.117188 112.132812 " clip-rule="nonzero"/></clipPath><clipPath id="22444dada6"><path d="M 113.613281 112.132812 L 138.382812 112.132812 L 138.382812 136.898438 L 113.613281 136.898438 Z M 113.613281 112.132812 " clip-rule="nonzero"/></clipPath><clipPath id="21521cedfd"><path d="M 81.136719 50.101562 L 104.882812 50.101562 L 104.882812 74.878906 L 81.136719 74.878906 Z M 81.136719 50.101562 " clip-rule="nonzero"/></clipPath></defs><g clip-path="url(#a2a32a325d)"><path fill="#d73745" d="M 81.136719 82.359375 L 105.902344 82.359375 L 105.902344 107.125 L 81.136719 107.125 Z M 81.136719 82.359375 " fill-opacity="1" fill-rule="nonzero"/></g><g clip-path="url(#fbe369067e)"><path fill="#72c53c" d="M 81.109375 50.101562 L 105.878906 50.101562 L 105.878906 74.871094 L 81.109375 74.871094 Z M 81.109375 50.101562 " fill-opacity="1" fill-rule="nonzero"/></g><g clip-path="url(#48e1f93f2f)"><path fill="#72c53c" d="M 48.621094 112.132812 L 73.386719 112.132812 L 73.386719 136.898438 L 48.621094 136.898438 Z M 48.621094 112.132812 " fill-opacity="1" fill-rule="nonzero"/></g><g clip-path="url(#e5f9c0d920)"><path fill="#d7d8da" d="M 81.117188 112.132812 L 105.882812 112.132812 L 105.882812 136.898438 L 81.117188 136.898438 Z M 81.117188 112.132812 " fill-opacity="1" fill-rule="nonzero"/></g><g clip-path="url(#22444dada6)"><path fill="#fac90a" d="M 113.613281 112.132812 L 138.382812 112.132812 L 138.382812 136.898438 L 113.613281 136.898438 Z M 113.613281 112.132812 " fill-opacity="1" fill-rule="nonzero"/></g><g clip-path="url(#21521cedfd)"><path fill="#000000" d="M 101.839844 64.398438 C 101.839844 64.398438 101.304688 66.203125 100.722656 66.789062 C 100.136719 67.375 98.332031 67.90625 98.332031 67.90625 C 98.332031 67.90625 100.136719 68.441406 100.722656 69.027344 C 101.304688 69.609375 101.839844 71.417969 101.839844 71.417969 C 101.839844 71.417969 102.375 69.609375 102.957031 69.027344 C 103.542969 68.441406 105.347656 67.90625 105.347656 67.90625 C 105.347656 67.90625 103.542969 67.375 102.957031 66.789062 C 102.375 66.203125 101.839844 64.398438 101.839844 64.398438 Z M 86.457031 64.203125 C 86.457031 64.203125 85.648438 66.941406 84.761719 67.828125 C 83.875 68.714844 81.136719 69.523438 81.136719 69.523438 C 81.136719 69.523438 83.875 70.335938 84.761719 71.222656 C 85.648438 72.109375 86.457031 74.847656 86.457031 74.847656 C 86.457031 74.847656 87.265625 72.109375 88.152344 71.222656 C 89.039062 70.335938 91.777344 69.523438 91.777344 69.523438 C 91.777344 69.523438 89.039062 68.714844 88.152344 67.828125 C 87.265625 66.941406 86.457031 64.203125 86.457031 64.203125 Z M 94.621094 50.121094 C 94.621094 50.121094 93.378906 54.324219 92.019531 55.683594 C 90.65625 57.042969 86.457031 58.285156 86.457031 58.285156 C 86.457031 58.285156 90.65625 59.523438 92.019531 60.886719 C 93.378906 62.246094 94.621094 66.445312 94.621094 66.445312 C 94.621094 66.445312 95.859375 62.246094 97.21875 60.886719 C 98.582031 59.523438 102.78125 58.285156 102.78125 58.285156 C 102.78125 58.285156 98.582031 57.042969 97.21875 55.683594 C 95.859375 54.324219 94.621094 50.121094 94.621094 50.121094 " fill-opacity="1" fill-rule="evenodd"/></g></svg>