<svg xmlns="http://www.w3.org/2000/svg" xmlns:xlink="http://www.w3.org/1999/xlink" width="250" zoomAndPan="magnify" viewBox="0 0 187.5 187.499992" height="250" preserveAspectRatio="xMidYMid meet" version="1.0"><defs><g/><clipPath id="1f6cd0a890"><path d="M 27.894531 88.769531 L 45.835938 88.769531 L 45.835938 106.714844 L 27.894531 106.714844 Z M 27.894531 88.769531 " clip-rule="nonzero"/></clipPath><clipPath id="8bbe635eeb"><path d="M 51.4375 88.769531 L 69.382812 88.769531 L 69.382812 106.714844 L 51.4375 106.714844 Z M 51.4375 88.769531 " clip-rule="nonzero"/></clipPath><clipPath id="d197081b78"><path d="M 4.347656 88.769531 L 22.292969 88.769531 L 22.292969 106.714844 L 4.347656 106.714844 Z M 4.347656 88.769531 " clip-rule="nonzero"/></clipPath><clipPath id="3acd55c052"><path d="M 4.320312 90.878906 L 22.273438 90.878906 L 22.273438 104.714844 L 4.320312 104.714844 Z M 4.320312 90.878906 " clip-rule="nonzero"/></clipPath><clipPath id="368d79bd86"><path d="M 4.320312 65.398438 L 22.265625 65.398438 L 22.265625 83.34375 L 4.320312 83.34375 Z M 4.320312 65.398438 " clip-rule="nonzero"/></clipPath><clipPath id="665e1f682a"><path d="M 27.875 65.398438 L 45.820312 65.398438 L 45.820312 83.34375 L 27.875 83.34375 Z M 27.875 65.398438 " clip-rule="nonzero"/></clipPath><clipPath id="33151b5a74"><path d="M 51.429688 65.398438 L 69.371094 65.398438 L 69.371094 83.34375 L 51.429688 83.34375 Z M 51.429688 65.398438 " clip-rule="nonzero"/></clipPath><clipPath id="0203d018aa"><path d="M 4.335938 110.339844 L 22.277344 110.339844 L 22.277344 128.285156 L 4.335938 128.285156 Z M 4.335938 110.339844 " clip-rule="nonzero"/></clipPath><clipPath id="9c32e89da3"><path d="M 27.878906 110.339844 L 45.824219 110.339844 L 45.824219 128.285156 L 27.878906 128.285156 Z M 27.878906 110.339844 " clip-rule="nonzero"/></clipPath><clipPath id="3d74ebdec0"><path d="M 51.425781 110.339844 L 69.367188 110.339844 L 69.367188 128.285156 L 51.425781 128.285156 Z M 51.425781 110.339844 " clip-rule="nonzero"/></clipPath></defs><g clip-path="url(#1f6cd0a890)"><path fill="#d73745" d="M 27.894531 88.769531 L 45.835938 88.769531 L 45.835938 106.714844 L 27.894531 106.714844 Z M 27.894531 88.769531 " fill-opacity="1" fill-rule="nonzero"/></g><g clip-path="url(#8bbe635eeb)"><path fill="#964590" d="M 51.4375 88.769531 L 69.382812 88.769531 L 69.382812 106.714844 L 51.4375 106.714844 Z M 51.4375 88.769531 " fill-opacity="1" fill-rule="nonzero"/></g><g clip-path="url(#d197081b78)"><path fill="#fac90a" d="M 4.347656 88.769531 L 22.292969 88.769531 L 22.292969 106.714844 L 4.347656 106.714844 Z M 4.347656 88.769531 " fill-opacity="1" fill-rule="nonzero"/></g><g clip-path="url(#3acd55c052)"><path fill="#000000" d="M 4.320312 98.417969 L 4.925781 98.417969 L 4.320312 98.402344 C 10.265625 98.148438 10.308594 98.105469 10.5625 92.113281 L 10.578125 92.390625 L 10.578125 92.113281 C 10.59375 92.40625 10.605469 92.6875 10.617188 92.957031 L 10.746094 94.941406 C 10.984375 97.328125 11.578125 97.964844 13.878906 98.222656 L 16.054688 98.367188 C 16.300781 98.378906 16.554688 98.390625 16.820312 98.402344 L 16.550781 98.402344 L 16.820312 98.417969 C 10.875 98.671875 10.832031 98.71875 10.578125 104.707031 L 10.5625 104.433594 L 10.5625 104.707031 C 10.550781 104.425781 10.539062 104.160156 10.527344 103.90625 L 10.390625 101.808594 C 10.0625 98.691406 9.09375 98.621094 4.320312 98.417969 Z M 14.265625 94.9375 L 14.652344 94.9375 L 14.265625 94.925781 C 18.074219 94.761719 18.101562 94.734375 18.261719 90.898438 L 18.273438 91.074219 L 18.273438 90.898438 C 18.28125 91.085938 18.289062 91.265625 18.296875 91.4375 L 18.378906 92.710938 C 18.535156 94.238281 18.914062 94.644531 20.386719 94.808594 L 21.78125 94.902344 C 21.9375 94.910156 22.101562 94.917969 22.273438 94.925781 L 22.101562 94.925781 L 22.273438 94.9375 C 18.464844 95.097656 18.433594 95.128906 18.273438 98.964844 L 18.261719 98.789062 L 18.261719 98.964844 C 18.253906 98.785156 18.246094 98.613281 18.242188 98.453125 L 18.152344 97.109375 C 17.945312 95.109375 17.324219 95.066406 14.265625 94.9375 Z M 14.136719 102.011719 L 14.398438 102.011719 L 14.136719 102.003906 C 16.6875 101.894531 16.707031 101.875 16.8125 99.308594 L 16.820312 99.429688 L 16.820312 99.308594 C 16.828125 99.433594 16.832031 99.554688 16.835938 99.667969 L 16.890625 100.519531 C 16.996094 101.542969 17.25 101.816406 18.234375 101.925781 L 19.167969 101.988281 C 19.273438 101.996094 19.382812 102 19.496094 102.003906 L 19.382812 102.003906 L 19.496094 102.011719 C 16.949219 102.121094 16.929688 102.140625 16.820312 104.707031 L 16.8125 104.589844 L 16.8125 104.707031 C 16.808594 104.585938 16.804688 104.472656 16.800781 104.363281 L 16.738281 103.464844 C 16.601562 102.128906 16.183594 102.097656 14.136719 102.011719 Z M 14.136719 102.011719 " fill-opacity="1" fill-rule="evenodd"/></g><g fill="#000000" fill-opacity="1"><g transform="translate(74.982717, 103.539084)"><g><path d="M 7.5 0.21875 C 6.21875 0.21875 5.0625 -0.0546875 4.03125 -0.609375 C 3 -1.171875 2.1875 -1.945312 1.59375 -2.9375 C 1 -3.925781 0.703125 -5.039062 0.703125 -6.28125 C 0.703125 -7.53125 1 -8.644531 1.59375 -9.625 C 2.1875 -10.613281 3 -11.382812 4.03125 -11.9375 C 5.0625 -12.5 6.222656 -12.78125 7.515625 -12.78125 C 8.609375 -12.78125 9.59375 -12.585938 10.46875 -12.203125 C 11.351562 -11.828125 12.09375 -11.28125 12.6875 -10.5625 L 10.828125 -8.828125 C 9.972656 -9.816406 8.921875 -10.3125 7.671875 -10.3125 C 6.890625 -10.3125 6.191406 -10.140625 5.578125 -9.796875 C 4.972656 -9.453125 4.5 -8.972656 4.15625 -8.359375 C 3.8125 -7.753906 3.640625 -7.0625 3.640625 -6.28125 C 3.640625 -5.5 3.8125 -4.800781 4.15625 -4.1875 C 4.5 -3.582031 4.972656 -3.109375 5.578125 -2.765625 C 6.191406 -2.429688 6.890625 -2.265625 7.671875 -2.265625 C 8.921875 -2.265625 9.972656 -2.757812 10.828125 -3.75 L 12.6875 -2.03125 C 12.09375 -1.300781 11.351562 -0.742188 10.46875 -0.359375 C 9.582031 0.0234375 8.59375 0.21875 7.5 0.21875 Z M 7.5 0.21875 "/></g></g></g><g fill="#000000" fill-opacity="1"><g transform="translate(87.886059, 103.539084)"><g><path d="M 9.765625 -2.6875 L 3.9375 -2.6875 L 2.8125 0 L -0.15625 0 L 5.4375 -12.5625 L 8.3125 -12.5625 L 13.9375 0 L 10.875 0 Z M 8.84375 -4.90625 L 6.859375 -9.71875 L 4.859375 -4.90625 Z M 8.84375 -4.90625 "/></g></g></g><g fill="#000000" fill-opacity="1"><g transform="translate(101.63291, 103.539084)"><g><path d="M 13.015625 -12.5625 L 13.015625 0 L 10.625 0 L 4.359375 -7.625 L 4.359375 0 L 1.484375 0 L 1.484375 -12.5625 L 3.890625 -12.5625 L 10.140625 -4.9375 L 10.140625 -12.5625 Z M 13.015625 -12.5625 "/></g></g></g><g fill="#000000" fill-opacity="1"><g transform="translate(116.061709, 103.539084)"><g><path d="M 13.578125 -12.5625 L 8.125 0 L 5.265625 0 L -0.15625 -12.5625 L 2.984375 -12.5625 L 6.796875 -3.59375 L 10.6875 -12.5625 Z M 13.578125 -12.5625 "/></g></g></g><g fill="#000000" fill-opacity="1"><g transform="translate(128.767595, 103.539084)"><g><path d="M 9.765625 -2.6875 L 3.9375 -2.6875 L 2.8125 0 L -0.15625 0 L 5.4375 -12.5625 L 8.3125 -12.5625 L 13.9375 0 L 10.875 0 Z M 8.84375 -4.90625 L 6.859375 -9.71875 L 4.859375 -4.90625 Z M 8.84375 -4.90625 "/></g></g></g><g fill="#000000" fill-opacity="1"><g transform="translate(142.514445, 103.539084)"><g><path d="M 5.625 0.21875 C 4.625 0.21875 3.660156 0.0820312 2.734375 -0.1875 C 1.804688 -0.457031 1.0625 -0.804688 0.5 -1.234375 L 1.484375 -3.421875 C 2.023438 -3.035156 2.664062 -2.722656 3.40625 -2.484375 C 4.15625 -2.242188 4.898438 -2.125 5.640625 -2.125 C 6.460938 -2.125 7.070312 -2.242188 7.46875 -2.484375 C 7.863281 -2.734375 8.0625 -3.0625 8.0625 -3.46875 C 8.0625 -3.757812 7.941406 -4.003906 7.703125 -4.203125 C 7.472656 -4.398438 7.175781 -4.554688 6.8125 -4.671875 C 6.445312 -4.796875 5.953125 -4.929688 5.328125 -5.078125 C 4.367188 -5.304688 3.582031 -5.535156 2.96875 -5.765625 C 2.363281 -5.992188 1.84375 -6.359375 1.40625 -6.859375 C 0.96875 -7.359375 0.75 -8.03125 0.75 -8.875 C 0.75 -9.601562 0.945312 -10.257812 1.34375 -10.84375 C 1.738281 -11.4375 2.332031 -11.90625 3.125 -12.25 C 3.925781 -12.601562 4.898438 -12.78125 6.046875 -12.78125 C 6.847656 -12.78125 7.628906 -12.679688 8.390625 -12.484375 C 9.160156 -12.296875 9.832031 -12.023438 10.40625 -11.671875 L 9.515625 -9.46875 C 8.359375 -10.125 7.195312 -10.453125 6.03125 -10.453125 C 5.21875 -10.453125 4.613281 -10.316406 4.21875 -10.046875 C 3.832031 -9.785156 3.640625 -9.441406 3.640625 -9.015625 C 3.640625 -8.578125 3.863281 -8.253906 4.3125 -8.046875 C 4.757812 -7.835938 5.445312 -7.632812 6.375 -7.4375 C 7.332031 -7.207031 8.113281 -6.976562 8.71875 -6.75 C 9.332031 -6.519531 9.859375 -6.160156 10.296875 -5.671875 C 10.734375 -5.179688 10.953125 -4.519531 10.953125 -3.6875 C 10.953125 -2.96875 10.75 -2.3125 10.34375 -1.71875 C 9.945312 -1.125 9.347656 -0.648438 8.546875 -0.296875 C 7.742188 0.046875 6.769531 0.21875 5.625 0.21875 Z M 5.625 0.21875 "/></g></g></g><g fill="#000000" fill-opacity="1"><g transform="translate(153.964173, 103.539084)"><g><path d="M 7.0625 -12.625 C 8.238281 -12.625 9.304688 -12.347656 10.265625 -11.796875 C 11.234375 -11.242188 11.992188 -10.484375 12.546875 -9.515625 C 13.097656 -8.554688 13.375 -7.488281 13.375 -6.3125 C 13.375 -5.144531 13.09375 -4.070312 12.53125 -3.09375 C 11.96875 -2.125 11.203125 -1.359375 10.234375 -0.796875 C 9.265625 -0.234375 8.191406 0.046875 7.015625 0.046875 C 5.847656 0.046875 4.78125 -0.234375 3.8125 -0.796875 C 2.851562 -1.359375 2.09375 -2.125 1.53125 -3.09375 C 0.976562 -4.0625 0.703125 -5.125 0.703125 -6.28125 C 0.703125 -7.445312 0.976562 -8.515625 1.53125 -9.484375 C 2.09375 -10.453125 2.859375 -11.21875 3.828125 -11.78125 C 4.796875 -12.34375 5.875 -12.625 7.0625 -12.625 Z M 7.015625 -1.109375 C 7.972656 -1.109375 8.84375 -1.335938 9.625 -1.796875 C 10.414062 -2.265625 11.035156 -2.894531 11.484375 -3.6875 C 11.929688 -4.488281 12.15625 -5.363281 12.15625 -6.3125 C 12.15625 -7.289062 11.9375 -8.164062 11.5 -8.9375 C 11.0625 -9.71875 10.453125 -10.332031 9.671875 -10.78125 C 8.898438 -11.226562 8.03125 -11.453125 7.0625 -11.453125 C 6.082031 -11.453125 5.203125 -11.222656 4.421875 -10.765625 C 3.648438 -10.316406 3.039062 -9.695312 2.59375 -8.90625 C 2.15625 -8.113281 1.9375 -7.238281 1.9375 -6.28125 C 1.9375 -5.320312 2.15625 -4.445312 2.59375 -3.65625 C 3.039062 -2.875 3.648438 -2.253906 4.421875 -1.796875 C 5.191406 -1.335938 6.054688 -1.109375 7.015625 -1.109375 Z M 10.359375 -7.28125 C 10.359375 -6.78125 10.242188 -6.347656 10.015625 -5.984375 C 9.796875 -5.617188 9.472656 -5.335938 9.046875 -5.140625 L 10.578125 -2.796875 L 8.703125 -2.796875 L 7.390625 -4.8125 L 6.15625 -4.8125 L 6.15625 -2.796875 L 4.296875 -2.796875 L 4.296875 -9.765625 L 7.328125 -9.765625 C 8.273438 -9.765625 9.015625 -9.539062 9.546875 -9.09375 C 10.085938 -8.644531 10.359375 -8.039062 10.359375 -7.28125 Z M 7.203125 -6.21875 C 7.617188 -6.21875 7.941406 -6.304688 8.171875 -6.484375 C 8.410156 -6.671875 8.53125 -6.9375 8.53125 -7.28125 C 8.53125 -7.632812 8.410156 -7.90625 8.171875 -8.09375 C 7.941406 -8.289062 7.617188 -8.390625 7.203125 -8.390625 L 6.140625 -8.390625 L 6.140625 -6.21875 Z M 7.203125 -6.21875 "/></g></g></g><g clip-path="url(#368d79bd86)"><path fill="#964590" d="M 4.320312 65.398438 L 22.265625 65.398438 L 22.265625 83.34375 L 4.320312 83.34375 Z M 4.320312 65.398438 " fill-opacity="1" fill-rule="nonzero"/></g><g clip-path="url(#665e1f682a)"><path fill="#72c53c" d="M 27.875 65.398438 L 45.820312 65.398438 L 45.820312 83.34375 L 27.875 83.34375 Z M 27.875 65.398438 " fill-opacity="1" fill-rule="nonzero"/></g><g clip-path="url(#33151b5a74)"><path fill="#d7d8da" d="M 51.429688 65.398438 L 69.371094 65.398438 L 69.371094 83.34375 L 51.429688 83.34375 Z M 51.429688 65.398438 " fill-opacity="1" fill-rule="nonzero"/></g><g fill="#000000" fill-opacity="1"><g transform="translate(74.982717, 80.355663)"><g><path d="M 13.65625 -9.796875 C 14.863281 -9.796875 15.820312 -9.441406 16.53125 -8.734375 C 17.25 -8.023438 17.609375 -6.957031 17.609375 -5.53125 L 17.609375 0 L 14.8125 0 L 14.8125 -5.09375 C 14.8125 -5.863281 14.648438 -6.4375 14.328125 -6.8125 C 14.015625 -7.1875 13.566406 -7.375 12.984375 -7.375 C 12.328125 -7.375 11.804688 -7.160156 11.421875 -6.734375 C 11.035156 -6.316406 10.84375 -5.6875 10.84375 -4.84375 L 10.84375 0 L 8.046875 0 L 8.046875 -5.09375 C 8.046875 -6.613281 7.4375 -7.375 6.21875 -7.375 C 5.570312 -7.375 5.054688 -7.160156 4.671875 -6.734375 C 4.285156 -6.316406 4.09375 -5.6875 4.09375 -4.84375 L 4.09375 0 L 1.296875 0 L 1.296875 -9.65625 L 3.96875 -9.65625 L 3.96875 -8.546875 C 4.320312 -8.953125 4.757812 -9.257812 5.28125 -9.46875 C 5.800781 -9.6875 6.375 -9.796875 7 -9.796875 C 7.6875 -9.796875 8.300781 -9.660156 8.84375 -9.390625 C 9.394531 -9.128906 9.835938 -8.738281 10.171875 -8.21875 C 10.566406 -8.726562 11.066406 -9.117188 11.671875 -9.390625 C 12.273438 -9.660156 12.9375 -9.796875 13.65625 -9.796875 Z M 13.65625 -9.796875 "/></g></g></g><g fill="#000000" fill-opacity="1"><g transform="translate(93.814534, 80.355663)"><g><path d="M 1.296875 -9.65625 L 4.09375 -9.65625 L 4.09375 0 L 1.296875 0 Z M 2.6875 -11 C 2.175781 -11 1.757812 -11.148438 1.4375 -11.453125 C 1.113281 -11.753906 0.953125 -12.125 0.953125 -12.5625 C 0.953125 -13.007812 1.113281 -13.378906 1.4375 -13.671875 C 1.757812 -13.972656 2.175781 -14.125 2.6875 -14.125 C 3.207031 -14.125 3.628906 -13.976562 3.953125 -13.6875 C 4.273438 -13.40625 4.4375 -13.050781 4.4375 -12.625 C 4.4375 -12.15625 4.273438 -11.765625 3.953125 -11.453125 C 3.628906 -11.148438 3.207031 -11 2.6875 -11 Z M 2.6875 -11 "/></g></g></g><g fill="#000000" fill-opacity="1"><g transform="translate(99.218135, 80.355663)"><g><path d="M 5.953125 0.140625 C 4.929688 0.140625 4.007812 -0.0664062 3.1875 -0.484375 C 2.363281 -0.910156 1.722656 -1.5 1.265625 -2.25 C 0.804688 -3.007812 0.578125 -3.867188 0.578125 -4.828125 C 0.578125 -5.785156 0.804688 -6.640625 1.265625 -7.390625 C 1.722656 -8.148438 2.363281 -8.738281 3.1875 -9.15625 C 4.007812 -9.582031 4.929688 -9.796875 5.953125 -9.796875 C 6.972656 -9.796875 7.863281 -9.582031 8.625 -9.15625 C 9.382812 -8.738281 9.9375 -8.132812 10.28125 -7.34375 L 8.109375 -6.171875 C 7.609375 -7.054688 6.882812 -7.5 5.9375 -7.5 C 5.207031 -7.5 4.601562 -7.257812 4.125 -6.78125 C 3.644531 -6.300781 3.40625 -5.648438 3.40625 -4.828125 C 3.40625 -4.003906 3.644531 -3.351562 4.125 -2.875 C 4.601562 -2.394531 5.207031 -2.15625 5.9375 -2.15625 C 6.894531 -2.15625 7.617188 -2.597656 8.109375 -3.484375 L 10.28125 -2.296875 C 9.9375 -1.535156 9.382812 -0.9375 8.625 -0.5 C 7.863281 -0.0703125 6.972656 0.140625 5.953125 0.140625 Z M 5.953125 0.140625 "/></g></g></g><g fill="#000000" fill-opacity="1"><g transform="translate(109.827862, 80.355663)"><g><path d="M 3.96875 -8.390625 C 4.300781 -8.847656 4.75 -9.195312 5.3125 -9.4375 C 5.882812 -9.675781 6.539062 -9.796875 7.28125 -9.796875 L 7.28125 -7.21875 C 6.976562 -7.238281 6.769531 -7.25 6.65625 -7.25 C 5.851562 -7.25 5.222656 -7.023438 4.765625 -6.578125 C 4.316406 -6.128906 4.09375 -5.457031 4.09375 -4.5625 L 4.09375 0 L 1.296875 0 L 1.296875 -9.65625 L 3.96875 -9.65625 Z M 3.96875 -8.390625 "/></g></g></g><g fill="#000000" fill-opacity="1"><g transform="translate(117.403675, 80.355663)"><g><path d="M 5.890625 0.140625 C 4.867188 0.140625 3.953125 -0.0664062 3.140625 -0.484375 C 2.335938 -0.910156 1.707031 -1.5 1.25 -2.25 C 0.800781 -3.007812 0.578125 -3.867188 0.578125 -4.828125 C 0.578125 -5.785156 0.800781 -6.640625 1.25 -7.390625 C 1.707031 -8.148438 2.335938 -8.738281 3.140625 -9.15625 C 3.953125 -9.582031 4.867188 -9.796875 5.890625 -9.796875 C 6.910156 -9.796875 7.820312 -9.582031 8.625 -9.15625 C 9.425781 -8.738281 10.050781 -8.148438 10.5 -7.390625 C 10.957031 -6.640625 11.1875 -5.785156 11.1875 -4.828125 C 11.1875 -3.867188 10.957031 -3.007812 10.5 -2.25 C 10.050781 -1.5 9.425781 -0.910156 8.625 -0.484375 C 7.820312 -0.0664062 6.910156 0.140625 5.890625 0.140625 Z M 5.890625 -2.15625 C 6.609375 -2.15625 7.195312 -2.394531 7.65625 -2.875 C 8.113281 -3.363281 8.34375 -4.015625 8.34375 -4.828125 C 8.34375 -5.640625 8.113281 -6.285156 7.65625 -6.765625 C 7.195312 -7.253906 6.609375 -7.5 5.890625 -7.5 C 5.171875 -7.5 4.578125 -7.253906 4.109375 -6.765625 C 3.640625 -6.285156 3.40625 -5.640625 3.40625 -4.828125 C 3.40625 -4.015625 3.640625 -3.363281 4.109375 -2.875 C 4.578125 -2.394531 5.171875 -2.15625 5.890625 -2.15625 Z M 5.890625 -2.15625 "/></g></g></g><g clip-path="url(#0203d018aa)"><path fill="#72c53c" d="M 4.335938 110.339844 L 22.277344 110.339844 L 22.277344 128.285156 L 4.335938 128.285156 Z M 4.335938 110.339844 " fill-opacity="1" fill-rule="nonzero"/></g><g clip-path="url(#9c32e89da3)"><path fill="#d7d8da" d="M 27.878906 110.339844 L 45.824219 110.339844 L 45.824219 128.285156 L 27.878906 128.285156 Z M 27.878906 110.339844 " fill-opacity="1" fill-rule="nonzero"/></g><g clip-path="url(#3d74ebdec0)"><path fill="#fac90a" d="M 51.425781 110.339844 L 69.367188 110.339844 L 69.367188 128.285156 L 51.425781 128.285156 Z M 51.425781 110.339844 " fill-opacity="1" fill-rule="nonzero"/></g><g fill="#000000" fill-opacity="1"><g transform="translate(77.732682, 122.866211)"><g><path d="M 2.6875 -6.25 L 2.6875 -4.21875 L 6.234375 -4.21875 L 6.234375 -2.796875 L 2.6875 -2.796875 L 2.6875 0 L 0.90625 0 L 0.90625 -7.671875 L 6.71875 -7.671875 L 6.71875 -6.25 Z M 2.6875 -6.25 "/></g></g></g><g fill="#000000" fill-opacity="1"><g transform="translate(84.741739, 122.866211)"><g><path d="M 5.796875 0 L 4.328125 -2.140625 L 2.6875 -2.140625 L 2.6875 0 L 0.90625 0 L 0.90625 -7.671875 L 4.234375 -7.671875 C 4.910156 -7.671875 5.5 -7.554688 6 -7.328125 C 6.5 -7.109375 6.882812 -6.789062 7.15625 -6.375 C 7.425781 -5.957031 7.5625 -5.460938 7.5625 -4.890625 C 7.5625 -4.316406 7.425781 -3.820312 7.15625 -3.40625 C 6.882812 -3 6.492188 -2.6875 5.984375 -2.46875 L 7.71875 0 Z M 5.765625 -4.890625 C 5.765625 -5.328125 5.625 -5.660156 5.34375 -5.890625 C 5.070312 -6.117188 4.671875 -6.234375 4.140625 -6.234375 L 2.6875 -6.234375 L 2.6875 -3.546875 L 4.140625 -3.546875 C 4.671875 -3.546875 5.070312 -3.660156 5.34375 -3.890625 C 5.625 -4.128906 5.765625 -4.460938 5.765625 -4.890625 Z M 5.765625 -4.890625 "/></g></g></g><g fill="#000000" fill-opacity="1"><g transform="translate(92.803796, 122.866211)"><g><path d="M 5.96875 -1.640625 L 2.40625 -1.640625 L 1.71875 0 L -0.09375 0 L 3.328125 -7.671875 L 5.078125 -7.671875 L 8.515625 0 L 6.640625 0 Z M 5.40625 -3 L 4.1875 -5.9375 L 2.96875 -3 Z M 5.40625 -3 "/></g></g></g><g fill="#000000" fill-opacity="1"><g transform="translate(101.205889, 122.866211)"><g><path d="M 7.890625 0 L 7.890625 -4.609375 L 5.625 -0.8125 L 4.828125 -0.8125 L 2.578125 -4.515625 L 2.578125 0 L 0.90625 0 L 0.90625 -7.671875 L 2.375 -7.671875 L 5.25 -2.90625 L 8.078125 -7.671875 L 9.546875 -7.671875 L 9.5625 0 Z M 7.890625 0 "/></g></g></g><g fill="#000000" fill-opacity="1"><g transform="translate(111.681085, 122.866211)"><g><path d="M 6.859375 -1.421875 L 6.859375 0 L 0.90625 0 L 0.90625 -7.671875 L 6.71875 -7.671875 L 6.71875 -6.25 L 2.671875 -6.25 L 2.671875 -4.578125 L 6.234375 -4.578125 L 6.234375 -3.203125 L 2.671875 -3.203125 L 2.671875 -1.421875 Z M 6.859375 -1.421875 "/></g></g></g><g fill="#000000" fill-opacity="1"><g transform="translate(119.04114, 122.866211)"><g><path d="M 12.515625 -7.671875 L 10 0 L 8.09375 0 L 6.40625 -5.203125 L 4.65625 0 L 2.765625 0 L 0.234375 -7.671875 L 2.078125 -7.671875 L 3.8125 -2.28125 L 5.625 -7.671875 L 7.265625 -7.671875 L 9.03125 -2.234375 L 10.8125 -7.671875 Z M 12.515625 -7.671875 "/></g></g></g><g fill="#000000" fill-opacity="1"><g transform="translate(131.797845, 122.866211)"><g><path d="M 4.625 0.125 C 3.832031 0.125 3.113281 -0.046875 2.46875 -0.390625 C 1.832031 -0.734375 1.332031 -1.203125 0.96875 -1.796875 C 0.601562 -2.398438 0.421875 -3.082031 0.421875 -3.84375 C 0.421875 -4.59375 0.601562 -5.269531 0.96875 -5.875 C 1.332031 -6.476562 1.832031 -6.953125 2.46875 -7.296875 C 3.113281 -7.640625 3.832031 -7.8125 4.625 -7.8125 C 5.425781 -7.8125 6.144531 -7.640625 6.78125 -7.296875 C 7.414062 -6.953125 7.914062 -6.476562 8.28125 -5.875 C 8.644531 -5.269531 8.828125 -4.59375 8.828125 -3.84375 C 8.828125 -3.082031 8.644531 -2.398438 8.28125 -1.796875 C 7.914062 -1.203125 7.414062 -0.734375 6.78125 -0.390625 C 6.144531 -0.046875 5.425781 0.125 4.625 0.125 Z M 4.625 -1.375 C 5.082031 -1.375 5.492188 -1.476562 5.859375 -1.6875 C 6.222656 -1.894531 6.507812 -2.1875 6.71875 -2.5625 C 6.925781 -2.9375 7.03125 -3.363281 7.03125 -3.84375 C 7.03125 -4.3125 6.925781 -4.734375 6.71875 -5.109375 C 6.507812 -5.484375 6.222656 -5.773438 5.859375 -5.984375 C 5.492188 -6.191406 5.082031 -6.296875 4.625 -6.296875 C 4.175781 -6.296875 3.769531 -6.191406 3.40625 -5.984375 C 3.039062 -5.773438 2.753906 -5.484375 2.546875 -5.109375 C 2.335938 -4.734375 2.234375 -4.3125 2.234375 -3.84375 C 2.234375 -3.363281 2.335938 -2.9375 2.546875 -2.5625 C 2.753906 -2.1875 3.039062 -1.894531 3.40625 -1.6875 C 3.769531 -1.476562 4.175781 -1.375 4.625 -1.375 Z M 4.625 -1.375 "/></g></g></g><g fill="#000000" fill-opacity="1"><g transform="translate(141.055506, 122.866211)"><g><path d="M 5.796875 0 L 4.328125 -2.140625 L 2.6875 -2.140625 L 2.6875 0 L 0.90625 0 L 0.90625 -7.671875 L 4.234375 -7.671875 C 4.910156 -7.671875 5.5 -7.554688 6 -7.328125 C 6.5 -7.109375 6.882812 -6.789062 7.15625 -6.375 C 7.425781 -5.957031 7.5625 -5.460938 7.5625 -4.890625 C 7.5625 -4.316406 7.425781 -3.820312 7.15625 -3.40625 C 6.882812 -3 6.492188 -2.6875 5.984375 -2.46875 L 7.71875 0 Z M 5.765625 -4.890625 C 5.765625 -5.328125 5.625 -5.660156 5.34375 -5.890625 C 5.070312 -6.117188 4.671875 -6.234375 4.140625 -6.234375 L 2.6875 -6.234375 L 2.6875 -3.546875 L 4.140625 -3.546875 C 4.671875 -3.546875 5.070312 -3.660156 5.34375 -3.890625 C 5.625 -4.128906 5.765625 -4.460938 5.765625 -4.890625 Z M 5.765625 -4.890625 "/></g></g></g><g fill="#000000" fill-opacity="1"><g transform="translate(149.117563, 122.866211)"><g><path d="M 3.703125 -3.015625 L 2.671875 -1.9375 L 2.671875 0 L 0.90625 0 L 0.90625 -7.671875 L 2.671875 -7.671875 L 2.671875 -4.09375 L 6.078125 -7.671875 L 8.046875 -7.671875 L 4.875 -4.25 L 8.234375 0 L 6.171875 0 Z M 3.703125 -3.015625 "/></g></g></g><g fill="#000000" fill-opacity="1"><g transform="translate(157.234469, 122.866211)"><g/></g></g><g fill="#000000" fill-opacity="1"><g transform="translate(160.338635, 122.866211)"><g><path d="M 8.296875 -7.671875 L 4.96875 0 L 3.21875 0 L -0.09375 -7.671875 L 1.828125 -7.671875 L 4.15625 -2.1875 L 6.53125 -7.671875 Z M 8.296875 -7.671875 "/></g></g></g><g fill="#000000" fill-opacity="1"><g transform="translate(168.521352, 122.866211)"><g><path d="M 6.171875 -1.453125 L 6.171875 0 L 0.359375 0 L 0.359375 -1.15625 L 3.328125 -3.953125 C 3.640625 -4.253906 3.847656 -4.507812 3.953125 -4.71875 C 4.066406 -4.9375 4.125 -5.148438 4.125 -5.359375 C 4.125 -5.671875 4.019531 -5.90625 3.8125 -6.0625 C 3.601562 -6.226562 3.296875 -6.3125 2.890625 -6.3125 C 2.554688 -6.3125 2.253906 -6.25 1.984375 -6.125 C 1.710938 -6 1.488281 -5.804688 1.3125 -5.546875 L 0.015625 -6.390625 C 0.304688 -6.828125 0.71875 -7.171875 1.25 -7.421875 C 1.78125 -7.679688 2.382812 -7.8125 3.0625 -7.8125 C 3.632812 -7.8125 4.132812 -7.71875 4.5625 -7.53125 C 4.988281 -7.34375 5.316406 -7.078125 5.546875 -6.734375 C 5.785156 -6.398438 5.90625 -6.003906 5.90625 -5.546875 C 5.90625 -5.117188 5.816406 -4.722656 5.640625 -4.359375 C 5.472656 -3.992188 5.132812 -3.578125 4.625 -3.109375 L 2.859375 -1.453125 Z M 6.171875 -1.453125 "/></g></g></g><g fill="#000000" fill-opacity="1"><g transform="translate(174.99294, 122.866211)"><g><path d="M 1.4375 0.09375 C 1.132812 0.09375 0.878906 -0.0078125 0.671875 -0.21875 C 0.472656 -0.425781 0.375 -0.679688 0.375 -0.984375 C 0.375 -1.296875 0.472656 -1.550781 0.671875 -1.75 C 0.878906 -1.945312 1.132812 -2.046875 1.4375 -2.046875 C 1.738281 -2.046875 1.988281 -1.945312 2.1875 -1.75 C 2.394531 -1.550781 2.5 -1.296875 2.5 -0.984375 C 2.5 -0.679688 2.394531 -0.425781 2.1875 -0.21875 C 1.988281 -0.0078125 1.738281 0.09375 1.4375 0.09375 Z M 1.4375 0.09375 "/></g></g></g><g fill="#000000" fill-opacity="1"><g transform="translate(177.866761, 122.866211)"><g><path d="M 3.390625 -7.671875 L 3.390625 0 L 1.609375 0 L 1.609375 -6.25 L 0.078125 -6.25 L 0.078125 -7.671875 Z M 3.390625 -7.671875 "/></g></g></g></svg>