<svg xmlns="http://www.w3.org/2000/svg" xmlns:xlink="http://www.w3.org/1999/xlink" width="250" zoomAndPan="magnify" viewBox="0 0 187.5 187.499992" height="250" preserveAspectRatio="xMidYMid meet" version="1.0"><defs><filter x="0%" y="0%" width="100%" height="100%" id="6e144d7163"><feColorMatrix values="0 0 0 0 1 0 0 0 0 1 0 0 0 0 1 0 0 0 1 0" color-interpolation-filters="sRGB"/></filter><mask id="b11e57f813"><g filter="url(#6e144d7163)"><rect x="-18.75" width="225" fill="#000000" y="-18.749999" height="224.99999" fill-opacity="0.5"/></g></mask><clipPath id="8c031bbf6c"><path d="M 0.753906 0.300781 L 52.328125 0.300781 L 52.328125 51.875 L 0.753906 51.875 Z M 0.753906 0.300781 " clip-rule="nonzero"/></clipPath><clipPath id="0b4c23341d"><rect x="0" width="53" y="0" height="53"/></clipPath><mask id="48930fb626"><g filter="url(#6e144d7163)"><rect x="-18.75" width="225" fill="#000000" y="-18.749999" height="224.99999" fill-opacity="0.5"/></g></mask><clipPath id="26834686df"><path d="M 0.425781 0.300781 L 52 0.300781 L 52 51.875 L 0.425781 51.875 Z M 0.425781 0.300781 " clip-rule="nonzero"/></clipPath><clipPath id="271594fc90"><rect x="0" width="52" y="0" height="53"/></clipPath><mask id="faad70d061"><g filter="url(#6e144d7163)"><rect x="-18.75" width="225" fill="#000000" y="-18.749999" height="224.99999" fill-opacity="0.5"/></g></mask><clipPath id="26ca1ebb12"><path d="M 0.0820312 0.300781 L 51.65625 0.300781 L 51.65625 51.875 L 0.0820312 51.875 Z M 0.0820312 0.300781 " clip-rule="nonzero"/></clipPath><clipPath id="120df85195"><rect x="0" width="52" y="0" height="53"/></clipPath><clipPath id="9524a13fa7"><path d="M 135.398438 3.128906 L 186.972656 3.128906 L 186.972656 54.703125 L 135.398438 54.703125 Z M 135.398438 3.128906 " clip-rule="nonzero"/></clipPath><clipPath id="64c6a3f4dc"><path d="M 135.730469 9.1875 L 187 9.1875 L 187 48.832031 L 135.730469 48.832031 Z M 135.730469 9.1875 " clip-rule="nonzero"/></clipPath><mask id="9466dcc957"><g filter="url(#6e144d7163)"><rect x="-18.75" width="225" fill="#000000" y="-18.749999" height="224.99999" fill-opacity="0.75"/></g></mask><clipPath id="34d270aaf2"><path d="M 0 0.128906 L 51.574219 0.128906 L 51.574219 51.703125 L 0 51.703125 Z M 0 0.128906 " clip-rule="nonzero"/></clipPath><clipPath id="25c6534e1f"><rect x="0" width="52" y="0" height="52"/></clipPath><mask id="61053bd193"><g filter="url(#6e144d7163)"><rect x="-18.75" width="225" fill="#000000" y="-18.749999" height="224.99999" fill-opacity="0.75"/></g></mask><clipPath id="1cb6d10f16"><path d="M 0.699219 0.128906 L 52.273438 0.128906 L 52.273438 51.703125 L 0.699219 51.703125 Z M 0.699219 0.128906 " clip-rule="nonzero"/></clipPath><clipPath id="85bd038913"><rect x="0" width="53" y="0" height="52"/></clipPath><mask id="1727296d9e"><g filter="url(#6e144d7163)"><rect x="-18.75" width="225" fill="#000000" y="-18.749999" height="224.99999" fill-opacity="0.25"/></g></mask><clipPath id="75f86832e6"><path d="M 0.0390625 0.300781 L 51.617188 0.300781 L 51.617188 51.875 L 0.0390625 51.875 Z M 0.0390625 0.300781 " clip-rule="nonzero"/></clipPath><clipPath id="4b80df198d"><rect x="0" width="52" y="0" height="53"/></clipPath><mask id="f90f717e82"><g filter="url(#6e144d7163)"><rect x="-18.75" width="225" fill="#000000" y="-18.749999" height="224.99999" fill-opacity="0.5"/></g></mask><clipPath id="4929a68d97"><path d="M 0.714844 0.300781 L 52.289062 0.300781 L 52.289062 51.875 L 0.714844 51.875 Z M 0.714844 0.300781 " clip-rule="nonzero"/></clipPath><clipPath id="9bcbfaee32"><rect x="0" width="53" y="0" height="53"/></clipPath><mask id="78496911b8"><g filter="url(#6e144d7163)"><rect x="-18.75" width="225" fill="#000000" y="-18.749999" height="224.99999" fill-opacity="0.5"/></g></mask><clipPath id="874b2c3a73"><path d="M 0.386719 0.300781 L 51.960938 0.300781 L 51.960938 51.875 L 0.386719 51.875 Z M 0.386719 0.300781 " clip-rule="nonzero"/></clipPath><clipPath id="642dc6a23a"><rect x="0" width="52" y="0" height="53"/></clipPath><clipPath id="1d4f06f9ff"><path d="M 0 54 L 136 54 L 136 187 L 0 187 Z M 0 54 " clip-rule="nonzero"/></clipPath></defs><g mask="url(#b11e57f813)"><g transform="matrix(1, 0, 0, 1, 67, 70)"><g clip-path="url(#0b4c23341d)"><g clip-path="url(#8c031bbf6c)"><path fill="#72c53c" d="M 0.753906 0.300781 L 52.328125 0.300781 L 52.328125 51.875 L 0.753906 51.875 Z M 0.753906 0.300781 " fill-opacity="1" fill-rule="nonzero"/></g></g></g></g><g mask="url(#48930fb626)"><g transform="matrix(1, 0, 0, 1, 135, 70)"><g clip-path="url(#271594fc90)"><g clip-path="url(#26834686df)"><path fill="#964590" d="M 0.425781 0.300781 L 52 0.300781 L 52 51.875 L 0.425781 51.875 Z M 0.425781 0.300781 " fill-opacity="1" fill-rule="nonzero"/></g></g></g></g><g mask="url(#faad70d061)"><g transform="matrix(1, 0, 0, 1, 0, 70)"><g clip-path="url(#120df85195)"><g clip-path="url(#26ca1ebb12)"><path fill="#484854" d="M 0.0820312 0.300781 L 51.65625 0.300781 L 51.65625 51.875 L 0.0820312 51.875 Z M 0.0820312 0.300781 " fill-opacity="1" fill-rule="nonzero"/></g></g></g></g><g clip-path="url(#9524a13fa7)"><path fill="#fac90a" d="M 135.398438 3.128906 L 186.972656 3.128906 L 186.972656 54.703125 L 135.398438 54.703125 Z M 135.398438 3.128906 " fill-opacity="1" fill-rule="nonzero"/></g><g clip-path="url(#64c6a3f4dc)"><path fill="#000000" d="M 135.730469 30.792969 L 137.46875 30.792969 L 135.730469 30.742188 C 152.824219 30.015625 152.953125 29.886719 153.671875 12.71875 L 153.726562 13.519531 L 153.726562 12.71875 C 153.761719 13.566406 153.796875 14.367188 153.832031 15.132812 L 154.199219 20.828125 C 154.890625 27.664062 156.59375 29.492188 163.210938 30.222656 L 169.46875 30.644531 C 170.167969 30.675781 170.902344 30.707031 171.671875 30.742188 L 170.898438 30.742188 L 171.671875 30.792969 C 154.574219 31.519531 154.449219 31.644531 153.726562 48.808594 L 153.671875 48.023438 L 153.671875 48.808594 C 153.640625 48.003906 153.609375 47.242188 153.574219 46.511719 L 153.179688 40.507812 C 152.242188 31.570312 149.453125 31.371094 135.730469 30.792969 Z M 164.320312 20.808594 L 165.433594 20.808594 L 164.320312 20.777344 C 175.269531 20.3125 175.351562 20.234375 175.816406 9.234375 L 175.847656 9.746094 L 175.847656 9.234375 C 175.871094 9.777344 175.894531 10.289062 175.914062 10.78125 L 176.152344 14.429688 C 176.59375 18.808594 177.683594 19.980469 181.921875 20.449219 L 185.933594 20.71875 C 186.382812 20.738281 186.851562 20.757812 187.34375 20.777344 L 186.847656 20.777344 L 187.34375 20.808594 C 176.390625 21.277344 176.3125 21.355469 175.847656 32.355469 L 175.816406 31.851562 L 175.816406 32.355469 C 175.792969 31.839844 175.773438 31.347656 175.75 30.882812 L 175.5 27.035156 C 174.898438 21.3125 173.109375 21.183594 164.320312 20.808594 Z M 163.953125 41.085938 L 164.699219 41.085938 L 163.953125 41.0625 C 171.285156 40.753906 171.339844 40.699219 171.648438 33.339844 L 171.671875 33.679688 L 171.671875 33.339844 C 171.6875 33.703125 171.699219 34.042969 171.714844 34.375 L 171.871094 36.8125 C 172.167969 39.746094 172.898438 40.527344 175.734375 40.839844 L 178.417969 41.023438 C 178.71875 41.035156 179.035156 41.046875 179.359375 41.0625 L 179.03125 41.0625 L 179.359375 41.085938 C 172.035156 41.394531 171.980469 41.449219 171.671875 48.808594 L 171.648438 48.472656 L 171.648438 48.808594 C 171.632812 48.464844 171.621094 48.136719 171.605469 47.824219 L 171.4375 45.25 C 171.035156 41.421875 169.839844 41.335938 163.953125 41.085938 Z M 163.953125 41.085938 " fill-opacity="1" fill-rule="evenodd"/></g><g mask="url(#9466dcc957)"><g transform="matrix(1, 0, 0, 1, 0, 3)"><g clip-path="url(#25c6534e1f)"><g clip-path="url(#34d270aaf2)"><path fill="#d7d8da" d="M 0 0.128906 L 51.574219 0.128906 L 51.574219 51.703125 L 0 51.703125 Z M 0 0.128906 " fill-opacity="1" fill-rule="nonzero"/></g></g></g></g><g mask="url(#61053bd193)"><g transform="matrix(1, 0, 0, 1, 67, 3)"><g clip-path="url(#85bd038913)"><g clip-path="url(#1cb6d10f16)"><path fill="#964590" d="M 0.699219 0.128906 L 52.273438 0.128906 L 52.273438 51.703125 L 0.699219 51.703125 Z M 0.699219 0.128906 " fill-opacity="1" fill-rule="nonzero"/></g></g></g></g><g mask="url(#1727296d9e)"><g transform="matrix(1, 0, 0, 1, 0, 132)"><g clip-path="url(#4b80df198d)"><g clip-path="url(#75f86832e6)"><path fill="#d73745" d="M 0.0390625 0.300781 L 51.617188 0.300781 L 51.617188 51.875 L 0.0390625 51.875 Z M 0.0390625 0.300781 " fill-opacity="1" fill-rule="nonzero"/></g></g></g></g><g mask="url(#f90f717e82)"><g transform="matrix(1, 0, 0, 1, 67, 132)"><g clip-path="url(#9bcbfaee32)"><g clip-path="url(#4929a68d97)"><path fill="#964590" d="M 0.714844 0.300781 L 52.289062 0.300781 L 52.289062 51.875 L 0.714844 51.875 Z M 0.714844 0.300781 " fill-opacity="1" fill-rule="nonzero"/></g></g></g></g><g mask="url(#78496911b8)"><g transform="matrix(1, 0, 0, 1, 135, 132)"><g clip-path="url(#642dc6a23a)"><g clip-path="url(#874b2c3a73)"><path fill="#fac90a" d="M 0.386719 0.300781 L 51.960938 0.300781 L 51.960938 51.875 L 0.386719 51.875 Z M 0.386719 0.300781 " fill-opacity="1" fill-rule="nonzero"/></g></g></g></g><g clip-path="url(#1d4f06f9ff)"><path fill="#000000" d="M -0.96875 185.929688 L 1.167969 183.832031 L 3.261719 185.96875 L 1.128906 188.066406 M 3.304688 181.738281 L 5.4375 179.644531 L 7.535156 181.777344 L 5.398438 183.875 M 7.574219 177.546875 L 9.710938 175.453125 L 11.804688 177.585938 L 9.667969 179.683594 M 11.84375 173.355469 L 13.980469 171.261719 L 16.078125 173.394531 L 13.941406 175.492188 M 16.117188 169.164062 L 18.253906 167.070312 L 20.347656 169.203125 L 18.210938 171.300781 M 20.386719 164.972656 L 22.523438 162.878906 L 24.617188 165.015625 L 22.484375 167.109375 M 24.660156 160.78125 L 26.792969 158.6875 L 28.890625 160.824219 L 26.753906 162.917969 M 28.929688 156.589844 L 31.066406 154.496094 L 33.160156 156.632812 L 31.027344 158.726562 M 33.203125 152.398438 L 35.335938 150.304688 L 37.433594 152.441406 L 35.296875 154.535156 M 37.472656 148.210938 L 39.609375 146.113281 L 41.703125 148.25 L 39.566406 150.34375 M 41.742188 144.019531 L 43.878906 141.921875 L 45.976562 144.058594 L 43.839844 146.152344 M 46.015625 139.828125 L 48.152344 137.730469 L 50.246094 139.867188 L 48.109375 141.960938 M 50.285156 135.636719 L 52.421875 133.539062 L 54.515625 135.675781 L 52.382812 137.769531 M 54.558594 131.445312 L 56.691406 129.347656 L 58.789062 131.484375 L 56.652344 133.582031 M 58.828125 127.253906 L 60.964844 125.15625 L 63.058594 127.292969 L 60.925781 129.390625 M 63.101562 123.0625 L 65.234375 120.964844 L 67.332031 123.101562 L 65.195312 125.199219 M 67.371094 118.871094 L 69.507812 116.777344 L 71.601562 118.910156 L 69.464844 121.007812 M 71.640625 114.679688 L 73.777344 112.585938 L 75.875 114.71875 L 73.738281 116.816406 M 75.914062 110.488281 L 78.046875 108.394531 L 80.144531 110.527344 L 78.007812 112.625 M 80.183594 106.296875 L 82.320312 104.203125 L 84.414062 106.335938 L 82.28125 108.433594 M 84.457031 102.105469 L 86.589844 100.011719 L 88.6875 102.148438 L 86.550781 104.242188 M 88.726562 97.914062 L 90.863281 95.820312 L 92.957031 97.957031 L 90.824219 100.050781 M 92.996094 93.722656 L 95.132812 91.628906 L 97.230469 93.765625 L 95.09375 95.859375 M 97.269531 89.53125 L 99.40625 87.4375 L 101.5 89.574219 L 99.363281 91.667969 M 101.539062 85.34375 L 103.675781 83.246094 L 105.769531 85.382812 L 103.636719 87.476562 M 105.8125 81.152344 L 107.945312 79.054688 L 110.042969 81.191406 L 107.90625 83.285156 M 110.082031 76.960938 L 112.21875 74.863281 L 114.3125 77 L 112.179688 79.09375 M 114.355469 72.769531 L 116.488281 70.671875 L 118.585938 72.808594 L 116.449219 74.902344 M 118.625 68.578125 L 120.761719 66.480469 L 122.855469 68.617188 L 120.71875 70.710938 M 122.894531 64.386719 L 125.03125 62.289062 L 127.128906 64.425781 L 124.992188 66.523438 M 127.167969 60.195312 L 129.304688 58.097656 L 131.398438 60.234375 L 129.261719 62.332031 M 131.4375 56.003906 L 133.28125 54.195312 L 135.378906 56.332031 L 133.535156 58.140625 " fill-opacity="1" fill-rule="nonzero"/></g><path stroke-linecap="round" transform="matrix(0.533898, -0.523894, 0.523894, 0.533898, -0.968031, 185.929548)" fill="none" stroke-linejoin="round" d="M 243.452065 -4.001552 L 251.452084 1.997505 L 243.454778 8.000133 " stroke="#000000" stroke-width="4" stroke-opacity="1" stroke-miterlimit="4"/></svg>