<svg xmlns="http://www.w3.org/2000/svg" xmlns:xlink="http://www.w3.org/1999/xlink" width="250" zoomAndPan="magnify" viewBox="0 0 187.5 187.499992" height="250" preserveAspectRatio="xMidYMid meet" version="1.0"><defs><clipPath id="19f6ae615c"><path d="M 131.519531 136.292969 L 177.957031 136.292969 L 177.957031 182.730469 L 131.519531 182.730469 Z M 131.519531 136.292969 " clip-rule="nonzero"/></clipPath><clipPath id="96c597f5bb"><path d="M 70.875 136.292969 L 117.3125 136.292969 L 117.3125 182.730469 L 70.875 182.730469 Z M 70.875 136.292969 " clip-rule="nonzero"/></clipPath><clipPath id="a612848ce5"><path d="M 10.230469 136.292969 L 56.667969 136.292969 L 56.667969 182.730469 L 10.230469 182.730469 Z M 10.230469 136.292969 " clip-rule="nonzero"/></clipPath><clipPath id="33b592beca"><path d="M 66.390625 46.449219 L 112.839844 46.449219 L 112.839844 92.902344 L 66.390625 92.902344 Z M 66.390625 46.449219 " clip-rule="nonzero"/></clipPath><clipPath id="cd6e35a982"><path d="M 89.613281 46.449219 C 76.789062 46.449219 66.390625 56.847656 66.390625 69.675781 C 66.390625 82.503906 76.789062 92.902344 89.613281 92.902344 C 102.441406 92.902344 112.839844 82.503906 112.839844 69.675781 C 112.839844 56.847656 102.441406 46.449219 89.613281 46.449219 Z M 89.613281 46.449219 " clip-rule="nonzero"/></clipPath><clipPath id="08d6f868d0"><path d="M 127 23.226562 L 173.453125 23.226562 L 173.453125 69.675781 L 127 69.675781 Z M 127 23.226562 " clip-rule="nonzero"/></clipPath><clipPath id="235db7157d"><path d="M 150.226562 23.226562 C 137.398438 23.226562 127 33.625 127 46.449219 C 127 59.277344 137.398438 69.675781 150.226562 69.675781 C 163.054688 69.675781 173.453125 59.277344 173.453125 46.449219 C 173.453125 33.625 163.054688 23.226562 150.226562 23.226562 Z M 150.226562 23.226562 " clip-rule="nonzero"/></clipPath><clipPath id="aea809a93c"><path d="M 10.234375 70.273438 L 56.683594 70.273438 L 56.683594 116.726562 L 10.234375 116.726562 Z M 10.234375 70.273438 " clip-rule="nonzero"/></clipPath><clipPath id="7793b1083c"><path d="M 33.460938 70.273438 C 20.632812 70.273438 10.234375 80.671875 10.234375 93.5 C 10.234375 106.328125 20.632812 116.726562 33.460938 116.726562 C 46.285156 116.726562 56.683594 106.328125 56.683594 93.5 C 56.683594 80.671875 46.285156 70.273438 33.460938 70.273438 Z M 33.460938 70.273438 " clip-rule="nonzero"/></clipPath></defs><g clip-path="url(#19f6ae615c)"><path fill="#fac90a" d="M 177.957031 182.730469 L 131.519531 182.730469 L 131.519531 136.292969 L 177.957031 136.292969 Z M 177.957031 182.730469 " fill-opacity="1" fill-rule="nonzero"/></g><g clip-path="url(#96c597f5bb)"><path fill="#72c53c" d="M 117.3125 182.730469 L 70.875 182.730469 L 70.875 136.292969 L 117.3125 136.292969 Z M 117.3125 182.730469 " fill-opacity="1" fill-rule="nonzero"/></g><g clip-path="url(#a612848ce5)"><path fill="#964590" d="M 56.667969 182.730469 L 10.230469 182.730469 L 10.230469 136.292969 L 56.667969 136.292969 Z M 56.667969 182.730469 " fill-opacity="1" fill-rule="nonzero"/></g><g clip-path="url(#33b592beca)"><g clip-path="url(#cd6e35a982)"><path fill="#fac90a" d="M 66.390625 46.449219 L 112.839844 46.449219 L 112.839844 92.902344 L 66.390625 92.902344 Z M 66.390625 46.449219 " fill-opacity="1" fill-rule="nonzero"/></g></g><path fill="#fac90a" d="M 107.980469 68.179688 L 110.972656 68.179688 L 110.972656 71.171875 L 107.980469 71.171875 M 113.964844 68.179688 L 116.957031 68.179688 L 116.957031 71.171875 L 113.964844 71.171875 M 119.949219 68.179688 L 120.679688 68.179688 L 120.679688 71.171875 L 119.949219 71.171875 " fill-opacity="1" fill-rule="nonzero"/><path stroke-linecap="round" transform="matrix(0.748005, 0, 0, 0.748005, 107.981619, 68.180672)" fill="none" stroke-linejoin="round" d="M 8.975463 -4.001539 L 16.975908 1.998795 L 8.975463 7.999129 " stroke="#fac90a" stroke-width="4" stroke-opacity="1" stroke-miterlimit="4"/><g clip-path="url(#08d6f868d0)"><g clip-path="url(#235db7157d)"><path fill="#d73745" d="M 127 23.226562 L 173.453125 23.226562 L 173.453125 69.675781 L 127 69.675781 Z M 127 23.226562 " fill-opacity="1" fill-rule="nonzero"/></g></g><path fill="#d73745" d="M 168.289062 43.460938 L 171.28125 43.460938 L 171.28125 46.449219 L 168.289062 46.449219 M 174.273438 43.460938 L 177.261719 43.460938 L 177.261719 46.449219 L 174.273438 46.449219 M 180.253906 43.460938 L 180.984375 43.460938 L 180.984375 46.449219 L 180.253906 46.449219 " fill-opacity="1" fill-rule="nonzero"/><path stroke-linecap="round" transform="matrix(0.748005, 0, 0, 0.748005, 168.287541, 43.459105)" fill="none" stroke-linejoin="round" d="M 8.973813 -3.997773 L 16.974258 2.002561 L 8.973813 7.997672 " stroke="#d73745" stroke-width="4" stroke-opacity="1" stroke-miterlimit="4"/><g clip-path="url(#aea809a93c)"><g clip-path="url(#7793b1083c)"><path fill="#72c53c" d="M 10.234375 70.273438 L 56.683594 70.273438 L 56.683594 116.726562 L 10.234375 116.726562 Z M 10.234375 70.273438 " fill-opacity="1" fill-rule="nonzero"/></g></g><path fill="#72c53c" d="M 52.195312 93.5 L 55.1875 93.5 L 55.1875 96.492188 L 52.195312 96.492188 M 58.179688 93.5 L 61.171875 93.5 L 61.171875 96.492188 L 58.179688 96.492188 M 64.164062 93.5 L 64.894531 93.5 L 64.894531 96.492188 L 64.164062 96.492188 " fill-opacity="1" fill-rule="nonzero"/><path stroke-linecap="round" transform="matrix(0.748005, 0, 0, 0.748005, 52.196826, 93.500657)" fill="none" stroke-linejoin="round" d="M 8.974978 -4.001101 L 16.975423 1.999233 L 8.974978 7.999567 " stroke="#72c53c" stroke-width="4" stroke-opacity="1" stroke-miterlimit="4"/></svg>