<svg xmlns="http://www.w3.org/2000/svg" xmlns:xlink="http://www.w3.org/1999/xlink" width="250" zoomAndPan="magnify" viewBox="0 0 187.5 187.499992" height="250" preserveAspectRatio="xMidYMid meet" version="1.0"><defs><clipPath id="393c127b10"><path d="M 68.574219 68.574219 L 118.425781 68.574219 L 118.425781 118.425781 L 68.574219 118.425781 Z M 68.574219 68.574219 " clip-rule="nonzero"/></clipPath><clipPath id="3d0b2068df"><path d="M 93 68.574219 L 95 68.574219 L 95 85 L 93 85 Z M 93 68.574219 " clip-rule="nonzero"/></clipPath><clipPath id="8ab5bf151f"><path d="M 68.574219 93 L 84 93 L 84 95 L 68.574219 95 Z M 68.574219 93 " clip-rule="nonzero"/></clipPath><clipPath id="80b4a0960e"><path d="M 93 103 L 95 103 L 95 118.691406 L 93 118.691406 Z M 93 103 " clip-rule="nonzero"/></clipPath><clipPath id="9570d965ca"><path d="M 103 93 L 118.691406 93 L 118.691406 95 L 103 95 Z M 103 93 " clip-rule="nonzero"/></clipPath></defs><g clip-path="url(#393c127b10)"><path fill="#fac90a" d="M 68.574219 68.574219 L 118.425781 68.574219 L 118.425781 118.425781 L 68.574219 118.425781 Z M 68.574219 68.574219 " fill-opacity="1" fill-rule="nonzero"/></g><path fill="#1e1e1e" d="M 83.003906 88.632812 C 82.675781 88.632812 82.410156 88.371094 82.410156 88.042969 L 82.410156 83.003906 C 82.410156 82.675781 82.675781 82.410156 83.003906 82.410156 L 88.042969 82.410156 C 88.371094 82.410156 88.632812 82.675781 88.632812 83.003906 C 88.632812 83.328125 88.371094 83.59375 88.042969 83.59375 L 83.59375 83.59375 L 83.59375 88.042969 C 83.59375 88.371094 83.328125 88.632812 83.003906 88.632812 " fill-opacity="1" fill-rule="nonzero"/><path fill="#1e1e1e" d="M 104.265625 88.632812 C 103.9375 88.632812 103.671875 88.371094 103.671875 88.042969 L 103.671875 83.59375 L 99.222656 83.59375 C 98.898438 83.59375 98.632812 83.328125 98.632812 83.003906 C 98.632812 82.675781 98.898438 82.410156 99.222656 82.410156 L 104.265625 82.410156 C 104.589844 82.410156 104.855469 82.675781 104.855469 83.003906 L 104.855469 88.042969 C 104.855469 88.371094 104.589844 88.632812 104.265625 88.632812 " fill-opacity="1" fill-rule="nonzero"/><path fill="#1e1e1e" d="M 88.042969 104.855469 L 83.003906 104.855469 C 82.675781 104.855469 82.410156 104.589844 82.410156 104.265625 L 82.410156 99.222656 C 82.410156 98.898438 82.675781 98.632812 83.003906 98.632812 C 83.328125 98.632812 83.59375 98.898438 83.59375 99.222656 L 83.59375 103.671875 L 88.042969 103.671875 C 88.371094 103.671875 88.632812 103.9375 88.632812 104.265625 C 88.632812 104.589844 88.371094 104.855469 88.042969 104.855469 " fill-opacity="1" fill-rule="nonzero"/><path fill="#1e1e1e" d="M 104.265625 104.855469 L 99.222656 104.855469 C 98.898438 104.855469 98.632812 104.589844 98.632812 104.265625 C 98.632812 103.9375 98.898438 103.671875 99.222656 103.671875 L 103.671875 103.671875 L 103.671875 99.222656 C 103.671875 98.898438 103.9375 98.632812 104.265625 98.632812 C 104.589844 98.632812 104.855469 98.898438 104.855469 99.222656 L 104.855469 104.265625 C 104.855469 104.589844 104.589844 104.855469 104.265625 104.855469 " fill-opacity="1" fill-rule="nonzero"/><path fill="#1e1e1e" d="M 93.632812 74.820312 C 83.257812 74.820312 74.820312 83.257812 74.820312 93.632812 C 74.820312 104.007812 83.257812 112.449219 93.632812 112.449219 C 104.007812 112.449219 112.449219 104.007812 112.449219 93.632812 C 112.449219 83.257812 104.007812 74.820312 93.632812 74.820312 Z M 93.632812 113.628906 C 82.605469 113.628906 73.636719 104.660156 73.636719 93.632812 C 73.636719 82.605469 82.605469 73.636719 93.632812 73.636719 C 104.660156 73.636719 113.628906 82.605469 113.628906 93.632812 C 113.628906 104.660156 104.660156 113.628906 93.632812 113.628906 " fill-opacity="1" fill-rule="nonzero"/><g clip-path="url(#3d0b2068df)"><path fill="#1e1e1e" d="M 93.632812 84.019531 C 93.308594 84.019531 93.042969 83.757812 93.042969 83.429688 L 93.042969 69.164062 C 93.042969 68.839844 93.308594 68.574219 93.632812 68.574219 C 93.957031 68.574219 94.222656 68.839844 94.222656 69.164062 L 94.222656 83.429688 C 94.222656 83.757812 93.957031 84.019531 93.632812 84.019531 " fill-opacity="1" fill-rule="nonzero"/></g><g clip-path="url(#8ab5bf151f)"><path fill="#1e1e1e" d="M 83.003906 94.222656 L 69.164062 94.222656 C 68.839844 94.222656 68.574219 93.960938 68.574219 93.632812 C 68.574219 93.308594 68.839844 93.042969 69.164062 93.042969 L 83.003906 93.042969 C 83.328125 93.042969 83.59375 93.308594 83.59375 93.632812 C 83.59375 93.960938 83.328125 94.222656 83.003906 94.222656 " fill-opacity="1" fill-rule="nonzero"/></g><g clip-path="url(#80b4a0960e)"><path fill="#1e1e1e" d="M 93.632812 118.691406 C 93.308594 118.691406 93.042969 118.425781 93.042969 118.101562 L 93.042969 104.265625 C 93.042969 103.9375 93.308594 103.671875 93.632812 103.671875 C 93.957031 103.671875 94.222656 103.9375 94.222656 104.265625 L 94.222656 118.101562 C 94.222656 118.425781 93.957031 118.691406 93.632812 118.691406 " fill-opacity="1" fill-rule="nonzero"/></g><g clip-path="url(#9570d965ca)"><path fill="#1e1e1e" d="M 118.101562 94.222656 L 104.265625 94.222656 C 103.9375 94.222656 103.671875 93.960938 103.671875 93.632812 C 103.671875 93.308594 103.9375 93.042969 104.265625 93.042969 L 118.101562 93.042969 C 118.425781 93.042969 118.691406 93.308594 118.691406 93.632812 C 118.691406 93.960938 118.425781 94.222656 118.101562 94.222656 " fill-opacity="1" fill-rule="nonzero"/></g></svg>